<svg width="511" height="169" viewBox="0 0 511 169" fill="none" xmlns="http://www.w3.org/2000/svg">
<g filter="url(#filter0_d_797_505)">
<mask id="path-1-outside-1_797_505" maskUnits="userSpaceOnUse" x="3.47266" y="-0.432373" width="503" height="162" fill="black">
<rect fill="white" x="3.47266" y="-0.432373" width="503" height="162"/>
<path d="M56.0508 41.9543C55.0299 45.6549 54.1367 49.2916 53.3711 52.8645L51.2656 63.3918L81.8906 56.884L80.168 83.2981C65.6211 85.8502 54.2005 88.0833 45.9062 89.9973C45.3958 92.5494 44.9492 95.1015 44.5664 97.6536L43.2266 105.118L78.8281 99.9504L76.3398 135.552C57.9648 137.083 34.6771 141.486 6.47656 148.759L29.2539 11.5208L92.9922 2.33325L90.5039 37.7434C77.9987 38.8918 66.5143 40.2955 56.0508 41.9543ZM186.919 7.30981C171.734 48.9088 158.144 93.5064 146.15 141.103L95.2355 150.29C98.4256 132.17 100.403 110.095 101.169 84.0637C101.552 61.8606 101.935 39.6575 102.317 17.4543L140.599 8.84106L124.138 130.958H124.329L152.275 13.6262L186.919 7.30981ZM214.619 41.9543C213.599 45.6549 212.705 49.2916 211.94 52.8645L209.834 63.3918L240.459 56.884L238.737 83.2981C224.19 85.8502 212.769 88.0833 204.475 89.9973C203.964 92.5494 203.518 95.1015 203.135 97.6536L201.795 105.118L237.397 99.9504L234.908 135.552C216.533 137.083 193.246 141.486 165.045 148.759L187.822 11.5208L251.561 2.33325L249.072 37.7434C236.567 38.8918 225.083 40.2955 214.619 41.9543ZM266.2 14.009L299.313 7.30981C299.058 11.2655 298.93 16.8801 298.93 24.1536C298.93 41.5077 299.504 56.7564 300.653 69.8997C301.291 77.4283 302.248 83.4895 303.524 88.0833L316.539 13.4348L349.461 7.30981C336.19 58.4791 327.513 102.822 323.43 140.337L293.188 148.759C293.06 148.504 292.231 146.271 290.7 142.06L280.746 113.732C279.088 109.138 278.131 106.203 277.875 104.927C275.196 119.984 273.09 134.595 271.559 148.759L240.934 157.947L266.2 14.009ZM429.798 5.39575L428.65 40.9973C419.718 41.5077 411.232 42.1458 403.193 42.9114C394.771 78.2577 389.093 110.733 386.158 140.337L353.81 148.759L371.419 46.9309C367.974 47.4413 364.529 48.0155 361.083 48.6536L350.939 50.5676L348.642 14.7747L429.798 5.39575ZM503.245 47.3137C499.161 48.845 494.312 50.6952 488.698 52.8645L474.342 58.4153C474.342 52.4179 472.683 49.4192 469.366 49.4192C464.644 49.4192 459.923 52.0989 455.202 57.4583C451.884 61.414 450.48 65.2421 450.991 68.9426C451.374 71.3671 453.798 72.5793 458.264 72.5793C460.689 72.5793 463.879 72.1965 467.835 71.4309C473.322 70.2825 478.17 69.7083 482.381 69.7083C493.1 69.7083 499.353 73.4088 501.139 80.8098C501.65 83.1067 501.905 85.5312 501.905 88.0833C501.905 96.2499 498.842 105.055 492.717 114.497C484.806 126.875 473.704 137.275 459.413 145.697C451.884 150.163 444.483 152.396 437.21 152.396C430.574 152.396 424.066 150.545 417.686 146.845C420.876 139.189 425.98 127.896 432.999 112.966C437.082 115.773 441.42 117.177 446.014 117.177C448.056 117.177 450.161 116.858 452.331 116.22C456.286 115.199 460.051 113.732 463.624 111.818C468.728 109.01 471.28 106.139 471.28 103.204C471.28 100.014 468.664 98.4192 463.432 98.4192C459.859 98.4192 454.628 99.1848 447.737 100.716C440.974 102.12 435.806 102.822 432.233 102.822C427.512 102.822 423.875 101.928 421.323 100.142C416.346 96.8241 414.305 91.6562 415.198 84.6379C416.857 70.4739 425.98 54.0767 442.569 35.4465C459.54 16.3059 474.151 6.28898 486.401 5.39575C498.268 4.63013 504.202 13.5624 504.202 32.1926C504.202 36.6588 503.883 41.6991 503.245 47.3137Z"/>
</mask>
<path d="M56.0508 41.9543C55.0299 45.6549 54.1367 49.2916 53.3711 52.8645L51.2656 63.3918L81.8906 56.884L80.168 83.2981C65.6211 85.8502 54.2005 88.0833 45.9062 89.9973C45.3958 92.5494 44.9492 95.1015 44.5664 97.6536L43.2266 105.118L78.8281 99.9504L76.3398 135.552C57.9648 137.083 34.6771 141.486 6.47656 148.759L29.2539 11.5208L92.9922 2.33325L90.5039 37.7434C77.9987 38.8918 66.5143 40.2955 56.0508 41.9543ZM186.919 7.30981C171.734 48.9088 158.144 93.5064 146.15 141.103L95.2355 150.29C98.4256 132.17 100.403 110.095 101.169 84.0637C101.552 61.8606 101.935 39.6575 102.317 17.4543L140.599 8.84106L124.138 130.958H124.329L152.275 13.6262L186.919 7.30981ZM214.619 41.9543C213.599 45.6549 212.705 49.2916 211.94 52.8645L209.834 63.3918L240.459 56.884L238.737 83.2981C224.19 85.8502 212.769 88.0833 204.475 89.9973C203.964 92.5494 203.518 95.1015 203.135 97.6536L201.795 105.118L237.397 99.9504L234.908 135.552C216.533 137.083 193.246 141.486 165.045 148.759L187.822 11.5208L251.561 2.33325L249.072 37.7434C236.567 38.8918 225.083 40.2955 214.619 41.9543ZM266.2 14.009L299.313 7.30981C299.058 11.2655 298.93 16.8801 298.93 24.1536C298.93 41.5077 299.504 56.7564 300.653 69.8997C301.291 77.4283 302.248 83.4895 303.524 88.0833L316.539 13.4348L349.461 7.30981C336.19 58.4791 327.513 102.822 323.43 140.337L293.188 148.759C293.06 148.504 292.231 146.271 290.7 142.06L280.746 113.732C279.088 109.138 278.131 106.203 277.875 104.927C275.196 119.984 273.09 134.595 271.559 148.759L240.934 157.947L266.2 14.009ZM429.798 5.39575L428.65 40.9973C419.718 41.5077 411.232 42.1458 403.193 42.9114C394.771 78.2577 389.093 110.733 386.158 140.337L353.81 148.759L371.419 46.9309C367.974 47.4413 364.529 48.0155 361.083 48.6536L350.939 50.5676L348.642 14.7747L429.798 5.39575ZM503.245 47.3137C499.161 48.845 494.312 50.6952 488.698 52.8645L474.342 58.4153C474.342 52.4179 472.683 49.4192 469.366 49.4192C464.644 49.4192 459.923 52.0989 455.202 57.4583C451.884 61.414 450.48 65.2421 450.991 68.9426C451.374 71.3671 453.798 72.5793 458.264 72.5793C460.689 72.5793 463.879 72.1965 467.835 71.4309C473.322 70.2825 478.17 69.7083 482.381 69.7083C493.1 69.7083 499.353 73.4088 501.139 80.8098C501.65 83.1067 501.905 85.5312 501.905 88.0833C501.905 96.2499 498.842 105.055 492.717 114.497C484.806 126.875 473.704 137.275 459.413 145.697C451.884 150.163 444.483 152.396 437.21 152.396C430.574 152.396 424.066 150.545 417.686 146.845C420.876 139.189 425.98 127.896 432.999 112.966C437.082 115.773 441.42 117.177 446.014 117.177C448.056 117.177 450.161 116.858 452.331 116.22C456.286 115.199 460.051 113.732 463.624 111.818C468.728 109.01 471.28 106.139 471.28 103.204C471.28 100.014 468.664 98.4192 463.432 98.4192C459.859 98.4192 454.628 99.1848 447.737 100.716C440.974 102.12 435.806 102.822 432.233 102.822C427.512 102.822 423.875 101.928 421.323 100.142C416.346 96.8241 414.305 91.6562 415.198 84.6379C416.857 70.4739 425.98 54.0767 442.569 35.4465C459.54 16.3059 474.151 6.28898 486.401 5.39575C498.268 4.63013 504.202 13.5624 504.202 32.1926C504.202 36.6588 503.883 41.6991 503.245 47.3137Z" fill="#FFCB01"/>
<path d="M56.0508 41.9543L55.7376 39.979L54.4654 40.1807L54.1228 41.4225L56.0508 41.9543ZM53.3711 52.8645L51.4155 52.4454L51.4126 52.4588L51.4099 52.4723L53.3711 52.8645ZM51.2656 63.3918L49.3045 62.9996L48.7084 65.9799L51.6813 65.3482L51.2656 63.3918ZM81.8906 56.884L83.8864 57.0142L84.0583 54.3788L81.4749 54.9277L81.8906 56.884ZM80.168 83.2981L80.5136 85.268L82.0615 84.9965L82.1637 83.4283L80.168 83.2981ZM45.9062 89.9973L45.4565 88.0485L44.1983 88.3389L43.9451 89.6051L45.9062 89.9973ZM44.5664 97.6536L46.5349 98.0069L46.54 97.9786L46.5443 97.9502L44.5664 97.6536ZM43.2266 105.118L41.258 104.765L40.7678 107.496L43.5139 107.098L43.2266 105.118ZM78.8281 99.9504L80.8233 100.09L80.9963 97.6147L78.5408 97.9712L78.8281 99.9504ZM76.3398 135.552L76.5059 137.545L78.2154 137.403L78.335 135.691L76.3398 135.552ZM6.47656 148.759L4.50355 148.432L4.00041 151.463L6.97605 150.696L6.47656 148.759ZM29.2539 11.5208L28.9686 9.54121L27.5204 9.74995L27.2809 11.1933L29.2539 11.5208ZM92.9922 2.33325L94.9873 2.47345L95.1611 -4.57764e-05L92.7068 0.353714L92.9922 2.33325ZM90.5039 37.7434L90.6868 39.735L92.3798 39.5795L92.499 37.8836L90.5039 37.7434ZM56.0508 41.9543L54.1228 41.4225C53.0922 45.1585 52.1896 48.8328 51.4155 52.4454L53.3711 52.8645L55.3267 53.2836C56.0838 49.7504 56.9677 46.1513 57.9788 42.4862L56.0508 41.9543ZM53.3711 52.8645L51.4099 52.4723L49.3045 62.9996L51.2656 63.3918L53.2268 63.7841L55.3323 53.2567L53.3711 52.8645ZM51.2656 63.3918L51.6813 65.3482L82.3063 58.8403L81.8906 56.884L81.4749 54.9277L50.8499 61.4355L51.2656 63.3918ZM81.8906 56.884L79.8949 56.7539L78.1722 83.1679L80.168 83.2981L82.1637 83.4283L83.8864 57.0142L81.8906 56.884ZM80.168 83.2981L79.8224 81.3282C65.2619 83.8827 53.8014 86.1228 45.4565 88.0485L45.9062 89.9973L46.356 91.9461C54.5997 90.0437 65.9803 87.8177 80.5136 85.268L80.168 83.2981ZM45.9062 89.9973L43.9451 89.6051C43.4284 92.1886 42.9762 94.7726 42.5885 97.3569L44.5664 97.6536L46.5443 97.9502C46.9223 95.4304 47.3633 92.9102 47.8674 90.3895L45.9062 89.9973ZM44.5664 97.6536L42.5979 97.3002L41.258 104.765L43.2266 105.118L45.1951 105.472L46.5349 98.0069L44.5664 97.6536ZM43.2266 105.118L43.5139 107.098L79.1154 101.93L78.8281 99.9504L78.5408 97.9712L42.9393 103.139L43.2266 105.118ZM78.8281 99.9504L76.833 99.811L74.3447 135.413L76.3398 135.552L78.335 135.691L80.8233 100.09L78.8281 99.9504ZM76.3398 135.552L76.1738 133.559C57.6411 135.103 34.232 139.535 5.97707 146.822L6.47656 148.759L6.97605 150.696C35.1222 143.436 58.2886 139.063 76.5059 137.545L76.3398 135.552ZM6.47656 148.759L8.44957 149.086L31.2269 11.8482L29.2539 11.5208L27.2809 11.1933L4.50355 148.432L6.47656 148.759ZM29.2539 11.5208L29.5392 13.5003L93.2775 4.31279L92.9922 2.33325L92.7068 0.353714L28.9686 9.54121L29.2539 11.5208ZM92.9922 2.33325L90.9971 2.19305L88.5088 37.6032L90.5039 37.7434L92.499 37.8836L94.9873 2.47345L92.9922 2.33325ZM90.5039 37.7434L90.321 35.7518C77.7799 36.9035 66.2514 38.3122 55.7376 39.979L56.0508 41.9543L56.3639 43.9297C66.7772 42.2788 78.2175 40.8802 90.6868 39.735L90.5039 37.7434ZM186.919 7.30981L188.798 7.99562L189.995 4.71605L186.56 5.34225L186.919 7.30981ZM146.15 141.103L146.505 143.071L147.774 142.842L148.089 141.592L146.15 141.103ZM95.2355 150.29L93.2658 149.943L92.7685 152.768L95.5906 152.258L95.2355 150.29ZM101.169 84.0637L103.168 84.1225L103.169 84.1104L103.169 84.0982L101.169 84.0637ZM102.317 17.4543L101.878 15.5031L100.345 15.8482L100.318 17.4199L102.317 17.4543ZM140.599 8.84106L142.581 9.10825L142.965 6.25867L140.16 6.88985L140.599 8.84106ZM124.138 130.958L122.156 130.691L121.85 132.958H124.138V130.958ZM124.329 130.958V132.958H125.909L126.275 131.422L124.329 130.958ZM152.275 13.6262L151.916 11.6587L150.631 11.8928L150.329 13.1628L152.275 13.6262ZM186.919 7.30981L185.04 6.62401C169.829 48.2941 156.22 92.9581 144.21 140.614L146.15 141.103L148.089 141.592C160.069 94.0548 173.639 49.5235 188.798 7.99562L186.919 7.30981ZM146.15 141.103L145.794 139.135L94.8803 148.322L95.2355 150.29L95.5906 152.258L146.505 143.071L146.15 141.103ZM95.2355 150.29L97.2052 150.637C100.417 132.392 102.401 110.214 103.168 84.1225L101.169 84.0637L99.1699 84.0049C98.4061 109.976 96.4338 131.949 93.2658 149.943L95.2355 150.29ZM101.169 84.0637L103.169 84.0982C103.17 84.0548 103.17 84.0115 103.171 83.9681C103.172 83.9247 103.173 83.8814 103.173 83.838C103.174 83.7946 103.175 83.7513 103.175 83.7079C103.176 83.6645 103.177 83.6212 103.178 83.5778C103.178 83.5344 103.179 83.4911 103.18 83.4477C103.181 83.4044 103.181 83.361 103.182 83.3176C103.183 83.2743 103.184 83.2309 103.184 83.1875C103.185 83.1442 103.186 83.1008 103.187 83.0574C103.187 83.0141 103.188 82.9707 103.189 82.9273C103.19 82.884 103.19 82.8406 103.191 82.7972C103.192 82.7539 103.193 82.7105 103.193 82.6671C103.194 82.6238 103.195 82.5804 103.196 82.537C103.196 82.4937 103.197 82.4503 103.198 82.4069C103.199 82.3636 103.199 82.3202 103.2 82.2768C103.201 82.2335 103.202 82.1901 103.202 82.1468C103.203 82.1034 103.204 82.06 103.205 82.0167C103.205 81.9733 103.206 81.9299 103.207 81.8866C103.208 81.8432 103.208 81.7998 103.209 81.7565C103.21 81.7131 103.211 81.6697 103.211 81.6264C103.212 81.583 103.213 81.5396 103.214 81.4963C103.214 81.4529 103.215 81.4095 103.216 81.3662C103.217 81.3228 103.217 81.2794 103.218 81.2361C103.219 81.1927 103.22 81.1493 103.22 81.106C103.221 81.0626 103.222 81.0192 103.223 80.9759C103.223 80.9325 103.224 80.8892 103.225 80.8458C103.226 80.8024 103.226 80.7591 103.227 80.7157C103.228 80.6723 103.229 80.629 103.229 80.5856C103.23 80.5422 103.231 80.4989 103.232 80.4555C103.232 80.4121 103.233 80.3688 103.234 80.3254C103.235 80.282 103.235 80.2387 103.236 80.1953C103.237 80.1519 103.238 80.1086 103.238 80.0652C103.239 80.0218 103.24 79.9785 103.241 79.9351C103.241 79.8917 103.242 79.8484 103.243 79.805C103.244 79.7617 103.244 79.7183 103.245 79.6749C103.246 79.6316 103.247 79.5882 103.247 79.5448C103.248 79.5015 103.249 79.4581 103.25 79.4147C103.25 79.3714 103.251 79.328 103.252 79.2846C103.253 79.2413 103.253 79.1979 103.254 79.1545C103.255 79.1112 103.255 79.0678 103.256 79.0244C103.257 78.9811 103.258 78.9377 103.258 78.8943C103.259 78.851 103.26 78.8076 103.261 78.7642C103.261 78.7209 103.262 78.6775 103.263 78.6341C103.264 78.5908 103.264 78.5474 103.265 78.5041C103.266 78.4607 103.267 78.4173 103.267 78.374C103.268 78.3306 103.269 78.2872 103.27 78.2439C103.27 78.2005 103.271 78.1571 103.272 78.1138C103.273 78.0704 103.273 78.027 103.274 77.9837C103.275 77.9403 103.276 77.8969 103.276 77.8536C103.277 77.8102 103.278 77.7668 103.279 77.7235C103.279 77.6801 103.28 77.6367 103.281 77.5934C103.282 77.55 103.282 77.5066 103.283 77.4633C103.284 77.4199 103.285 77.3765 103.285 77.3332C103.286 77.2898 103.287 77.2465 103.288 77.2031C103.288 77.1597 103.289 77.1164 103.29 77.073C103.291 77.0296 103.291 76.9863 103.292 76.9429C103.293 76.8995 103.294 76.8562 103.294 76.8128C103.295 76.7694 103.296 76.7261 103.297 76.6827C103.297 76.6393 103.298 76.596 103.299 76.5526C103.3 76.5092 103.3 76.4659 103.301 76.4225C103.302 76.3791 103.303 76.3358 103.303 76.2924C103.304 76.249 103.305 76.2057 103.306 76.1623C103.306 76.1189 103.307 76.0756 103.308 76.0322C103.309 75.9889 103.309 75.9455 103.31 75.9021C103.311 75.8588 103.312 75.8154 103.312 75.772C103.313 75.7287 103.314 75.6853 103.315 75.6419C103.315 75.5986 103.316 75.5552 103.317 75.5118C103.318 75.4685 103.318 75.4251 103.319 75.3817C103.32 75.3384 103.321 75.295 103.321 75.2516C103.322 75.2083 103.323 75.1649 103.324 75.1215C103.324 75.0782 103.325 75.0348 103.326 74.9914C103.327 74.9481 103.327 74.9047 103.328 74.8614C103.329 74.818 103.33 74.7746 103.33 74.7313C103.331 74.6879 103.332 74.6445 103.333 74.6012C103.333 74.5578 103.334 74.5144 103.335 74.4711C103.335 74.4277 103.336 74.3843 103.337 74.341C103.338 74.2976 103.338 74.2542 103.339 74.2109C103.34 74.1675 103.341 74.1241 103.341 74.0808C103.342 74.0374 103.343 73.994 103.344 73.9507C103.344 73.9073 103.345 73.8639 103.346 73.8206C103.347 73.7772 103.347 73.7338 103.348 73.6905C103.349 73.6471 103.35 73.6038 103.35 73.5604C103.351 73.517 103.352 73.4737 103.353 73.4303C103.353 73.3869 103.354 73.3436 103.355 73.3002C103.356 73.2568 103.356 73.2135 103.357 73.1701C103.358 73.1267 103.359 73.0834 103.359 73.04C103.36 72.9966 103.361 72.9533 103.362 72.9099C103.362 72.8665 103.363 72.8232 103.364 72.7798C103.365 72.7364 103.365 72.6931 103.366 72.6497C103.367 72.6063 103.368 72.563 103.368 72.5196C103.369 72.4762 103.37 72.4329 103.371 72.3895C103.371 72.3462 103.372 72.3028 103.373 72.2594C103.374 72.2161 103.374 72.1727 103.375 72.1293C103.376 72.086 103.377 72.0426 103.377 71.9992C103.378 71.9559 103.379 71.9125 103.38 71.8691C103.38 71.8258 103.381 71.7824 103.382 71.739C103.383 71.6957 103.383 71.6523 103.384 71.6089C103.385 71.5656 103.386 71.5222 103.386 71.4788C103.387 71.4355 103.388 71.3921 103.389 71.3487C103.389 71.3054 103.39 71.262 103.391 71.2187C103.392 71.1753 103.392 71.1319 103.393 71.0886C103.394 71.0452 103.395 71.0018 103.395 70.9585C103.396 70.9151 103.397 70.8717 103.398 70.8284C103.398 70.785 103.399 70.7416 103.4 70.6983C103.401 70.6549 103.401 70.6115 103.402 70.5682C103.403 70.5248 103.404 70.4814 103.404 70.4381C103.405 70.3947 103.406 70.3513 103.407 70.308C103.407 70.2646 103.408 70.2212 103.409 70.1779C103.41 70.1345 103.41 70.0911 103.411 70.0478C103.412 70.0044 103.413 69.9611 103.413 69.9177C103.414 69.8743 103.415 69.831 103.415 69.7876C103.416 69.7442 103.417 69.7009 103.418 69.6575C103.418 69.6141 103.419 69.5708 103.42 69.5274C103.421 69.484 103.421 69.4407 103.422 69.3973C103.423 69.3539 103.424 69.3106 103.424 69.2672C103.425 69.2238 103.426 69.1805 103.427 69.1371C103.427 69.0937 103.428 69.0504 103.429 69.007C103.43 68.9636 103.43 68.9203 103.431 68.8769C103.432 68.8335 103.433 68.7902 103.433 68.7468C103.434 68.7035 103.435 68.6601 103.436 68.6167C103.436 68.5734 103.437 68.53 103.438 68.4866C103.439 68.4433 103.439 68.3999 103.44 68.3565C103.441 68.3132 103.442 68.2698 103.442 68.2264C103.443 68.1831 103.444 68.1397 103.445 68.0963C103.445 68.053 103.446 68.0096 103.447 67.9662C103.448 67.9229 103.448 67.8795 103.449 67.8361C103.45 67.7928 103.451 67.7494 103.451 67.706C103.452 67.6627 103.453 67.6193 103.454 67.576C103.454 67.5326 103.455 67.4892 103.456 67.4459C103.457 67.4025 103.457 67.3591 103.458 67.3158C103.459 67.2724 103.46 67.229 103.46 67.1857C103.461 67.1423 103.462 67.0989 103.463 67.0556C103.463 67.0122 103.464 66.9688 103.465 66.9255C103.466 66.8821 103.466 66.8387 103.467 66.7954C103.468 66.752 103.469 66.7086 103.469 66.6653C103.47 66.6219 103.471 66.5785 103.472 66.5352C103.472 66.4918 103.473 66.4484 103.474 66.4051C103.475 66.3617 103.475 66.3184 103.476 66.275C103.477 66.2316 103.478 66.1883 103.478 66.1449C103.479 66.1015 103.48 66.0582 103.481 66.0148C103.481 65.9714 103.482 65.9281 103.483 65.8847C103.484 65.8413 103.484 65.798 103.485 65.7546C103.486 65.7112 103.487 65.6679 103.487 65.6245C103.488 65.5811 103.489 65.5378 103.49 65.4944C103.49 65.451 103.491 65.4077 103.492 65.3643C103.493 65.3209 103.493 65.2776 103.494 65.2342C103.495 65.1908 103.495 65.1475 103.496 65.1041C103.497 65.0608 103.498 65.0174 103.498 64.974C103.499 64.9307 103.5 64.8873 103.501 64.8439C103.501 64.8006 103.502 64.7572 103.503 64.7138C103.504 64.6705 103.504 64.6271 103.505 64.5837C103.506 64.5404 103.507 64.497 103.507 64.4536C103.508 64.4103 103.509 64.3669 103.51 64.3235C103.51 64.2802 103.511 64.2368 103.512 64.1934C103.513 64.1501 103.513 64.1067 103.514 64.0633C103.515 64.02 103.516 63.9766 103.516 63.9333C103.517 63.8899 103.518 63.8465 103.519 63.8032C103.519 63.7598 103.52 63.7164 103.521 63.6731C103.522 63.6297 103.522 63.5863 103.523 63.543C103.524 63.4996 103.525 63.4562 103.525 63.4129C103.526 63.3695 103.527 63.3261 103.528 63.2828C103.528 63.2394 103.529 63.196 103.53 63.1527C103.531 63.1093 103.531 63.0659 103.532 63.0226C103.533 62.9792 103.534 62.9358 103.534 62.8925C103.535 62.8491 103.536 62.8057 103.537 62.7624C103.537 62.719 103.538 62.6757 103.539 62.6323C103.54 62.5889 103.54 62.5456 103.541 62.5022C103.542 62.4588 103.543 62.4155 103.543 62.3721C103.544 62.3287 103.545 62.2854 103.546 62.242C103.546 62.1986 103.547 62.1553 103.548 62.1119C103.549 62.0685 103.549 62.0252 103.55 61.9818C103.551 61.9384 103.552 61.8951 103.552 61.8517C103.553 61.8083 103.554 61.765 103.555 61.7216C103.555 61.6782 103.556 61.6349 103.557 61.5915C103.558 61.5481 103.558 61.5048 103.559 61.4614C103.56 61.4181 103.561 61.3747 103.561 61.3313C103.562 61.288 103.563 61.2446 103.564 61.2012C103.564 61.1579 103.565 61.1145 103.566 61.0711C103.567 61.0278 103.567 60.9844 103.568 60.941C103.569 60.8977 103.57 60.8543 103.57 60.8109C103.571 60.7676 103.572 60.7242 103.573 60.6808C103.573 60.6375 103.574 60.5941 103.575 60.5507C103.576 60.5074 103.576 60.464 103.577 60.4206C103.578 60.3773 103.578 60.3339 103.579 60.2906C103.58 60.2472 103.581 60.2038 103.581 60.1605C103.582 60.1171 103.583 60.0737 103.584 60.0304C103.584 59.987 103.585 59.9436 103.586 59.9003C103.587 59.8569 103.587 59.8135 103.588 59.7702C103.589 59.7268 103.59 59.6834 103.59 59.6401C103.591 59.5967 103.592 59.5533 103.593 59.51C103.593 59.4666 103.594 59.4232 103.595 59.3799C103.596 59.3365 103.596 59.2931 103.597 59.2498C103.598 59.2064 103.599 59.163 103.599 59.1197C103.6 59.0763 103.601 59.033 103.602 58.9896C103.602 58.9462 103.603 58.9029 103.604 58.8595C103.605 58.8161 103.605 58.7728 103.606 58.7294C103.607 58.686 103.608 58.6427 103.608 58.5993C103.609 58.5559 103.61 58.5126 103.611 58.4692C103.611 58.4258 103.612 58.3825 103.613 58.3391C103.614 58.2957 103.614 58.2524 103.615 58.209C103.616 58.1656 103.617 58.1223 103.617 58.0789C103.618 58.0355 103.619 57.9922 103.62 57.9488C103.62 57.9054 103.621 57.8621 103.622 57.8187C103.623 57.7754 103.623 57.732 103.624 57.6886C103.625 57.6453 103.626 57.6019 103.626 57.5585C103.627 57.5152 103.628 57.4718 103.629 57.4284C103.629 57.3851 103.63 57.3417 103.631 57.2983C103.632 57.255 103.632 57.2116 103.633 57.1682C103.634 57.1249 103.635 57.0815 103.635 57.0381C103.636 56.9948 103.637 56.9514 103.638 56.908C103.638 56.8647 103.639 56.8213 103.64 56.7779C103.641 56.7346 103.641 56.6912 103.642 56.6479C103.643 56.6045 103.644 56.5611 103.644 56.5178C103.645 56.4744 103.646 56.431 103.647 56.3877C103.647 56.3443 103.648 56.3009 103.649 56.2576C103.65 56.2142 103.65 56.1708 103.651 56.1275C103.652 56.0841 103.653 56.0407 103.653 55.9974C103.654 55.954 103.655 55.9106 103.656 55.8673C103.656 55.8239 103.657 55.7805 103.658 55.7372C103.658 55.6938 103.659 55.6504 103.66 55.6071C103.661 55.5637 103.661 55.5203 103.662 55.477C103.663 55.4336 103.664 55.3903 103.664 55.3469C103.665 55.3035 103.666 55.2602 103.667 55.2168C103.667 55.1734 103.668 55.1301 103.669 55.0867C103.67 55.0433 103.67 55 103.671 54.9566C103.672 54.9132 103.673 54.8699 103.673 54.8265C103.674 54.7831 103.675 54.7398 103.676 54.6964C103.676 54.653 103.677 54.6097 103.678 54.5663C103.679 54.5229 103.679 54.4796 103.68 54.4362C103.681 54.3928 103.682 54.3495 103.682 54.3061C103.683 54.2627 103.684 54.2194 103.685 54.176C103.685 54.1327 103.686 54.0893 103.687 54.0459C103.688 54.0026 103.688 53.9592 103.689 53.9158C103.69 53.8725 103.691 53.8291 103.691 53.7857C103.692 53.7424 103.693 53.699 103.694 53.6556C103.694 53.6123 103.695 53.5689 103.696 53.5255C103.697 53.4822 103.697 53.4388 103.698 53.3954C103.699 53.3521 103.7 53.3087 103.7 53.2653C103.701 53.222 103.702 53.1786 103.703 53.1352C103.703 53.0919 103.704 53.0485 103.705 53.0051C103.706 52.9618 103.706 52.9184 103.707 52.8751C103.708 52.8317 103.709 52.7883 103.709 52.745C103.71 52.7016 103.711 52.6582 103.712 52.6149C103.712 52.5715 103.713 52.5281 103.714 52.4848C103.715 52.4414 103.715 52.398 103.716 52.3547C103.717 52.3113 103.718 52.2679 103.718 52.2246C103.719 52.1812 103.72 52.1378 103.721 52.0945C103.721 52.0511 103.722 52.0077 103.723 51.9644C103.724 51.921 103.724 51.8776 103.725 51.8343C103.726 51.7909 103.727 51.7476 103.727 51.7042C103.728 51.6608 103.729 51.6175 103.73 51.5741C103.73 51.5307 103.731 51.4874 103.732 51.444C103.733 51.4006 103.733 51.3573 103.734 51.3139C103.735 51.2705 103.736 51.2272 103.736 51.1838C103.737 51.1404 103.738 51.0971 103.738 51.0537C103.739 51.0103 103.74 50.967 103.741 50.9236C103.741 50.8802 103.742 50.8369 103.743 50.7935C103.744 50.7501 103.744 50.7068 103.745 50.6634C103.746 50.62 103.747 50.5767 103.747 50.5333C103.748 50.49 103.749 50.4466 103.75 50.4032C103.75 50.3599 103.751 50.3165 103.752 50.2731C103.753 50.2298 103.753 50.1864 103.754 50.143C103.755 50.0997 103.756 50.0563 103.756 50.0129C103.757 49.9696 103.758 49.9262 103.759 49.8828C103.759 49.8395 103.76 49.7961 103.761 49.7527C103.762 49.7094 103.762 49.666 103.763 49.6226C103.764 49.5793 103.765 49.5359 103.765 49.4925C103.766 49.4492 103.767 49.4058 103.768 49.3624C103.768 49.3191 103.769 49.2757 103.77 49.2324C103.771 49.189 103.771 49.1456 103.772 49.1023C103.773 49.0589 103.774 49.0155 103.774 48.9722C103.775 48.9288 103.776 48.8854 103.777 48.8421C103.777 48.7987 103.778 48.7553 103.779 48.712C103.78 48.6686 103.78 48.6252 103.781 48.5819C103.782 48.5385 103.783 48.4951 103.783 48.4518C103.784 48.4084 103.785 48.365 103.786 48.3217C103.786 48.2783 103.787 48.2349 103.788 48.1916C103.789 48.1482 103.789 48.1049 103.79 48.0615C103.791 48.0181 103.792 47.9748 103.792 47.9314C103.793 47.888 103.794 47.8447 103.795 47.8013C103.795 47.7579 103.796 47.7146 103.797 47.6712C103.798 47.6278 103.798 47.5845 103.799 47.5411C103.8 47.4977 103.801 47.4544 103.801 47.411C103.802 47.3676 103.803 47.3243 103.804 47.2809C103.804 47.2375 103.805 47.1942 103.806 47.1508C103.807 47.1074 103.807 47.0641 103.808 47.0207C103.809 46.9773 103.81 46.934 103.81 46.8906C103.811 46.8473 103.812 46.8039 103.813 46.7605C103.813 46.7172 103.814 46.6738 103.815 46.6304C103.816 46.5871 103.816 46.5437 103.817 46.5003C103.818 46.457 103.818 46.4136 103.819 46.3702C103.82 46.3269 103.821 46.2835 103.821 46.2401C103.822 46.1968 103.823 46.1534 103.824 46.11C103.824 46.0667 103.825 46.0233 103.826 45.9799C103.827 45.9366 103.827 45.8932 103.828 45.8498C103.829 45.8065 103.83 45.7631 103.83 45.7197C103.831 45.6764 103.832 45.633 103.833 45.5897C103.833 45.5463 103.834 45.5029 103.835 45.4596C103.836 45.4162 103.836 45.3728 103.837 45.3295C103.838 45.2861 103.839 45.2427 103.839 45.1994C103.84 45.156 103.841 45.1126 103.842 45.0693C103.842 45.0259 103.843 44.9825 103.844 44.9392C103.845 44.8958 103.845 44.8524 103.846 44.8091C103.847 44.7657 103.848 44.7223 103.848 44.679C103.849 44.6356 103.85 44.5922 103.851 44.5489C103.851 44.5055 103.852 44.4622 103.853 44.4188C103.854 44.3754 103.854 44.3321 103.855 44.2887C103.856 44.2453 103.857 44.202 103.857 44.1586C103.858 44.1152 103.859 44.0719 103.86 44.0285C103.86 43.9851 103.861 43.9418 103.862 43.8984C103.863 43.855 103.863 43.8117 103.864 43.7683C103.865 43.7249 103.866 43.6816 103.866 43.6382C103.867 43.5948 103.868 43.5515 103.869 43.5081C103.869 43.4647 103.87 43.4214 103.871 43.378C103.872 43.3346 103.872 43.2913 103.873 43.2479C103.874 43.2046 103.875 43.1612 103.875 43.1178C103.876 43.0745 103.877 43.0311 103.878 42.9877C103.878 42.9444 103.879 42.901 103.88 42.8576C103.881 42.8143 103.881 42.7709 103.882 42.7275C103.883 42.6842 103.884 42.6408 103.884 42.5974C103.885 42.5541 103.886 42.5107 103.887 42.4673C103.887 42.424 103.888 42.3806 103.889 42.3372C103.89 42.2939 103.89 42.2505 103.891 42.2071C103.892 42.1638 103.893 42.1204 103.893 42.077C103.894 42.0337 103.895 41.9903 103.896 41.947C103.896 41.9036 103.897 41.8602 103.898 41.8169C103.898 41.7735 103.899 41.7301 103.9 41.6868C103.901 41.6434 103.901 41.6 103.902 41.5567C103.903 41.5133 103.904 41.4699 103.904 41.4266C103.905 41.3832 103.906 41.3398 103.907 41.2965C103.907 41.2531 103.908 41.2097 103.909 41.1664C103.91 41.123 103.91 41.0796 103.911 41.0363C103.912 40.9929 103.913 40.9495 103.913 40.9062C103.914 40.8628 103.915 40.8195 103.916 40.7761C103.916 40.7327 103.917 40.6894 103.918 40.646C103.919 40.6026 103.919 40.5593 103.92 40.5159C103.921 40.4725 103.922 40.4292 103.922 40.3858C103.923 40.3424 103.924 40.2991 103.925 40.2557C103.925 40.2123 103.926 40.169 103.927 40.1256C103.928 40.0822 103.928 40.0389 103.929 39.9955C103.93 39.9521 103.931 39.9088 103.931 39.8654C103.932 39.822 103.933 39.7787 103.934 39.7353C103.934 39.6919 103.935 39.6486 103.936 39.6052C103.937 39.5619 103.937 39.5185 103.938 39.4751C103.939 39.4318 103.94 39.3884 103.94 39.345C103.941 39.3017 103.942 39.2583 103.943 39.2149C103.943 39.1716 103.944 39.1282 103.945 39.0848C103.946 39.0415 103.946 38.9981 103.947 38.9547C103.948 38.9114 103.949 38.868 103.949 38.8246C103.95 38.7813 103.951 38.7379 103.952 38.6945C103.952 38.6512 103.953 38.6078 103.954 38.5644C103.955 38.5211 103.955 38.4777 103.956 38.4343C103.957 38.391 103.958 38.3476 103.958 38.3043C103.959 38.2609 103.96 38.2175 103.961 38.1742C103.961 38.1308 103.962 38.0874 103.963 38.0441C103.964 38.0007 103.964 37.9573 103.965 37.914C103.966 37.8706 103.967 37.8272 103.967 37.7839C103.968 37.7405 103.969 37.6971 103.97 37.6538C103.97 37.6104 103.971 37.567 103.972 37.5237C103.973 37.4803 103.973 37.4369 103.974 37.3936C103.975 37.3502 103.976 37.3068 103.976 37.2635C103.977 37.2201 103.978 37.1768 103.979 37.1334C103.979 37.09 103.98 37.0467 103.981 37.0033C103.981 36.9599 103.982 36.9166 103.983 36.8732C103.984 36.8298 103.984 36.7865 103.985 36.7431C103.986 36.6997 103.987 36.6564 103.987 36.613C103.988 36.5696 103.989 36.5263 103.99 36.4829C103.99 36.4395 103.991 36.3962 103.992 36.3528C103.993 36.3094 103.993 36.2661 103.994 36.2227C103.995 36.1793 103.996 36.136 103.996 36.0926C103.997 36.0492 103.998 36.0059 103.999 35.9625C103.999 35.9192 104 35.8758 104.001 35.8324C104.002 35.7891 104.002 35.7457 104.003 35.7023C104.004 35.659 104.005 35.6156 104.005 35.5722C104.006 35.5289 104.007 35.4855 104.008 35.4421C104.008 35.3988 104.009 35.3554 104.01 35.312C104.011 35.2687 104.011 35.2253 104.012 35.1819C104.013 35.1386 104.014 35.0952 104.014 35.0518C104.015 35.0085 104.016 34.9651 104.017 34.9217C104.017 34.8784 104.018 34.835 104.019 34.7916C104.02 34.7483 104.02 34.7049 104.021 34.6616C104.022 34.6182 104.023 34.5748 104.023 34.5315C104.024 34.4881 104.025 34.4447 104.026 34.4014C104.026 34.358 104.027 34.3146 104.028 34.2713C104.029 34.2279 104.029 34.1845 104.03 34.1412C104.031 34.0978 104.032 34.0544 104.032 34.0111C104.033 33.9677 104.034 33.9243 104.035 33.881C104.035 33.8376 104.036 33.7942 104.037 33.7509C104.038 33.7075 104.038 33.6641 104.039 33.6208C104.04 33.5774 104.041 33.534 104.041 33.4907C104.042 33.4473 104.043 33.404 104.044 33.3606C104.044 33.3172 104.045 33.2739 104.046 33.2305C104.047 33.1871 104.047 33.1438 104.048 33.1004C104.049 33.057 104.05 33.0137 104.05 32.9703C104.051 32.9269 104.052 32.8836 104.053 32.8402C104.053 32.7968 104.054 32.7535 104.055 32.7101C104.056 32.6667 104.056 32.6234 104.057 32.58C104.058 32.5366 104.059 32.4933 104.059 32.4499C104.06 32.4065 104.061 32.3632 104.061 32.3198C104.062 32.2765 104.063 32.2331 104.064 32.1897C104.064 32.1464 104.065 32.103 104.066 32.0596C104.067 32.0163 104.067 31.9729 104.068 31.9295C104.069 31.8862 104.07 31.8428 104.07 31.7994C104.071 31.7561 104.072 31.7127 104.073 31.6693C104.073 31.626 104.074 31.5826 104.075 31.5392C104.076 31.4959 104.076 31.4525 104.077 31.4091C104.078 31.3658 104.079 31.3224 104.079 31.279C104.08 31.2357 104.081 31.1923 104.082 31.1489C104.082 31.1056 104.083 31.0622 104.084 31.0189C104.085 30.9755 104.085 30.9321 104.086 30.8888C104.087 30.8454 104.088 30.802 104.088 30.7587C104.089 30.7153 104.09 30.6719 104.091 30.6286C104.091 30.5852 104.092 30.5418 104.093 30.4985C104.094 30.4551 104.094 30.4117 104.095 30.3684C104.096 30.325 104.097 30.2816 104.097 30.2383C104.098 30.1949 104.099 30.1515 104.1 30.1082C104.1 30.0648 104.101 30.0214 104.102 29.9781C104.103 29.9347 104.103 29.8913 104.104 29.848C104.105 29.8046 104.106 29.7613 104.106 29.7179C104.107 29.6745 104.108 29.6312 104.109 29.5878C104.109 29.5444 104.11 29.5011 104.111 29.4577C104.112 29.4143 104.112 29.371 104.113 29.3276C104.114 29.2842 104.115 29.2409 104.115 29.1975C104.116 29.1541 104.117 29.1108 104.118 29.0674C104.118 29.024 104.119 28.9807 104.12 28.9373C104.121 28.8939 104.121 28.8506 104.122 28.8072C104.123 28.7638 104.124 28.7205 104.124 28.6771C104.125 28.6338 104.126 28.5904 104.127 28.547C104.127 28.5037 104.128 28.4603 104.129 28.4169C104.13 28.3736 104.13 28.3302 104.131 28.2868C104.132 28.2435 104.133 28.2001 104.133 28.1567C104.134 28.1134 104.135 28.07 104.136 28.0266C104.136 27.9833 104.137 27.9399 104.138 27.8965C104.139 27.8532 104.139 27.8098 104.14 27.7664C104.141 27.7231 104.141 27.6797 104.142 27.6363C104.143 27.593 104.144 27.5496 104.144 27.5062C104.145 27.4629 104.146 27.4195 104.147 27.3762C104.147 27.3328 104.148 27.2894 104.149 27.2461C104.15 27.2027 104.15 27.1593 104.151 27.116C104.152 27.0726 104.153 27.0292 104.153 26.9859C104.154 26.9425 104.155 26.8991 104.156 26.8558C104.156 26.8124 104.157 26.769 104.158 26.7257C104.159 26.6823 104.159 26.6389 104.16 26.5956C104.161 26.5522 104.162 26.5088 104.162 26.4655C104.163 26.4221 104.164 26.3787 104.165 26.3354C104.165 26.292 104.166 26.2486 104.167 26.2053C104.168 26.1619 104.168 26.1186 104.169 26.0752C104.17 26.0318 104.171 25.9885 104.171 25.9451C104.172 25.9017 104.173 25.8584 104.174 25.815C104.174 25.7716 104.175 25.7283 104.176 25.6849C104.177 25.6415 104.177 25.5982 104.178 25.5548C104.179 25.5114 104.18 25.4681 104.18 25.4247C104.181 25.3813 104.182 25.338 104.183 25.2946C104.183 25.2512 104.184 25.2079 104.185 25.1645C104.186 25.1211 104.186 25.0778 104.187 25.0344C104.188 24.9911 104.189 24.9477 104.189 24.9043C104.19 24.861 104.191 24.8176 104.192 24.7742C104.192 24.7309 104.193 24.6875 104.194 24.6441C104.195 24.6008 104.195 24.5574 104.196 24.514C104.197 24.4707 104.198 24.4273 104.198 24.3839C104.199 24.3406 104.2 24.2972 104.201 24.2538C104.201 24.2105 104.202 24.1671 104.203 24.1237C104.204 24.0804 104.204 24.037 104.205 23.9936C104.206 23.9503 104.207 23.9069 104.207 23.8635C104.208 23.8202 104.209 23.7768 104.21 23.7335C104.21 23.6901 104.211 23.6467 104.212 23.6034C104.213 23.56 104.213 23.5166 104.214 23.4733C104.215 23.4299 104.216 23.3865 104.216 23.3432C104.217 23.2998 104.218 23.2564 104.219 23.2131C104.219 23.1697 104.22 23.1263 104.221 23.083C104.221 23.0396 104.222 22.9962 104.223 22.9529C104.224 22.9095 104.224 22.8661 104.225 22.8228C104.226 22.7794 104.227 22.736 104.227 22.6927C104.228 22.6493 104.229 22.6059 104.23 22.5626C104.23 22.5192 104.231 22.4759 104.232 22.4325C104.233 22.3891 104.233 22.3458 104.234 22.3024C104.235 22.259 104.236 22.2157 104.236 22.1723C104.237 22.1289 104.238 22.0856 104.239 22.0422C104.239 21.9988 104.24 21.9555 104.241 21.9121C104.242 21.8687 104.242 21.8254 104.243 21.782C104.244 21.7386 104.245 21.6953 104.245 21.6519C104.246 21.6085 104.247 21.5652 104.248 21.5218C104.248 21.4784 104.249 21.4351 104.25 21.3917C104.251 21.3484 104.251 21.305 104.252 21.2616C104.253 21.2183 104.254 21.1749 104.254 21.1315C104.255 21.0882 104.256 21.0448 104.257 21.0014C104.257 20.9581 104.258 20.9147 104.259 20.8713C104.26 20.828 104.26 20.7846 104.261 20.7412C104.262 20.6979 104.263 20.6545 104.263 20.6111C104.264 20.5678 104.265 20.5244 104.266 20.481C104.266 20.4377 104.267 20.3943 104.268 20.351C104.269 20.3076 104.269 20.2642 104.27 20.2209C104.271 20.1775 104.272 20.1341 104.272 20.0908C104.273 20.0474 104.274 20.004 104.275 19.9607C104.275 19.9173 104.276 19.8739 104.277 19.8306C104.278 19.7872 104.278 19.7438 104.279 19.7005C104.28 19.6571 104.281 19.6137 104.281 19.5704C104.282 19.527 104.283 19.4836 104.284 19.4403C104.284 19.3969 104.285 19.3535 104.286 19.3102C104.287 19.2668 104.287 19.2234 104.288 19.1801C104.289 19.1367 104.29 19.0934 104.29 19.05C104.291 19.0066 104.292 18.9633 104.293 18.9199C104.293 18.8765 104.294 18.8332 104.295 18.7898C104.296 18.7464 104.296 18.7031 104.297 18.6597C104.298 18.6163 104.299 18.573 104.299 18.5296C104.3 18.4862 104.301 18.4429 104.301 18.3995C104.302 18.3561 104.303 18.3128 104.304 18.2694C104.304 18.226 104.305 18.1827 104.306 18.1393C104.307 18.0959 104.307 18.0526 104.308 18.0092C104.309 17.9659 104.31 17.9225 104.31 17.8791C104.311 17.8358 104.312 17.7924 104.313 17.749C104.313 17.7057 104.314 17.6623 104.315 17.6189C104.316 17.5756 104.316 17.5322 104.317 17.4888L102.317 17.4543L100.318 17.4199C100.317 17.4632 100.316 17.5066 100.316 17.55C100.315 17.5933 100.314 17.6367 100.313 17.6801C100.313 17.7234 100.312 17.7668 100.311 17.8102C100.31 17.8535 100.31 17.8969 100.309 17.9402C100.308 17.9836 100.307 18.027 100.307 18.0703C100.306 18.1137 100.305 18.1571 100.304 18.2004C100.304 18.2438 100.303 18.2872 100.302 18.3305C100.301 18.3739 100.301 18.4173 100.3 18.4606C100.299 18.504 100.298 18.5474 100.298 18.5907C100.297 18.6341 100.296 18.6775 100.295 18.7208C100.295 18.7642 100.294 18.8076 100.293 18.8509C100.292 18.8943 100.292 18.9377 100.291 18.981C100.29 19.0244 100.289 19.0677 100.289 19.1111C100.288 19.1545 100.287 19.1978 100.286 19.2412C100.286 19.2846 100.285 19.3279 100.284 19.3713C100.283 19.4147 100.283 19.458 100.282 19.5014C100.281 19.5448 100.28 19.5881 100.28 19.6315C100.279 19.6749 100.278 19.7182 100.277 19.7616C100.277 19.805 100.276 19.8483 100.275 19.8917C100.274 19.9351 100.274 19.9784 100.273 20.0218C100.272 20.0652 100.271 20.1085 100.271 20.1519C100.27 20.1953 100.269 20.2386 100.268 20.282C100.268 20.3253 100.267 20.3687 100.266 20.4121C100.265 20.4554 100.265 20.4988 100.264 20.5422C100.263 20.5855 100.262 20.6289 100.262 20.6723C100.261 20.7156 100.26 20.759 100.259 20.8024C100.259 20.8457 100.258 20.8891 100.257 20.9325C100.256 20.9758 100.256 21.0192 100.255 21.0626C100.254 21.1059 100.253 21.1493 100.253 21.1927C100.252 21.236 100.251 21.2794 100.251 21.3228C100.25 21.3661 100.249 21.4095 100.248 21.4529C100.248 21.4962 100.247 21.5396 100.246 21.583C100.245 21.6263 100.245 21.6697 100.244 21.7131C100.243 21.7564 100.242 21.7998 100.242 21.8431C100.241 21.8865 100.24 21.9299 100.239 21.9732C100.239 22.0166 100.238 22.06 100.237 22.1033C100.236 22.1467 100.236 22.1901 100.235 22.2334C100.234 22.2768 100.233 22.3202 100.233 22.3635C100.232 22.4069 100.231 22.4503 100.23 22.4936C100.23 22.537 100.229 22.5804 100.228 22.6237C100.227 22.6671 100.227 22.7105 100.226 22.7538C100.225 22.7972 100.224 22.8406 100.224 22.8839C100.223 22.9273 100.222 22.9706 100.221 23.014C100.221 23.0574 100.22 23.1007 100.219 23.1441C100.218 23.1875 100.218 23.2308 100.217 23.2742C100.216 23.3176 100.215 23.3609 100.215 23.4043C100.214 23.4477 100.213 23.491 100.212 23.5344C100.212 23.5778 100.211 23.6211 100.21 23.6645C100.209 23.7079 100.209 23.7512 100.208 23.7946C100.207 23.838 100.206 23.8813 100.206 23.9247C100.205 23.9681 100.204 24.0114 100.203 24.0548C100.203 24.0982 100.202 24.1415 100.201 24.1849C100.2 24.2282 100.2 24.2716 100.199 24.315C100.198 24.3583 100.197 24.4017 100.197 24.4451C100.196 24.4884 100.195 24.5318 100.194 24.5752C100.194 24.6185 100.193 24.6619 100.192 24.7053C100.191 24.7486 100.191 24.792 100.19 24.8354C100.189 24.8787 100.188 24.9221 100.188 24.9655C100.187 25.0088 100.186 25.0522 100.185 25.0956C100.185 25.1389 100.184 25.1823 100.183 25.2257C100.182 25.269 100.182 25.3124 100.181 25.3558C100.18 25.3991 100.179 25.4425 100.179 25.4858C100.178 25.5292 100.177 25.5726 100.176 25.6159C100.176 25.6593 100.175 25.7027 100.174 25.746C100.173 25.7894 100.173 25.8328 100.172 25.8761C100.171 25.9195 100.171 25.9629 100.17 26.0062C100.169 26.0496 100.168 26.093 100.168 26.1363C100.167 26.1797 100.166 26.2231 100.165 26.2664C100.165 26.3098 100.164 26.3532 100.163 26.3965C100.162 26.4399 100.162 26.4833 100.161 26.5266C100.16 26.57 100.159 26.6133 100.159 26.6567C100.158 26.7001 100.157 26.7434 100.156 26.7868C100.156 26.8302 100.155 26.8735 100.154 26.9169C100.153 26.9603 100.153 27.0036 100.152 27.047C100.151 27.0904 100.15 27.1337 100.15 27.1771C100.149 27.2205 100.148 27.2638 100.147 27.3072C100.147 27.3506 100.146 27.3939 100.145 27.4373C100.144 27.4807 100.144 27.524 100.143 27.5674C100.142 27.6108 100.141 27.6541 100.141 27.6975C100.14 27.7409 100.139 27.7842 100.138 27.8276C100.138 27.8709 100.137 27.9143 100.136 27.9577C100.135 28.001 100.135 28.0444 100.134 28.0878C100.133 28.1311 100.132 28.1745 100.132 28.2179C100.131 28.2612 100.13 28.3046 100.129 28.348C100.129 28.3913 100.128 28.4347 100.127 28.4781C100.126 28.5214 100.126 28.5648 100.125 28.6082C100.124 28.6515 100.123 28.6949 100.123 28.7383C100.122 28.7816 100.121 28.825 100.12 28.8684C100.12 28.9117 100.119 28.9551 100.118 28.9985C100.117 29.0418 100.117 29.0852 100.116 29.1285C100.115 29.1719 100.114 29.2153 100.114 29.2586C100.113 29.302 100.112 29.3454 100.111 29.3887C100.111 29.4321 100.11 29.4755 100.109 29.5188C100.108 29.5622 100.108 29.6056 100.107 29.6489C100.106 29.6923 100.105 29.7357 100.105 29.779C100.104 29.8224 100.103 29.8658 100.102 29.9091C100.102 29.9525 100.101 29.9959 100.1 30.0392C100.099 30.0826 100.099 30.126 100.098 30.1693C100.097 30.2127 100.096 30.2561 100.096 30.2994C100.095 30.3428 100.094 30.3861 100.093 30.4295C100.093 30.4729 100.092 30.5162 100.091 30.5596C100.09 30.603 100.09 30.6463 100.089 30.6897C100.088 30.7331 100.088 30.7764 100.087 30.8198C100.086 30.8632 100.085 30.9065 100.085 30.9499C100.084 30.9933 100.083 31.0366 100.082 31.08C100.082 31.1234 100.081 31.1667 100.08 31.2101C100.079 31.2535 100.079 31.2968 100.078 31.3402C100.077 31.3836 100.076 31.4269 100.076 31.4703C100.075 31.5136 100.074 31.557 100.073 31.6004C100.073 31.6437 100.072 31.6871 100.071 31.7305C100.07 31.7738 100.07 31.8172 100.069 31.8606C100.068 31.9039 100.067 31.9473 100.067 31.9907C100.066 32.034 100.065 32.0774 100.064 32.1208C100.064 32.1641 100.063 32.2075 100.062 32.2509C100.061 32.2942 100.061 32.3376 100.06 32.381C100.059 32.4243 100.058 32.4677 100.058 32.5111C100.057 32.5544 100.056 32.5978 100.055 32.6412C100.055 32.6845 100.054 32.7279 100.053 32.7712C100.052 32.8146 100.052 32.858 100.051 32.9013C100.05 32.9447 100.049 32.9881 100.049 33.0314C100.048 33.0748 100.047 33.1182 100.046 33.1615C100.046 33.2049 100.045 33.2483 100.044 33.2916C100.043 33.335 100.043 33.3784 100.042 33.4217C100.041 33.4651 100.04 33.5085 100.04 33.5518C100.039 33.5952 100.038 33.6386 100.037 33.6819C100.037 33.7253 100.036 33.7687 100.035 33.812C100.034 33.8554 100.034 33.8988 100.033 33.9421C100.032 33.9855 100.031 34.0288 100.031 34.0722C100.03 34.1156 100.029 34.1589 100.028 34.2023C100.028 34.2457 100.027 34.289 100.026 34.3324C100.025 34.3758 100.025 34.4191 100.024 34.4625C100.023 34.5059 100.022 34.5492 100.022 34.5926C100.021 34.636 100.02 34.6793 100.019 34.7227C100.019 34.7661 100.018 34.8094 100.017 34.8528C100.016 34.8962 100.016 34.9395 100.015 34.9829C100.014 35.0263 100.013 35.0696 100.013 35.113C100.012 35.1563 100.011 35.1997 100.01 35.2431C100.01 35.2864 100.009 35.3298 100.008 35.3732C100.008 35.4165 100.007 35.4599 100.006 35.5033C100.005 35.5466 100.005 35.59 100.004 35.6334C100.003 35.6767 100.002 35.7201 100.002 35.7635C100.001 35.8068 100 35.8502 99.9993 35.8936C99.9985 35.9369 99.9978 35.9803 99.997 36.0237C99.9963 36.067 99.9955 36.1104 99.9948 36.1538C99.994 36.1971 99.9933 36.2405 99.9926 36.2839C99.9918 36.3272 99.9911 36.3706 99.9903 36.4139C99.9896 36.4573 99.9888 36.5007 99.9881 36.544C99.9873 36.5874 99.9866 36.6308 99.9858 36.6741C99.9851 36.7175 99.9843 36.7609 99.9836 36.8042C99.9828 36.8476 99.9821 36.891 99.9813 36.9343C99.9806 36.9777 99.9798 37.0211 99.9791 37.0644C99.9783 37.1078 99.9776 37.1512 99.9769 37.1945C99.9761 37.2379 99.9754 37.2813 99.9746 37.3246C99.9739 37.368 99.9731 37.4114 99.9724 37.4547C99.9716 37.4981 99.9709 37.5415 99.9701 37.5848C99.9694 37.6282 99.9686 37.6715 99.9679 37.7149C99.9671 37.7583 99.9664 37.8016 99.9656 37.845C99.9649 37.8884 99.9641 37.9317 99.9634 37.9751C99.9626 38.0185 99.9619 38.0618 99.9612 38.1052C99.9604 38.1486 99.9597 38.1919 99.9589 38.2353C99.9582 38.2787 99.9574 38.322 99.9567 38.3654C99.9559 38.4088 99.9552 38.4521 99.9544 38.4955C99.9537 38.5389 99.9529 38.5822 99.9522 38.6256C99.9514 38.669 99.9507 38.7123 99.9499 38.7557C99.9492 38.799 99.9484 38.8424 99.9477 38.8858C99.9469 38.9291 99.9462 38.9725 99.9454 39.0159C99.9447 39.0592 99.944 39.1026 99.9432 39.146C99.9425 39.1893 99.9417 39.2327 99.941 39.2761C99.9402 39.3194 99.9395 39.3628 99.9387 39.4062C99.938 39.4495 99.9372 39.4929 99.9365 39.5363C99.9357 39.5796 99.935 39.623 99.9342 39.6664C99.9335 39.7097 99.9327 39.7531 99.932 39.7965C99.9312 39.8398 99.9305 39.8832 99.9297 39.9266C99.929 39.9699 99.9283 40.0133 99.9275 40.0566C99.9268 40.1 99.926 40.1434 99.9253 40.1867C99.9245 40.2301 99.9238 40.2735 99.923 40.3168C99.9223 40.3602 99.9215 40.4036 99.9208 40.4469C99.92 40.4903 99.9193 40.5337 99.9185 40.577C99.9178 40.6204 99.917 40.6638 99.9163 40.7071C99.9155 40.7505 99.9148 40.7939 99.914 40.8372C99.9133 40.8806 99.9126 40.924 99.9118 40.9673C99.9111 41.0107 99.9103 41.0541 99.9096 41.0974C99.9088 41.1408 99.9081 41.1842 99.9073 41.2275C99.9066 41.2709 99.9058 41.3142 99.9051 41.3576C99.9043 41.401 99.9036 41.4443 99.9028 41.4877C99.9021 41.5311 99.9013 41.5744 99.9006 41.6178C99.8998 41.6612 99.8991 41.7045 99.8983 41.7479C99.8976 41.7913 99.8969 41.8346 99.8961 41.878C99.8954 41.9214 99.8946 41.9647 99.8939 42.0081C99.8931 42.0515 99.8924 42.0948 99.8916 42.1382C99.8909 42.1816 99.8901 42.2249 99.8894 42.2683C99.8886 42.3117 99.8879 42.355 99.8871 42.3984C99.8864 42.4417 99.8856 42.4851 99.8849 42.5285C99.8841 42.5718 99.8834 42.6152 99.8826 42.6586C99.8819 42.7019 99.8811 42.7453 99.8804 42.7887C99.8797 42.832 99.8789 42.8754 99.8782 42.9188C99.8774 42.9621 99.8767 43.0055 99.8759 43.0489C99.8752 43.0922 99.8744 43.1356 99.8737 43.179C99.8729 43.2223 99.8722 43.2657 99.8714 43.3091C99.8707 43.3524 99.8699 43.3958 99.8692 43.4392C99.8684 43.4825 99.8677 43.5259 99.8669 43.5693C99.8662 43.6126 99.8654 43.656 99.8647 43.6993C99.864 43.7427 99.8632 43.7861 99.8625 43.8294C99.8617 43.8728 99.861 43.9162 99.8602 43.9595C99.8595 44.0029 99.8587 44.0463 99.858 44.0896C99.8572 44.133 99.8565 44.1764 99.8557 44.2197C99.855 44.2631 99.8542 44.3065 99.8535 44.3498C99.8527 44.3932 99.852 44.4366 99.8512 44.4799C99.8505 44.5233 99.8497 44.5667 99.849 44.61C99.8483 44.6534 99.8475 44.6968 99.8468 44.7401C99.846 44.7835 99.8453 44.8269 99.8445 44.8702C99.8438 44.9136 99.843 44.9569 99.8423 45.0003C99.8415 45.0437 99.8408 45.087 99.84 45.1304C99.8393 45.1738 99.8385 45.2171 99.8378 45.2605C99.837 45.3039 99.8363 45.3472 99.8355 45.3906C99.8348 45.434 99.834 45.4773 99.8333 45.5207C99.8326 45.5641 99.8318 45.6074 99.8311 45.6508C99.8303 45.6942 99.8296 45.7375 99.8288 45.7809C99.8281 45.8243 99.8273 45.8676 99.8266 45.911C99.8258 45.9544 99.8251 45.9977 99.8243 46.0411C99.8236 46.0844 99.8228 46.1278 99.8221 46.1712C99.8213 46.2145 99.8206 46.2579 99.8198 46.3013C99.8191 46.3446 99.8183 46.388 99.8176 46.4314C99.8168 46.4747 99.8161 46.5181 99.8154 46.5615C99.8146 46.6048 99.8139 46.6482 99.8131 46.6916C99.8124 46.7349 99.8116 46.7783 99.8109 46.8217C99.8101 46.865 99.8094 46.9084 99.8086 46.9518C99.8079 46.9951 99.8071 47.0385 99.8064 47.0819C99.8056 47.1252 99.8049 47.1686 99.8041 47.212C99.8034 47.2553 99.8026 47.2987 99.8019 47.342C99.8011 47.3854 99.8004 47.4288 99.7997 47.4721C99.7989 47.5155 99.7982 47.5589 99.7974 47.6022C99.7967 47.6456 99.7959 47.689 99.7952 47.7323C99.7944 47.7757 99.7937 47.8191 99.7929 47.8624C99.7922 47.9058 99.7914 47.9492 99.7907 47.9925C99.7899 48.0359 99.7892 48.0793 99.7884 48.1226C99.7877 48.166 99.7869 48.2094 99.7862 48.2527C99.7854 48.2961 99.7847 48.3395 99.784 48.3828C99.7832 48.4262 99.7825 48.4696 99.7817 48.5129C99.781 48.5563 99.7802 48.5996 99.7795 48.643C99.7787 48.6864 99.778 48.7297 99.7772 48.7731C99.7765 48.8165 99.7757 48.8598 99.775 48.9032C99.7742 48.9466 99.7735 48.9899 99.7727 49.0333C99.772 49.0767 99.7712 49.12 99.7705 49.1634C99.7697 49.2068 99.769 49.2501 99.7682 49.2935C99.7675 49.3369 99.7668 49.3802 99.766 49.4236C99.7653 49.467 99.7645 49.5103 99.7638 49.5537C99.763 49.5971 99.7623 49.6404 99.7615 49.6838C99.7608 49.7271 99.76 49.7705 99.7593 49.8139C99.7585 49.8572 99.7578 49.9006 99.757 49.944C99.7563 49.9873 99.7555 50.0307 99.7548 50.0741C99.754 50.1174 99.7533 50.1608 99.7525 50.2042C99.7518 50.2475 99.7511 50.2909 99.7503 50.3343C99.7496 50.3776 99.7488 50.421 99.7481 50.4644C99.7473 50.5077 99.7466 50.5511 99.7458 50.5945C99.7451 50.6378 99.7443 50.6812 99.7436 50.7246C99.7428 50.7679 99.7421 50.8113 99.7413 50.8547C99.7406 50.898 99.7398 50.9414 99.7391 50.9847C99.7383 51.0281 99.7376 51.0715 99.7368 51.1148C99.7361 51.1582 99.7354 51.2016 99.7346 51.2449C99.7339 51.2883 99.7331 51.3317 99.7324 51.375C99.7316 51.4184 99.7309 51.4618 99.7301 51.5051C99.7294 51.5485 99.7286 51.5919 99.7279 51.6352C99.7271 51.6786 99.7264 51.722 99.7256 51.7653C99.7249 51.8087 99.7241 51.8521 99.7234 51.8954C99.7226 51.9388 99.7219 51.9822 99.7211 52.0255C99.7204 52.0689 99.7197 52.1123 99.7189 52.1556C99.7182 52.199 99.7174 52.2423 99.7167 52.2857C99.7159 52.3291 99.7152 52.3724 99.7144 52.4158C99.7137 52.4592 99.7129 52.5025 99.7122 52.5459C99.7114 52.5893 99.7107 52.6326 99.7099 52.676C99.7092 52.7194 99.7084 52.7627 99.7077 52.8061C99.7069 52.8495 99.7062 52.8928 99.7054 52.9362C99.7047 52.9796 99.7039 53.0229 99.7032 53.0663C99.7025 53.1097 99.7017 53.153 99.701 53.1964C99.7002 53.2398 99.6995 53.2831 99.6987 53.3265C99.698 53.3699 99.6972 53.4132 99.6965 53.4566C99.6957 53.4999 99.695 53.5433 99.6942 53.5867C99.6935 53.63 99.6927 53.6734 99.692 53.7168C99.6912 53.7601 99.6905 53.8035 99.6897 53.8469C99.689 53.8902 99.6882 53.9336 99.6875 53.977C99.6868 54.0203 99.686 54.0637 99.6853 54.1071C99.6845 54.1504 99.6838 54.1938 99.683 54.2372C99.6823 54.2805 99.6815 54.3239 99.6808 54.3673C99.68 54.4106 99.6793 54.454 99.6785 54.4974C99.6778 54.5407 99.677 54.5841 99.6763 54.6274C99.6755 54.6708 99.6748 54.7142 99.674 54.7575C99.6733 54.8009 99.6725 54.8443 99.6718 54.8876C99.6711 54.931 99.6703 54.9744 99.6696 55.0177C99.6688 55.0611 99.6681 55.1045 99.6673 55.1478C99.6666 55.1912 99.6658 55.2346 99.6651 55.2779C99.6643 55.3213 99.6636 55.3647 99.6628 55.408C99.6621 55.4514 99.6613 55.4948 99.6606 55.5381C99.6598 55.5815 99.6591 55.6249 99.6583 55.6682C99.6576 55.7116 99.6568 55.755 99.6561 55.7983C99.6553 55.8417 99.6546 55.885 99.6539 55.9284C99.6531 55.9718 99.6524 56.0151 99.6516 56.0585C99.6509 56.1019 99.6501 56.1452 99.6494 56.1886C99.6486 56.232 99.6479 56.2753 99.6471 56.3187C99.6464 56.3621 99.6456 56.4054 99.6449 56.4488C99.6441 56.4922 99.6434 56.5355 99.6426 56.5789C99.6419 56.6223 99.6411 56.6656 99.6404 56.709C99.6396 56.7524 99.6389 56.7957 99.6382 56.8391C99.6374 56.8825 99.6367 56.9258 99.6359 56.9692C99.6352 57.0126 99.6344 57.0559 99.6337 57.0993C99.6329 57.1426 99.6322 57.186 99.6314 57.2294C99.6307 57.2727 99.6299 57.3161 99.6292 57.3595C99.6284 57.4028 99.6277 57.4462 99.6269 57.4896C99.6262 57.5329 99.6254 57.5763 99.6247 57.6197C99.6239 57.663 99.6232 57.7064 99.6225 57.7498C99.6217 57.7931 99.621 57.8365 99.6202 57.8799C99.6195 57.9232 99.6187 57.9666 99.618 58.01C99.6172 58.0533 99.6165 58.0967 99.6157 58.1401C99.615 58.1834 99.6142 58.2268 99.6135 58.2701C99.6127 58.3135 99.612 58.3569 99.6112 58.4002C99.6105 58.4436 99.6097 58.487 99.609 58.5303C99.6082 58.5737 99.6075 58.6171 99.6068 58.6604C99.606 58.7038 99.6053 58.7472 99.6045 58.7905C99.6038 58.8339 99.603 58.8773 99.6023 58.9206C99.6015 58.964 99.6008 59.0074 99.6 59.0507C99.5993 59.0941 99.5985 59.1375 99.5978 59.1808C99.597 59.2242 99.5963 59.2676 99.5955 59.3109C99.5948 59.3543 99.594 59.3977 99.5933 59.441C99.5925 59.4844 99.5918 59.5277 99.591 59.5711C99.5903 59.6145 99.5896 59.6578 99.5888 59.7012C99.5881 59.7446 99.5873 59.7879 99.5866 59.8313C99.5858 59.8747 99.5851 59.918 99.5843 59.9614C99.5836 60.0048 99.5828 60.0481 99.5821 60.0915C99.5813 60.1349 99.5806 60.1782 99.5798 60.2216C99.5791 60.265 99.5783 60.3083 99.5776 60.3517C99.5768 60.3951 99.5761 60.4384 99.5753 60.4818C99.5746 60.5252 99.5739 60.5685 99.5731 60.6119C99.5724 60.6553 99.5716 60.6986 99.5709 60.742C99.5701 60.7853 99.5694 60.8287 99.5686 60.8721C99.5679 60.9154 99.5671 60.9588 99.5664 61.0022C99.5656 61.0455 99.5649 61.0889 99.5641 61.1323C99.5634 61.1756 99.5626 61.219 99.5619 61.2624C99.5611 61.3057 99.5604 61.3491 99.5596 61.3925C99.5589 61.4358 99.5582 61.4792 99.5574 61.5226C99.5567 61.5659 99.5559 61.6093 99.5552 61.6527C99.5544 61.696 99.5537 61.7394 99.5529 61.7828C99.5522 61.8261 99.5514 61.8695 99.5507 61.9128C99.5499 61.9562 99.5492 61.9996 99.5484 62.0429C99.5477 62.0863 99.5469 62.1297 99.5462 62.173C99.5454 62.2164 99.5447 62.2598 99.5439 62.3031C99.5432 62.3465 99.5424 62.3899 99.5417 62.4332C99.541 62.4766 99.5402 62.52 99.5395 62.5633C99.5387 62.6067 99.538 62.6501 99.5372 62.6934C99.5365 62.7368 99.5357 62.7802 99.535 62.8235C99.5342 62.8669 99.5335 62.9103 99.5327 62.9536C99.532 62.997 99.5312 63.0404 99.5305 63.0837C99.5297 63.1271 99.529 63.1704 99.5282 63.2138C99.5275 63.2572 99.5267 63.3005 99.526 63.3439C99.5253 63.3873 99.5245 63.4306 99.5238 63.474C99.523 63.5174 99.5223 63.5607 99.5215 63.6041C99.5208 63.6475 99.52 63.6908 99.5193 63.7342C99.5185 63.7776 99.5178 63.8209 99.517 63.8643C99.5163 63.9077 99.5155 63.951 99.5148 63.9944C99.514 64.0378 99.5133 64.0811 99.5125 64.1245C99.5118 64.1679 99.511 64.2112 99.5103 64.2546C99.5096 64.298 99.5088 64.3413 99.5081 64.3847C99.5073 64.428 99.5066 64.4714 99.5058 64.5148C99.5051 64.5581 99.5043 64.6015 99.5036 64.6449C99.5028 64.6882 99.5021 64.7316 99.5013 64.775C99.5006 64.8183 99.4998 64.8617 99.4991 64.9051C99.4983 64.9484 99.4976 64.9918 99.4968 65.0352C99.4961 65.0785 99.4953 65.1219 99.4946 65.1653C99.4939 65.2086 99.4931 65.252 99.4924 65.2954C99.4916 65.3387 99.4909 65.3821 99.4901 65.4255C99.4894 65.4688 99.4886 65.5122 99.4879 65.5555C99.4871 65.5989 99.4864 65.6423 99.4856 65.6856C99.4849 65.729 99.4841 65.7724 99.4834 65.8157C99.4826 65.8591 99.4819 65.9025 99.4811 65.9458C99.4804 65.9892 99.4796 66.0326 99.4789 66.0759C99.4781 66.1193 99.4774 66.1627 99.4767 66.206C99.4759 66.2494 99.4752 66.2928 99.4744 66.3361C99.4737 66.3795 99.4729 66.4229 99.4722 66.4662C99.4714 66.5096 99.4707 66.553 99.4699 66.5963C99.4692 66.6397 99.4684 66.6831 99.4677 66.7264C99.4669 66.7698 99.4662 66.8131 99.4654 66.8565C99.4647 66.8999 99.4639 66.9432 99.4632 66.9866C99.4624 67.03 99.4617 67.0733 99.461 67.1167C99.4602 67.1601 99.4595 67.2034 99.4587 67.2468C99.458 67.2902 99.4572 67.3335 99.4565 67.3769C99.4557 67.4203 99.455 67.4636 99.4542 67.507C99.4535 67.5504 99.4527 67.5937 99.452 67.6371C99.4512 67.6805 99.4505 67.7238 99.4497 67.7672C99.449 67.8106 99.4482 67.8539 99.4475 67.8973C99.4467 67.9407 99.446 67.984 99.4453 68.0274C99.4445 68.0707 99.4438 68.1141 99.443 68.1575C99.4423 68.2008 99.4415 68.2442 99.4408 68.2876C99.44 68.3309 99.4393 68.3743 99.4385 68.4177C99.4378 68.461 99.437 68.5044 99.4363 68.5478C99.4355 68.5911 99.4348 68.6345 99.434 68.6779C99.4333 68.7212 99.4325 68.7646 99.4318 68.808C99.431 68.8513 99.4303 68.8947 99.4296 68.9381C99.4288 68.9814 99.4281 69.0248 99.4273 69.0682C99.4266 69.1115 99.4258 69.1549 99.4251 69.1982C99.4243 69.2416 99.4236 69.285 99.4228 69.3283C99.4221 69.3717 99.4213 69.4151 99.4206 69.4584C99.4198 69.5018 99.4191 69.5452 99.4183 69.5885C99.4176 69.6319 99.4168 69.6753 99.4161 69.7186C99.4153 69.762 99.4146 69.8054 99.4138 69.8487C99.4131 69.8921 99.4124 69.9355 99.4116 69.9788C99.4109 70.0222 99.4101 70.0656 99.4094 70.1089C99.4086 70.1523 99.4079 70.1957 99.4071 70.239C99.4064 70.2824 99.4056 70.3258 99.4049 70.3691C99.4041 70.4125 99.4034 70.4558 99.4026 70.4992C99.4019 70.5426 99.4011 70.5859 99.4004 70.6293C99.3996 70.6727 99.3989 70.716 99.3981 70.7594C99.3974 70.8028 99.3967 70.8461 99.3959 70.8895C99.3952 70.9329 99.3944 70.9762 99.3937 71.0196C99.3929 71.063 99.3922 71.1063 99.3914 71.1497C99.3907 71.1931 99.3899 71.2364 99.3892 71.2798C99.3884 71.3232 99.3877 71.3665 99.3869 71.4099C99.3862 71.4533 99.3854 71.4966 99.3847 71.54C99.3839 71.5834 99.3832 71.6267 99.3824 71.6701C99.3817 71.7134 99.381 71.7568 99.3802 71.8002C99.3795 71.8435 99.3787 71.8869 99.378 71.9303C99.3772 71.9736 99.3765 72.017 99.3757 72.0604C99.375 72.1037 99.3742 72.1471 99.3735 72.1905C99.3727 72.2338 99.372 72.2772 99.3712 72.3206C99.3705 72.3639 99.3697 72.4073 99.369 72.4507C99.3682 72.494 99.3675 72.5374 99.3667 72.5808C99.366 72.6241 99.3652 72.6675 99.3645 72.7109C99.3638 72.7542 99.363 72.7976 99.3623 72.841C99.3615 72.8843 99.3608 72.9277 99.36 72.971C99.3593 73.0144 99.3585 73.0578 99.3578 73.1011C99.357 73.1445 99.3563 73.1879 99.3555 73.2312C99.3548 73.2746 99.354 73.318 99.3533 73.3613C99.3525 73.4047 99.3518 73.4481 99.351 73.4914C99.3503 73.5348 99.3495 73.5782 99.3488 73.6215C99.3481 73.6649 99.3473 73.7083 99.3466 73.7516C99.3458 73.795 99.3451 73.8384 99.3443 73.8817C99.3436 73.9251 99.3428 73.9685 99.3421 74.0118C99.3413 74.0552 99.3406 74.0985 99.3398 74.1419C99.3391 74.1853 99.3383 74.2286 99.3376 74.272C99.3368 74.3154 99.3361 74.3587 99.3353 74.4021C99.3346 74.4455 99.3338 74.4888 99.3331 74.5322C99.3324 74.5756 99.3316 74.6189 99.3309 74.6623C99.3301 74.7057 99.3294 74.749 99.3286 74.7924C99.3279 74.8358 99.3271 74.8791 99.3264 74.9225C99.3256 74.9659 99.3249 75.0092 99.3241 75.0526C99.3234 75.096 99.3226 75.1393 99.3219 75.1827C99.3211 75.2261 99.3204 75.2694 99.3196 75.3128C99.3189 75.3561 99.3181 75.3995 99.3174 75.4429C99.3167 75.4862 99.3159 75.5296 99.3152 75.573C99.3144 75.6163 99.3137 75.6597 99.3129 75.7031C99.3122 75.7464 99.3114 75.7898 99.3107 75.8332C99.3099 75.8765 99.3092 75.9199 99.3084 75.9633C99.3077 76.0066 99.3069 76.05 99.3062 76.0934C99.3054 76.1367 99.3047 76.1801 99.3039 76.2235C99.3032 76.2668 99.3024 76.3102 99.3017 76.3536C99.3009 76.3969 99.3002 76.4403 99.2995 76.4837C99.2987 76.527 99.298 76.5704 99.2972 76.6137C99.2965 76.6571 99.2957 76.7005 99.295 76.7438C99.2942 76.7872 99.2935 76.8306 99.2927 76.8739C99.292 76.9173 99.2912 76.9607 99.2905 77.004C99.2897 77.0474 99.289 77.0908 99.2882 77.1341C99.2875 77.1775 99.2867 77.2209 99.286 77.2642C99.2852 77.3076 99.2845 77.351 99.2838 77.3943C99.283 77.4377 99.2823 77.4811 99.2815 77.5244C99.2808 77.5678 99.28 77.6112 99.2793 77.6545C99.2785 77.6979 99.2778 77.7412 99.277 77.7846C99.2763 77.828 99.2755 77.8713 99.2748 77.9147C99.274 77.9581 99.2733 78.0014 99.2725 78.0448C99.2718 78.0882 99.271 78.1315 99.2703 78.1749C99.2695 78.2183 99.2688 78.2616 99.2681 78.305C99.2673 78.3484 99.2666 78.3917 99.2658 78.4351C99.2651 78.4785 99.2643 78.5218 99.2636 78.5652C99.2628 78.6086 99.2621 78.6519 99.2613 78.6953C99.2606 78.7387 99.2598 78.782 99.2591 78.8254C99.2583 78.8688 99.2576 78.9121 99.2568 78.9555C99.2561 78.9988 99.2553 79.0422 99.2546 79.0856C99.2538 79.1289 99.2531 79.1723 99.2523 79.2157C99.2516 79.259 99.2509 79.3024 99.2501 79.3458C99.2494 79.3891 99.2486 79.4325 99.2479 79.4759C99.2471 79.5192 99.2464 79.5626 99.2456 79.606C99.2449 79.6493 99.2441 79.6927 99.2434 79.7361C99.2426 79.7794 99.2419 79.8228 99.2411 79.8662C99.2404 79.9095 99.2396 79.9529 99.2389 79.9963C99.2381 80.0396 99.2374 80.083 99.2366 80.1264C99.2359 80.1697 99.2352 80.2131 99.2344 80.2564C99.2337 80.2998 99.2329 80.3432 99.2322 80.3865C99.2314 80.4299 99.2307 80.4733 99.2299 80.5166C99.2292 80.56 99.2284 80.6034 99.2277 80.6467C99.2269 80.6901 99.2262 80.7335 99.2254 80.7768C99.2247 80.8202 99.2239 80.8636 99.2232 80.9069C99.2224 80.9503 99.2217 80.9937 99.2209 81.037C99.2202 81.0804 99.2195 81.1238 99.2187 81.1671C99.218 81.2105 99.2172 81.2539 99.2165 81.2972C99.2157 81.3406 99.215 81.3839 99.2142 81.4273C99.2135 81.4707 99.2127 81.514 99.212 81.5574C99.2112 81.6008 99.2105 81.6441 99.2097 81.6875C99.209 81.7309 99.2082 81.7742 99.2075 81.8176C99.2067 81.861 99.206 81.9043 99.2052 81.9477C99.2045 81.9911 99.2038 82.0344 99.203 82.0778C99.2023 82.1212 99.2015 82.1645 99.2008 82.2079C99.2 82.2513 99.1993 82.2946 99.1985 82.338C99.1978 82.3814 99.197 82.4247 99.1963 82.4681C99.1955 82.5115 99.1948 82.5548 99.194 82.5982C99.1933 82.6415 99.1925 82.6849 99.1918 82.7283C99.191 82.7716 99.1903 82.815 99.1895 82.8584C99.1888 82.9017 99.188 82.9451 99.1873 82.9885C99.1866 83.0318 99.1858 83.0752 99.1851 83.1186C99.1843 83.1619 99.1836 83.2053 99.1828 83.2487C99.1821 83.292 99.1813 83.3354 99.1806 83.3788C99.1798 83.4221 99.1791 83.4655 99.1783 83.5089C99.1776 83.5522 99.1768 83.5956 99.1761 83.639C99.1753 83.6823 99.1746 83.7257 99.1738 83.7691C99.1731 83.8124 99.1723 83.8558 99.1716 83.8991C99.1709 83.9425 99.1701 83.9859 99.1694 84.0292L101.169 84.0637ZM102.317 17.4543L102.757 19.4056L141.038 10.7923L140.599 8.84106L140.16 6.88985L101.878 15.5031L102.317 17.4543ZM140.599 8.84106L138.617 8.57388L122.156 130.691L124.138 130.958L126.12 131.225L142.581 9.10825L140.599 8.84106ZM124.138 130.958V132.958H124.329V130.958V128.958H124.138V130.958ZM124.329 130.958L126.275 131.422L154.22 14.0896L152.275 13.6262L150.329 13.1628L122.384 130.495L124.329 130.958ZM152.275 13.6262L152.633 15.5938L187.278 9.27737L186.919 7.30981L186.56 5.34225L151.916 11.6587L152.275 13.6262ZM214.619 41.9543L214.306 39.979L213.034 40.1807L212.691 41.4225L214.619 41.9543ZM211.94 52.8645L209.984 52.4454L209.981 52.4588L209.979 52.4723L211.94 52.8645ZM209.834 63.3918L207.873 62.9996L207.277 65.9799L210.25 65.3482L209.834 63.3918ZM240.459 56.884L242.455 57.0142L242.627 54.3788L240.043 54.9277L240.459 56.884ZM238.737 83.2981L239.082 85.268L240.63 84.9965L240.732 83.4283L238.737 83.2981ZM204.475 89.9973L204.025 88.0485L202.767 88.3389L202.514 89.6051L204.475 89.9973ZM203.135 97.6536L205.104 98.0069L205.109 97.9786L205.113 97.9502L203.135 97.6536ZM201.795 105.118L199.827 104.765L199.336 107.496L202.082 107.098L201.795 105.118ZM237.397 99.9504L239.392 100.09L239.565 97.6147L237.109 97.9712L237.397 99.9504ZM234.908 135.552L235.075 137.545L236.784 137.403L236.904 135.691L234.908 135.552ZM165.045 148.759L163.072 148.432L162.569 151.463L165.545 150.696L165.045 148.759ZM187.822 11.5208L187.537 9.54121L186.089 9.74995L185.849 11.1933L187.822 11.5208ZM251.561 2.33325L253.556 2.47345L253.73 -4.57764e-05L251.275 0.353714L251.561 2.33325ZM249.072 37.7434L249.255 39.735L250.948 39.5795L251.068 37.8836L249.072 37.7434ZM214.619 41.9543L212.691 41.4225C211.661 45.1585 210.758 48.8328 209.984 52.4454L211.94 52.8645L213.895 53.2836C214.652 49.7504 215.536 46.1513 216.547 42.4862L214.619 41.9543ZM211.94 52.8645L209.979 52.4723L207.873 62.9996L209.834 63.3918L211.795 63.7841L213.901 53.2567L211.94 52.8645ZM209.834 63.3918L210.25 65.3482L240.875 58.8403L240.459 56.884L240.043 54.9277L209.418 61.4355L209.834 63.3918ZM240.459 56.884L238.463 56.7539L236.741 83.1679L238.737 83.2981L240.732 83.4283L242.455 57.0142L240.459 56.884ZM238.737 83.2981L238.391 81.3282C223.83 83.8827 212.37 86.1228 204.025 88.0485L204.475 89.9973L204.925 91.9461C213.168 90.0437 224.549 87.8177 239.082 85.268L238.737 83.2981ZM204.475 89.9973L202.514 89.6051C201.997 92.1886 201.545 94.7726 201.157 97.3569L203.135 97.6536L205.113 97.9502C205.491 95.4304 205.932 92.9102 206.436 90.3895L204.475 89.9973ZM203.135 97.6536L201.166 97.3002L199.827 104.765L201.795 105.118L203.764 105.472L205.104 98.0069L203.135 97.6536ZM201.795 105.118L202.082 107.098L237.684 101.93L237.397 99.9504L237.109 97.9712L201.508 103.139L201.795 105.118ZM237.397 99.9504L235.402 99.811L232.913 135.413L234.908 135.552L236.904 135.691L239.392 100.09L237.397 99.9504ZM234.908 135.552L234.742 133.559C216.21 135.103 192.801 139.535 164.546 146.822L165.045 148.759L165.545 150.696C193.691 143.436 216.857 139.063 235.075 137.545L234.908 135.552ZM165.045 148.759L167.018 149.086L189.796 11.8482L187.822 11.5208L185.849 11.1933L163.072 148.432L165.045 148.759ZM187.822 11.5208L188.108 13.5003L251.846 4.31279L251.561 2.33325L251.275 0.353714L187.537 9.54121L187.822 11.5208ZM251.561 2.33325L249.566 2.19305L247.077 37.6032L249.072 37.7434L251.068 37.8836L253.556 2.47345L251.561 2.33325ZM249.072 37.7434L248.89 35.7518C236.349 36.9035 224.82 38.3122 214.306 39.979L214.619 41.9543L214.933 43.9297C225.346 42.2788 236.786 40.8802 249.255 39.735L249.072 37.7434ZM266.2 14.009L265.803 12.0488L264.466 12.3193L264.23 13.6633L266.2 14.009ZM299.313 7.30981L301.309 7.43858L301.477 4.83148L298.916 5.34953L299.313 7.30981ZM300.653 69.8997L302.646 69.7308L302.645 69.7256L300.653 69.8997ZM303.524 88.0833L301.597 88.6185L305.494 88.4268L303.524 88.0833ZM316.539 13.4348L316.174 11.4686L314.808 11.7227L314.569 13.0913L316.539 13.4348ZM349.461 7.30981L351.397 7.8119L352.187 4.76846L349.095 5.34355L349.461 7.30981ZM323.43 140.337L323.967 142.264L325.272 141.9L325.418 140.554L323.43 140.337ZM293.188 148.759L291.399 149.653L292.136 151.128L293.724 150.686L293.188 148.759ZM290.7 142.06L288.813 142.723L288.816 142.733L288.82 142.743L290.7 142.06ZM280.746 113.732L282.633 113.069L282.63 113.061L282.628 113.052L280.746 113.732ZM277.875 104.927L279.836 104.535L275.906 104.577L277.875 104.927ZM271.559 148.759L272.134 150.675L273.405 150.293L273.547 148.974L271.559 148.759ZM240.934 157.947L238.964 157.601L238.404 160.794L241.509 159.862L240.934 157.947ZM266.2 14.009L266.596 15.9693L299.709 9.2701L299.313 7.30981L298.916 5.34953L265.803 12.0488L266.2 14.009ZM299.313 7.30981L297.317 7.18105C297.058 11.2012 296.93 16.8662 296.93 24.1536H298.93H300.93C300.93 16.894 301.058 11.3299 301.309 7.43858L299.313 7.30981ZM298.93 24.1536H296.93C296.93 41.5489 297.505 56.8579 298.66 70.0738L300.653 69.8997L302.645 69.7256C301.503 56.6549 300.93 41.4666 300.93 24.1536H298.93ZM300.653 69.8997L298.66 70.0685C299.303 77.6583 300.274 83.8566 301.597 88.6185L303.524 88.0833L305.451 87.548C304.221 83.1224 303.278 77.1983 302.646 69.7308L300.653 69.8997ZM303.524 88.0833L305.494 88.4268L318.51 13.7784L316.539 13.4348L314.569 13.0913L301.553 87.7397L303.524 88.0833ZM316.539 13.4348L316.905 15.4011L349.827 9.27608L349.461 7.30981L349.095 5.34355L316.174 11.4686L316.539 13.4348ZM349.461 7.30981L347.525 6.80772C334.239 58.0368 325.539 102.479 321.442 140.121L323.43 140.337L325.418 140.554C329.488 103.164 338.142 58.9214 351.397 7.8119L349.461 7.30981ZM323.43 140.337L322.893 138.41L292.651 146.832L293.188 148.759L293.724 150.686L323.967 142.264L323.43 140.337ZM293.188 148.759L294.977 147.865C294.999 147.909 294.963 147.833 294.827 147.479C294.712 147.178 294.551 146.752 294.345 146.196C293.933 145.086 293.344 143.481 292.579 141.376L290.7 142.06L288.82 142.743C289.586 144.85 290.178 146.466 290.595 147.589C290.98 148.625 291.272 149.4 291.399 149.653L293.188 148.759ZM290.7 142.06L292.586 141.397L282.633 113.069L280.746 113.732L278.859 114.395L288.813 142.723L290.7 142.06ZM280.746 113.732L282.628 113.052C280.952 108.412 280.056 105.633 279.836 104.535L277.875 104.927L275.914 105.319C276.205 106.773 277.223 109.864 278.865 114.411L280.746 113.732ZM277.875 104.927L275.906 104.577C273.219 119.676 271.107 134.331 269.57 148.544L271.559 148.759L273.547 148.974C275.073 134.858 277.172 120.293 279.844 105.277L277.875 104.927ZM271.559 148.759L270.984 146.843L240.359 156.031L240.934 157.947L241.509 159.862L272.134 150.675L271.559 148.759ZM240.934 157.947L242.904 158.292L268.169 14.3548L266.2 14.009L264.23 13.6633L238.964 157.601L240.934 157.947ZM429.798 5.39575L431.797 5.46024L431.872 3.14279L429.569 3.40898L429.798 5.39575ZM428.65 40.9973L428.764 42.9941L430.59 42.8897L430.649 41.0618L428.65 40.9973ZM403.193 42.9114L403.003 40.9204L401.579 41.056L401.247 42.4478L403.193 42.9114ZM386.158 140.337L386.662 142.273L388.01 141.921L388.148 140.534L386.158 140.337ZM353.81 148.759L351.839 148.418L351.31 151.477L354.314 150.695L353.81 148.759ZM371.419 46.9309L373.39 47.2717L373.861 44.5473L371.126 44.9525L371.419 46.9309ZM361.083 48.6536L360.719 46.687L360.713 46.6882L361.083 48.6536ZM350.939 50.5676L348.943 50.6957L349.088 52.9522L351.31 52.533L350.939 50.5676ZM348.642 14.7747L348.412 12.7879L346.524 13.0061L346.646 14.9027L348.642 14.7747ZM429.798 5.39575L427.799 5.33127L426.651 40.9328L428.65 40.9973L430.649 41.0618L431.797 5.46024L429.798 5.39575ZM428.65 40.9973L428.536 39.0006C419.581 39.5123 411.07 40.1521 403.003 40.9204L403.193 42.9114L403.382 44.9024C411.394 44.1394 419.854 43.5032 428.764 42.9941L428.65 40.9973ZM403.193 42.9114L401.247 42.4478C392.809 77.8634 387.113 110.429 384.167 140.14L386.158 140.337L388.148 140.534C391.072 111.037 396.733 78.6521 405.138 43.3749L403.193 42.9114ZM386.158 140.337L385.654 138.402L353.306 146.824L353.81 148.759L354.314 150.695L386.662 142.273L386.158 140.337ZM353.81 148.759L355.781 149.1L373.39 47.2717L371.419 46.9309L369.449 46.5901L351.839 148.418L353.81 148.759ZM371.419 46.9309L371.126 44.9525C367.657 45.4665 364.188 46.0446 360.719 46.687L361.083 48.6536L361.448 50.6201C364.869 49.9865 368.291 49.4162 371.712 48.9093L371.419 46.9309ZM361.083 48.6536L360.713 46.6882L350.568 48.6023L350.939 50.5676L351.31 52.533L361.454 50.6189L361.083 48.6536ZM350.939 50.5676L352.935 50.4395L350.638 14.6466L348.642 14.7747L346.646 14.9027L348.943 50.6957L350.939 50.5676ZM348.642 14.7747L348.872 16.7614L430.028 7.38252L429.798 5.39575L429.569 3.40898L348.412 12.7879L348.642 14.7747ZM503.245 47.3137L503.947 49.1864L505.094 48.7564L505.232 47.5395L503.245 47.3137ZM488.698 52.8645L487.977 50.9989L487.977 50.9991L488.698 52.8645ZM474.342 58.4153H472.342V61.3329L475.064 60.2807L474.342 58.4153ZM455.202 57.4583L453.701 56.1362L453.685 56.1544L453.669 56.173L455.202 57.4583ZM450.991 68.9426L449.01 69.2159L449.012 69.2353L449.015 69.2546L450.991 68.9426ZM467.835 71.4309L468.215 73.3945L468.229 73.3916L468.244 73.3885L467.835 71.4309ZM501.139 80.8098L503.092 80.376L503.088 80.3582L503.083 80.3405L501.139 80.8098ZM492.717 114.497L491.039 113.409L491.032 113.42L492.717 114.497ZM459.413 145.697L458.397 143.973L458.392 143.976L459.413 145.697ZM417.686 146.845L415.84 146.076L415.165 147.695L416.683 148.575L417.686 146.845ZM432.999 112.966L434.132 111.318L432.191 109.984L431.189 112.115L432.999 112.966ZM452.331 116.22L451.831 114.283L451.798 114.292L451.766 114.301L452.331 116.22ZM463.624 111.818L464.568 113.581L464.578 113.575L464.587 113.57L463.624 111.818ZM447.737 100.716L448.143 102.674L448.157 102.671L448.171 102.668L447.737 100.716ZM421.323 100.142L422.47 98.5034L422.451 98.4903L422.432 98.4777L421.323 100.142ZM415.198 84.6379L417.182 84.8904L417.183 84.8805L417.184 84.8706L415.198 84.6379ZM442.569 35.4465L444.063 36.7765L444.065 36.7734L442.569 35.4465ZM486.401 5.39575L486.272 3.3999L486.264 3.40044L486.255 3.40105L486.401 5.39575ZM503.245 47.3137L502.542 45.4411C498.451 46.9753 493.596 48.8281 487.977 50.9989L488.698 52.8645L489.419 54.7301C495.029 52.5624 499.872 50.7146 503.947 49.1864L503.245 47.3137ZM488.698 52.8645L487.977 50.9991L473.621 56.5499L474.342 58.4153L475.064 60.2807L489.419 54.7299L488.698 52.8645ZM474.342 58.4153H476.342C476.342 55.2977 475.923 52.642 474.848 50.7001C474.294 49.6989 473.548 48.8544 472.575 48.2684C471.599 47.6804 470.506 47.4192 469.366 47.4192V49.4192V51.4192C469.884 51.4192 470.243 51.5329 470.511 51.6945C470.782 51.8581 471.073 52.1381 471.348 52.6363C471.933 53.6931 472.342 55.5355 472.342 58.4153H474.342ZM469.366 49.4192V47.4192C463.829 47.4192 458.606 50.5679 453.701 56.1362L455.202 57.4583L456.702 58.7803C461.24 53.6298 465.46 51.4192 469.366 51.4192V49.4192ZM455.202 57.4583L453.669 56.173C450.132 60.3902 448.396 64.7672 449.01 69.2159L450.991 68.9426L452.972 68.6693C452.565 65.7171 453.636 62.4377 456.734 58.7435L455.202 57.4583ZM450.991 68.9426L449.015 69.2546C449.319 71.1785 450.482 72.5991 452.202 73.459C453.816 74.266 455.898 74.5793 458.264 74.5793V72.5793V70.5793C456.164 70.5793 454.801 70.2866 453.991 69.8813C453.286 69.529 453.045 69.1312 452.966 68.6307L450.991 68.9426ZM458.264 72.5793V74.5793C460.872 74.5793 464.204 74.1707 468.215 73.3945L467.835 71.4309L467.454 69.4673C463.554 70.2224 460.505 70.5793 458.264 70.5793V72.5793ZM467.835 71.4309L468.244 73.3885C473.638 72.2596 478.345 71.7083 482.381 71.7083V69.7083V67.7083C477.996 67.7083 473.005 68.3053 467.425 69.4733L467.835 71.4309ZM482.381 69.7083V71.7083C487.541 71.7083 491.386 72.6039 494.091 74.2048C496.728 75.7655 498.422 78.0756 499.195 81.2791L501.139 80.8098L503.083 80.3405C502.07 76.143 499.744 72.9023 496.129 70.7625C492.581 68.6629 487.94 67.7083 482.381 67.7083V69.7083ZM501.139 80.8098L499.187 81.2437C499.663 83.3867 499.905 85.6649 499.905 88.0833H501.905H503.905C503.905 85.3974 503.636 82.8267 503.092 80.376L501.139 80.8098ZM501.905 88.0833H499.905C499.905 95.7433 497.031 104.172 491.039 113.409L492.717 114.497L494.395 115.586C500.654 105.937 503.905 96.7565 503.905 88.0833H501.905ZM492.717 114.497L491.032 113.42C483.311 125.5 472.453 135.69 458.397 143.973L459.413 145.697L460.428 147.42C474.955 138.859 486.301 128.25 494.403 115.574L492.717 114.497ZM459.413 145.697L458.392 143.976C451.109 148.297 444.057 150.396 437.21 150.396V152.396V154.396C444.909 154.396 452.659 152.029 460.433 147.417L459.413 145.697ZM437.21 152.396V150.396C430.965 150.396 424.8 148.659 418.69 145.115L417.686 146.845L416.683 148.575C423.333 152.432 430.184 154.396 437.21 154.396V152.396ZM417.686 146.845L419.532 147.614C422.705 140.001 427.793 128.74 434.809 113.817L432.999 112.966L431.189 112.115C424.167 127.051 419.048 138.377 415.84 146.076L417.686 146.845ZM432.999 112.966L431.866 114.614C436.255 117.632 440.984 119.177 446.014 119.177V117.177V115.177C441.857 115.177 437.909 113.915 434.132 111.318L432.999 112.966ZM446.014 117.177V119.177C448.266 119.177 450.562 118.825 452.895 118.139L452.331 116.22L451.766 114.301C449.761 114.891 447.846 115.177 446.014 115.177V117.177ZM452.331 116.22L452.83 118.157C456.94 117.096 460.853 115.571 464.568 113.581L463.624 111.818L462.679 110.055C459.248 111.893 455.633 113.302 451.831 114.283L452.331 116.22ZM463.624 111.818L464.587 113.57C467.247 112.107 469.376 110.558 470.861 108.888C472.359 107.201 473.28 105.297 473.28 103.204H471.28H469.28C469.28 104.047 468.924 105.045 467.871 106.23C466.803 107.431 465.104 108.721 462.66 110.065L463.624 111.818ZM471.28 103.204H473.28C473.28 100.947 472.292 99.0864 470.359 97.9079C468.587 96.8273 466.186 96.4192 463.432 96.4192V98.4192V100.419C465.91 100.419 467.433 100.809 468.277 101.323C468.96 101.74 469.28 102.272 469.28 103.204H471.28ZM463.432 98.4192V96.4192C459.633 96.4192 454.226 97.2251 447.303 98.7637L447.737 100.716L448.171 102.668C455.029 101.144 460.086 100.419 463.432 100.419V98.4192ZM447.737 100.716L447.33 98.7578C440.602 100.154 435.596 100.822 432.233 100.822V102.822V104.822C436.016 104.822 441.346 104.085 448.143 102.674L447.737 100.716ZM432.233 102.822V100.822C427.723 100.822 424.553 99.9617 422.47 98.5034L421.323 100.142L420.176 101.78C423.197 103.895 427.3 104.822 432.233 104.822V102.822ZM421.323 100.142L422.432 98.4777C420.256 97.0268 418.779 95.2184 417.919 93.0427C417.052 90.8464 416.766 88.1546 417.182 84.8904L415.198 84.6379L413.214 84.3854C412.736 88.1395 413.025 91.5408 414.199 94.5124C415.381 97.5048 417.413 99.9392 420.213 101.806L421.323 100.142ZM415.198 84.6379L417.184 84.8706C418.771 71.3196 427.566 55.3033 444.063 36.7765L442.569 35.4465L441.075 34.1165C424.395 52.8502 414.942 69.6281 413.211 84.4053L415.198 84.6379ZM442.569 35.4465L444.065 36.7734C452.486 27.2762 460.26 20.1133 467.386 15.2279C474.521 10.3364 480.897 7.80237 486.546 7.39046L486.401 5.39575L486.255 3.40105C479.655 3.88235 472.6 6.80339 465.125 11.9288C457.64 17.0603 449.623 24.4762 441.072 34.1197L442.569 35.4465ZM486.401 5.39575L486.53 7.3916C491.843 7.0488 495.564 8.83211 498.086 12.6274C500.726 16.6028 502.202 23.0151 502.202 32.1926H504.202H506.202C506.202 22.7399 504.71 15.371 501.417 10.4141C498.005 5.2771 492.826 2.97708 486.272 3.3999L486.401 5.39575ZM504.202 32.1926H502.202C502.202 36.5666 501.889 41.5297 501.257 47.0879L503.245 47.3137L505.232 47.5395C505.876 41.8686 506.202 36.7509 506.202 32.1926H504.202Z" fill="black" mask="url(#path-1-outside-1_797_505)"/>
</g>
<defs>
<filter id="filter0_d_797_505" x="0" y="0" width="510.201" height="168.794" filterUnits="userSpaceOnUse" color-interpolation-filters="sRGB">
<feFlood flood-opacity="0" result="BackgroundImageFix"/>
<feColorMatrix in="SourceAlpha" type="matrix" values="0 0 0 0 0 0 0 0 0 0 0 0 0 0 0 0 0 0 127 0" result="hardAlpha"/>
<feOffset dy="4"/>
<feGaussianBlur stdDeviation="2"/>
<feComposite in2="hardAlpha" operator="out"/>
<feColorMatrix type="matrix" values="0 0 0 0 0 0 0 0 0 0 0 0 0 0 0 0 0 0 0.25 0"/>
<feBlend mode="normal" in2="BackgroundImageFix" result="effect1_dropShadow_797_505"/>
<feBlend mode="normal" in="SourceGraphic" in2="effect1_dropShadow_797_505" result="shape"/>
</filter>
</defs>
</svg>
