<svg width="185" height="26" viewBox="0 0 185 26" fill="none" xmlns="http://www.w3.org/2000/svg">
<path d="M9.90242 6.21321C10.1591 6.2762 10.4042 6.51451 10.6378 6.92813C10.8947 7.31779 11.1401 7.81276 11.3738 8.41305C11.6076 8.99001 11.8297 9.62562 12.0402 10.3199C12.2741 10.9902 12.4729 11.6614 12.6368 12.3336C12.824 12.9819 12.9761 13.5727 13.0932 14.1062C13.2336 14.639 13.3389 15.0328 13.4091 15.2876C13.7133 16.4226 14.0524 17.4867 14.4265 18.4799C14.8006 19.473 15.1162 20.3627 15.3735 21.149C15.6541 21.9114 15.8296 22.5483 15.9 23.0597C15.9937 23.5705 15.9007 23.9114 15.621 24.0823C15.1547 24.3751 14.7583 24.5259 14.4318 24.5349C13.872 24.5502 13.4636 24.3046 13.2066 23.7983C13.0664 23.4988 12.9378 23.164 12.8208 22.7938C12.7272 22.4231 12.6336 22.0639 12.54 21.7165C12.4697 21.3684 12.3878 21.0556 12.2943 20.7782C12.224 20.4768 12.1422 20.2573 12.0488 20.1199C11.9087 19.937 11.6753 19.8267 11.3487 19.789C11.0221 19.7279 10.6372 19.7034 10.1941 19.7156C9.79755 19.7264 9.38939 19.7609 8.96959 19.819C8.54976 19.8538 8.12995 19.9003 7.71015 19.9584C7.31367 20.016 6.92885 20.0731 6.5557 20.13C6.20585 20.1629 5.9143 20.1825 5.68106 20.1889C5.19124 20.2023 4.8065 20.3411 4.52682 20.6055C4.27048 20.8691 4.06082 21.1782 3.89785 21.5327C3.75821 21.8865 3.61858 22.2637 3.47898 22.6641C3.3627 23.064 3.19973 23.4068 2.99005 23.6925C2.73376 24.0262 2.44242 24.2792 2.11601 24.4514C1.78961 24.6237 1.4748 24.714 1.17158 24.7223C0.798385 24.7325 0.506706 24.6004 0.296541 24.3262C0.10968 24.0279 0.144251 23.5486 0.400253 22.8883C0.772636 21.9448 1.14501 20.9896 1.51737 20.0227C1.91306 19.0552 2.29708 18.088 2.66944 17.1211C3.06505 16.0603 3.48401 15.0338 3.92632 14.0417C4.39196 13.049 4.84591 12.0215 5.28817 10.9594C5.4744 10.5343 5.64891 10.0395 5.81169 9.47509C5.97446 8.88729 6.17224 8.33354 6.40504 7.81383C6.63784 7.29413 6.91736 6.85481 7.2436 6.49588C7.59314 6.11299 8.03615 5.91421 8.57262 5.89955C8.99246 5.88807 9.43573 5.99263 9.90242 6.21321ZM10.5387 13.651C10.4217 13.2342 10.2463 12.7023 10.0125 12.0553C9.77865 11.4084 9.60324 10.8648 9.48623 10.4247C9.41602 10.1466 9.3109 9.97447 9.1709 9.90829C9.05419 9.81814 8.92589 9.79832 8.78598 9.84881C8.66937 9.87533 8.55281 9.94852 8.43629 10.0684C8.31977 10.1882 8.21492 10.3194 8.12174 10.462C8.05185 10.5572 7.97035 10.7111 7.87723 10.9237C7.78409 11.1129 7.67932 11.3258 7.5629 11.5623C7.46978 11.7748 7.36501 11.9994 7.24859 12.2359C7.13215 12.4491 7.039 12.6266 6.96915 12.7685C6.71299 13.2422 6.49178 13.6799 6.30553 14.0817C6.1426 14.4828 6.00303 14.9183 5.88681 15.3882C5.77051 15.7647 5.72412 16.0576 5.74762 16.267C5.77113 16.4764 5.81791 16.6268 5.88797 16.7182C5.98135 16.809 6.08636 16.8644 6.203 16.8846C6.34295 16.8807 6.47123 16.8772 6.58786 16.874C6.91438 16.8418 7.33422 16.8186 7.84736 16.8046C8.3605 16.7906 8.81531 16.7548 9.21179 16.6973C9.35171 16.6702 9.5383 16.6534 9.77155 16.647C10.0048 16.6173 10.2147 16.5649 10.4012 16.4898C10.6111 16.4141 10.7742 16.3163 10.8908 16.1964C11.0073 16.0532 11.0421 15.8656 10.9952 15.6336C10.9719 15.5642 10.9367 15.4252 10.8899 15.2164C10.8431 14.9844 10.7845 14.7526 10.7144 14.5212C10.6675 14.2892 10.6207 14.0921 10.5739 13.93C10.5504 13.744 10.5387 13.651 10.5387 13.651ZM17.959 6.58804C17.9356 6.49534 17.9704 6.37772 18.0636 6.23517C18.1568 6.09262 18.2733 5.9611 18.4131 5.8406C18.5763 5.71948 18.7512 5.62136 18.9377 5.54626C19.1242 5.44783 19.3108 5.39606 19.4974 5.39096C19.7539 5.38395 19.964 5.48321 20.1274 5.68875C20.3142 5.87032 20.4311 6.1938 20.4781 6.65919C20.5254 7.33458 20.5259 7.96458 20.4798 8.54919C20.4569 9.10982 20.4342 9.75213 20.4115 10.4761C20.3885 10.8501 20.3656 11.4107 20.343 12.158C20.3436 12.8813 20.3443 13.6747 20.345 14.538C20.3456 15.168 20.3578 15.7977 20.3817 16.4271C20.4055 17.0564 20.441 17.6388 20.4882 18.1742C20.5587 18.8256 20.664 19.2777 20.8042 19.5306C20.9444 19.7601 21.1544 19.871 21.4343 19.8634C21.6675 19.857 21.9474 19.791 22.2738 19.6654C22.6003 19.5398 23.0083 19.4003 23.498 19.2469C23.638 19.2198 23.8012 19.1803 23.9878 19.1286C24.1976 19.0762 24.3959 19.0357 24.5824 19.0073C24.7923 18.9549 24.9789 18.9148 25.1421 18.887C25.3054 18.8359 25.422 18.786 25.4919 18.7374C25.9581 18.398 26.4477 18.1163 26.9606 17.8923C27.4969 17.6443 27.9631 17.2815 28.3592 16.804C28.5922 16.4943 28.7434 15.9769 28.8127 15.2516C28.882 14.503 28.9163 13.7204 28.9156 12.9037C28.9151 12.2737 28.9029 11.6674 28.879 11.0847C28.8552 10.502 28.8315 10.036 28.8079 9.68661C28.7844 9.50058 28.7374 9.12852 28.6669 8.57043C28.6198 8.01171 28.596 7.45235 28.5955 6.89235C28.595 6.35568 28.6413 5.89941 28.7343 5.52352C28.8272 5.1243 29.0253 4.93222 29.3286 4.94727C30.145 4.97162 30.6817 5.26029 30.9387 5.81328C31.2191 6.36563 31.3596 7.01514 31.3603 7.7618C31.3608 8.29847 31.3262 8.83609 31.2567 9.37467C31.1872 9.91325 31.1293 10.3815 31.083 10.7795C31.0599 11.0368 31.0485 11.3054 31.0487 11.5854C31.049 11.8654 31.0492 12.1687 31.0495 12.4954C31.0503 13.3821 31.0628 14.3034 31.0869 15.2595C31.1344 16.1915 31.1817 17.0069 31.229 17.7056C31.2292 17.9156 31.2411 18.1953 31.2647 18.5447C31.3116 18.8701 31.3469 19.2308 31.3706 19.6268C31.4176 19.9989 31.4529 20.3829 31.4766 20.7789C31.5002 21.1516 31.5122 21.5013 31.5125 21.828C31.5129 22.2946 31.4782 22.6339 31.4084 22.8458C31.2455 23.317 30.9425 23.5586 30.4993 23.5707C30.1262 23.5809 29.7645 23.4158 29.4143 23.0753C29.0874 22.7343 28.9354 22.2601 28.9582 21.6528C28.9811 21.0921 28.9341 20.7084 28.8173 20.5016C28.7238 20.2942 28.5721 20.1933 28.3622 20.199C28.1056 20.206 27.7908 20.308 27.4178 20.5049C27.068 20.7011 26.6484 20.8876 26.1587 21.0643C25.6923 21.217 25.156 21.4184 24.5498 21.6683C23.9435 21.8948 23.3256 22.1334 22.696 22.3839C22.0665 22.6112 21.4602 22.8261 20.8772 23.0287C20.2943 23.2079 19.8162 23.326 19.443 23.3829C19.1632 23.4138 18.9415 23.3149 18.778 23.086C18.6145 22.8338 18.4859 22.499 18.3923 22.0816C18.3219 21.6635 18.2632 21.1867 18.2161 20.6513C18.1923 20.1153 18.1802 19.579 18.1797 19.0423C18.1792 18.4356 18.1787 17.864 18.1782 17.3273C18.2011 16.79 18.2124 16.393 18.2122 16.1363C18.1644 14.8776 18.105 13.5959 18.0339 12.2911C17.9628 10.963 17.9266 9.58732 17.9253 8.16399C17.9251 7.90732 17.9249 7.65066 17.9247 7.39399C17.9478 7.11335 17.9592 6.8447 17.959 6.58804ZM38.2102 11.8447C38.2099 11.448 38.1979 11.0633 38.1742 10.6906C38.1739 10.294 38.1502 9.89795 38.1032 9.50256C38.0562 9.08384 37.986 8.75908 37.8925 8.5283C37.8223 8.27354 37.6938 8.07872 37.5071 7.94382C37.3437 7.80828 37.0987 7.70997 36.7721 7.6489C36.4688 7.58718 36.0606 7.54001 35.5474 7.50737C34.8943 7.47855 34.3461 7.4002 33.9028 7.27231C33.4595 7.12109 33.261 6.88151 33.3073 6.55356C33.3069 5.99356 33.4931 5.6268 33.8662 5.45327C34.2392 5.2564 34.694 5.15063 35.2304 5.13597C35.6736 5.12386 36.1285 5.14643 36.595 5.20368C37.0616 5.2376 37.4697 5.23811 37.8196 5.20521C38.426 5.14197 39.184 5.06292 40.0936 4.96806C41.0032 4.84986 41.8661 4.77961 42.6825 4.7573C43.3123 4.74009 43.8604 4.77177 44.327 4.85236C44.7936 4.90961 45.0969 5.05299 45.2371 5.28249C45.2604 5.32852 45.3071 5.39725 45.3772 5.48867C45.4472 5.55676 45.5056 5.6485 45.5524 5.76389C45.6224 5.85531 45.6692 5.94737 45.6926 6.04006C45.716 6.13276 45.6927 6.19173 45.6227 6.21698C45.623 6.54364 45.4249 6.74739 45.0285 6.82823C44.6554 6.90843 44.2122 6.96721 43.6991 7.00457C43.2093 7.01795 42.7195 7.05467 42.2297 7.11473C41.7399 7.17478 41.3785 7.33633 41.1455 7.59937C40.9591 7.79114 40.8312 8.24964 40.7618 8.97489C40.7158 9.6995 40.6932 10.5051 40.694 11.3918C40.6944 11.9285 40.6949 12.4651 40.6954 13.0018C40.7192 13.5378 40.7429 14.0389 40.7667 14.5049C40.7904 14.9709 40.8024 15.3906 40.8027 15.7639C40.803 16.1139 40.8033 16.3706 40.8034 16.5339C40.7806 17.0712 40.8044 17.6773 40.875 18.352C40.9455 19.0034 40.9811 19.6558 40.9816 20.3091C40.982 20.7525 40.9474 21.1618 40.8777 21.537C40.8314 21.9116 40.7151 22.2298 40.5287 22.4916C40.1792 22.9445 39.8412 23.1754 39.5146 23.1843C39.3047 23.19 39.1064 23.1255 38.9197 22.9906C38.7329 22.8323 38.5695 22.6501 38.4294 22.4439C38.2892 22.2378 38.1724 22.0193 38.0789 21.7885C38.0087 21.5338 37.9735 21.3014 37.9734 21.0914C37.9726 20.2047 38.0418 19.2695 38.1808 18.2856C38.3199 17.2785 38.389 16.2966 38.3882 15.3399C38.3879 15.0132 38.3643 14.6989 38.3174 14.3968C38.2938 14.0941 38.2586 13.8034 38.2117 13.5247L38.2102 11.8447ZM46.8705 10.243C47.2194 9.11341 47.6734 8.13264 48.2325 7.30068C48.8149 6.46807 49.479 5.78491 50.225 5.25117C50.9709 4.71744 51.7636 4.32243 52.6031 4.06615C53.4659 3.7859 54.3521 3.63334 55.2618 3.60848C56.5446 3.57342 57.8044 3.77233 59.041 4.20521C60.3009 4.61412 61.421 5.22519 62.4014 6.03841C63.4051 6.82767 64.2106 7.79734 64.8181 8.94743C65.4256 10.0975 65.7299 11.3842 65.7311 12.8076C65.7315 13.2742 65.697 13.7302 65.6274 14.1754C65.465 15.2532 65.1161 16.3011 64.5805 17.3191C64.0682 18.3131 63.4159 19.2177 62.6235 20.0327C61.8545 20.8237 60.9687 21.5129 59.9662 22.1003C58.9871 22.6638 57.9494 23.0655 56.8534 23.3054C56.1071 23.4658 55.3491 23.5566 54.5794 23.5776C53.4598 23.6082 52.3517 23.4518 51.2552 23.1084C50.1819 22.7411 49.2483 22.0666 48.4544 21.0849C47.5671 19.9892 46.9364 18.9447 46.5623 17.9516C46.2116 16.9578 46.0357 15.9359 46.0348 14.8859C46.0342 14.1626 46.1035 13.4257 46.2428 12.6752C46.4054 11.9007 46.6147 11.09 46.8705 10.243ZM52.921 7.52254C51.4523 8.37937 50.3686 9.48235 49.67 10.8315C48.9948 12.1566 48.6577 13.5075 48.6589 14.8842C48.6596 15.7009 48.7769 16.491 49.0109 17.2546C49.2681 17.9943 49.6418 18.6491 50.1322 19.219C50.6225 19.7656 51.2293 20.2041 51.9527 20.5343C52.676 20.8412 53.5159 20.9816 54.4722 20.9555C54.7987 20.9465 55.1369 20.9256 55.4868 20.8927C55.8599 20.8359 56.2447 20.7437 56.6411 20.6162C57.6438 20.3321 58.4949 19.9938 59.1943 19.6014C59.8937 19.1856 60.4764 18.7146 60.9425 18.1886C61.4318 17.6385 61.8395 17.0324 62.1655 16.3701C62.4914 15.6845 62.794 14.9296 63.0732 14.1052C63.236 13.6108 63.3172 13.0719 63.3167 12.4885C63.3162 11.8585 63.234 11.2541 63.0702 10.6752C62.9064 10.073 62.6961 9.60044 62.4392 9.25745C61.7853 8.34197 60.91 7.66588 59.8134 7.22917C58.7167 6.76913 57.5736 6.55537 56.384 6.58788C55.7776 6.60445 55.1712 6.69103 54.5649 6.8476C53.9819 7.00354 53.4339 7.22852 52.921 7.52254ZM78.6249 15.2552L78.6236 13.7502C78.6229 13.0036 78.6106 12.2222 78.5866 11.4062C78.5858 10.5895 78.5503 9.96049 78.4799 9.51907C78.3626 8.72892 78.222 7.97441 78.0581 7.25554C77.8942 6.53667 77.812 5.89724 77.8115 5.33724C77.8111 4.87057 77.8924 4.48334 78.0554 4.17554C78.2418 3.86711 78.5681 3.64818 79.0345 3.51877C79.5709 3.38744 80.1773 3.2892 80.8536 3.22405C81.53 3.13556 82.2064 3.08207 82.8828 3.06359C83.2093 3.05466 83.5126 3.04637 83.7925 3.03872C84.0957 3.03044 84.3756 3.04612 84.6322 3.08577C85.5653 3.15361 86.3818 3.3763 87.0819 3.75384C87.8053 4.10741 88.4005 4.56949 88.8675 5.14007C89.3578 5.68668 89.7199 6.3068 89.9537 7.00043C90.2109 7.69342 90.3398 8.41324 90.3405 9.15991C90.3411 9.85991 90.2251 10.5631 89.9924 11.2695C89.7831 11.9752 89.4455 12.6494 88.9796 13.2922C88.5136 13.9116 87.931 14.4759 87.2316 14.985C86.5323 15.4708 85.7163 15.8548 84.7835 16.1369C84.5503 16.2133 84.2355 16.2569 83.8389 16.2678C83.4658 16.278 83.0926 16.3115 82.7194 16.3684C82.3696 16.4246 82.0548 16.5382 81.7751 16.7092C81.5186 16.8795 81.3906 17.1514 81.3909 17.5247C81.3913 18.038 81.4385 18.5968 81.5323 19.2009C81.6261 19.805 81.6733 20.3637 81.6737 20.877C81.6742 21.4837 81.5464 21.9656 81.2901 22.3226C81.0571 22.6556 80.5674 22.739 79.8208 22.5727C79.4476 22.4896 79.1907 22.1466 79.0502 21.5438C78.9331 20.9403 78.8508 20.2542 78.8035 19.4855C78.7795 18.7161 78.7672 17.9347 78.7665 17.1414C78.7658 16.3481 78.7186 15.7194 78.6249 15.2552ZM81.0006 11.2352C81.0477 11.7939 81.1414 12.2347 81.2816 12.5576C81.4218 12.8571 81.597 13.0856 81.807 13.2432C82.0171 13.4008 82.2504 13.4994 82.507 13.5391C82.787 13.5548 83.0785 13.5468 83.3817 13.5152C83.9648 13.4526 84.4312 13.3815 84.781 13.3019C85.1308 13.199 85.4223 13.0744 85.6554 12.928C85.9119 12.781 86.1333 12.6116 86.3197 12.4199C86.5061 12.2048 86.7042 11.966 86.9139 11.7036C87.6595 10.7966 88.032 9.92302 88.0312 9.08302C88.0308 8.56969 87.9138 8.10621 87.6801 7.69258C87.4465 7.27896 87.1313 6.9259 86.7346 6.6334C86.3611 6.31693 85.9294 6.08373 85.4394 5.93378C84.9494 5.7605 84.4595 5.68055 83.9697 5.69394C83.5499 5.70542 83.1417 5.78657 82.7453 5.93741C82.3489 6.08825 81.9876 6.31979 81.6613 6.63205C81.3817 6.89637 81.1837 7.27512 81.0675 7.76831C80.9513 8.23816 80.8935 8.79975 80.894 9.45309C80.8945 10.0131 80.93 10.6071 81.0006 11.2352ZM99.4539 3.76571C99.7106 3.8287 99.9557 4.06701 100.189 4.48063C100.446 4.87029 100.692 5.36526 100.925 5.96555C101.159 6.54251 101.381 7.17812 101.592 7.87238C101.826 8.54267 102.024 9.21392 102.188 9.88612C102.375 10.5344 102.528 11.1252 102.645 11.6587C102.785 12.1915 102.89 12.5853 102.961 12.8401C103.265 13.9751 103.604 15.0392 103.978 16.0324C104.352 17.0255 104.668 17.9152 104.925 18.7015C105.206 19.4639 105.381 20.1008 105.451 20.6122C105.545 21.123 105.452 21.4639 105.172 21.6348C104.706 21.9276 104.31 22.0784 103.983 22.0874C103.424 22.1027 103.015 21.8571 102.758 21.3508C102.618 21.0513 102.489 20.7165 102.372 20.3463C102.279 19.9756 102.185 19.6164 102.092 19.269C102.021 18.9209 101.939 18.6081 101.846 18.3307C101.776 18.0293 101.694 17.8098 101.6 17.6724C101.46 17.4895 101.227 17.3792 100.9 17.3415C100.574 17.2804 100.189 17.2559 99.7456 17.2681C99.3491 17.2789 98.9409 17.3134 98.5211 17.3715C98.1013 17.4063 97.6815 17.4528 97.2617 17.5109C96.8652 17.5685 96.4804 17.6256 96.1072 17.6825C95.7574 17.7154 95.4658 17.735 95.2326 17.7414C94.7428 17.7548 94.358 17.8936 94.0783 18.158C93.822 18.4216 93.6123 18.7307 93.4494 19.0852C93.3097 19.439 93.1701 19.8162 93.0305 20.2166C92.9142 20.6165 92.7512 20.9593 92.5416 21.245C92.2853 21.5787 91.9939 21.8317 91.6675 22.0039C91.3411 22.1762 91.0263 22.2665 90.7231 22.2748C90.3499 22.285 90.0582 22.1529 89.8481 21.8787C89.6612 21.5804 89.6958 21.1011 89.9518 20.4408C90.3241 19.4973 90.6965 18.5421 91.0689 17.5752C91.4646 16.6077 91.8486 15.6405 92.221 14.6736C92.6166 13.6128 93.0355 12.5863 93.4778 11.5942C93.9435 10.6015 94.3974 9.57404 94.8397 8.51193C95.0259 8.08683 95.2004 7.59205 95.3632 7.02759C95.526 6.43979 95.7238 5.88604 95.9566 5.36633C96.1894 4.84663 96.4689 4.40731 96.7951 4.04838C97.1447 3.66549 97.5877 3.46671 98.1241 3.45205C98.544 3.44057 98.9872 3.54513 99.4539 3.76571ZM100.09 11.2035C99.9732 10.7867 99.7978 10.2548 99.564 9.60784C99.3302 8.96088 99.1548 8.41733 99.0377 7.97718C98.9675 7.6991 98.8624 7.52697 98.7224 7.46079C98.6057 7.37065 98.4774 7.35082 98.3375 7.40131C98.2209 7.42783 98.1043 7.50102 97.9878 7.62087C97.8713 7.74073 97.7664 7.87193 97.6733 8.01448C97.6034 8.10972 97.5219 8.26362 97.4287 8.47617C97.3356 8.66539 97.2308 8.87826 97.1144 9.11478C97.0213 9.32733 96.9165 9.55186 96.8001 9.78838C96.6837 10.0016 96.5905 10.1791 96.5207 10.321C96.2645 10.7947 96.0433 11.2324 95.857 11.6342C95.6941 12.0353 95.5545 12.4708 95.4383 12.9407C95.322 13.3172 95.2756 13.6101 95.2991 13.8195C95.3226 14.0289 95.3694 14.1793 95.4395 14.2707C95.5329 14.3615 95.6379 14.4169 95.7545 14.4371C95.8945 14.4332 96.0227 14.4297 96.1394 14.4265C96.4659 14.3943 96.8857 14.3711 97.3989 14.3571C97.912 14.3431 98.3668 14.3073 98.7633 14.2498C98.9032 14.2227 99.0898 14.2059 99.3231 14.1995C99.5563 14.1698 99.7662 14.1174 99.9527 14.0423C100.163 13.9666 100.326 13.8688 100.442 13.7489C100.559 13.6057 100.594 13.4181 100.547 13.1861C100.523 13.1167 100.488 12.9777 100.441 12.7689C100.395 12.5369 100.336 12.3051 100.266 12.0737C100.219 11.8417 100.172 11.6446 100.125 11.4825C100.102 11.2965 100.09 11.2035 100.09 11.2035ZM108.079 14.3802L108.077 12.1402C108.077 11.4636 108.064 10.8106 108.041 10.1812C108.04 9.52786 108.005 9.01548 107.934 8.64406C107.817 7.85391 107.676 7.09941 107.512 6.38053C107.349 5.66166 107.266 5.02223 107.266 4.46223C107.265 3.99556 107.347 3.60833 107.51 3.30054C107.696 2.9921 108.022 2.77318 108.489 2.64376C109.025 2.51244 109.632 2.41419 110.308 2.34904C111.008 2.25992 111.696 2.20611 112.372 2.18762C112.699 2.1787 113.002 2.18208 113.282 2.19776C113.562 2.19011 113.842 2.19413 114.121 2.20981C115.055 2.27765 115.883 2.48835 116.606 2.84192C117.33 3.19549 117.936 3.64558 118.427 4.1922C118.917 4.73881 119.291 5.35861 119.548 6.0516C119.805 6.74458 119.934 7.46441 119.935 8.21108C119.935 9.12108 119.738 10.0365 119.342 10.9573C118.97 11.8542 118.376 12.6638 117.56 13.3861C117.117 13.7949 116.721 14.0974 116.371 14.2936C116.045 14.4659 115.882 14.6803 115.882 14.937C115.882 15.1237 115.987 15.3541 116.197 15.6284C116.408 15.9027 116.746 16.2667 117.213 16.7207C117.54 17.0384 117.808 17.2644 118.018 17.3987C118.252 17.509 118.555 17.6873 118.928 17.9338C119.442 18.2931 119.92 18.595 120.364 18.8396C120.83 19.0835 121.064 19.3688 121.064 19.6955C121.064 19.8821 120.948 20.1187 120.715 20.405C120.505 20.6908 120.097 20.9236 119.491 21.1035C119.258 21.1799 118.966 21.1178 118.616 20.9174C118.266 20.717 117.893 20.4705 117.496 20.178C117.122 19.8849 116.749 19.5801 116.376 19.2636C116.025 18.9465 115.734 18.6978 115.5 18.5175C115.313 18.4059 115.045 18.2383 114.695 18.0145C114.368 17.7668 113.995 17.5203 113.575 17.2751C112.595 16.7419 111.895 16.481 111.475 16.4925C110.985 16.5059 110.74 16.8509 110.741 17.5276C110.741 17.8309 110.8 18.2726 110.917 18.8528C111.034 19.4329 111.093 19.933 111.093 20.353C111.094 20.8897 110.954 21.3135 110.675 21.6245C110.395 21.9121 109.882 21.9728 109.135 21.8065C108.739 21.7007 108.482 21.2761 108.364 20.5326C108.27 19.7651 108.223 18.9147 108.222 17.9814L108.221 16.7564C108.221 16.2897 108.209 15.8467 108.185 15.4274C108.185 15.0074 108.149 14.6583 108.079 14.3802ZM110.455 10.3602C110.502 10.9189 110.596 11.3597 110.736 11.6826C110.876 11.9821 111.051 12.2106 111.261 12.3682C111.471 12.5258 111.705 12.6244 111.961 12.6641C112.241 12.6798 112.544 12.6715 112.871 12.6392C113.431 12.5773 113.886 12.5065 114.235 12.4269C114.608 12.3234 114.912 12.1985 115.145 12.0521C115.401 11.9051 115.611 11.736 115.774 11.5449C115.96 11.3298 116.17 11.0907 116.403 10.8277C116.799 10.3502 117.079 9.89917 117.242 9.47471C117.405 9.05024 117.486 8.63968 117.486 8.24301C117.485 7.72968 117.356 7.26652 117.099 6.85353C116.866 6.41657 116.551 6.05185 116.154 5.75935C115.78 5.44288 115.349 5.20968 114.859 5.05973C114.369 4.88645 113.879 4.8065 113.389 4.81989C112.969 4.83137 112.561 4.91252 112.165 5.06336C111.792 5.19023 111.442 5.40979 111.116 5.72205C110.836 5.98636 110.638 6.36511 110.522 6.8583C110.429 7.35085 110.383 7.92379 110.383 8.57712C110.384 8.85712 110.384 9.14879 110.384 9.45212C110.408 9.73149 110.431 10.0342 110.455 10.3602ZM127.181 9.41307C127.181 9.0164 127.169 8.63172 127.145 8.25902C127.145 7.86236 127.121 7.46633 127.074 7.07094C127.027 6.65221 126.957 6.32746 126.863 6.09667C126.793 5.84192 126.664 5.64709 126.478 5.51219C126.314 5.37665 126.069 5.27835 125.743 5.21727C125.439 5.15556 125.031 5.10838 124.518 5.07574C123.865 5.04692 123.317 4.96857 122.873 4.84068C122.43 4.68946 122.232 4.44988 122.278 4.12194C122.278 3.56194 122.464 3.19517 122.837 3.02164C123.21 2.82477 123.665 2.71901 124.201 2.70435C124.644 2.69224 125.099 2.7148 125.566 2.77205C126.032 2.80597 126.44 2.80648 126.79 2.77359C127.397 2.71035 128.155 2.6313 129.064 2.53643C129.974 2.41824 130.837 2.34799 131.653 2.32567C132.283 2.30846 132.831 2.34015 133.298 2.42073C133.764 2.47798 134.068 2.62136 134.208 2.85087C134.231 2.8969 134.278 2.96562 134.348 3.05705C134.418 3.12513 134.476 3.21687 134.523 3.33226C134.593 3.42368 134.64 3.51574 134.663 3.60844C134.687 3.70113 134.663 3.76011 134.593 3.78535C134.594 4.11202 134.396 4.31577 133.999 4.39661C133.626 4.47681 133.183 4.53558 132.67 4.57294C132.18 4.58633 131.69 4.62305 131.2 4.6831C130.711 4.74316 130.349 4.9047 130.116 5.16775C129.93 5.35951 129.802 5.81802 129.733 6.54326C129.687 7.26787 129.664 8.07351 129.665 8.96018C129.665 9.49684 129.666 10.0335 129.666 10.5702C129.69 11.1062 129.714 11.6072 129.737 12.0733C129.761 12.5393 129.773 12.959 129.773 13.3323C129.774 13.6823 129.774 13.939 129.774 14.1023C129.751 14.6396 129.775 15.2456 129.846 15.9204C129.916 16.5718 129.952 17.2242 129.952 17.8775C129.953 18.3209 129.918 18.7301 129.848 19.1054C129.802 19.48 129.686 19.7982 129.499 20.06C129.15 20.5128 128.812 20.7438 128.485 20.7527C128.275 20.7584 128.077 20.6938 127.89 20.5589C127.704 20.4007 127.54 20.2185 127.4 20.0123C127.26 19.8061 127.143 19.5877 127.05 19.3569C126.979 19.1021 126.944 18.8698 126.944 18.6598C126.943 17.7731 127.012 16.8378 127.152 15.854C127.291 14.8469 127.36 13.8649 127.359 12.9083C127.359 12.5816 127.335 12.2673 127.288 11.9652C127.265 11.6625 127.229 11.3718 127.182 11.0931L127.181 9.41307ZM145.588 9.96001C145.728 10.1895 145.915 10.4644 146.149 10.7847C146.382 11.0817 146.604 11.4023 146.814 11.7465C147.281 12.4338 147.655 12.9953 147.935 13.4309C148.216 13.8666 148.437 14.0822 148.601 14.0778C148.764 14.0733 148.845 13.6861 148.845 12.9161C148.845 12.7294 148.844 12.5311 148.844 12.3211C148.844 12.1111 148.832 11.8781 148.809 11.622C148.761 11.1333 148.749 10.5853 148.772 9.97799C148.818 9.34672 148.841 8.72775 148.84 8.12108C148.84 7.51441 148.804 6.93204 148.734 6.37395C148.687 5.81522 148.57 5.34008 148.383 4.94851C148.219 4.62631 148.102 4.30283 148.032 3.97807C147.962 3.62999 147.927 3.29261 147.926 2.96594C147.926 2.42928 148.019 1.97173 148.205 1.59329C148.415 1.19089 148.718 0.98427 149.114 0.973433C149.557 0.961321 150.082 1.25031 150.689 1.8404C150.806 1.95388 150.9 2.348 150.97 3.02275C151.064 3.67354 151.135 4.49996 151.182 5.50201C151.253 6.50343 151.313 7.63351 151.36 8.89223C151.408 10.151 151.456 11.433 151.504 12.7384C151.551 14.0438 151.587 15.3145 151.612 16.5505C151.66 17.7859 151.719 18.881 151.79 19.8358C151.813 20.0918 151.697 20.2816 151.44 20.4053C151.207 20.5284 150.927 20.5943 150.601 20.6033C150.181 20.6147 149.738 20.5568 149.271 20.4296C148.828 20.3017 148.536 20.1463 148.396 19.9635C147.999 19.5077 147.614 18.9115 147.24 18.1751C146.866 17.4153 146.48 16.7258 146.083 16.1066C145.406 15.0284 144.729 13.9736 144.051 12.9421C143.397 11.8866 142.732 10.7848 142.054 9.63659C141.564 8.80997 141.12 8.16875 140.723 7.71292C140.349 7.25646 140.034 7.03173 139.778 7.03874C139.381 7.04958 139.183 7.62666 139.184 8.77C139.185 8.98 139.185 9.20166 139.185 9.43499C139.185 9.66833 139.209 9.92436 139.256 10.2031C139.303 10.4818 139.326 10.7845 139.326 11.1112C139.327 11.4378 139.327 11.7762 139.327 12.1262L139.329 14.2962C139.33 14.9728 139.342 15.6258 139.366 16.2552C139.413 16.8839 139.495 17.4534 139.612 17.9635C139.729 18.4737 139.788 18.8921 139.788 19.2187C139.789 19.8954 139.649 20.4126 139.37 20.7702C139.09 21.1279 138.775 21.3115 138.426 21.321C138.052 21.3312 137.702 21.1308 137.375 20.7197C137.072 20.308 136.92 19.6588 136.919 18.7721L136.915 14.7121C136.914 13.4055 136.89 12.1111 136.842 10.8291C136.818 9.54637 136.747 8.34661 136.629 7.2298C136.605 7.02044 136.547 6.76536 136.453 6.46458C136.383 6.16316 136.301 5.85039 136.208 5.52628C136.137 5.20152 136.067 4.87677 135.997 4.55201C135.927 4.20393 135.891 3.87821 135.891 3.57488C135.891 3.13155 135.984 2.75567 136.17 2.44723C136.356 2.1388 136.706 1.9309 137.219 1.82355C137.616 1.74271 137.965 1.63981 138.268 1.51486C138.572 1.38991 138.91 1.439 139.283 1.66213C139.937 2.04095 140.567 2.58374 141.174 3.29049C141.781 3.99725 142.353 4.75163 142.89 5.55364C143.451 6.355 143.953 7.15796 144.397 7.96252C144.864 8.7431 145.261 9.40893 145.588 9.96001ZM165.086 2.00696C165.319 1.97725 165.517 1.96016 165.68 1.9557C165.867 1.92727 166.03 1.93447 166.17 1.97731C166.334 2.01952 166.485 2.09704 166.625 2.20988C166.765 2.29939 166.929 2.45826 167.116 2.6865C167.326 2.93743 167.442 3.19091 167.466 3.44693C167.49 3.67963 167.42 3.89154 167.257 4.08267C167.117 4.24983 166.86 4.37351 166.487 4.45371C166.114 4.53391 165.624 4.52396 165.018 4.42387C164.761 4.38422 164.376 4.35973 163.863 4.35042C163.373 4.31714 162.848 4.30816 162.289 4.32345C161.752 4.33812 161.216 4.37611 160.679 4.43744C160.143 4.47544 159.653 4.55882 159.21 4.6876C158.767 4.79305 158.394 4.94325 158.091 5.1382C157.811 5.30918 157.66 5.53499 157.637 5.81563C157.567 6.42421 157.533 6.92683 157.533 7.3235C157.533 7.86016 157.674 8.24134 157.954 8.46702C158.234 8.66937 158.829 8.75812 159.738 8.73326C160.182 8.72114 160.776 8.68155 161.523 8.61449C162.292 8.54679 163.074 8.5021 163.867 8.48042C164.706 8.45747 165.488 8.49445 166.211 8.59136C166.934 8.66493 167.424 8.86154 167.681 9.1812C167.985 9.54624 168.136 9.84543 168.137 10.0788C168.137 10.4754 167.776 10.7303 167.053 10.8434C166.33 10.9565 165.455 11.0271 164.429 11.0551C163.682 11.0755 162.924 11.1079 162.155 11.1523C161.385 11.1733 160.674 11.2511 160.021 11.3856C159.368 11.4968 158.82 11.6868 158.377 11.9555C157.957 12.2237 157.724 12.6034 157.678 13.0947C157.655 13.3753 157.632 13.6793 157.609 14.0066C157.586 14.3339 157.574 14.6609 157.575 14.9875C157.575 15.3842 157.599 15.7686 157.646 16.1406C157.716 16.512 157.821 16.8358 157.961 17.112C158.125 17.3642 158.335 17.5452 158.592 17.6548C158.872 17.7638 159.221 17.7543 159.641 17.6261C160.434 17.3944 161.285 17.2312 162.195 17.1363C163.128 17.0175 164.061 16.9453 164.994 16.9198L166.043 16.8911C166.72 16.896 167.28 17.044 167.723 17.3352C168.166 17.6265 168.388 17.9354 168.389 18.2621C168.389 18.4954 168.237 18.7095 167.934 18.9045C167.655 19.0755 167.165 19.1705 166.465 19.1897C165.439 19.2177 164.366 19.3054 163.246 19.4526C162.127 19.5766 161.077 19.7452 160.098 19.9587C159.492 20.0919 158.874 20.2838 158.244 20.5344C157.638 20.7843 157.09 20.9159 156.6 20.9293C156.157 20.9414 155.784 20.8 155.48 20.5049C155.177 20.2099 154.989 19.62 154.919 18.7352C154.895 18.4325 154.872 18.1415 154.848 17.8621C154.848 17.5821 154.848 17.2905 154.847 16.9871C154.846 15.8905 154.88 14.7812 154.949 13.6593C155.042 12.5367 155.087 11.4154 155.086 10.2954C155.086 9.80543 155.074 9.32742 155.05 8.86139C155.026 8.37203 154.979 7.89497 154.909 7.43021C154.862 7.24482 154.804 7.00142 154.733 6.7C154.663 6.37524 154.593 6.02715 154.522 5.65573C154.452 5.28431 154.394 4.91257 154.347 4.54052C154.3 4.16846 154.276 3.81909 154.276 3.49243C154.275 2.97909 154.357 2.60353 154.52 2.36574C154.706 2.08064 155.009 1.88568 155.429 1.78087C155.849 1.65273 156.338 1.58101 156.898 1.56571C157.528 1.5485 158.216 1.57636 158.962 1.6493C159.709 1.72223 160.455 1.79516 161.202 1.8681C161.925 1.94167 162.613 2.00453 163.266 2.05668C163.943 2.08486 164.549 2.06829 165.086 2.00696ZM171.766 12.6396L171.764 10.3996C171.764 9.72296 171.752 9.06994 171.728 8.44058C171.727 7.78725 171.692 7.27487 171.621 6.90345C171.504 6.1133 171.363 5.3588 171.2 4.63992C171.036 3.92105 170.953 3.28162 170.953 2.72162C170.953 2.25495 171.034 1.86772 171.197 1.55993C171.383 1.25149 171.71 1.03257 172.176 0.903154C172.712 0.771825 173.319 0.673584 173.995 0.60843C174.695 0.519306 175.383 0.465501 176.059 0.447014C176.386 0.43809 176.689 0.441469 176.969 0.457152C177.249 0.449503 177.529 0.453519 177.809 0.469203C178.742 0.537037 179.57 0.74774 180.293 1.10131C181.017 1.45488 181.624 1.90497 182.114 2.45159C182.604 2.9982 182.978 3.618 183.235 4.31099C183.492 5.00397 183.621 5.7238 183.622 6.47047C183.623 7.38047 183.425 8.29589 183.029 9.21672C182.657 10.1136 182.063 10.9232 181.247 11.6455C180.804 12.0543 180.408 12.3568 180.058 12.553C179.732 12.7253 179.569 12.9397 179.569 13.1964C179.569 13.3831 179.674 13.6135 179.885 13.8878C180.095 14.162 180.433 14.5261 180.9 14.98C181.227 15.2978 181.495 15.5238 181.705 15.6581C181.939 15.7683 182.242 15.9467 182.616 16.1932C183.129 16.5525 183.608 16.8544 184.051 17.099C184.518 17.3429 184.751 17.6282 184.751 17.9549C184.752 18.1415 184.635 18.3781 184.402 18.6644C184.192 18.9502 183.784 19.183 183.178 19.3629C182.945 19.4393 182.653 19.3772 182.303 19.1768C181.953 18.9764 181.58 18.7299 181.183 18.4374C180.81 18.1443 180.436 17.8395 180.063 17.523C179.713 17.2059 179.421 16.9572 179.187 16.7769C179.001 16.6653 178.732 16.4977 178.382 16.2739C178.055 16.0262 177.682 15.7797 177.262 15.5345C176.282 15.0013 175.582 14.7404 175.162 14.7519C174.672 14.7653 174.428 15.1103 174.428 15.7869C174.428 16.0903 174.487 16.532 174.604 17.1122C174.721 17.6923 174.78 18.1924 174.78 18.6124C174.781 19.1491 174.641 19.5729 174.362 19.8839C174.082 20.1715 173.569 20.2322 172.822 20.0659C172.426 19.9601 172.169 19.5354 172.052 18.792C171.958 18.0245 171.91 17.1741 171.909 16.2408L171.908 15.0158C171.908 14.5491 171.896 14.1061 171.872 13.6868C171.872 13.2668 171.837 12.9177 171.766 12.6396ZM174.142 8.6196C174.189 9.17833 174.283 9.61911 174.423 9.94195C174.563 10.2415 174.738 10.47 174.948 10.6276C175.159 10.7852 175.392 10.8838 175.648 10.9235C175.928 10.9392 176.232 10.9309 176.558 10.8986C177.118 10.8367 177.573 10.7659 177.922 10.6863C178.296 10.5828 178.599 10.4578 178.832 10.3115C179.088 10.1645 179.298 9.99539 179.461 9.80426C179.648 9.58916 179.857 9.35009 180.09 9.08704C180.486 8.60954 180.766 8.15856 180.929 7.7341C181.092 7.30963 181.173 6.89907 181.173 6.5024C181.172 5.98907 181.044 5.52591 180.787 5.11292C180.553 4.67596 180.238 4.31124 179.841 4.01874C179.468 3.70227 179.036 3.46907 178.546 3.31912C178.056 3.14584 177.566 3.06589 177.076 3.07928C176.656 3.09076 176.248 3.17191 175.852 3.32275C175.479 3.44962 175.129 3.66918 174.803 3.98144C174.523 4.24575 174.325 4.6245 174.209 5.11769C174.116 5.61024 174.07 6.18318 174.07 6.83651C174.071 7.11651 174.071 7.40818 174.071 7.71151C174.095 7.99088 174.118 8.29357 174.142 8.6196Z" fill="black"/>
</svg>
