<svg width="151" height="65" viewBox="0 0 151 65" fill="none" xmlns="http://www.w3.org/2000/svg">
<path d="M13.4951 1.20974C14.0697 1.37544 14.6085 1.66053 15.1116 2.06499C15.6167 2.44286 16.0491 2.8998 16.4089 3.43581C16.7973 3.94551 17.0893 4.49412 17.285 5.08163C17.5094 5.64283 17.6414 6.18976 17.6812 6.72241C17.7274 7.52125 17.6801 8.14613 17.5392 8.59705C17.425 9.04825 17.2369 9.41884 16.9747 9.70881C16.7393 9.99907 16.4381 10.2753 16.0714 10.5376C15.7333 10.7735 15.3901 11.076 15.042 11.4449C15.4812 11.6358 15.859 11.9325 16.1755 12.335C16.5186 12.7378 16.79 13.2063 16.9897 13.7406C17.2181 14.2487 17.3779 14.7826 17.4689 15.3424C17.56 15.9022 17.5864 16.4347 17.5481 16.9399C17.5139 17.392 17.415 17.8167 17.2515 18.2142C16.9919 18.8235 16.5763 19.378 16.0047 19.8776C15.4332 20.3772 14.7856 20.8228 14.0622 21.2144C13.3673 21.5797 12.6376 21.878 11.8728 22.1095C11.1081 22.341 10.417 22.4801 9.79972 22.5268C9.47571 22.5766 9.16705 22.6 8.87373 22.5969C8.58041 22.5939 8.2871 22.5908 7.99378 22.5877C7.30048 22.5804 6.65222 22.5071 6.04899 22.3677C5.44374 22.2549 4.85887 22.0491 4.29438 21.7505C3.83252 21.5061 3.5367 21.1837 3.4069 20.7831C3.27711 20.3826 3.23234 19.9164 3.2726 19.3846C3.31287 18.8528 3.39514 18.2948 3.51942 17.7107C3.64371 17.1265 3.729 16.5287 3.7753 15.9171C3.91219 14.1089 4.04078 12.2341 4.16107 10.2927C4.28136 8.35135 4.41297 6.43669 4.5559 4.54876C4.61227 3.80422 4.72523 3.19334 4.89479 2.71611C5.06435 2.23888 5.30586 1.86885 5.61931 1.60603C5.93477 1.31661 6.32217 1.1344 6.78152 1.05939C7.26955 0.958067 7.84687 0.910908 8.5135 0.917909C9.15347 0.924631 9.88475 0.958924 10.7073 1.02079C11.5299 1.08265 12.4592 1.14563 13.4951 1.20974ZM8.01155 4.9044C7.68804 5.30017 7.4981 5.87033 7.44173 6.61487C7.40751 7.06691 7.39995 7.51923 7.41906 7.97183C7.46483 8.42471 7.48696 8.83742 7.48544 9.20997C7.48191 9.60911 7.6341 9.89013 7.942 10.053C8.25192 10.1893 8.63353 10.2599 9.08684 10.2646C9.70014 10.2711 10.3605 10.1849 11.0679 10.006C11.7753 9.82718 12.3093 9.6465 12.6701 9.46401C13.4182 9.09931 13.952 8.74565 14.2715 8.40306C14.6197 8.03415 14.8078 7.66356 14.836 7.29129C14.8662 6.89244 14.7221 6.50505 14.4036 6.12914C14.1118 5.75351 13.7227 5.43009 13.2362 5.15886C12.7783 4.86132 12.2488 4.62956 11.6476 4.46358C11.073 4.29787 10.5191 4.21222 9.9858 4.20662C9.55916 4.20213 9.16848 4.25125 8.81378 4.35398C8.48575 4.45698 8.21834 4.64045 8.01155 4.9044ZM6.84835 15.5103C6.80607 16.0687 6.74619 16.5071 6.6687 16.8256C6.6199 17.1179 6.58543 17.3969 6.56529 17.6628C6.54114 17.9819 6.60024 18.4349 6.74261 19.0219L7.27842 19.3469C7.50633 19.5089 7.84694 19.5923 8.30025 19.5971C8.78223 19.5755 9.26623 19.5274 9.75225 19.4527C10.2669 19.3516 10.7416 19.2502 11.1763 19.1483C11.6397 19.0201 11.9544 18.917 12.1204 18.8389C12.7559 18.5528 13.3 18.2392 13.7528 17.898C14.2343 17.5305 14.4952 17.0808 14.5354 16.549C14.5677 16.1236 14.4306 15.6431 14.1242 15.1077C13.9823 14.8667 13.7451 14.6513 13.4125 14.4615C13.1066 14.272 12.7454 14.1085 12.3288 13.9711C11.9123 13.8337 11.4527 13.7357 10.9501 13.6772C10.4761 13.5924 10.0125 13.5476 9.55919 13.5428C8.86589 13.5356 8.25888 13.6223 7.73815 13.8031C7.21943 13.9574 6.94598 14.2206 6.9178 14.5929C6.94446 14.5932 6.93339 14.7394 6.88458 15.0316C6.86445 15.2975 6.85237 15.4571 6.84835 15.5103ZM33.8489 1.74286C34.1176 1.71907 34.3452 1.70815 34.5319 1.71012C34.7472 1.68577 34.9329 1.70102 35.0888 1.75588C35.2715 1.81102 35.4377 1.90591 35.5877 2.04055C35.7396 2.14859 35.9122 2.33668 36.1054 2.60483C36.3232 2.89985 36.4344 3.19374 36.4389 3.48652C36.4454 3.75271 36.3473 3.99118 36.1446 4.20194C35.9705 4.3864 35.6671 4.51627 35.2344 4.59156C34.8017 4.66685 34.2438 4.63438 33.5605 4.49414C33.2713 4.43788 32.8343 4.39338 32.2497 4.36062C31.6937 4.30156 31.0958 4.26867 30.4558 4.26195C29.8425 4.25551 29.2272 4.27565 28.6099 4.32239C27.9946 4.34254 27.4286 4.41643 26.9118 4.54406C26.3972 4.64511 25.9584 4.80017 25.5957 5.00925C25.2616 5.19202 25.0692 5.44281 25.0183 5.76162C24.886 6.45214 24.8027 7.02341 24.7685 7.47545C24.7222 8.08704 24.849 8.52746 25.1488 8.79673C25.4507 9.0394 26.1216 9.1662 27.1615 9.17713C27.6682 9.18245 28.3502 9.163 29.2075 9.11878C30.0914 9.07484 30.9867 9.05763 31.8934 9.06716C32.8533 9.07724 33.7416 9.1531 34.5581 9.29473C35.3767 9.40978 35.9185 9.65497 36.1837 10.0303C36.4981 10.4594 36.6453 10.8069 36.6251 11.0728C36.5909 11.5249 36.1565 11.7997 35.3218 11.8974C34.4871 11.9951 33.4831 12.0378 32.3099 12.0254C31.4566 12.0165 30.589 12.0207 29.707 12.038C28.827 12.0288 28.0087 12.0867 27.252 12.2118C26.4974 12.3103 25.8556 12.5032 25.3268 12.7904C24.8247 13.0778 24.5259 13.5005 24.4303 14.0583C24.3794 14.3771 24.3266 14.7225 24.2717 15.0945C24.2169 15.4665 24.1754 15.8386 24.1472 16.2109C24.113 16.6629 24.1064 17.1019 24.1275 17.528C24.1753 17.9542 24.2671 18.3278 24.403 18.6485C24.5675 18.943 24.7914 19.1582 25.0746 19.2943C25.3845 19.4306 25.7845 19.4348 26.2746 19.3069C27.1993 19.0771 28.1847 18.9278 29.2306 18.8589C30.3053 18.7638 31.3759 18.7218 32.4425 18.733L33.6425 18.7456C34.4137 18.7803 35.0396 18.9731 35.5201 19.3241C36.0006 19.6751 36.2267 20.0368 36.1985 20.409C36.1784 20.675 35.9869 20.9124 35.6242 21.1215C35.2901 21.3043 34.7231 21.3915 33.9231 21.3831C32.7499 21.3708 31.5182 21.4244 30.2283 21.5439C28.9403 21.6368 27.7283 21.7837 26.5922 21.9847C25.8889 22.1104 25.1671 22.3024 24.427 22.5607C23.7136 22.8193 23.0769 22.9457 22.5169 22.9398C22.0103 22.9345 21.5967 22.7572 21.2763 22.4079C20.9558 22.0585 20.7938 21.3782 20.7903 20.367C20.7898 20.021 20.7883 19.6883 20.7858 19.369C20.81 19.0499 20.8351 18.7175 20.8613 18.3718C20.9559 17.1221 21.0915 15.8594 21.2681 14.5839C21.4714 13.3087 21.6214 12.0329 21.718 10.7566C21.7603 10.1982 21.7882 9.65292 21.8018 9.12083C21.8174 8.56215 21.8054 8.01648 21.7656 7.48383C21.7284 7.27055 21.6829 6.99064 21.6291 6.64413C21.5773 6.27102 21.5275 5.87132 21.4797 5.44503C21.4319 5.01874 21.3974 4.59259 21.3763 4.16658C21.3552 3.74057 21.3587 3.34143 21.3869 2.96917C21.4312 2.38417 21.5567 1.9597 21.7635 1.69576C22.001 1.37891 22.3637 1.16983 22.8518 1.06851C23.3418 0.940596 23.9068 0.880001 24.5468 0.886723C25.2667 0.894285 26.0493 0.955728 26.8946 1.07105C27.7398 1.18638 28.585 1.3017 29.4303 1.41703C30.2488 1.53207 31.0284 1.6334 31.769 1.72101C32.5383 1.78232 33.2316 1.7896 33.8489 1.74286ZM44.3327 9.55707C44.4358 9.95732 44.5256 10.3574 44.6021 10.7574C44.7072 11.1311 44.8124 11.5048 44.9175 11.8784C45.2973 13.559 45.6339 14.4008 45.9272 14.4038C46.1139 14.4058 46.3186 14.1684 46.5415 13.6918C46.7644 13.2151 47.0711 12.5131 47.4615 11.5858C47.6925 11.0028 47.9121 10.393 48.1204 9.75652C48.3307 9.09344 48.541 8.43035 48.7513 7.76727C49.0578 6.8923 49.3365 6.03035 49.5876 5.18141C49.8653 4.33275 50.136 3.57716 50.3997 2.91464C50.69 2.25239 50.9836 1.72324 51.2804 1.32718C51.5793 0.904536 51.9154 0.695172 52.2887 0.699093C52.6887 0.703294 53.1198 1.00055 53.5822 1.59086C53.876 1.9399 54.0058 2.34044 53.9716 2.79248C53.9333 3.2977 53.7464 3.82797 53.4108 4.3833C53.1039 4.91231 52.8226 5.45489 52.567 6.01105C51.9844 7.36213 51.37 8.77941 50.724 10.2629C50.078 11.7463 49.5539 13.2045 49.1519 14.6373C49.009 15.1148 48.8367 15.8049 48.6349 16.7076C48.4352 17.5837 48.1944 18.4726 47.9126 19.3745C47.6329 20.2497 47.2945 21.0179 46.8975 21.679C46.5026 22.3136 46.0384 22.628 45.5051 22.6224C45.1585 22.6188 44.8096 22.4688 44.4584 22.1723C44.1832 21.9299 43.9251 21.4615 43.6842 20.7671C43.4698 20.0729 43.2646 19.2591 43.0684 18.3257C42.8742 17.3656 42.6841 16.3524 42.4979 15.2859C42.3138 14.1929 42.14 13.1399 41.9765 12.127C41.815 11.0874 41.6465 10.1409 41.471 9.2875C41.2954 8.43408 41.1057 7.7668 40.902 7.28565C40.8341 7.12526 40.7332 6.87139 40.5994 6.52404C40.4676 6.15009 40.3378 5.74955 40.21 5.32242C40.0842 4.8687 39.9728 4.40182 39.8757 3.92179C39.8053 3.44204 39.7842 3.01603 39.8123 2.64376C39.8486 2.16513 39.9947 1.82072 40.2508 1.61051C40.5356 1.374 40.9889 1.37876 41.6108 1.6248C42.0766 1.81597 42.4608 2.20588 42.7631 2.79451C43.0655 3.38314 43.3198 4.07772 43.526 4.87824C43.7343 5.65216 43.8996 6.46556 44.0218 7.31842C44.1461 8.14469 44.2497 8.8909 44.3327 9.55707ZM68.222 2.10389C68.4907 2.0801 68.7183 2.06918 68.905 2.07114C69.1203 2.04679 69.306 2.06205 69.4619 2.11691C69.6446 2.17205 69.8108 2.26694 69.9608 2.40157C70.1127 2.50962 70.2853 2.69771 70.4785 2.96586C70.6963 3.26088 70.8075 3.55477 70.812 3.84755C70.8185 4.11373 70.7204 4.35221 70.5177 4.56297C70.3436 4.74743 70.0402 4.8773 69.6075 4.95259C69.1748 5.02788 68.6169 4.99541 67.9336 4.85517C67.6444 4.79891 67.2074 4.7544 66.6228 4.72165C66.0668 4.66259 65.4689 4.6297 64.8289 4.62298C64.2156 4.61653 63.6003 4.63668 62.983 4.68342C62.3677 4.70357 61.8017 4.77746 61.285 4.90509C60.7703 5.00613 60.3315 5.1612 59.9688 5.37028C59.6347 5.55305 59.4423 5.80384 59.3914 6.12265C59.2591 6.81316 59.1758 7.38444 59.1416 7.83648C59.0953 8.44806 59.2221 8.88849 59.5219 9.15776C59.8238 9.40043 60.4947 9.52723 61.5346 9.53815C62.0413 9.54348 62.7233 9.52403 63.5806 9.47981C64.4645 9.43587 65.3598 9.41866 66.2665 9.42818C67.2264 9.43827 68.1147 9.51413 68.9312 9.65576C69.7498 9.7708 70.2916 10.016 70.5568 10.3914C70.8712 10.8204 71.0184 11.1679 70.9982 11.4338C70.964 11.8859 70.5296 12.1607 69.6949 12.2584C68.8602 12.3561 67.8562 12.3988 66.683 12.3865C65.8297 12.3775 64.9621 12.3817 64.0801 12.399C63.2001 12.3898 62.3818 12.4477 61.6251 12.5728C60.8705 12.6714 60.2287 12.8642 59.6999 13.1514C59.1978 13.4388 58.899 13.8615 58.8034 14.4193C58.7525 14.7381 58.6997 15.0835 58.6449 15.4555C58.59 15.8275 58.5485 16.1996 58.5203 16.5719C58.4861 17.0239 58.4795 17.463 58.5007 17.889C58.5484 18.3153 58.6402 18.6888 58.7761 19.0096C58.9406 19.304 59.1645 19.5193 59.4477 19.6553C59.7576 19.7916 60.1576 19.7958 60.6477 19.6679C61.5724 19.4381 62.5578 19.2888 63.6037 19.2199C64.6784 19.1248 65.749 19.0828 66.8156 19.094L68.0156 19.1066C68.7869 19.1413 69.4127 19.3342 69.8932 19.6852C70.3737 20.0362 70.5998 20.3978 70.5716 20.7701C70.5515 21.036 70.36 21.2735 69.9973 21.4826C69.6632 21.6653 69.0962 21.7525 68.2963 21.7441C67.123 21.7318 65.8913 21.7854 64.6014 21.9049C63.3134 21.9978 62.1014 22.1448 60.9653 22.3457C60.262 22.4714 59.5402 22.6634 58.8001 22.9217C58.0867 23.1804 57.45 23.3067 56.89 23.3009C56.3834 23.2955 55.9699 23.1182 55.6494 22.7689C55.3289 22.4196 55.1669 21.7393 55.1634 20.728C55.1629 20.382 55.1614 20.0494 55.1589 19.73C55.1831 19.4109 55.2082 19.0785 55.2344 18.7329C55.329 17.4831 55.4646 16.2205 55.6413 14.945C55.8445 13.6697 55.9945 12.3939 56.0911 11.1176C56.1334 10.5592 56.1613 10.014 56.1749 9.48186C56.1905 8.92318 56.1785 8.37751 56.1388 7.84486C56.1015 7.63157 56.056 7.35167 56.0022 7.00516C55.9504 6.63205 55.9006 6.23235 55.8528 5.80606C55.805 5.37977 55.7705 4.95362 55.7494 4.52761C55.7283 4.1016 55.7318 3.70246 55.76 3.3302C55.8043 2.7452 55.9298 2.32073 56.1366 2.05679C56.3741 1.73994 56.7369 1.53086 57.2249 1.42954C57.7149 1.30163 58.2799 1.24103 58.9199 1.24775C59.6398 1.25531 60.4224 1.31676 61.2677 1.43208C62.1129 1.54741 62.9581 1.66273 63.8034 1.77806C64.6219 1.8931 65.4015 1.99443 66.1421 2.08204C66.9114 2.14335 67.6047 2.15063 68.222 2.10389ZM74.9157 14.5087L75.109 11.956C75.1673 11.1849 75.2104 10.4402 75.2381 9.722C75.2944 8.97747 75.2987 8.39205 75.2509 7.96576C75.186 7.06028 75.0915 6.19441 74.9672 5.36814C74.843 4.54187 74.805 3.80965 74.8533 3.17148C74.8936 2.63967 75.0201 2.2019 75.233 1.85819C75.4724 1.51475 75.8639 1.27936 76.4072 1.152C77.0306 1.02549 77.731 0.939707 78.5083 0.894647C79.3143 0.823279 80.1039 0.791656 80.8772 0.799778C81.2505 0.803699 81.5962 0.820635 81.9141 0.850586C82.2341 0.853947 82.5531 0.870603 82.8711 0.900554C83.9296 1.01812 84.8561 1.29397 85.6505 1.7281C86.4449 2.16223 87.0979 2.70132 87.6096 3.34538C88.1213 3.98943 88.4935 4.71186 88.7265 5.51266C88.9594 6.31346 89.0436 7.1393 88.9792 7.9902C88.9007 9.02723 88.5956 10.0619 88.0637 11.0942C87.5606 12.1001 86.8122 12.9971 85.8185 13.785C85.2777 14.2317 84.7992 14.5593 84.3831 14.7678C83.9957 14.95 83.7909 15.1874 83.7688 15.4799C83.7527 15.6926 83.8525 15.9598 84.0684 16.2814C84.2842 16.603 84.6386 17.0325 85.1317 17.5699C85.4768 17.9461 85.7633 18.2152 85.9912 18.3773C86.2478 18.5131 86.5784 18.7294 86.9829 19.0264C87.5373 19.458 88.0567 19.8227 88.5412 20.1205C89.0524 20.4186 89.2939 20.7538 89.2657 21.1261C89.2496 21.3388 89.0961 21.6033 88.8053 21.9196C88.5412 22.2362 88.0554 22.4839 87.348 22.6627C87.0753 22.7397 86.7481 22.6564 86.3662 22.4129C85.9843 22.1694 85.5798 21.8724 85.1527 21.522C84.7522 21.1718 84.3528 20.8084 83.9543 20.4316C83.5825 20.0552 83.2713 19.7592 83.0208 19.5436C82.8175 19.4084 82.526 19.2058 82.1461 18.9357C81.795 18.6393 81.3905 18.3423 80.9326 18.0448C79.861 17.3948 79.0852 17.0673 78.6052 17.0623C78.0453 17.0564 77.7361 17.439 77.6777 18.2102C77.6516 18.5558 77.68 19.0618 77.763 19.7279C77.846 20.3941 77.8693 20.9665 77.8331 21.4451C77.7868 22.0567 77.5906 22.5336 77.2444 22.876C76.9003 23.1917 76.3096 23.2387 75.4724 23.017C75.0292 22.8793 74.7731 22.3843 74.7042 21.532C74.664 20.6534 74.6841 19.6823 74.7647 18.6186L74.8704 17.2226C74.9106 16.6908 74.9355 16.1855 74.9451 15.7066C74.9813 15.2279 74.9715 14.8287 74.9157 14.5087ZM77.9768 10.0302C77.9818 10.6689 78.0502 11.1753 78.182 11.5492C78.3158 11.8966 78.4957 12.1646 78.7216 12.3532C78.9475 12.5419 79.2051 12.6643 79.4944 12.7206C79.8123 12.7506 80.159 12.7542 80.5343 12.7315C81.1783 12.6851 81.7033 12.6241 82.1093 12.5485C82.544 12.4466 82.9007 12.3173 83.1794 12.1605C83.4848 12.0041 83.7389 11.8205 83.9417 11.6097C84.1731 11.3726 84.4332 11.1092 84.722 10.8196C85.2156 10.2925 85.5738 9.79064 85.7967 9.31397C86.0196 8.8373 86.1482 8.37295 86.1824 7.92091C86.2267 7.33592 86.1203 6.80256 85.8632 6.32085C85.6348 5.81283 85.307 5.3836 84.8799 5.03316C84.4814 4.65641 84.0093 4.37203 83.4634 4.18002C82.9195 3.96141 82.3676 3.84917 81.8076 3.84329C81.3277 3.83824 80.855 3.91311 80.3896 4.0679C79.9529 4.19637 79.5348 4.43148 79.1353 4.77324C78.7932 5.06237 78.5343 5.48544 78.3587 6.04244C78.2098 6.59973 78.1071 7.25064 78.0508 7.99517C78.0266 8.31426 78.0015 8.64664 77.9753 8.99232C77.9778 9.31169 77.9783 9.65764 77.9768 10.0302ZM103.773 2.43738C104.061 2.52023 104.319 2.80237 104.55 3.2838C104.809 3.73892 105.046 4.31356 105.26 5.00772C105.476 5.67528 105.674 6.40918 105.854 7.20942C106.062 7.98335 106.23 8.75685 106.359 9.52994C106.516 10.2767 106.638 10.9566 106.725 11.5696C106.838 12.1828 106.924 12.6361 106.982 12.9295C107.23 14.2361 107.524 15.4633 107.864 16.6112C108.204 17.759 108.487 18.7866 108.712 19.6937C108.965 20.5746 109.11 21.3079 109.145 21.8937C109.208 22.4799 109.072 22.8643 108.738 23.0471C108.18 23.3606 107.715 23.5153 107.342 23.5114C106.702 23.5047 106.257 23.2073 106.008 22.6192C105.874 22.2719 105.757 21.8848 105.656 21.4579C105.581 21.0313 105.506 20.6181 105.429 20.2181C105.38 19.8184 105.314 19.4584 105.231 19.1382C105.177 18.7917 105.103 18.5381 105.008 18.3775C104.865 18.1631 104.608 18.0273 104.239 17.9702C103.871 17.8865 103.434 17.842 102.928 17.8367C102.474 17.8319 102.006 17.8536 101.522 17.9017C101.04 17.9233 100.557 17.9581 100.073 18.0063C99.6155 18.0547 99.1715 18.1033 98.7408 18.152C98.3388 18.1744 98.0045 18.1841 97.7379 18.1813C97.1779 18.1755 96.7268 18.3171 96.3847 18.6062C96.0693 18.8956 95.8031 19.2388 95.5862 19.6357C95.3961 20.0329 95.2039 20.4566 95.0096 20.907C94.8421 21.3576 94.6262 21.7412 94.3621 22.0578C94.0406 22.427 93.6862 22.7027 93.2987 22.8849C92.9113 23.0671 92.5443 23.1564 92.1977 23.1528C91.771 23.1483 91.4498 22.9852 91.234 22.6636C91.0468 22.3157 91.1281 21.771 91.4778 21.0296C91.9849 19.9704 92.4931 18.898 93.0023 17.8123C93.5381 16.7268 94.0606 15.6412 94.5698 14.5555C95.1137 13.3637 95.6813 12.212 96.2724 11.1005C96.8903 9.98934 97.4978 8.83811 98.0951 7.64686C98.3446 7.17047 98.5869 6.61416 98.8219 5.97795C99.0588 5.31515 99.3328 4.69265 99.6437 4.11046C99.9547 3.52827 100.312 3.0397 100.715 2.64476C101.148 2.22351 101.67 2.01611 102.284 2.02255C102.764 2.02759 103.26 2.16587 103.773 2.43738ZM103.85 10.9406C103.753 10.4606 103.599 9.84691 103.389 9.09958C103.179 8.35224 103.026 7.72526 102.931 7.21864C102.875 6.89871 102.77 6.69802 102.616 6.61657C102.491 6.50881 102.346 6.48068 102.182 6.53218C102.047 6.55737 101.908 6.63574 101.764 6.76729C101.621 6.89884 101.49 7.04383 101.371 7.20225C101.283 7.30778 101.177 7.47963 101.052 7.71783C100.929 7.92943 100.791 8.16749 100.638 8.43199C100.513 8.67019 100.374 8.92154 100.22 9.18604C100.069 9.42396 99.947 9.62227 99.8549 9.78097C99.5213 10.3097 99.2308 10.799 98.9832 11.2488C98.7624 11.6988 98.5651 12.1891 98.3915 12.7195C98.226 13.1436 98.1475 13.4754 98.1561 13.715C98.1646 13.9546 98.2048 14.128 98.2768 14.2352C98.3754 14.3426 98.4904 14.4104 98.6217 14.4384C98.7817 14.4401 98.9283 14.4416 99.0616 14.443C99.437 14.4203 99.918 14.4121 100.505 14.4182C101.091 14.4244 101.613 14.4033 102.071 14.3548C102.233 14.3299 102.447 14.3189 102.714 14.3217C102.982 14.2979 103.226 14.2472 103.446 14.1697C103.692 14.0924 103.886 13.988 104.03 13.8565C104.175 13.6984 104.231 13.486 104.198 13.2196C104.177 13.1395 104.149 12.9796 104.114 12.7397C104.081 12.4732 104.035 12.2066 103.975 11.9399C103.941 11.6734 103.905 11.4468 103.866 11.2601C103.855 11.0471 103.85 10.9406 103.85 10.9406ZM129.295 4.38198C129.222 4.99328 129.11 5.41789 128.959 5.6558C128.809 5.86713 128.628 5.97167 128.415 5.96943C128.201 5.96719 127.979 5.91163 127.747 5.80275C127.515 5.69386 127.295 5.59841 127.088 5.5164C126.542 5.32439 126.044 5.2127 125.592 5.18135C125.168 5.15028 124.942 5.1346 124.915 5.13432C123.662 5.12116 122.562 5.20274 121.614 5.37908C120.696 5.5291 119.857 5.85294 119.099 6.3506C118.343 6.82166 117.636 7.51945 116.979 8.44396C116.324 9.34188 115.66 10.5324 114.987 12.0156C114.726 12.6516 114.572 13.2753 114.525 13.8869C114.461 14.7378 114.556 15.6037 114.809 16.4845C115.065 17.3388 115.445 18.1278 115.951 18.8517C116.485 19.5492 117.109 20.1279 117.821 20.5877C118.562 21.0213 119.373 21.2427 120.253 21.252C120.786 21.2576 121.377 21.1973 122.028 21.071C122.704 20.9451 123.372 20.7658 124.03 20.5332C124.69 20.274 125.301 19.9611 125.862 19.5944C126.424 19.2278 126.857 18.7932 127.162 18.2908C127.368 18.0269 127.489 17.6689 127.523 17.2168L127.675 15.7415C127.701 15.3958 127.505 15.1675 127.086 15.0567C126.696 14.9195 126.181 14.8476 125.541 14.8409C124.715 14.8322 123.818 14.876 122.85 14.9723C121.882 15.0685 121.051 15.113 120.358 15.1058C119.638 15.0982 119.246 14.9876 119.182 14.7741C119.06 14.2672 119.172 13.8426 119.518 13.5002C119.891 13.1582 120.393 12.8708 121.025 12.6379C121.656 12.405 122.377 12.2263 123.187 12.1017C124.024 11.9775 124.844 11.893 125.648 11.8482C126.454 11.7768 127.204 11.7448 127.897 11.752C128.619 11.733 129.193 11.7257 129.62 11.7302C130.046 11.7347 130.383 11.8713 130.63 12.14C130.903 12.409 131.116 12.7705 131.268 13.2245C131.422 13.6519 131.518 14.1452 131.556 14.7045C131.596 15.2371 131.596 15.7693 131.555 16.3012C131.509 16.9127 131.411 17.4972 131.263 18.0545C131.142 18.5854 130.991 18.9963 130.809 19.2871C130.324 20.0538 129.712 20.7393 128.972 21.3436C128.261 21.9215 127.477 22.4056 126.62 22.7958C125.764 23.186 124.847 23.4824 123.871 23.685C122.922 23.888 121.967 23.9844 121.007 23.9743C119.514 23.9586 118.093 23.6909 116.745 23.1711C115.396 22.6513 114.296 21.8547 113.443 20.7813C112.562 19.7342 111.94 18.6099 111.577 17.4086C111.243 16.1809 111.123 14.9422 111.218 13.6925C111.33 12.2034 111.733 10.7573 112.427 9.35417C113.122 7.92444 114.019 6.6565 115.117 5.55033C116.241 4.44445 117.535 3.56655 118.999 2.91663C120.464 2.24012 122.024 1.91055 123.677 1.92791C124.21 1.93351 124.807 1.9797 125.468 2.06647C126.155 2.15353 126.785 2.2932 127.357 2.4855C127.93 2.67779 128.404 2.93559 128.78 3.25887C129.158 3.55557 129.33 3.92994 129.295 4.38198ZM147.124 2.93261C147.393 2.90882 147.62 2.89791 147.807 2.89987C148.022 2.87552 148.208 2.89078 148.364 2.94564C148.546 3.00078 148.713 3.09567 148.863 3.2303C149.015 3.33834 149.187 3.52644 149.38 3.79458C149.598 4.0896 149.709 4.3835 149.714 4.67627C149.72 4.94246 149.622 5.18093 149.42 5.3917C149.245 5.57615 148.942 5.70602 148.509 5.78132C148.077 5.85661 147.519 5.82413 146.836 5.6839C146.546 5.62764 146.109 5.58313 145.525 5.55038C144.969 5.49131 144.371 5.45842 143.731 5.4517C143.118 5.44526 142.502 5.46541 141.885 5.51215C141.27 5.5323 140.704 5.60619 140.187 5.73382C139.672 5.83486 139.233 5.98992 138.871 6.199C138.537 6.38178 138.344 6.63257 138.293 6.95137C138.161 7.64189 138.078 8.21317 138.043 8.66521C137.997 9.27679 138.124 9.71721 138.424 9.98648C138.726 10.2292 139.397 10.356 140.437 10.3669C140.943 10.3722 141.625 10.3528 142.482 10.3085C143.366 10.2646 144.262 10.2474 145.168 10.2569C146.128 10.267 147.017 10.3429 147.833 10.4845C148.652 10.5995 149.194 10.8447 149.459 11.2201C149.773 11.6492 149.92 11.9967 149.9 12.2626C149.866 12.7146 149.431 12.9895 148.597 13.0871C147.762 13.1848 146.758 13.2275 145.585 13.2152C144.732 13.2062 143.864 13.2104 142.982 13.2278C142.102 13.2185 141.284 13.2765 140.527 13.4016C139.772 13.5001 139.131 13.6929 138.602 13.9801C138.1 14.2676 137.801 14.6902 137.705 15.2481C137.654 15.5669 137.602 15.9123 137.547 16.2842C137.492 16.6562 137.45 17.0284 137.422 17.4006C137.388 17.8527 137.381 18.2917 137.403 18.7177C137.45 19.144 137.542 19.5175 137.678 19.8383C137.842 20.1327 138.066 20.348 138.35 20.484C138.66 20.6203 139.06 20.6245 139.55 20.4966C140.474 20.2668 141.46 20.1175 142.506 20.0487C143.58 19.9535 144.651 19.9115 145.718 19.9227L146.917 19.9353C147.689 19.97 148.315 20.1629 148.795 20.5139C149.276 20.8649 149.502 21.2265 149.474 21.5988C149.453 21.8647 149.262 22.1022 148.899 22.3113C148.565 22.4941 147.998 22.5812 147.198 22.5728C146.025 22.5605 144.793 22.6141 143.503 22.7336C142.215 22.8265 141.003 22.9735 139.867 23.1744C139.164 23.3001 138.442 23.4921 137.702 23.7505C136.989 24.0091 136.352 24.1355 135.792 24.1296C135.285 24.1243 134.872 23.9469 134.551 23.5976C134.231 23.2483 134.069 22.568 134.065 21.5567C134.065 21.2108 134.063 20.8781 134.061 20.5587C134.085 20.2396 134.11 19.9073 134.136 19.5616C134.231 18.3118 134.367 17.0492 134.543 15.7737C134.746 14.4985 134.896 13.2227 134.993 11.9463C135.035 11.3879 135.063 10.8427 135.077 10.3106C135.092 9.7519 135.08 9.20624 135.041 8.67359C135.003 8.4603 134.958 8.1804 134.904 7.83388C134.852 7.46077 134.802 7.06107 134.755 6.63478C134.707 6.20849 134.672 5.78235 134.651 5.35634C134.63 4.93033 134.634 4.53119 134.662 4.15892C134.706 3.57393 134.832 3.14946 135.039 2.88551C135.276 2.56867 135.639 2.35958 136.127 2.25826C136.617 2.13035 137.182 2.06976 137.822 2.07648C138.542 2.08404 139.324 2.14548 140.17 2.26081C141.015 2.37613 141.86 2.49146 142.705 2.60678C143.524 2.72183 144.303 2.82316 145.044 2.91077C145.813 2.97207 146.507 2.97935 147.124 2.93261ZM13.5506 53.8616L13.6804 52.1465C13.7448 51.2956 13.799 50.4047 13.8427 49.4737C13.9132 48.5431 13.9276 47.8247 13.8858 47.3186C13.8209 46.4132 13.7264 45.5473 13.6021 44.721C13.4779 43.8948 13.4399 43.1625 13.4882 42.5244C13.5285 41.9925 13.655 41.5548 13.8678 41.2111C14.1073 40.8676 14.4988 40.6322 15.0421 40.5049C15.6655 40.3784 16.3658 40.2926 17.1432 40.2475C17.9225 40.1759 18.6988 40.1441 19.4721 40.1522C19.8454 40.1562 20.192 40.1598 20.512 40.1632C20.8587 40.1668 21.1766 40.1967 21.4659 40.253C22.5245 40.3706 23.4366 40.6596 24.2024 41.12C24.9968 41.5542 25.6355 42.1064 26.1185 42.7768C26.6301 43.4208 26.9891 44.1431 27.1953 44.9436C27.4282 45.7444 27.5125 46.5703 27.4481 47.4212C27.3877 48.2189 27.194 49.0152 26.8669 49.8101C26.5665 50.6053 26.1225 51.3591 25.5349 52.0714C24.9492 52.7572 24.2353 53.3751 23.3931 53.9251C22.5528 54.4485 21.5884 54.8508 20.4996 55.1321C20.2269 55.2091 19.8639 55.2452 19.4106 55.2404C18.984 55.236 18.5553 55.2581 18.1246 55.3068C17.7206 55.3557 17.3516 55.4716 17.0175 55.6544C16.7101 55.8374 16.5403 56.1417 16.5081 56.5671C16.4638 57.1521 16.4688 57.7909 16.5231 58.4833C16.5775 59.1758 16.5825 59.8146 16.5382 60.3995C16.4858 61.0909 16.2979 61.6345 15.9744 62.0302C15.6796 62.3997 15.1136 62.4736 14.2764 62.2519C13.8578 62.1411 13.5947 61.7391 13.487 61.0461C13.406 60.3533 13.3721 59.5679 13.3852 58.6899C13.425 57.8121 13.4791 56.9212 13.5475 56.0171C13.616 55.113 13.617 54.3945 13.5506 53.8616ZM16.6117 49.3831C16.6167 50.0218 16.6851 50.5281 16.8169 50.9021C16.9507 51.2495 17.1306 51.5175 17.3565 51.7061C17.5824 51.8948 17.8399 52.0172 18.1292 52.0735C18.4472 52.1034 18.7805 52.1069 19.1292 52.084C19.7998 52.0378 20.3382 51.9769 20.7442 51.9014C21.1522 51.7992 21.4956 51.6698 21.7743 51.513C22.0797 51.3565 22.3471 51.1731 22.5766 50.9626C22.808 50.7255 23.0548 50.462 23.3169 50.172C24.2467 49.1705 24.7478 48.1912 24.8203 47.2339C24.8646 46.6489 24.7715 46.1157 24.5411 45.6343C24.3107 45.1528 23.9819 44.7369 23.5548 44.3865C23.1563 44.0097 22.6842 43.7253 22.1383 43.5333C21.5944 43.3147 21.0425 43.2025 20.4825 43.1966C20.0026 43.1915 19.5299 43.2664 19.0645 43.4212C18.5991 43.576 18.1667 43.8242 17.7672 44.166C17.4251 44.4551 17.1662 44.8782 16.9906 45.4352C16.817 45.9656 16.702 46.6031 16.6457 47.3476C16.5973 47.9858 16.586 48.6643 16.6117 49.3831ZM38.3158 41.6674C38.603 41.7503 38.8619 42.0324 39.0923 42.5139C39.3514 42.969 39.5881 43.5436 39.8024 44.2378C40.0187 44.9053 40.2167 45.6392 40.3963 46.4395C40.6046 47.2134 40.7728 47.9869 40.9011 48.76C41.0581 49.5068 41.1801 50.1867 41.2671 50.7996C41.3808 51.4129 41.4666 51.8662 41.5244 52.1595C41.7724 53.4661 42.0665 54.6933 42.4065 55.8412C42.7466 56.9891 43.0291 58.0166 43.254 58.9238C43.5075 59.8046 43.6521 60.538 43.6879 61.1238C43.7502 61.7099 43.6144 62.0944 43.2803 62.2771C42.7228 62.5906 42.2575 62.7454 41.8841 62.7415C41.2442 62.7348 40.7997 62.4374 40.5506 61.8493C40.4168 61.5019 40.2994 61.1148 40.1982 60.688C40.1238 60.2614 40.0483 59.8481 39.9719 59.4482C39.9221 59.0485 39.8559 58.6885 39.7734 58.3683C39.7196 58.0218 39.6454 57.7682 39.5508 57.6075C39.4069 57.3931 39.1503 57.2574 38.781 57.2003C38.4138 57.1166 37.9768 57.0721 37.4702 57.0667C37.0169 57.062 36.5482 57.0837 36.0642 57.1318C35.5822 57.1534 35.0992 57.1882 34.6152 57.2363C34.1579 57.2848 33.7139 57.3333 33.2832 57.382C32.8812 57.4044 32.5469 57.4142 32.2803 57.4114C31.7203 57.4055 31.2692 57.5471 30.9271 57.8363C30.6117 58.1257 30.3455 58.4689 30.1286 58.8658C29.9385 59.2629 29.7463 59.6867 29.552 60.1371C29.3845 60.5877 29.1687 60.9713 28.9045 61.2879C28.583 61.6571 28.2286 61.9328 27.8411 62.115C27.4537 62.2972 27.0867 62.3865 26.7401 62.3828C26.3134 62.3783 25.9922 62.2153 25.7764 61.8937C25.5892 61.5458 25.6705 61.0011 26.0202 60.2596C26.5273 59.2005 27.0355 58.1281 27.5447 57.0423C28.0805 55.9569 28.603 54.8713 29.1122 53.7855C29.6561 52.5937 30.2237 51.4421 30.8148 50.3306C31.4327 49.2194 32.0402 48.0682 32.6375 46.8769C32.887 46.4005 33.1293 45.8442 33.3643 45.208C33.6012 44.5452 33.8752 43.9227 34.1861 43.3405C34.4971 42.7583 34.8543 42.2698 35.2578 41.8748C35.69 41.4536 36.2128 41.2462 36.826 41.2526C37.306 41.2577 37.8026 41.3959 38.3158 41.6674ZM38.3925 50.1707C38.2955 49.6907 38.1418 49.077 37.9315 48.3296C37.7212 47.5823 37.5685 46.9553 37.4734 46.4487C37.4176 46.1288 37.3127 45.9281 37.1588 45.8466C37.0335 45.7389 36.8888 45.7107 36.7248 45.7622C36.5895 45.7874 36.4501 45.8658 36.3067 45.9973C36.1633 46.1289 36.0323 46.2739 35.9135 46.4323C35.8255 46.5378 35.7191 46.7097 35.5943 46.9479C35.4715 47.1595 35.3334 47.3975 35.18 47.6621C35.0552 47.9002 34.9161 48.1516 34.7626 48.4161C34.6112 48.654 34.4894 48.8523 34.3973 49.011C34.0637 49.5398 33.7732 50.029 33.5256 50.4788C33.3048 50.9289 33.1075 51.4191 32.9339 51.9496C32.7684 52.3736 32.6899 52.7054 32.6985 52.945C32.707 53.1846 32.7472 53.358 32.8192 53.4652C32.9178 53.5727 33.0328 53.6404 33.1641 53.6684C33.3241 53.6701 33.4707 53.6717 33.604 53.6731C33.9794 53.6504 34.4604 53.6421 35.047 53.6483C35.6336 53.6545 36.1556 53.6333 36.6129 53.5849C36.7749 53.56 36.9893 53.5489 37.2559 53.5517C37.5246 53.528 37.7686 53.4773 37.988 53.3998C38.234 53.3225 38.4287 53.2181 38.5721 53.0866C38.7175 52.9284 38.7736 52.7161 38.7404 52.4496C38.7198 52.3696 38.6919 52.2096 38.6566 51.9697C38.6234 51.7033 38.5769 51.4367 38.517 51.1699C38.4838 50.9035 38.4476 50.6769 38.4084 50.4902C38.3978 50.2772 38.3925 50.1707 38.3925 50.1707ZM47.2295 54.1355L47.4227 51.5828C47.4811 50.8117 47.5241 50.067 47.5518 49.3488C47.6082 48.6042 47.6125 48.0188 47.5647 47.5925C47.4998 46.6871 47.4052 45.8212 47.281 44.9949C47.1567 44.1687 47.1188 43.4364 47.1671 42.7983C47.2073 42.2664 47.3339 41.8287 47.5467 41.485C47.7862 41.1415 48.1776 40.9061 48.721 40.7788C49.3444 40.6523 50.0447 40.5665 50.822 40.5214C51.628 40.4501 52.4177 40.4184 53.191 40.4266C53.5643 40.4305 53.9099 40.4474 54.2279 40.4774C54.5479 40.4807 54.8668 40.4974 55.1848 40.5273C56.2434 40.6449 57.1698 40.9207 57.9643 41.3549C58.7587 41.789 59.4117 42.3281 59.9234 42.9722C60.435 43.6162 60.8073 44.3386 61.0402 45.1394C61.2732 45.9402 61.3574 46.7661 61.293 47.617C61.2145 48.654 60.9093 49.6887 60.3775 50.7209C59.8743 51.7269 59.1259 52.6238 58.1323 53.4118C57.5914 53.8585 57.1129 54.1861 56.6969 54.3946C56.3094 54.5768 56.1047 54.8142 56.0825 55.1067C56.0664 55.3194 56.1663 55.5866 56.3821 55.9082C56.5979 56.2298 56.9524 56.6593 57.4454 57.1967C57.7906 57.5729 58.0771 57.842 58.305 58.0041C58.5616 58.1398 58.8921 58.3562 59.2966 58.6532C59.851 59.0848 60.3705 59.4495 60.855 59.7473C61.3661 60.0454 61.6076 60.3806 61.5795 60.7529C61.5633 60.9656 61.4099 61.2301 61.1191 61.5464C60.8549 61.863 60.3692 62.1107 59.6618 62.2895C59.3891 62.3665 59.0618 62.2832 58.68 62.0397C58.2981 61.7962 57.8936 61.4992 57.4665 61.1488C57.066 60.7986 56.6665 60.4352 56.2681 60.0584C55.8963 59.6819 55.5851 59.3859 55.3345 59.1704C55.1313 59.0352 54.8397 58.8326 54.4599 58.5625C54.1087 58.266 53.7042 57.9691 53.2464 57.6715C52.1748 57.0216 51.399 56.6941 50.919 56.6891C50.359 56.6832 50.0499 57.0658 49.9915 57.8369C49.9653 58.1826 49.9937 58.6885 50.0767 59.3547C50.1597 60.0209 50.1831 60.5933 50.1469 61.0719C50.1006 61.6835 49.9043 62.1604 49.5582 62.5027C49.214 62.8185 48.6234 62.8655 47.7862 62.6438C47.343 62.5061 47.0869 62.0111 47.018 61.1588C46.9778 60.2802 46.9979 59.3091 47.0784 58.2454L47.1841 56.8494C47.2244 56.3176 47.2493 55.8123 47.2589 55.3333C47.2951 54.8547 47.2853 54.4554 47.2295 54.1355ZM50.2905 49.657C50.2955 50.2957 50.3639 50.802 50.4958 51.176C50.6296 51.5234 50.8094 51.7914 51.0353 51.98C51.2612 52.1687 51.5188 52.2911 51.8081 52.3474C52.1261 52.3773 52.4727 52.381 52.8481 52.3583C53.492 52.3119 54.017 52.2508 54.4231 52.1753C54.8578 52.0734 55.2145 51.9441 55.4932 51.7873C55.7986 51.6309 56.0527 51.4473 56.2554 51.2365C56.4869 50.9994 56.747 50.736 57.0358 50.4463C57.5294 49.9193 57.8876 49.4174 58.1105 48.9408C58.3334 48.4641 58.4619 47.9997 58.4962 47.5477C58.5404 46.9627 58.434 46.4293 58.177 45.9476C57.9486 45.4396 57.6208 45.0104 57.1937 44.6599C56.7952 44.2832 56.323 43.9988 55.7772 43.8068C55.2333 43.5882 54.6814 43.4759 54.1214 43.4701C53.6414 43.465 53.1687 43.5399 52.7034 43.6947C52.2666 43.8231 51.8486 44.0583 51.4491 44.4C51.1069 44.6892 50.8481 45.1122 50.6725 45.6692C50.5235 46.2265 50.4209 46.8774 50.3645 47.622C50.3404 47.941 50.3152 48.2734 50.289 48.6191C50.2915 48.9385 50.292 49.2844 50.2905 49.657ZM69.4549 49.2994C69.4891 48.8474 69.509 48.4085 69.5145 47.9828C69.5487 47.5307 69.5563 47.0784 69.5372 46.6258C69.5201 46.1466 69.4683 45.7735 69.3818 45.5065C69.3239 45.2131 69.1944 44.9856 68.9931 44.8238C68.8185 44.6623 68.5476 44.5397 68.1803 44.456C67.8397 44.3726 67.3781 44.3012 66.7955 44.2419C66.0529 44.1808 65.4343 44.0679 64.9398 43.903C64.4472 43.7116 64.2417 43.43 64.3232 43.0583C64.3715 42.4201 64.6161 42.0102 65.0568 41.8286C65.4995 41.6203 66.0276 41.5194 66.6409 41.5258C67.1475 41.5312 67.6645 41.5765 68.1917 41.6619C68.721 41.7207 69.1866 41.7389 69.5886 41.7165C70.2859 41.6706 71.1576 41.6132 72.2036 41.5444C73.2516 41.4489 74.2422 41.4061 75.1755 41.4159C75.8955 41.4235 76.5181 41.4832 77.0433 41.5952C77.5706 41.6806 77.9041 41.857 78.044 42.1246C78.0666 42.1781 78.1139 42.2584 78.1859 42.3656C78.2598 42.4462 78.3184 42.5533 78.3617 42.6868C78.4336 42.794 78.4789 42.9009 78.4975 43.0076C78.5161 43.1142 78.4845 43.1804 78.4024 43.2062C78.3743 43.5784 78.1305 43.8021 77.6711 43.8771C77.2385 43.9524 76.7278 44.0002 76.1392 44.0207C75.5792 44.0148 75.0172 44.0355 74.4532 44.0828C73.8892 44.1301 73.4628 44.2986 73.174 44.5883C72.9446 44.7988 72.7587 45.3157 72.6163 46.1392C72.5005 46.963 72.4044 47.8801 72.3279 48.8905C72.2816 49.5021 72.2353 50.1137 72.189 50.7252C72.1694 51.3371 72.1528 51.9091 72.1392 52.4412C72.1256 52.9733 72.1027 53.452 72.0705 53.8775C72.0403 54.2763 72.0181 54.5688 72.004 54.755C71.9311 55.3663 71.9054 56.0579 71.927 56.8299C71.9506 57.5753 71.9343 58.3202 71.8779 59.0648C71.8397 59.57 71.7644 60.0349 71.6522 60.4595C71.5667 60.8844 71.4062 61.242 71.1707 61.5322C70.7325 62.0332 70.3267 62.2818 69.9534 62.2779C69.7134 62.2753 69.4928 62.1932 69.2916 62.0314C69.0923 61.843 68.9218 61.6283 68.7799 61.3873C68.638 61.1464 68.5238 60.8923 68.4373 60.6253C68.3794 60.332 68.3596 60.0657 68.3777 59.8263C68.4542 58.8159 68.6147 57.7531 68.8593 56.638C69.1058 55.4963 69.2704 54.3803 69.3529 53.2901C69.3811 52.9178 69.3816 52.5586 69.3544 52.2123C69.3539 51.8664 69.3391 51.5336 69.3099 51.2139L69.4549 49.2994ZM90.4069 50.717C90.5467 50.9846 90.7359 51.3059 90.9744 51.681C91.2148 52.0295 91.44 52.4044 91.6498 52.8058C92.1227 53.6091 92.5 54.265 92.7817 54.7736C93.0635 55.2822 93.2977 55.5375 93.4843 55.5394C93.671 55.5414 93.7975 55.1036 93.864 54.2261C93.8801 54.0134 93.8972 53.7874 93.9153 53.5481C93.9334 53.3088 93.9402 53.0427 93.9357 52.7499C93.9246 52.191 93.9586 51.566 94.0376 50.8749C94.1453 50.1575 94.2253 49.4531 94.2776 48.7618C94.33 48.0704 94.3403 47.4052 94.3086 46.7662C94.3036 46.1275 94.2116 45.581 94.0325 45.1267C93.874 44.7525 93.7688 44.3788 93.717 44.0057C93.6672 43.606 93.6564 43.22 93.6846 42.8477C93.7309 42.2362 93.8768 41.7188 94.1224 41.2956C94.3966 40.846 94.7603 40.6237 95.2136 40.6284C95.7203 40.6337 96.2941 40.9857 96.935 41.6844C97.0583 41.8187 97.1307 42.2719 97.1523 43.0438C97.2026 43.7895 97.2112 44.7343 97.1779 45.8783C97.1714 47.0225 97.1404 48.3128 97.085 49.7493C97.0296 51.1857 96.9722 52.6488 96.9128 54.1384C96.8534 55.628 96.7837 57.0777 96.7037 58.4872C96.6503 59.8971 96.6224 61.1476 96.6198 62.2386C96.6244 62.5314 96.4749 62.7427 96.1716 62.8726C95.8948 63.0027 95.5698 63.0658 95.1965 63.0619C94.7165 63.0569 94.2159 62.9718 93.6947 62.8066C93.2001 62.6418 92.8809 62.4521 92.737 62.2377C92.324 61.7012 91.9364 61.0052 91.5741 60.1498C91.2139 59.2678 90.8343 58.4655 90.4354 57.7428C89.7567 56.4849 89.076 55.2536 88.3933 54.0489C87.7393 52.8179 87.076 51.5336 86.4033 50.1959C85.9158 49.2328 85.4656 48.4829 85.0525 47.9464C84.6661 47.4101 84.3263 47.1404 84.033 47.1373C83.5797 47.1325 83.3037 47.7816 83.205 49.0846C83.1869 49.3239 83.1678 49.5765 83.1477 49.8424C83.1275 50.1083 83.1321 50.4011 83.1612 50.7207C83.1904 51.0404 83.1909 51.3863 83.1627 51.7586C83.1345 52.1309 83.1053 52.5164 83.0751 52.9153L82.8879 55.3882C82.8295 56.1593 82.7865 56.904 82.7588 57.6223C82.7578 58.3408 82.8018 58.9932 82.8908 59.5796C82.9799 60.166 83.0103 60.6453 82.9821 61.0176C82.9237 61.7887 82.7195 62.372 82.3693 62.7675C82.0191 63.163 81.644 63.3587 81.2441 63.3545C80.8174 63.35 80.4356 63.1065 80.0985 62.6239C79.7881 62.1417 79.6711 61.3953 79.7476 60.3849L80.0979 55.7581C80.2106 54.269 80.2957 52.793 80.3531 51.3299C80.4371 49.8672 80.4608 48.4969 80.4241 47.2192C80.4156 46.9796 80.371 46.6864 80.2905 46.3396C80.2367 45.9931 80.1706 45.6331 80.0921 45.2597C80.0403 44.8866 79.9885 44.5135 79.9367 44.1404C79.8869 43.7407 79.875 43.368 79.9012 43.0223C79.9395 42.5171 80.0783 42.0928 80.3178 41.7493C80.5573 41.4059 80.9744 41.1841 81.5691 41.0839C82.0284 41.0089 82.4365 40.9067 82.7932 40.7774C83.1499 40.6481 83.5315 40.7186 83.938 40.989C84.6504 41.4489 85.3221 42.0946 85.953 42.9262C86.5838 43.7578 87.1707 44.6422 87.7136 45.5793C88.2831 46.5167 88.7859 47.4533 89.2221 48.3893C89.6869 49.299 90.0819 50.0749 90.4069 50.717ZM113.344 42.4954C113.613 42.4716 113.841 42.4607 114.027 42.4626C114.243 42.4383 114.428 42.4536 114.584 42.5084C114.767 42.5636 114.933 42.6584 115.083 42.7931C115.235 42.9011 115.408 43.0892 115.601 43.3574C115.819 43.6524 115.93 43.9463 115.934 44.2391C115.941 44.5052 115.843 44.7437 115.64 44.9545C115.466 45.1389 115.162 45.2688 114.73 45.3441C114.297 45.4194 113.739 45.3869 113.056 45.2467C112.767 45.1904 112.33 45.1459 111.745 45.1132C111.189 45.0541 110.591 45.0212 109.951 45.0145C109.338 45.008 108.723 45.0282 108.105 45.0749C107.49 45.0951 106.924 45.169 106.407 45.2966C105.893 45.3976 105.454 45.5527 105.091 45.7618C104.757 45.9446 104.565 46.1953 104.514 46.5142C104.381 47.2047 104.298 47.7759 104.264 48.228C104.218 48.8396 104.344 49.28 104.644 49.5493C104.946 49.7919 105.617 49.9187 106.657 49.9297C107.164 49.935 107.845 49.9155 108.703 49.8713C109.587 49.8274 110.482 49.8102 111.389 49.8197C112.349 49.8298 113.237 49.9056 114.053 50.0473C114.872 50.1623 115.414 50.4075 115.679 50.7829C115.993 51.2119 116.141 51.5594 116.12 51.8253C116.086 52.2774 115.652 52.5522 114.817 52.6499C113.982 52.7476 112.978 52.7903 111.805 52.778C110.952 52.769 110.084 52.7732 109.202 52.7905C108.322 52.7813 107.504 52.8392 106.747 52.9643C105.993 53.0629 105.351 53.2557 104.822 53.5429C104.32 53.8303 104.021 54.253 103.926 54.8108C103.875 55.1296 103.822 55.475 103.767 55.847C103.712 56.219 103.671 56.5911 103.643 56.9634C103.608 57.4155 103.602 57.8545 103.623 58.2805C103.671 58.7068 103.762 59.0803 103.898 59.4011C104.063 59.6955 104.287 59.9108 104.57 60.0468C104.88 60.1831 105.28 60.1873 105.77 60.0594C106.695 59.8296 107.68 59.6803 108.726 59.6114C109.801 59.5163 110.871 59.4743 111.938 59.4855L113.138 59.4981C113.909 59.5328 114.535 59.7257 115.015 60.0767C115.496 60.4277 115.722 60.7893 115.694 61.1616C115.674 61.4275 115.482 61.665 115.12 61.8741C114.785 62.0568 114.218 62.144 113.418 62.1356C112.245 62.1233 111.014 62.1769 109.724 62.2964C108.436 62.3893 107.224 62.5363 106.088 62.7372C105.384 62.8629 104.662 63.0549 103.922 63.3132C103.209 63.5719 102.572 63.6982 102.012 63.6924C101.506 63.687 101.092 63.5097 100.772 63.1604C100.451 62.8111 100.289 62.1308 100.286 61.1195C100.285 60.7735 100.284 60.4409 100.281 60.1215C100.305 59.8024 100.33 59.47 100.357 59.1244C100.451 57.8746 100.587 56.612 100.763 55.3365C100.967 54.0612 101.117 52.7855 101.213 51.5091C101.256 50.9507 101.284 50.4055 101.297 49.8734C101.313 49.3147 101.301 48.769 101.261 48.2364C101.224 48.0231 101.178 47.7432 101.124 47.3967C101.073 47.0236 101.023 46.6239 100.975 46.1976C100.927 45.7713 100.893 45.3451 100.872 44.9191C100.851 44.4931 100.854 44.094 100.882 43.7217C100.927 43.1367 101.052 42.7122 101.259 42.4483C101.496 42.1314 101.859 41.9224 102.347 41.821C102.837 41.6931 103.402 41.6325 104.042 41.6393C104.762 41.6468 105.545 41.7083 106.39 41.8236C107.235 41.9389 108.08 42.0542 108.926 42.1696C109.744 42.2846 110.524 42.3859 111.264 42.4735C112.034 42.5349 112.727 42.5421 113.344 42.4954ZM120.038 54.9002L120.231 52.3475C120.29 51.5764 120.333 50.8317 120.36 50.1135C120.417 49.369 120.421 48.7836 120.373 48.3573C120.308 47.4518 120.214 46.5859 120.089 45.7596C119.965 44.9334 119.927 44.2012 119.976 43.563C120.016 43.0312 120.142 42.5934 120.355 42.2497C120.595 41.9063 120.986 41.6709 121.529 41.5435C122.153 41.417 122.853 41.3312 123.631 41.2862C124.437 41.2148 125.226 41.1832 125.999 41.1913C126.373 41.1952 126.718 41.2121 127.036 41.2421C127.356 41.2455 127.675 41.2621 127.993 41.2921C129.052 41.4096 129.978 41.6855 130.773 42.1196C131.567 42.5537 132.22 43.0928 132.732 43.7369C133.243 44.3809 133.616 45.1034 133.849 45.9042C134.082 46.705 134.166 47.5308 134.101 48.3817C134.023 49.4187 133.718 50.4534 133.186 51.4857C132.683 52.4916 131.934 53.3886 130.941 54.1765C130.4 54.6232 129.921 54.9508 129.505 55.1593C129.118 55.3416 128.913 55.5789 128.891 55.8714C128.875 56.0841 128.975 56.3513 129.191 56.6729C129.406 56.9945 129.761 57.424 130.254 57.9614C130.599 58.3376 130.886 58.6067 131.113 58.7688C131.37 58.9046 131.701 59.1209 132.105 59.4179C132.66 59.8495 133.179 60.2142 133.663 60.5121C134.175 60.8101 134.416 61.1453 134.388 61.5176C134.372 61.7303 134.218 61.9948 133.928 62.3111C133.663 62.6277 133.178 62.8754 132.47 63.0542C132.198 63.1312 131.87 63.0479 131.488 62.8044C131.107 62.5609 130.702 62.2639 130.275 61.9135C129.874 61.5633 129.475 61.1999 129.077 60.8231C128.705 60.4467 128.394 60.1507 128.143 59.9351C127.94 59.7999 127.648 59.5973 127.268 59.3272C126.917 59.0308 126.513 58.7338 126.055 58.4363C124.983 57.7863 124.207 57.4588 123.727 57.4538C123.168 57.4479 122.858 57.8305 122.8 58.6017C122.774 58.9473 122.802 59.4533 122.885 60.1194C122.968 60.7856 122.992 61.358 122.955 61.8366C122.909 62.4482 122.713 62.9251 122.367 63.2675C122.023 63.5832 121.432 63.6302 120.595 63.4085C120.151 63.2708 119.895 62.7758 119.826 61.9235C119.786 61.0449 119.806 60.0738 119.887 59.0102L119.993 57.6142C120.033 57.0823 120.058 56.577 120.067 56.0981C120.104 55.6194 120.094 55.2202 120.038 54.9002ZM123.099 50.4217C123.104 51.0604 123.172 51.5668 123.304 51.9407C123.438 52.2881 123.618 52.5561 123.844 52.7447C124.07 52.9334 124.327 53.0559 124.617 53.1121C124.935 53.1421 125.281 53.1457 125.657 53.123C126.301 53.0766 126.826 53.0156 127.232 52.94C127.666 52.8381 128.023 52.7088 128.302 52.5521C128.607 52.3956 128.861 52.212 129.064 52.0012C129.295 51.7641 129.555 51.5008 129.844 51.2111C130.338 50.684 130.696 50.1821 130.919 49.7055C131.142 49.2288 131.27 48.7645 131.305 48.3124C131.349 47.7274 131.243 47.1941 130.985 46.7124C130.757 46.2043 130.429 45.7751 130.002 45.4247C129.604 45.0479 129.132 44.7635 128.586 44.5715C128.042 44.3529 127.49 44.2407 126.93 44.2348C126.45 44.2297 125.977 44.3046 125.512 44.4594C125.075 44.5879 124.657 44.823 124.258 45.1647C123.915 45.4539 123.657 45.8769 123.481 46.4339C123.332 46.9912 123.229 47.6421 123.173 48.3867C123.149 48.7058 123.124 49.0381 123.098 49.3838C123.1 49.7032 123.101 50.0491 123.099 50.4217Z" fill="black"/>
</svg>
