<svg width="68" height="16" viewBox="0 0 68 16" fill="none" xmlns="http://www.w3.org/2000/svg">
<path d="M5.85362 0.871616C6.23415 0.978241 6.59675 1.16274 6.94141 1.42513C7.28621 1.67018 7.58728 1.96692 7.84462 2.31537C8.11943 2.64661 8.33337 3.00342 8.48644 3.38582C8.65698 3.751 8.76693 4.1071 8.81627 4.45412C8.88162 4.97458 8.8785 5.3819 8.80691 5.67608C8.75265 5.97038 8.6468 6.21233 8.48934 6.40191C8.34922 6.59162 8.16583 6.77236 7.93917 6.94413C7.72998 7.09869 7.52046 7.29659 7.31061 7.53781C7.60434 7.66117 7.86287 7.85363 8.08621 8.11517C8.32688 8.37684 8.52388 8.68154 8.67722 9.02927C8.84803 9.35979 8.97537 9.70734 9.05925 10.0719C9.14312 10.4365 9.1838 10.7835 9.18128 11.1128C9.17902 11.4074 9.13357 11.6845 9.04491 11.9439C8.90319 12.3416 8.65775 12.7039 8.30856 13.0308C7.95938 13.3578 7.55847 13.6497 7.10582 13.9066C6.67064 14.1462 6.20979 14.3424 5.72327 14.495C5.23676 14.6477 4.79404 14.74 4.39512 14.7719C4.18685 14.8051 3.98739 14.8211 3.79673 14.8198C3.60607 14.8185 3.41541 14.8171 3.22474 14.8158C2.77409 14.8127 2.34976 14.7665 1.95177 14.677C1.55364 14.605 1.16465 14.4723 0.784786 14.279C0.473988 14.1209 0.267586 13.9114 0.16558 13.6507C0.0635735 13.39 0.013898 13.0863 0.0165531 12.7397C0.0192083 12.393 0.0479956 12.0292 0.102915 11.6482C0.157835 11.2673 0.186821 10.8775 0.189874 10.4788C0.198902 9.30017 0.199595 8.07815 0.191953 6.81273C0.184312 5.54732 0.185204 4.2993 0.19463 3.06867C0.198347 2.58335 0.244733 2.18499 0.333787 1.8736C0.422841 1.5622 0.563363 1.3205 0.755353 1.14848C0.947476 0.959138 1.19107 0.83948 1.48612 0.789512C1.79865 0.722331 2.17157 0.690234 2.60489 0.693221C3.02088 0.696088 3.49741 0.716706 4.03446 0.755076C4.57152 0.793444 5.1779 0.832291 5.85362 0.871616ZM2.45498 3.29225C2.26233 3.55093 2.16414 3.92293 2.16043 4.40825C2.15817 4.7029 2.17325 4.99768 2.20565 5.29258C2.2554 5.58759 2.288 5.85649 2.30348 6.09927C2.31882 6.35938 2.43009 6.54215 2.63729 6.64758C2.84462 6.73568 3.09562 6.78075 3.39028 6.78278C3.78893 6.78552 4.21405 6.72779 4.66564 6.60956C5.11722 6.49134 5.45615 6.37234 5.6824 6.25256C6.15225 6.01313 6.48337 5.7814 6.67576 5.55739C6.88561 5.31617 6.99147 5.07422 6.99333 4.83156C6.99532 4.57157 6.88458 4.31947 6.66111 4.07526C6.45497 3.83116 6.1879 3.62132 5.85991 3.44572C5.54937 3.25291 5.19518 3.10313 4.79732 2.99639C4.41679 2.88976 4.0532 2.83525 3.70654 2.83286C3.42921 2.83095 3.17762 2.86389 2.95176 2.93166C2.74323 2.99956 2.57764 3.11976 2.45498 3.29225ZM2.16802 10.2064C2.16523 10.5704 2.14571 10.8563 2.10945 11.0641C2.09065 11.2546 2.08059 11.4365 2.07927 11.6099C2.07767 11.8178 2.13608 12.1129 2.25449 12.4951L2.61689 12.7056C2.77209 12.8107 2.99702 12.8642 3.29168 12.8662C3.6038 12.8511 3.91606 12.8185 4.22845 12.7687C4.55831 12.7016 4.86217 12.6344 5.14002 12.567C5.43535 12.4823 5.63521 12.4144 5.7396 12.3631C6.13972 12.1752 6.47931 11.9695 6.75836 11.7461C7.05488 11.5055 7.20446 11.2118 7.20712 10.8652C7.20924 10.5879 7.09897 10.2751 6.8763 9.92688C6.77349 9.77017 6.60989 9.63037 6.38549 9.50748C6.17843 9.38472 5.93656 9.27905 5.6599 9.19048C5.38324 9.1019 5.08038 9.03915 4.75132 9.00221C4.43972 8.94806 4.1366 8.91997 3.84194 8.91794C3.39128 8.91483 3.00082 8.97281 2.67057 9.09187C2.34045 9.1936 2.17446 9.36579 2.1726 9.60845C2.18993 9.60857 2.1892 9.7039 2.17041 9.89444C2.16908 10.0678 2.16828 10.1718 2.16802 10.2064ZM11.7307 9.15432L11.7435 7.49037C11.7473 6.98771 11.7424 6.50233 11.7286 6.03423C11.7324 5.54891 11.7093 5.16741 11.6594 4.88972C11.5773 4.29981 11.4776 3.73578 11.3604 3.19762C11.2431 2.65947 11.1861 2.1824 11.1893 1.76641C11.192 1.41975 11.2548 1.13418 11.3779 0.909691C11.5183 0.68532 11.7621 0.530997 12.1094 0.446722C12.5088 0.362806 12.9599 0.305247 13.4628 0.274045C13.9832 0.225631 14.4947 0.203156 14.9974 0.206621C15.24 0.208293 15.4653 0.218513 15.6732 0.237279C15.8812 0.238712 16.0891 0.248812 16.2969 0.267578C16.9897 0.341688 17.6037 0.519257 18.1389 0.800285C18.6741 1.08131 19.1221 1.43108 19.4829 1.84957C19.8437 2.26807 20.1175 2.73797 20.3041 3.25927C20.4908 3.78057 20.582 4.31854 20.5778 4.87319C20.5726 5.54917 20.4201 6.22414 20.1203 6.89808C19.8379 7.55482 19.3914 8.14109 18.7808 8.65689C18.4492 8.94928 18.1529 9.16391 17.8918 9.30078C17.6482 9.42044 17.5257 9.5756 17.5242 9.76626C17.5232 9.90492 17.5998 10.0788 17.7542 10.2879C17.9086 10.4969 18.1578 10.776 18.5018 11.125C18.7426 11.3694 18.9407 11.5441 19.0959 11.6491C19.2685 11.737 19.4928 11.8772 19.7686 12.0698C20.1478 12.3497 20.5014 12.5862 20.8292 12.7791C21.1744 12.9722 21.3461 13.19 21.3443 13.4327C21.3432 13.5713 21.2552 13.7441 21.0803 13.9509C20.9227 14.1578 20.6181 14.3204 20.1665 14.4386C19.9928 14.4894 19.7765 14.4359 19.5177 14.2781C19.2589 14.1203 18.9831 13.9277 18.6901 13.7004C18.4145 13.4732 18.139 13.2372 17.8635 12.9927C17.6054 12.7482 17.3902 12.5561 17.2179 12.4162C17.0799 12.3286 16.8816 12.1972 16.6229 12.0221C16.3817 11.8298 16.1059 11.6372 15.7953 11.4444C15.0705 11.0234 14.5521 10.8118 14.2401 10.8097C13.8761 10.8071 13.6922 11.0572 13.6884 11.5599C13.6867 11.7852 13.7275 12.1148 13.8108 12.5487C13.8942 12.9827 13.9346 13.3556 13.9322 13.6676C13.9292 14.0663 13.8228 14.3775 13.6131 14.6014C13.4035 14.808 13.0219 14.84 12.4683 14.6975C12.1743 14.6088 11.9861 14.2869 11.9037 13.7316C11.8387 13.1592 11.8089 12.5263 11.8142 11.833L11.8212 10.923C11.8239 10.5763 11.8177 10.2469 11.8028 9.93483C11.8052 9.62284 11.7811 9.36267 11.7307 9.15432ZM13.5212 6.22859C13.5527 6.64481 13.6195 6.97462 13.7216 7.21799C13.8239 7.44404 13.9526 7.61826 14.1076 7.74067C14.2627 7.86307 14.4354 7.94226 14.6258 7.97824C14.8337 7.99701 15.059 7.99856 15.3018 7.9829C15.7181 7.9511 16.0564 7.9101 16.3168 7.85989C16.5946 7.79247 16.8206 7.70736 16.9948 7.60456C17.1862 7.50188 17.3432 7.38162 17.4655 7.2438C17.6054 7.08876 17.7627 6.9165 17.9375 6.72704C18.2348 6.38241 18.4453 6.05452 18.5691 5.74337C18.6928 5.43221 18.7558 5.12931 18.758 4.83465C18.761 4.45333 18.6683 4.10601 18.48 3.79271C18.3092 3.46219 18.0773 3.18325 17.7844 2.95589C17.5089 2.71132 17.1897 2.52712 16.8266 2.40328C16.4637 2.26211 16.1002 2.19027 15.7362 2.18776C15.4242 2.18561 15.1205 2.23552 14.825 2.33748C14.5471 2.42224 14.2859 2.57644 14.0415 2.80009C13.832 2.98932 13.6826 3.26563 13.5931 3.62902C13.521 3.99253 13.4831 4.41695 13.4794 4.90227C13.4778 5.11026 13.4761 5.32692 13.4744 5.55225C13.4901 5.76036 13.5057 5.98581 13.5212 6.22859ZM23.2576 4.91766C23.5239 4.08748 23.8674 3.37049 24.2881 2.76671C24.726 2.16305 25.2238 1.67247 25.7814 1.29497C26.339 0.917471 26.9304 0.644207 27.5557 0.47518C28.1985 0.288939 28.8579 0.198148 29.5339 0.202808C30.4872 0.209378 31.4218 0.389157 32.3378 0.742145C33.2713 1.07792 34.0996 1.56031 34.8228 2.18931C35.5635 2.80109 36.1558 3.54186 36.5998 4.41161C37.0438 5.28135 37.2618 6.24488 37.2537 7.30218C37.251 7.64884 37.2225 7.98665 37.1679 8.31561C37.0405 9.11209 36.7746 9.88161 36.3702 10.6242C35.9833 11.3495 35.493 12.0048 34.8991 12.5901C34.3228 13.1581 33.6603 13.6476 32.9118 14.0584C32.1808 14.4521 31.4074 14.7241 30.5915 14.8744C30.0361 14.9746 29.4723 15.0227 28.9004 15.0188C28.0684 15.0131 27.2461 14.8687 26.4336 14.5858C25.6385 14.2856 24.9492 13.7609 24.3656 13.0115C23.7133 12.175 23.2514 11.3831 22.9798 10.6359C22.7255 9.88878 22.6013 9.12524 22.6073 8.34526C22.6114 7.80794 22.6676 7.26232 22.7758 6.70838C22.9015 6.13724 23.0621 5.54033 23.2576 4.91766ZM27.77 3.05072C26.6734 3.64984 25.8613 4.44159 25.3337 5.42598C24.8236 6.39316 24.5647 7.38806 24.5568 8.4107C24.5522 9.01735 24.6343 9.60726 24.8033 10.1804C24.9897 10.7364 25.2633 11.2323 25.6239 11.6681C25.9847 12.0866 26.4328 12.4277 26.9681 12.6914C27.5036 12.9378 28.1266 13.0634 28.8373 13.0683C29.08 13.07 29.3313 13.063 29.5915 13.0475C29.8691 13.0148 30.1555 12.9561 30.4508 12.8714C31.1976 12.6859 31.8321 12.4563 32.3542 12.1825C32.8764 11.8915 33.3123 11.5564 33.6619 11.1775C34.029 10.7814 34.3357 10.3415 34.5821 9.85783C34.8286 9.35685 35.0581 8.80375 35.2708 8.19853C35.3949 7.83538 35.4586 7.43714 35.4619 7.00382C35.4655 6.53584 35.4083 6.08477 35.2903 5.65061C35.1724 5.19912 35.0191 4.84272 34.8305 4.58142C34.3505 3.88476 33.7045 3.36029 32.8925 3.00802C32.0806 2.63842 31.2327 2.45057 30.3487 2.44448C29.8981 2.44137 29.447 2.49026 28.9955 2.59115C28.5614 2.69216 28.1529 2.84535 27.77 3.05072ZM42.1319 12.9519C42.3375 13.2654 42.4392 13.5694 42.4369 13.8641C42.4336 14.2974 42.249 14.6341 41.8832 14.8743C41.5346 15.1145 41.1442 15.1638 40.712 15.0222C40.4353 14.9336 40.2201 14.7501 40.0662 14.4717C39.9124 14.176 39.8368 13.8721 39.8392 13.5601C39.8426 13.1095 40.0098 12.7813 40.3407 12.5756C40.6195 12.3868 40.9405 12.3457 41.3037 12.4522C41.667 12.5414 41.9431 12.708 42.1319 12.9519ZM48.4032 12.9952C48.6088 13.3086 48.7105 13.6126 48.7082 13.9073C48.7049 14.3406 48.5203 14.6773 48.1545 14.9175C47.806 15.1578 47.4156 15.2071 46.9833 15.0654C46.7067 14.9768 46.4914 14.7934 46.3375 14.515C46.1838 14.2192 46.1081 13.9154 46.1105 13.6034C46.1139 13.1527 46.2811 12.8245 46.612 12.6188C46.8908 12.4301 47.2118 12.3889 47.575 12.4954C47.9383 12.5846 48.2144 12.7512 48.4032 12.9952ZM54.6746 13.0384C54.8802 13.3518 54.9818 13.6558 54.9796 13.9505C54.9763 14.3838 54.7917 14.7206 54.4258 14.9607C54.0773 15.201 53.6869 15.2503 53.2547 15.1086C52.978 15.0201 52.7627 14.8366 52.6089 14.5582C52.4551 14.2624 52.3794 13.9586 52.3818 13.6466C52.3853 13.1959 52.5525 12.8678 52.8834 12.662C53.1622 12.4733 53.4832 12.4322 53.8464 12.5387C54.2097 12.6278 54.4858 12.7944 54.6746 13.0384ZM60.9459 13.0816C61.1515 13.395 61.2532 13.6991 61.2509 13.9937C61.2476 14.427 61.063 14.7638 60.6972 15.0039C60.3486 15.2442 59.9583 15.2935 59.526 15.1519C59.2493 15.0633 59.0341 14.8798 58.8802 14.6014C58.7264 14.3057 58.6508 14.0018 58.6532 13.6898C58.6566 13.2392 58.8238 12.911 59.1547 12.7053C59.4335 12.5165 59.7545 12.4754 60.1177 12.5819C60.481 12.6711 60.7571 12.8376 60.9459 13.0816ZM67.2172 13.1248C67.4228 13.4383 67.5245 13.7423 67.5222 14.037C67.5189 14.4703 67.3343 14.807 66.9685 15.0472C66.62 15.2874 66.2296 15.3367 65.7973 15.1951C65.5207 15.1065 65.3054 14.923 65.1515 14.6446C64.9978 14.3489 64.9221 14.045 64.9245 13.733C64.928 13.2824 65.0951 12.9542 65.4261 12.7485C65.7048 12.5597 66.0258 12.5186 66.389 12.6251C66.7524 12.7143 67.0284 12.8809 67.2172 13.1248Z" fill="black"/>
</svg>
