<svg width="83" height="46" viewBox="0 0 83 46" fill="none" xmlns="http://www.w3.org/2000/svg">
<path d="M5.7332 0.957042C6.56259 0.778754 7.38361 0.692411 8.19626 0.698012C9.30023 0.705621 10.3261 0.896696 11.274 1.27124C12.2372 1.63055 13.0379 2.20342 13.6759 2.98983C13.9342 3.29829 14.1311 3.61398 14.2666 3.93693C14.4022 4.25987 14.507 4.59026 14.581 4.92812C14.6706 5.25074 14.7293 5.59615 14.7571 5.96435C14.8004 6.31733 14.8437 6.67797 14.8868 7.04627C14.8784 8.15024 14.6642 9.08412 14.2444 9.84791C13.8398 10.6118 13.283 11.2367 12.5739 11.7224C11.8802 12.2083 11.0648 12.5631 10.1277 12.7866C9.20611 12.9949 8.23164 13.0955 7.20433 13.0885C6.63701 13.0846 6.17012 12.9817 5.80365 12.7798C5.43731 12.5626 5.2937 12.2933 5.37283 11.9718C5.37471 11.7265 5.36219 11.3584 5.33529 10.8675C5.32383 10.3614 5.29745 9.80158 5.25615 9.18795C5.2303 8.55909 5.18923 7.91479 5.13295 7.25505C5.09212 6.58009 5.04315 5.9664 4.98605 5.414C4.94427 4.8617 4.9018 4.40139 4.85862 4.03309C4.81556 3.64945 4.77126 3.4268 4.72573 3.36515C4.57487 3.04211 4.50061 2.72726 4.50296 2.4206C4.50625 1.99128 4.6391 1.66252 4.90152 1.43432C5.16406 1.19079 5.44129 1.0317 5.7332 0.957042ZM6.83385 7.40478C6.88908 8.20251 6.93014 8.84681 6.95705 9.33767C6.99941 9.81331 7.05792 10.1817 7.13259 10.4429C7.20738 10.6888 7.32114 10.8506 7.47388 10.9283C7.62663 11.006 7.84105 11.0381 8.11716 11.0247C8.73072 10.9983 9.27563 10.9254 9.75189 10.806C10.2436 10.6714 10.6744 10.4827 11.0443 10.2399C11.4142 9.98174 11.7386 9.66964 12.0175 9.30355C12.3117 8.92224 12.5682 8.46399 12.787 7.92882C13.0058 7.39365 13.1172 6.86541 13.1212 6.34409C13.1257 5.7461 12.9841 5.21612 12.6963 4.75412C12.4239 4.29223 12.0665 3.90643 11.6242 3.59671C11.1972 3.28709 10.716 3.05377 10.1805 2.89674C9.66033 2.73982 9.1626 2.65972 8.68727 2.65644C8.11995 2.65253 7.63608 2.7642 7.23567 2.99145C6.83536 3.20336 6.63351 3.53164 6.63011 3.97629C6.6294 4.06829 6.63566 4.25234 6.64888 4.52844C6.67755 4.78931 6.70592 5.08851 6.734 5.42604C6.76209 5.76358 6.78239 6.11639 6.7949 6.48449C6.82286 6.83736 6.83585 7.14412 6.83385 7.40478ZM21.6199 7.06968C21.6341 7.22311 21.6406 7.36883 21.6396 7.50682C21.6385 7.64482 21.6375 7.77515 21.6366 7.89781C21.6328 8.38847 21.6143 8.80235 21.5811 9.13946C21.5479 9.46124 21.5386 9.68351 21.553 9.80628C21.5658 10.1284 21.5716 10.3814 21.5701 10.5654C21.5841 10.7495 21.5983 10.8953 21.6128 11.0027C21.6426 11.1103 21.6958 11.1796 21.7722 11.2108C21.8486 11.242 21.9712 11.2582 22.1398 11.2594C22.2472 11.2601 22.3698 11.2609 22.5078 11.2619C22.6613 11.2476 22.8453 11.2412 23.06 11.2427L24.072 11.2497C24.0719 11.265 24.1408 11.2732 24.2788 11.2741C24.4168 11.2751 24.5701 11.2838 24.7386 11.3003C24.9072 11.3168 25.0679 11.3485 25.2209 11.3956C25.374 11.4273 25.4733 11.474 25.5188 11.5357C25.5795 11.6281 25.6094 11.728 25.6085 11.8353C25.623 11.9427 25.6222 12.0577 25.6059 12.1803C25.5574 12.5019 25.4562 12.7083 25.3021 12.7992C25.1636 12.8749 24.9869 12.912 24.7723 12.9105C24.6496 12.9097 24.5039 12.9087 24.3353 12.9075C24.1821 12.8911 24.0211 12.8824 23.8525 12.8812C23.4689 12.9092 23.1161 12.9221 22.7941 12.9199C22.4722 12.9177 22.1271 12.923 21.759 12.9358C21.4522 12.949 21.0305 12.9538 20.4938 12.9501C19.9572 12.9464 19.451 12.9735 18.9752 13.0316C18.7143 13.0605 18.4379 13.1122 18.146 13.1869C17.8693 13.277 17.6006 13.3211 17.3399 13.3193C17.0793 13.3175 16.8575 13.2393 16.6747 13.0847C16.5071 12.9456 16.4095 12.6766 16.3819 12.2777C16.368 12.0936 16.3921 11.9481 16.4542 11.8412C16.5317 11.7344 16.632 11.6507 16.7552 11.5903C16.8783 11.5298 17.009 11.4847 17.1472 11.455C17.3008 11.4253 17.4389 11.4033 17.5617 11.3888C17.7458 11.3747 17.9222 11.3683 18.0909 11.3695C18.2749 11.3707 18.4589 11.372 18.6429 11.3733C18.9342 11.3753 19.1566 11.3615 19.3102 11.3319C19.4791 11.3024 19.6023 11.2342 19.6798 11.1274C19.7574 11.0053 19.8047 10.8369 19.8217 10.6224C19.8386 10.4078 19.8563 10.1089 19.8745 9.72571C19.8927 9.35783 19.9108 8.99761 19.9288 8.64506C19.947 8.27718 19.9574 7.90924 19.9603 7.54125C19.9612 7.41859 19.9621 7.29593 19.9631 7.17326C19.9641 7.03527 19.9575 6.89722 19.9432 6.75912C19.9305 6.42169 19.9259 6.02298 19.9294 5.56299C19.933 5.08767 19.9212 4.63525 19.8938 4.20571C19.8516 3.71475 19.8004 3.39239 19.7402 3.23863C19.68 3.08488 19.5503 3.00732 19.351 3.00595C19.2283 3.0051 19.0749 3.01938 18.8906 3.04877C18.7217 3.07828 18.5068 3.10746 18.2459 3.13633C18.0157 3.16541 17.8009 3.17927 17.6016 3.17789C17.4177 3.16129 17.2265 3.10631 17.0279 3.01293C16.8139 2.91946 16.6539 2.78802 16.5479 2.61862C16.4418 2.44922 16.3894 2.28018 16.3907 2.11152C16.392 1.94286 16.4315 1.7898 16.5093 1.65233C16.6024 1.49963 16.7336 1.38554 16.9029 1.31003C17.026 1.24955 17.1567 1.21211 17.2948 1.19773C17.4482 1.18346 17.6093 1.1769 17.7779 1.17806C18.1766 1.18081 18.598 1.22205 19.042 1.30178C19.4862 1.36617 19.8616 1.39943 20.1683 1.40154C20.4903 1.40376 20.7969 1.40587 21.0883 1.40788C21.395 1.39466 21.6941 1.38906 21.9854 1.39106C22.1388 1.39212 22.2844 1.39312 22.4224 1.39408C22.5604 1.39503 22.6983 1.40364 22.8362 1.41993C23.005 1.40576 23.1661 1.39153 23.3196 1.37726C23.473 1.36298 23.6264 1.35637 23.7797 1.35743C24.0864 1.35954 24.3467 1.40734 24.5607 1.50082C24.7746 1.59429 24.9113 1.77157 24.9706 2.03265C25.0149 2.24763 25.0059 2.42391 24.9435 2.56148C24.8966 2.68383 24.8115 2.78291 24.6883 2.85873C24.5805 2.91932 24.4421 2.96437 24.2732 2.99387C24.1044 3.00804 23.9357 3.01454 23.767 3.01338C23.6444 3.01254 23.5217 3.01169 23.3991 3.01085C23.2765 2.99467 23.1692 2.98626 23.0772 2.98563C22.8626 2.98415 22.6786 2.97521 22.5254 2.95882C22.3722 2.94243 22.2343 2.93382 22.1116 2.93297C21.8816 2.93139 21.7278 2.99933 21.65 3.13679C21.5877 3.27437 21.5622 3.58853 21.5738 4.07929C21.586 4.49338 21.5975 4.99181 21.6084 5.57456C21.6347 6.14209 21.6385 6.64046 21.6199 7.06968ZM28.2161 1.112C29.0455 0.933712 29.8665 0.847369 30.6791 0.85297C31.7831 0.860579 32.809 1.05165 33.7568 1.4262C34.7201 1.78551 35.5207 2.35837 36.1587 3.14479C36.417 3.45324 36.614 3.76894 36.7495 4.09188C36.885 4.41483 36.9898 4.74522 37.0639 5.08307C37.1534 5.4057 37.2121 5.75111 37.24 6.11931C37.2833 6.47229 37.3265 6.83293 37.3697 7.20123C37.3612 8.3052 37.1471 9.23908 36.7272 10.0029C36.3227 10.7668 35.7659 11.3916 35.0568 11.8774C34.3631 12.3633 33.5477 12.718 32.6106 12.9416C31.689 13.1499 30.7145 13.2505 29.6872 13.2434C29.1199 13.2395 28.653 13.1366 28.2865 12.9348C27.9202 12.7176 27.7766 12.4482 27.8557 12.1268C27.8576 11.8814 27.8451 11.5134 27.8182 11.0225C27.8067 10.5164 27.7803 9.95654 27.739 9.34291C27.7132 8.71405 27.6721 8.06975 27.6158 7.41001C27.575 6.73505 27.526 6.12136 27.4689 5.56896C27.4271 5.01665 27.3847 4.55635 27.3415 4.18804C27.2984 3.80441 27.2541 3.58176 27.2086 3.52011C27.0577 3.19707 26.9835 2.88221 26.9858 2.57556C26.9891 2.14623 27.122 1.81748 27.3844 1.58928C27.6469 1.34575 27.9242 1.18666 28.2161 1.112ZM29.3167 7.55974C29.3719 8.35747 29.413 9.00177 29.4399 9.49263C29.4823 9.96827 29.5408 10.3367 29.6155 10.5979C29.6902 10.8437 29.804 11.0055 29.9567 11.0832C30.1095 11.161 30.3239 11.1931 30.6 11.1797C31.2136 11.1532 31.7585 11.0803 32.2348 10.9609C32.7265 10.8263 33.1573 10.6376 33.5271 10.3948C33.8971 10.1367 34.2215 9.8246 34.5003 9.45851C34.7946 9.07719 35.0511 8.61895 35.2699 8.08378C35.4886 7.54861 35.6 7.02036 35.604 6.49905C35.6086 5.90106 35.467 5.37107 35.1792 4.90908C34.9067 4.44719 34.5493 4.06139 34.107 3.75166C33.68 3.44205 33.1988 3.20872 32.6633 3.0517C32.1432 2.89477 31.6455 2.81468 31.1701 2.8114C30.6028 2.80749 30.1189 2.91916 29.7185 3.1464C29.3182 3.35832 29.1164 3.6866 29.113 4.13125C29.1123 4.22325 29.1185 4.4073 29.1317 4.6834C29.1604 4.94427 29.1888 5.24347 29.2169 5.581C29.245 5.91854 29.2652 6.27135 29.2778 6.63945C29.3057 6.99232 29.3187 7.29908 29.3167 7.55974ZM50.7583 9.68557C50.7419 9.82346 50.7405 10.0075 50.754 10.2375C50.7676 10.4676 50.7734 10.713 50.7714 10.9737C50.7694 11.2343 50.7521 11.4949 50.7194 11.7553C50.7021 12.0159 50.6619 12.2533 50.5989 12.4675C50.5513 12.6819 50.4733 12.8577 50.3649 12.9949C50.2566 13.1169 50.1105 13.1772 49.9265 13.1759C49.6505 13.174 49.3221 13.0107 48.9412 12.6861C48.8346 12.5934 48.7741 12.4856 48.7597 12.3629C48.7453 12.2401 48.7539 12.1175 48.7855 11.995C48.8171 11.8726 48.8564 11.7502 48.9033 11.6278C48.9504 11.4901 48.982 11.3677 48.9981 11.2605C49.031 10.9694 49.0563 10.6705 49.074 10.364C49.1071 10.0422 49.125 9.71264 49.1276 9.37532C49.1336 8.59334 49.0551 7.83378 48.892 7.09664C48.7443 6.35961 48.4423 5.75951 47.9858 5.29635C47.8183 5.14186 47.5595 4.90241 47.2093 4.57799C46.8591 4.25356 46.4937 3.9137 46.1131 3.55841C45.7479 3.18788 45.4133 2.8329 45.1092 2.49346C44.8051 2.15403 44.6231 1.8921 44.5632 1.70768C44.4734 1.41572 44.5517 1.20159 44.7981 1.06528C45.0599 0.913753 45.3365 0.838991 45.6279 0.840998C45.7965 0.842161 45.9496 0.873884 46.0871 0.936166C46.2248 0.983115 46.3085 1.06803 46.3382 1.1909C46.4754 1.29918 46.6654 1.51516 46.9082 1.83885C47.1511 2.16253 47.4322 2.49414 47.7517 2.83368C48.0712 3.15789 48.414 3.44393 48.7801 3.69179C49.1616 3.93976 49.5594 4.04217 49.9738 3.99902C50.1732 3.98507 50.4045 3.81799 50.6676 3.4978C50.9308 3.1776 51.2018 2.82679 51.4807 2.44537C51.7598 2.04862 52.031 1.67482 52.2943 1.32396C52.573 0.973202 52.8277 0.752619 53.0584 0.662207C53.2277 0.586704 53.4037 0.626252 53.5865 0.780849C53.7848 0.920219 53.9673 1.12081 54.134 1.38264C54.24 1.55204 54.2461 1.75142 54.1524 1.98078C54.0587 2.1948 53.9036 2.42374 53.6871 2.66759C53.4859 2.91154 53.2386 3.17051 52.9451 3.44449C52.667 3.71858 52.3966 3.99272 52.1338 4.26692C51.8246 4.60213 51.5763 4.98376 51.389 5.41181C51.2172 5.82464 51.0834 6.26839 50.9878 6.74308C50.8922 7.21776 50.8271 7.70799 50.7925 8.21377C50.7733 8.71965 50.7619 9.21025 50.7583 9.68557ZM55.055 4.58606C55.2906 3.85167 55.5945 3.21741 55.9666 2.6833C56.354 2.14929 56.7943 1.71531 57.2876 1.38137C57.7808 1.04743 58.304 0.805696 58.8572 0.656172C59.4258 0.49142 60.0091 0.411105 60.6071 0.415227C61.4504 0.421039 62.2772 0.580075 63.0875 0.892333C63.9132 1.18936 64.646 1.61609 65.2857 2.17251C65.9409 2.71371 66.4649 3.369 66.8577 4.13839C67.2505 4.90779 67.4433 5.76014 67.4362 6.69544C67.4338 7.0021 67.4085 7.30093 67.3603 7.59194C67.2476 8.29651 67.0123 8.97724 66.6546 9.63412C66.3124 10.2758 65.8786 10.8555 65.3533 11.3732C64.8434 11.8757 64.2574 12.3087 63.5953 12.6721C62.9486 13.0203 62.2644 13.261 61.5427 13.394C61.0513 13.4826 60.5527 13.5252 60.0467 13.5217C59.3107 13.5166 58.5833 13.3889 57.8645 13.1386C57.1612 12.8731 56.5514 12.4089 56.0351 11.746C55.4581 11.006 55.0495 10.3055 54.8092 9.64448C54.5843 8.98358 54.4744 8.30815 54.4797 7.61817C54.4834 7.14285 54.5331 6.66018 54.6288 6.17016C54.74 5.66491 54.8821 5.13688 55.055 4.58606ZM59.0467 2.93453C58.0766 3.46452 57.3582 4.16492 56.8916 5.03573C56.4403 5.8913 56.2113 6.77141 56.2043 7.67605C56.2002 8.2127 56.2729 8.73455 56.4223 9.24159C56.5872 9.73341 56.8292 10.1721 57.1483 10.5576C57.4675 10.9278 57.8638 11.2296 58.3374 11.4628C58.8111 11.6808 59.3622 11.7919 59.9909 11.7962C60.2055 11.7977 60.4279 11.7916 60.658 11.7778C60.9036 11.7489 61.157 11.6969 61.4183 11.6221C62.0789 11.458 62.6401 11.2548 63.102 11.0127C63.564 10.7552 63.9496 10.4588 64.2588 10.1236C64.5835 9.77319 64.8548 9.38405 65.0728 8.95621C65.2908 8.51303 65.4939 8.02375 65.682 7.48837C65.7918 7.16712 65.8482 6.81483 65.8511 6.43151C65.8543 6.01752 65.8037 5.6185 65.6993 5.23444C65.595 4.83504 65.4594 4.51977 65.2925 4.28861C64.8679 3.67234 64.2964 3.20839 63.5781 2.89676C62.86 2.5698 62.1099 2.40363 61.3279 2.39824C60.9292 2.39549 60.5302 2.43874 60.1309 2.52799C59.7468 2.61735 59.3855 2.75286 59.0467 2.93453ZM69.1135 1.76189C69.0986 1.70045 69.1222 1.62394 69.1842 1.53237C69.2463 1.44079 69.3236 1.35699 69.4162 1.28096C69.5241 1.20504 69.6395 1.1445 69.7626 1.09934C69.8857 1.03886 70.0086 1.00904 70.1313 1.00988C70.2999 1.01105 70.4374 1.08099 70.5437 1.21973C70.6654 1.34324 70.7404 1.55843 70.7687 1.8653C70.796 2.31016 70.7928 2.72415 70.7592 3.10726C70.7411 3.47514 70.7225 3.89669 70.7035 4.37191C70.6863 4.61713 70.6682 4.98501 70.6491 5.47556C70.6454 5.95088 70.6414 6.47219 70.6371 7.03951C70.6339 7.4535 70.6384 7.86754 70.6506 8.28163C70.6627 8.69573 70.6828 9.07921 70.7108 9.43207C70.7535 9.86171 70.8202 10.1612 70.9109 10.3305C71.0017 10.4844 71.1391 10.5621 71.3231 10.5633C71.4764 10.5644 71.6607 10.5273 71.876 10.4521C72.0912 10.3769 72.3602 10.2945 72.6829 10.2047C72.775 10.19 72.8825 10.1677 73.0054 10.1379C73.1437 10.1082 73.2742 10.0861 73.3969 10.0716C73.5352 10.0419 73.658 10.0197 73.7655 10.0051C73.873 9.97522 73.9499 9.94508 73.9962 9.91473C74.3045 9.70218 74.6278 9.52807 74.9662 9.3924C75.32 9.2415 75.6284 9.01362 75.8915 8.70876C76.0463 8.51049 76.1486 8.17386 76.1982 7.69885C76.248 7.20852 76.2749 6.69503 76.279 6.15837C76.2822 5.74439 76.2776 5.34568 76.2652 4.96225C76.2528 4.57882 76.2398 4.27206 76.2262 4.04196C76.2118 3.91919 76.183 3.67365 76.1398 3.30535C76.112 2.93715 76.0995 2.56905 76.1023 2.20106C76.105 1.84841 76.138 1.54963 76.2012 1.30472C76.2645 1.04449 76.3958 0.922723 76.595 0.93943C77.1314 0.973794 77.4825 1.17555 77.6484 1.5447C77.8296 1.91396 77.9183 2.34392 77.9145 2.83457C77.9118 3.18722 77.8861 3.53972 77.8374 3.89206C77.7887 4.2444 77.748 4.55079 77.7154 4.81124C77.6987 4.9798 77.6897 5.15607 77.6883 5.34007C77.6869 5.52406 77.6854 5.72339 77.6837 5.93805C77.6793 6.5207 77.6823 7.1264 77.6928 7.75516C77.7188 8.36868 77.7453 8.90555 77.7725 9.36574C77.7714 9.50374 77.7777 9.68779 77.7912 9.91789C77.8203 10.1328 77.8414 10.3706 77.8548 10.6313C77.8836 10.8769 77.9046 11.13 77.918 11.3908C77.9314 11.6362 77.9373 11.8663 77.9357 12.0809C77.9333 12.3876 77.9086 12.6098 77.8616 12.7474C77.7519 13.0534 77.5514 13.2053 77.2601 13.2033C77.0147 13.2016 76.778 13.085 76.5497 12.8534C76.3368 12.6219 76.2396 12.3069 76.258 11.9084C76.2761 11.5405 76.2474 11.2873 76.1718 11.1488C76.1115 11.0103 76.0124 10.9406 75.8744 10.9397C75.7057 10.9385 75.4982 10.9984 75.252 11.1194C75.021 11.2405 74.7442 11.3536 74.4213 11.4587C74.114 11.5486 73.7604 11.6688 73.3606 11.8194C72.9608 11.9546 72.5534 12.0975 72.1382 12.248C71.7232 12.3831 71.3235 12.5107 70.9393 12.6307C70.5551 12.7354 70.2403 12.8022 69.9947 12.8312C69.8106 12.8453 69.6655 12.7753 69.5593 12.6212C69.4533 12.4518 69.3706 12.2289 69.3114 11.9525C69.2675 11.6762 69.2316 11.3616 69.2036 11.0087C69.191 10.656 69.186 10.3033 69.1887 9.9506C69.1918 9.55194 69.1947 9.17629 69.1974 8.82363C69.2154 8.47108 69.2251 8.21047 69.2264 8.04181C69.202 7.21362 69.1702 6.37005 69.1307 5.51109C69.0914 4.6368 69.0754 3.732 69.0825 2.7967C69.0838 2.62803 69.0851 2.45937 69.0864 2.29071C69.1032 2.10682 69.1122 1.93055 69.1135 1.76189ZM0.690762 24.0298L0.702036 22.5579C0.705442 22.1132 0.701064 21.6838 0.688902 21.2698C0.69219 20.8404 0.671774 20.503 0.627655 20.2573C0.554983 19.7355 0.466802 19.2365 0.363111 18.7604C0.259421 18.2844 0.208986 17.8624 0.211804 17.4944C0.214153 17.1877 0.269756 16.9351 0.378614 16.7365C0.502804 16.538 0.718523 16.4015 1.02577 16.327C1.37901 16.2527 1.77808 16.2018 2.22297 16.1742C2.68332 16.1314 3.13581 16.1115 3.58047 16.1146C3.79513 16.116 3.9944 16.1251 4.17828 16.1417C4.36228 16.143 4.54621 16.1519 4.73009 16.1685C5.34294 16.234 5.88609 16.3911 6.35953 16.6397C6.83297 16.8883 7.22928 17.1977 7.54845 17.5679C7.86763 17.9382 8.10978 18.3538 8.27492 18.815C8.44006 19.2761 8.52075 19.752 8.517 20.2427C8.51242 20.8407 8.3775 21.4377 8.11226 22.0339C7.86247 22.6149 7.46749 23.1335 6.92731 23.5898C6.63399 23.8485 6.37186 24.0383 6.14093 24.1594C5.92544 24.2652 5.81706 24.4025 5.81576 24.5712C5.81483 24.6938 5.88265 24.8476 6.01924 25.0326C6.15582 25.2175 6.37627 25.4644 6.68058 25.7732C6.8936 25.9893 7.06876 26.1438 7.20605 26.2368C7.35879 26.3145 7.55718 26.4385 7.80122 26.6089C8.13666 26.8565 8.4494 27.0657 8.73944 27.2364C9.0448 27.4072 9.19667 27.5999 9.19502 27.8145C9.19408 27.9372 9.11624 28.09 8.9615 28.2729C8.8221 28.456 8.55266 28.5998 8.15318 28.7044C7.99949 28.7493 7.80818 28.702 7.57925 28.5624C7.35031 28.4228 7.10627 28.2525 6.84714 28.0514C6.60334 27.8503 6.3596 27.6417 6.11591 27.4253C5.88756 27.2091 5.69719 27.0391 5.5448 26.9154C5.42273 26.8378 5.24728 26.7216 5.01846 26.5667C4.80509 26.3966 4.56105 26.2262 4.28635 26.0557C3.64518 25.6832 3.1866 25.4961 2.91061 25.4942C2.58862 25.4919 2.42592 25.7132 2.42251 26.1578C2.42099 26.3571 2.45709 26.6487 2.53082 27.0326C2.60455 27.4164 2.64035 27.7464 2.63824 28.0223C2.63554 28.375 2.54143 28.6504 2.3559 28.8484C2.1705 29.0311 1.83294 29.0595 1.34322 28.9334C1.08315 28.855 0.91666 28.5702 0.843754 28.079C0.786297 27.5726 0.759918 27.0127 0.764615 26.3994L0.770781 25.5944C0.77313 25.2878 0.767695 24.9964 0.754476 24.7203C0.75659 24.4443 0.735352 24.2141 0.690762 24.0298ZM2.27463 21.4417C2.30248 21.8099 2.36158 22.1016 2.45193 22.3169C2.5424 22.5169 2.65623 22.671 2.7934 22.7793C2.93058 22.8876 3.08338 22.9576 3.2518 22.9895C3.43568 23.0061 3.63501 23.0074 3.84979 22.9936C4.21802 22.9654 4.5173 22.9292 4.74765 22.8848C4.99345 22.8251 5.19336 22.7498 5.3474 22.6589C5.51676 22.5681 5.65558 22.4617 5.76385 22.3398C5.88757 22.2026 6.02675 22.0502 6.18137 21.8826C6.44438 21.5778 6.6306 21.2877 6.74005 21.0125C6.84949 20.7372 6.90521 20.4692 6.90721 20.2086C6.90979 19.8713 6.82781 19.564 6.66126 19.2869C6.51016 18.9945 6.30505 18.7477 6.04591 18.5466C5.80223 18.3303 5.5198 18.1673 5.19863 18.0578C4.87758 17.9329 4.55606 17.8693 4.23407 17.8671C3.95807 17.8652 3.68939 17.9094 3.42803 17.9996C3.18211 18.0745 2.95106 18.2109 2.73487 18.4088C2.54959 18.5762 2.41738 18.8206 2.33825 19.1421C2.27445 19.4636 2.2409 19.8391 2.23762 20.2684C2.23621 20.4524 2.23474 20.6441 2.23321 20.8434C2.24714 21.0275 2.26094 21.2269 2.27463 21.4417ZM17.6746 17.0397C17.828 17.0254 17.9584 17.0187 18.0658 17.0194C18.1885 17.0049 18.2958 17.0133 18.3876 17.0446C18.4947 17.076 18.5939 17.1304 18.6853 17.2077C18.7769 17.2697 18.8834 17.3777 19.0049 17.5319C19.1416 17.7015 19.2169 17.8707 19.231 18.0395C19.2451 18.1929 19.1981 18.3306 19.0898 18.4525C18.997 18.5592 18.8277 18.6347 18.5821 18.679C18.3364 18.7233 18.0145 18.7058 17.6164 18.6264C17.448 18.5945 17.1952 18.5698 16.858 18.5521C16.5362 18.5192 16.1914 18.5015 15.8234 18.499C15.4707 18.4966 15.1179 18.5095 14.765 18.5377C14.4123 18.5506 14.0899 18.5944 13.798 18.669C13.5062 18.7284 13.2602 18.8187 13.0599 18.94C12.8751 19.046 12.7743 19.191 12.7576 19.3749C12.7085 19.7732 12.683 20.1027 12.681 20.3634C12.6783 20.716 12.7683 20.9697 12.9512 21.1243C13.1341 21.2635 13.5246 21.3352 14.1226 21.3393C14.4139 21.3413 14.805 21.3287 15.2959 21.3014C15.8021 21.2742 16.3159 21.2625 16.8372 21.266C17.3892 21.2699 17.9025 21.3117 18.3773 21.3917C18.8521 21.4563 19.1731 21.5965 19.3401 21.8123C19.5375 22.059 19.6357 22.259 19.6345 22.4124C19.6325 22.673 19.3936 22.8324 18.9178 22.8904C18.442 22.9485 17.8668 22.9752 17.1922 22.9705C16.7015 22.9672 16.2031 22.9714 15.697 22.9832C15.191 22.9797 14.7231 23.0149 14.2932 23.0886C13.8634 23.1469 13.5022 23.2594 13.2095 23.4261C12.9323 23.5929 12.7771 23.8371 12.7439 24.1589C12.7272 24.3428 12.7103 24.542 12.6933 24.7566C12.6764 24.9711 12.6671 25.1857 12.6654 25.4004C12.6634 25.6611 12.6768 25.9142 12.7056 26.1597C12.7497 26.4053 12.8171 26.6205 12.9077 26.8051C13.0137 26.9745 13.1508 27.0981 13.3188 27.1759C13.5022 27.2539 13.7322 27.2555 14.0088 27.1807C14.5312 27.0463 15.0915 26.9582 15.6899 26.9163C16.3037 26.8592 16.9172 26.8327 17.5305 26.837L18.2205 26.8417C18.6651 26.8601 19.0322 26.97 19.322 27.1713C19.6118 27.3726 19.7559 27.5806 19.7543 27.7953C19.7531 27.9486 19.6524 28.0859 19.4521 28.2072C19.2673 28.3133 18.9449 28.3647 18.4849 28.3616C17.8102 28.3569 17.1046 28.3904 16.3681 28.462C15.6316 28.5182 14.9409 28.6055 14.296 28.7237C13.8968 28.7976 13.4896 28.9098 13.0744 29.0603C12.6746 29.2109 12.3136 29.2851 11.9917 29.2828C11.7003 29.2808 11.4558 29.1795 11.258 28.9788C11.0602 28.7781 10.9405 28.3862 10.899 27.8033C10.8851 27.6038 10.8713 27.4121 10.8574 27.228C10.8588 27.044 10.8602 26.8523 10.8618 26.653C10.8673 25.9323 10.8959 25.2042 10.9475 24.4685C11.0145 23.733 11.0508 22.9972 11.0564 22.2612C11.0589 21.9392 11.0536 21.6249 11.0406 21.3181C11.0278 20.996 10.9995 20.6815 10.9559 20.3745C10.9261 20.2516 10.889 20.0904 10.8446 19.8907C10.8002 19.6757 10.756 19.4454 10.7118 19.1998C10.6677 18.9541 10.6313 18.7086 10.6025 18.463C10.5737 18.2175 10.5601 17.9874 10.5618 17.7727C10.5644 17.4354 10.6199 17.1904 10.7284 17.0378C10.8525 16.8547 11.0527 16.7334 11.3292 16.674C11.6058 16.5992 11.9281 16.5631 12.2961 16.5656C12.7101 16.5685 13.1621 16.6023 13.6523 16.667C14.1425 16.7317 14.6327 16.7964 15.1229 16.8611C15.5977 16.9257 16.0496 16.9825 16.4786 17.0315C16.923 17.0652 17.3217 17.068 17.6746 17.0397ZM31.1377 18.0755C31.1196 18.4281 31.0718 18.6731 30.994 18.8106C30.9164 18.9327 30.8163 18.9933 30.6936 18.9925C30.571 18.9917 30.4409 18.9601 30.3034 18.8978C30.1658 18.8355 30.0359 18.781 29.9136 18.7341C29.5924 18.6246 29.3016 18.5612 29.041 18.5441C28.7958 18.5271 28.6655 18.5185 28.6502 18.5184C27.9296 18.5134 27.3005 18.5628 26.763 18.6664C26.241 18.7548 25.7719 18.9432 25.3557 19.2317C24.9396 19.5048 24.5608 19.9086 24.2193 20.4429C23.878 20.9619 23.5431 21.6496 23.2145 22.506C23.089 22.8732 23.0249 23.2331 23.0222 23.5857C23.0185 24.0764 23.1067 24.5753 23.2868 25.0826C23.467 25.5745 23.7166 26.0286 24.0354 26.4448C24.3696 26.8458 24.7504 27.1781 25.1778 27.4417C25.6205 27.6901 26.0949 27.816 26.6009 27.8195C26.9076 27.8216 27.2452 27.7856 27.6138 27.7115C27.9977 27.6375 28.3742 27.5327 28.7432 27.3973C29.1124 27.2465 29.4511 27.0648 29.7594 26.8522C30.0677 26.6397 30.2997 26.3883 30.4552 26.098C30.5637 25.9454 30.619 25.7388 30.621 25.4781L30.6505 24.6273C30.652 24.428 30.5303 24.2968 30.2855 24.2338C30.0561 24.1556 29.7574 24.1152 29.3894 24.1126C28.9141 24.1094 28.4002 24.1365 27.8477 24.194C27.2953 24.2515 26.8197 24.2789 26.4211 24.2762C26.0071 24.2733 25.7775 24.2104 25.7325 24.0874C25.6427 23.7955 25.6906 23.5505 25.8761 23.3524C26.077 23.1544 26.3543 22.9877 26.708 22.8521C27.0617 22.7166 27.4688 22.612 27.9294 22.5385C28.4053 22.4651 28.8734 22.4147 29.3336 22.3872C29.7939 22.3444 30.2234 22.3243 30.6221 22.3271C31.0362 22.3146 31.3659 22.3092 31.6113 22.3109C31.8566 22.3126 32.0553 22.3906 32.2075 22.545C32.375 22.6995 32.5114 22.9074 32.6167 23.1688C32.7222 23.4149 32.7967 23.6991 32.8402 24.0214C32.8838 24.3284 32.9045 24.6352 32.9021 24.9419C32.8994 25.2945 32.8662 25.6316 32.8024 25.9532C32.754 26.2595 32.6832 26.4967 32.5899 26.6647C32.3412 27.1077 32.0162 27.5041 31.6148 27.8541C31.2289 28.1887 30.7974 28.4694 30.3203 28.6962C29.8432 28.9229 29.3282 29.0957 28.7753 29.2145C28.2377 29.3335 27.6929 29.3911 27.1409 29.3873C26.2823 29.3813 25.4554 29.23 24.6603 28.9331C23.8652 28.6363 23.2017 28.1794 22.6698 27.5624C22.1224 26.9606 21.721 26.3138 21.4656 25.6221C21.2257 24.915 21.1085 24.2012 21.114 23.4806C21.1206 22.6219 21.2956 21.7875 21.6392 20.9771C21.9828 20.1515 22.4485 19.4187 23.0361 18.7787C23.639 18.1389 24.3482 17.6301 25.1638 17.2523C25.9795 16.8593 26.8627 16.666 27.8133 16.6726C28.12 16.6747 28.4648 16.7001 28.8478 16.7487C29.2461 16.7975 29.6135 16.8767 29.95 16.9863C30.2865 17.096 30.569 17.2436 30.7976 17.4292C31.0263 17.5994 31.1397 17.8149 31.1377 18.0755ZM39.6005 23.194C39.6146 23.3474 39.6212 23.4931 39.6201 23.6311C39.6191 23.7691 39.6181 23.8995 39.6171 24.0221C39.6134 24.5128 39.5949 24.9267 39.5616 25.2638C39.5285 25.5855 39.5191 25.8078 39.5335 25.9306C39.5464 26.2527 39.5521 26.5057 39.5507 26.6897C39.5646 26.8738 39.5788 27.0196 39.5933 27.127C39.6232 27.2346 39.6763 27.3039 39.7527 27.3351C39.8292 27.3663 39.9517 27.3825 40.1204 27.3837C40.2277 27.3844 40.3504 27.3852 40.4884 27.3862C40.6418 27.3719 40.8259 27.3655 41.0405 27.367L42.0525 27.374C42.0524 27.3893 42.1213 27.3975 42.2593 27.3984C42.3973 27.3994 42.5506 27.4081 42.7191 27.4246C42.8877 27.4411 43.0485 27.4728 43.2014 27.5199C43.3545 27.5516 43.4538 27.5983 43.4994 27.66C43.56 27.7524 43.5899 27.8523 43.5891 27.9596C43.6036 28.067 43.6027 28.182 43.5864 28.3046C43.538 28.6262 43.4367 28.8326 43.2827 28.9235C43.1441 28.9992 42.9675 29.0363 42.7528 29.0348C42.6301 29.034 42.4845 29.033 42.3158 29.0318C42.1626 29.0154 42.0017 29.0067 41.833 29.0055C41.4495 29.0335 41.0967 29.0464 40.7747 29.0442C40.4527 29.042 40.1076 29.0473 39.7395 29.0601C39.4328 29.0733 39.011 29.0781 38.4744 29.0744C37.9377 29.0707 37.4315 29.0978 36.9557 29.1559C36.6948 29.1848 36.4184 29.2365 36.1265 29.3112C35.8498 29.4013 35.5811 29.4454 35.3205 29.4436C35.0598 29.4418 34.8381 29.3636 34.6552 29.209C34.4876 29.0699 34.39 28.8009 34.3624 28.402C34.3485 28.2179 34.3726 28.0724 34.4348 27.9655C34.5122 27.8587 34.6126 27.775 34.7357 27.7146C34.8588 27.6541 34.9895 27.609 35.1277 27.5793C35.2813 27.5496 35.4195 27.5276 35.5423 27.5131C35.7264 27.499 35.9028 27.4926 36.0714 27.4938C36.2554 27.495 36.4394 27.4963 36.6234 27.4976C36.9147 27.4996 37.1372 27.4858 37.2907 27.4562C37.4596 27.4267 37.5828 27.3585 37.6603 27.2517C37.7379 27.1296 37.7852 26.9612 37.8022 26.7467C37.8192 26.5321 37.8368 26.2332 37.8551 25.85C37.8732 25.4821 37.8913 25.1219 37.9093 24.7694C37.9275 24.4015 37.938 24.0335 37.9408 23.6656C37.9417 23.5429 37.9427 23.4202 37.9436 23.2976C37.9447 23.1596 37.9381 23.0215 37.9238 22.8834C37.911 22.546 37.9064 22.1473 37.9099 21.6873C37.9136 21.212 37.9017 20.7595 37.8743 20.33C37.8321 19.839 37.7809 19.5167 37.7207 19.3629C37.6606 19.2092 37.5308 19.1316 37.3315 19.1302C37.2089 19.1294 37.0554 19.1437 36.8712 19.1731C36.7023 19.2026 36.4874 19.2318 36.2265 19.2606C35.9963 19.2897 35.7815 19.3036 35.5821 19.3022C35.3983 19.2856 35.207 19.2306 35.0084 19.1372C34.7944 19.0438 34.6344 18.9123 34.5284 18.7429C34.4224 18.5735 34.37 18.4045 34.3713 18.2358C34.3726 18.0672 34.4121 17.9141 34.4898 17.7766C34.583 17.6239 34.7142 17.5098 34.8834 17.4343C35.0066 17.3738 35.1372 17.3364 35.2753 17.322C35.4288 17.3078 35.5898 17.3012 35.7585 17.3024C36.1571 17.3051 36.5785 17.3463 37.0226 17.4261C37.4667 17.4905 37.8422 17.5237 38.1488 17.5258C38.4708 17.5281 38.7775 17.5302 39.0688 17.5322C39.3756 17.519 39.6746 17.5134 39.966 17.5154C40.1193 17.5164 40.265 17.5174 40.403 17.5184C40.5409 17.5193 40.6789 17.5279 40.8168 17.5442C40.9855 17.5301 41.1467 17.5158 41.3001 17.5016C41.4536 17.4873 41.6069 17.4807 41.7603 17.4817C42.0669 17.4838 42.3272 17.5316 42.5412 17.6251C42.7552 17.7186 42.8918 17.8959 42.9511 18.157C42.9955 18.3719 42.9865 18.5482 42.9241 18.6858C42.8771 18.8081 42.792 18.9072 42.6688 18.983C42.561 19.0436 42.4226 19.0887 42.2538 19.1182C42.085 19.1323 41.9162 19.1388 41.7476 19.1377C41.6249 19.1368 41.5023 19.136 41.3796 19.1351C41.257 19.119 41.1498 19.1106 41.0578 19.1099C40.8431 19.1084 40.6592 19.0995 40.506 19.0831C40.3528 19.0667 40.2148 19.0581 40.0922 19.0573C39.8622 19.0557 39.7083 19.1236 39.6306 19.2611C39.5682 19.3987 39.5428 19.7128 39.5544 20.2036C39.5665 20.6177 39.578 21.1161 39.5889 21.6989C39.6152 22.2664 39.6191 22.7648 39.6005 23.194ZM51.6406 18.1708C51.4553 18.3382 51.2781 18.4597 51.1088 18.5352C50.955 18.5955 50.7938 18.625 50.6251 18.6239C50.3644 18.6221 50.1118 18.5743 49.8672 18.4806C49.6226 18.3869 49.3469 18.339 49.0403 18.3369C48.8409 18.3356 48.6183 18.3724 48.3724 18.4473C48.1419 18.5071 47.888 18.628 47.6106 18.8101C47.287 19.0225 47.1928 19.2979 47.3283 19.6362C47.4637 19.9744 47.7214 20.3596 48.1014 20.7915C48.4816 21.2081 48.9381 21.6636 49.471 22.158C50.0039 22.6523 50.506 23.1618 50.9773 23.6864C51.4488 24.1957 51.8358 24.7197 52.1383 25.2584C52.441 25.7819 52.5521 26.2963 52.4715 26.8018C52.407 27.2153 52.2356 27.5745 51.9573 27.8793C51.679 28.1687 51.3322 28.4116 50.9166 28.6081C50.5012 28.7892 50.0402 28.9241 49.5335 29.0126C49.0421 29.1012 48.5435 29.1438 48.0375 29.1403C47.3168 29.1353 46.6582 29.0464 46.0615 28.8736C45.4648 28.7009 45.0526 28.4603 44.825 28.1521C44.6884 27.9672 44.613 27.798 44.5988 27.6445C44.5848 27.4758 44.6165 27.338 44.694 27.2312C44.7716 27.109 44.8797 27.0178 45.0181 26.9574C45.1567 26.8817 45.3027 26.8444 45.456 26.8454C45.7166 26.8472 45.9382 26.9484 46.1207 27.149C46.2274 27.2264 46.4568 27.3047 46.8089 27.3838C47.1764 27.4476 47.5825 27.4811 48.0272 27.4842C48.3032 27.4861 48.5716 27.4726 48.8325 27.4437C49.0935 27.3995 49.3318 27.3245 49.5472 27.2186C49.7627 27.1128 49.9401 26.9837 50.0792 26.8313C50.2185 26.6636 50.2968 26.4494 50.3142 26.1889C50.3154 26.0202 50.2252 25.7973 50.0433 25.52C49.8614 25.2427 49.626 24.9421 49.3372 24.6181C49.0483 24.2941 48.7288 23.9622 48.3788 23.6225C48.0287 23.2827 47.6862 22.9584 47.3512 22.6494C47.0163 22.3251 46.7118 22.0393 46.4377 21.7921C46.1791 21.5296 45.989 21.3213 45.8675 21.1671C45.5789 20.8125 45.3744 20.4814 45.2541 20.1739C45.1338 19.8664 45.0746 19.5823 45.0766 19.3216C45.08 18.877 45.2287 18.487 45.5226 18.1517C45.8165 17.8164 46.1867 17.5352 46.6331 17.3083C47.0795 17.0814 47.5715 16.9084 48.1091 16.7895C48.6467 16.6705 49.1608 16.6127 49.6515 16.6161C50.0041 16.6185 50.3259 16.6514 50.6167 16.7148C50.9229 16.7782 51.1675 16.8796 51.3504 17.0188C51.5488 17.1429 51.6779 17.3047 51.7377 17.5045C51.7976 17.6889 51.7653 17.911 51.6406 18.1708ZM56.6886 21.4947C56.6906 21.2341 56.6849 20.981 56.6714 20.7356C56.6734 20.4749 56.6601 20.2142 56.6314 19.9533C56.6028 19.6771 56.5585 19.4621 56.4983 19.3084C56.4536 19.1394 56.3703 19.0085 56.2483 18.9156C56.1417 18.8229 55.9812 18.7528 55.7669 18.7053C55.568 18.6579 55.2999 18.6177 54.9628 18.5848C54.5337 18.5511 54.1739 18.4873 53.8833 18.3933C53.5928 18.284 53.4637 18.1221 53.496 17.9076C53.4988 17.5396 53.6233 17.3028 53.8694 17.1972C54.1157 17.0762 54.4152 17.0169 54.7678 17.0194C55.0591 17.0214 55.358 17.0464 55.6643 17.0946C55.9707 17.1273 56.239 17.1368 56.4691 17.1231C56.868 17.0952 57.3666 17.0603 57.9649 17.0184C58.5634 16.9612 59.1309 16.9344 59.6676 16.9381C60.0816 16.941 60.4417 16.9741 60.7478 17.0376C61.0542 17.0857 61.2527 17.1867 61.3435 17.3407C61.3586 17.3715 61.389 17.4177 61.4345 17.4793C61.4801 17.5256 61.518 17.5872 61.5481 17.6641C61.5936 17.7258 61.6238 17.7873 61.6387 17.8487C61.6535 17.9102 61.6379 17.9484 61.5918 17.9634C61.5901 18.1781 61.4588 18.3075 61.1978 18.3517C60.9521 18.396 60.6606 18.4247 60.3231 18.4377C60.0011 18.4355 59.679 18.4486 59.3568 18.477C59.0346 18.5055 58.7961 18.6035 58.6415 18.7711C58.5179 18.8929 58.4313 19.1913 58.3816 19.6663C58.3473 20.1414 58.328 20.6703 58.3235 21.253C58.3208 21.6056 58.3181 21.9583 58.3154 22.3109C58.328 22.6637 58.3408 22.9935 58.3538 23.3002C58.3668 23.607 58.3723 23.883 58.3705 24.1284C58.3687 24.3584 58.3674 24.527 58.3666 24.6344C58.3486 24.9869 58.3608 25.3857 58.4034 25.8306C58.4461 26.2603 58.4659 26.6898 58.4626 27.1191C58.4603 27.4104 58.4353 27.6786 58.3874 27.9236C58.3549 28.1687 58.2766 28.3752 58.1527 28.543C57.9204 28.8327 57.697 28.9768 57.4823 28.9754C57.3443 28.9744 57.2143 28.9275 57.0924 28.8347C56.9705 28.7265 56.8642 28.6031 56.7732 28.4645C56.6823 28.3258 56.6067 28.1796 56.5466 28.0259C56.5019 27.8569 56.48 27.7034 56.4811 27.5654C56.4856 26.9828 56.5362 26.3698 56.6332 25.7264C56.7302 25.0678 56.7812 24.4241 56.786 23.7954C56.7876 23.5808 56.7739 23.3737 56.7447 23.1741C56.7309 22.9747 56.7094 22.7829 56.6801 22.5987L56.6886 21.4947ZM69.6255 17.3978C69.779 17.3835 69.9093 17.3767 70.0167 17.3775C70.1395 17.363 70.2467 17.3714 70.3385 17.4027C70.4456 17.4341 70.5448 17.4885 70.6362 17.5658C70.7278 17.6277 70.8343 17.7358 70.9558 17.89C71.0925 18.0596 71.1678 18.2288 71.1819 18.3975C71.196 18.551 71.149 18.6886 71.0407 18.8106C70.9479 18.9173 70.7787 18.9928 70.533 19.0371C70.2873 19.0814 69.9654 19.0638 69.5673 18.9844C69.3989 18.9526 69.1461 18.9278 68.8089 18.9102C68.4871 18.8773 68.1423 18.8596 67.7743 18.8571C67.4216 18.8546 67.0688 18.8675 66.7159 18.8958C66.3632 18.9087 66.0408 18.9524 65.7489 19.0271C65.4571 19.0864 65.2111 19.1767 65.0108 19.298C64.826 19.4041 64.7252 19.5491 64.7085 19.7329C64.6594 20.1313 64.6339 20.4608 64.6319 20.7214C64.6292 21.0741 64.7193 21.3277 64.9021 21.4823C65.085 21.6216 65.4755 21.6933 66.0735 21.6974C66.3648 21.6994 66.7559 21.6868 67.2468 21.6595C67.753 21.6323 68.2668 21.6205 68.7881 21.6241C69.3401 21.6279 69.8535 21.6698 70.3282 21.7497C70.803 21.8143 71.124 21.9545 71.291 22.1704C71.4884 22.4171 71.5866 22.6171 71.5854 22.7704C71.5834 23.0311 71.3445 23.1904 70.8687 23.2485C70.3929 23.3065 69.8177 23.3332 69.1431 23.3286C68.6524 23.3252 68.154 23.3294 67.6479 23.3413C67.1419 23.3378 66.674 23.3729 66.2441 23.4466C65.8143 23.505 65.4531 23.6175 65.1605 23.7842C64.8832 23.9509 64.728 24.1952 64.6948 24.517C64.6781 24.7009 64.6612 24.9001 64.6443 25.1146C64.6273 25.3292 64.618 25.5438 64.6163 25.7585C64.6143 26.0191 64.6277 26.2722 64.6565 26.5177C64.7006 26.7634 64.768 26.9785 64.8586 27.1632C64.9646 27.3326 65.1017 27.4562 65.2697 27.534C65.4532 27.6119 65.6831 27.6135 65.9597 27.5388C66.4821 27.4044 67.0425 27.3162 67.6408 27.2743C68.2546 27.2172 68.8681 27.1908 69.4815 27.195L70.1714 27.1998C70.616 27.2182 70.9832 27.328 71.273 27.5294C71.5628 27.7307 71.7068 27.9387 71.7052 28.1534C71.704 28.3067 71.6033 28.444 71.403 28.5653C71.2182 28.6714 70.8958 28.7228 70.4358 28.7196C69.7612 28.715 69.0555 28.7485 68.319 28.82C67.5825 28.8763 66.8918 28.9635 66.2469 29.0818C65.8477 29.1557 65.4405 29.2679 65.0253 29.4184C64.6255 29.5689 64.2646 29.6431 63.9426 29.6409C63.6512 29.6389 63.4067 29.5375 63.2089 29.3368C63.0111 29.1361 62.8914 28.7443 62.8499 28.1613C62.8361 27.9619 62.8222 27.7701 62.8083 27.586C62.8097 27.402 62.8111 27.2104 62.8127 27.0111C62.8182 26.2904 62.8468 25.5623 62.8984 24.8266C62.9654 24.091 63.0017 23.3553 63.0073 22.6193C63.0098 22.2973 63.0045 21.9829 62.9915 21.6762C62.9787 21.3541 62.9504 21.0395 62.9068 20.7326C62.877 20.6097 62.8399 20.4484 62.7955 20.2488C62.7511 20.0338 62.7069 19.8035 62.6628 19.5578C62.6186 19.3122 62.5822 19.0666 62.5534 18.8211C62.5246 18.5755 62.511 18.3454 62.5127 18.1308C62.5153 17.7935 62.5708 17.5485 62.6793 17.3959C62.8034 17.2128 63.0037 17.0915 63.2801 17.032C63.5567 16.9573 63.879 16.9212 64.247 16.9237C64.661 16.9266 65.1131 16.9603 65.6032 17.0251C66.0934 17.0898 66.5836 17.1545 67.0738 17.2192C67.5486 17.2838 68.0006 17.3406 68.4295 17.3895C68.874 17.4233 69.2726 17.426 69.6255 17.3978ZM73.9566 24.5348L73.9679 23.0628C73.9713 22.6182 73.9669 22.1888 73.9547 21.7747C73.958 21.3454 73.9376 21.0079 73.8935 20.7623C73.8208 20.2404 73.7326 19.7415 73.6289 19.2654C73.5253 18.7894 73.4748 18.3673 73.4776 17.9993C73.48 17.6927 73.5356 17.4401 73.6444 17.2415C73.7686 17.043 73.9844 16.9065 74.2916 16.8319C74.6449 16.7577 75.0439 16.7068 75.4888 16.6792C75.9492 16.6363 76.4016 16.6165 76.8463 16.6195C77.061 16.621 77.2602 16.63 77.4441 16.6467C77.6281 16.6479 77.812 16.6569 77.9959 16.6735C78.6088 16.739 79.1519 16.8961 79.6254 17.1447C80.0988 17.3933 80.4951 17.7027 80.8143 18.0729C81.1335 18.4431 81.3756 18.8588 81.5408 19.3199C81.7059 19.7811 81.7866 20.257 81.7828 20.7476C81.7783 21.3456 81.6433 21.9427 81.3781 22.5389C81.1283 23.1199 80.7333 23.6385 80.1931 24.0948C79.8998 24.3534 79.6377 24.5433 79.4068 24.6644C79.1913 24.7702 79.0829 24.9075 79.0816 25.0761C79.0807 25.1988 79.1485 25.3526 79.2851 25.5375C79.4217 25.7225 79.6421 25.9694 79.9464 26.2781C80.1594 26.4943 80.3346 26.6488 80.4719 26.7418C80.6246 26.8195 80.823 26.9435 81.0671 27.1139C81.4025 27.3615 81.7152 27.5707 82.0053 27.7413C82.3106 27.9121 82.4625 28.1048 82.4609 28.3195C82.4599 28.4422 82.3821 28.595 82.2273 28.7779C82.0879 28.9609 81.8185 29.1048 81.419 29.2093C81.2653 29.2543 81.074 29.207 80.8451 29.0674C80.6161 28.9278 80.3721 28.7574 80.113 28.5563C79.8692 28.3553 79.6254 28.1466 79.3817 27.9303C79.1534 27.714 78.963 27.544 78.8106 27.4203C78.6886 27.3428 78.5131 27.2266 78.2843 27.0717C78.0709 26.9015 77.8269 26.7312 77.5522 26.5606C76.911 26.1882 76.4524 26.001 76.1764 25.9991C75.8545 25.9969 75.6918 26.2181 75.6883 26.6628C75.6868 26.8621 75.7229 27.1537 75.7967 27.5376C75.8704 27.9214 75.9062 28.2513 75.9041 28.5273C75.9014 28.88 75.8073 29.1553 75.6217 29.3534C75.4363 29.5361 75.0988 29.5645 74.6091 29.4384C74.349 29.36 74.1825 29.0751 74.1096 28.5839C74.0521 28.0775 74.0258 27.5177 74.0305 26.9044L74.0366 26.0994C74.039 25.7927 74.0335 25.5014 74.0203 25.2253C74.0224 24.9493 74.0012 24.7191 73.9566 24.5348ZM75.5405 21.9467C75.5683 22.3149 75.6274 22.6066 75.7178 22.8219C75.8082 23.0219 75.9221 23.176 76.0592 23.2843C76.1964 23.3925 76.3492 23.4626 76.5176 23.4944C76.7015 23.511 76.9008 23.5124 77.1156 23.4985C77.4839 23.4704 77.7831 23.4341 78.0135 23.3897C78.2593 23.3301 78.4592 23.2548 78.6132 23.1639C78.7826 23.073 78.9214 22.9666 79.0297 22.8447C79.1534 22.7076 79.2926 22.5552 79.4472 22.3876C79.7102 22.0827 79.8964 21.7927 80.0059 21.5174C80.1153 21.2422 80.171 20.9742 80.173 20.7136C80.1756 20.3762 80.0936 20.069 79.9271 19.7918C79.776 19.4995 79.5709 19.2527 79.3118 19.0516C79.0681 18.8352 78.7856 18.6723 78.4645 18.5627C78.1434 18.4378 77.8219 18.3743 77.4999 18.3721C77.2239 18.3702 76.9552 18.4143 76.6939 18.5045C76.4479 18.5795 76.2169 18.7159 76.0007 18.9138C75.8154 19.0811 75.6832 19.3256 75.6041 19.647C75.5403 19.9686 75.5067 20.3441 75.5035 20.7734C75.502 20.9574 75.5006 21.149 75.499 21.3484C75.513 21.5325 75.5268 21.7319 75.5405 21.9467ZM27.8955 41.5287C27.8792 41.6666 27.8777 41.8506 27.8913 42.0807C27.9049 42.3108 27.9107 42.5562 27.9087 42.8169C27.9067 43.0775 27.8893 43.3381 27.8567 43.5985C27.8394 43.8591 27.7992 44.0965 27.7362 44.3107C27.6886 44.5251 27.6106 44.7009 27.5022 44.8381C27.3939 44.96 27.2478 45.0204 27.0638 45.0191C26.7878 45.0172 26.4594 44.8539 26.0785 44.5293C25.9719 44.4366 25.9114 44.3288 25.897 44.206C25.8826 44.0833 25.8912 43.9606 25.9228 43.8382C25.9544 43.7157 25.9937 43.5933 26.0406 43.471C26.0877 43.3333 26.1193 43.2109 26.1354 43.1036C26.1683 42.8125 26.1936 42.5137 26.2113 42.2071C26.2444 41.8854 26.2623 41.5558 26.2649 41.2185C26.2709 40.4365 26.1923 39.677 26.0293 38.9398C25.8816 38.2028 25.5795 37.6027 25.1231 37.1395C24.9556 36.985 24.6967 36.7456 24.3466 36.4212C23.9964 36.0967 23.631 35.7569 23.2503 35.4016C22.8852 35.0311 22.5505 34.6761 22.2465 34.3366C21.9424 33.9972 21.7604 33.7353 21.7005 33.5509C21.6107 33.2589 21.689 33.0448 21.9354 32.9085C22.1972 32.7569 22.4738 32.6822 22.7651 32.6842C22.9338 32.6853 23.0869 32.7171 23.2244 32.7793C23.3621 32.8263 23.4457 32.9112 23.4755 33.0341C23.6126 33.1424 23.8027 33.3583 24.0455 33.682C24.2884 34.0057 24.5695 34.3373 24.8889 34.6769C25.2085 35.0011 25.5513 35.2871 25.9174 35.535C26.2988 35.7829 26.6967 35.8853 27.1111 35.8422C27.3105 35.8282 27.5418 35.6612 27.8049 35.341C28.0681 35.0208 28.3391 34.67 28.618 34.2885C28.8971 33.8918 29.1683 33.518 29.4316 33.1671C29.7103 32.8164 29.965 32.5958 30.1957 32.5054C30.365 32.4299 30.541 32.4694 30.7238 32.624C30.9221 32.7634 31.1046 32.964 31.2712 33.2258C31.3773 33.3952 31.3834 33.5946 31.2897 33.824C31.196 34.038 31.0409 34.2669 30.8244 34.5108C30.6232 34.7547 30.3758 35.0137 30.0824 35.2877C29.8043 35.5618 29.5339 35.8359 29.2711 36.1101C28.9618 36.4453 28.7136 36.8269 28.5263 37.255C28.3545 37.6678 28.2207 38.1116 28.1251 38.5863C28.0294 39.0609 27.9644 39.5512 27.9298 40.0569C27.9106 40.5628 27.8992 41.0534 27.8955 41.5287ZM39.3162 33.1893C39.4696 33.175 39.6 33.1682 39.7073 33.169C39.8301 33.1545 39.9374 33.1629 40.0292 33.1942C40.1363 33.2256 40.2355 33.2799 40.3269 33.3572C40.4184 33.4192 40.525 33.5273 40.6464 33.6814C40.7831 33.851 40.8585 34.0202 40.8726 34.189C40.8867 34.3424 40.8397 34.4801 40.7314 34.602C40.6386 34.7087 40.4693 34.7842 40.2236 34.8285C39.978 34.8729 39.6561 34.8553 39.258 34.7759C39.0896 34.7441 38.8368 34.7193 38.4996 34.7017C38.1778 34.6688 37.8329 34.6511 37.4649 34.6485C37.1123 34.6461 36.7595 34.659 36.4066 34.6872C36.0538 34.7001 35.7315 34.7439 35.4396 34.8186C35.1478 34.8779 34.9018 34.9682 34.7015 35.0895C34.5167 35.1956 34.4159 35.3405 34.3991 35.5244C34.3501 35.9228 34.3246 36.2523 34.3226 36.5129C34.3199 36.8656 34.4099 37.1192 34.5928 37.2738C34.7757 37.4131 35.1662 37.4848 35.7641 37.4889C36.0555 37.4909 36.4466 37.4782 36.9375 37.451C37.4437 37.4238 37.9575 37.412 38.4788 37.4156C39.0308 37.4194 39.5441 37.4613 40.0189 37.5412C40.4937 37.6058 40.8147 37.746 40.9817 37.9618C41.1791 38.2085 41.2773 38.4086 41.2761 38.5619C41.2741 38.8225 41.0352 38.9819 40.5594 39.04C40.0836 39.098 39.5084 39.1247 38.8337 39.1201C38.3431 39.1167 37.8447 39.1209 37.3386 39.1328C36.8326 39.1293 36.3647 39.1644 35.9347 39.2381C35.505 39.2965 35.1437 39.409 34.8511 39.5756C34.5738 39.7424 34.4186 39.9867 34.3855 40.3084C34.3688 40.4923 34.3519 40.6916 34.3349 40.9061C34.3179 41.1207 34.3086 41.3353 34.307 41.5499C34.305 41.8106 34.3184 42.0637 34.3472 42.3092C34.3913 42.5549 34.4587 42.77 34.5492 42.9546C34.6553 43.124 34.7923 43.2476 34.9604 43.3255C35.1438 43.4034 35.3738 43.405 35.6504 43.3302C36.1728 43.1958 36.7331 43.1077 37.3315 43.0658C37.9453 43.0087 38.5588 42.9823 39.1721 42.9865L39.8621 42.9912C40.3067 43.0096 40.6738 43.1195 40.9636 43.3208C41.2534 43.5222 41.3975 43.7302 41.3959 43.9448C41.3947 44.0982 41.294 44.2355 41.0937 44.3568C40.9089 44.4628 40.5865 44.5143 40.1265 44.5111C39.4518 44.5065 38.7462 44.5399 38.0097 44.6115C37.2732 44.6678 36.5825 44.755 35.9376 44.8732C35.5383 44.9472 35.1311 45.0594 34.716 45.2098C34.3161 45.3604 33.9552 45.4346 33.6332 45.4324C33.3419 45.4304 33.0973 45.329 32.8995 45.1283C32.7017 44.9276 32.5821 44.5358 32.5405 43.9528C32.5267 43.7534 32.5129 43.5616 32.4989 43.3775C32.5004 43.1935 32.5018 43.0019 32.5033 42.8025C32.5089 42.0819 32.5374 41.3537 32.5891 40.6181C32.6561 39.8825 32.6924 39.1467 32.698 38.4108C32.7005 38.0888 32.6952 37.7744 32.6822 37.4676C32.6693 37.1455 32.6411 36.831 32.5974 36.524C32.5677 36.4012 32.5306 36.2399 32.4861 36.0402C32.4418 35.8253 32.3975 35.595 32.3534 35.3493C32.3093 35.1037 32.2729 34.8581 32.2441 34.6125C32.2153 34.367 32.2017 34.1369 32.2034 33.9223C32.2059 33.5849 32.2615 33.34 32.37 33.1874C32.4941 33.0042 32.6943 32.8829 32.9708 32.8235C33.2474 32.7488 33.5697 32.7126 33.9376 32.7152C34.3516 32.718 34.8037 32.7518 35.2939 32.8165C35.7841 32.8812 36.2743 32.946 36.7645 33.0107C37.2393 33.0753 37.6912 33.1321 38.1202 33.181C38.5646 33.2147 38.9633 33.2175 39.3162 33.1893ZM45.7626 37.4198C45.7646 37.1591 45.7589 36.9061 45.7454 36.6606C45.7474 36.4 45.7341 36.1392 45.7054 35.8784C45.6768 35.6022 45.6325 35.3872 45.5723 35.2334C45.5276 35.0644 45.4443 34.9335 45.3223 34.8407C45.2157 34.748 45.0552 34.6778 44.8409 34.6304C44.642 34.583 44.3739 34.5428 44.0368 34.5098C43.6077 34.4762 43.2479 34.4124 42.9573 34.3184C42.6668 34.209 42.5377 34.0471 42.57 33.8327C42.5728 33.4647 42.6973 33.2279 42.9434 33.1223C43.1897 33.0013 43.4892 32.942 43.8418 32.9444C44.1331 32.9464 44.432 32.9715 44.7383 33.0196C45.0447 33.0524 45.313 33.0619 45.5431 33.0482C45.942 33.0203 46.4406 32.9854 47.0389 32.9435C47.6374 32.8863 48.2049 32.8595 48.7416 32.8632C49.1556 32.8661 49.5157 32.8992 49.8218 32.9627C50.1282 33.0108 50.3267 33.1118 50.4175 33.2658C50.4326 33.2965 50.463 33.3428 50.5085 33.4044C50.5541 33.4507 50.592 33.5123 50.6221 33.5892C50.6676 33.6508 50.6978 33.7124 50.7127 33.7738C50.7275 33.8353 50.7119 33.8735 50.6658 33.8885C50.6641 34.1032 50.5328 34.2326 50.2718 34.2768C50.0261 34.3211 49.7346 34.3498 49.3971 34.3628C49.0751 34.3605 48.753 34.3737 48.4308 34.4021C48.1086 34.4305 47.8701 34.5286 47.7155 34.6962C47.5919 34.818 47.5053 35.1164 47.4556 35.5914C47.4213 36.0665 47.402 36.5954 47.3975 37.178C47.3948 37.5307 47.3921 37.8834 47.3894 38.236C47.402 38.5888 47.4148 38.9185 47.4278 39.2253C47.4408 39.5321 47.4463 39.8081 47.4445 40.0534C47.4427 40.2834 47.4414 40.4521 47.4406 40.5594C47.4226 40.912 47.4348 41.3107 47.4774 41.7557C47.5201 42.1853 47.5399 42.6148 47.5366 43.0441C47.5343 43.3355 47.5093 43.6036 47.4614 43.8486C47.4289 44.0938 47.3506 44.3002 47.2267 44.468C46.9944 44.7578 46.771 44.9019 46.5563 44.9004C46.4183 44.8995 46.2883 44.8526 46.1664 44.7597C46.0445 44.6516 45.9382 44.5282 45.8472 44.3895C45.7563 44.2509 45.6807 44.1047 45.6206 43.951C45.5759 43.782 45.554 43.6285 45.5551 43.4905C45.5596 42.9078 45.6102 42.2948 45.7072 41.6515C45.8042 40.9928 45.8552 40.3492 45.86 39.7205C45.8616 39.5058 45.8479 39.2988 45.8187 39.0992C45.8049 38.8998 45.7834 38.708 45.7541 38.5238L45.7626 37.4198ZM54.982 32.1932C55.5187 32.1969 56.0699 32.308 56.6355 32.5266C57.2012 32.7452 57.7126 33.04 58.1698 33.4112C58.627 33.7824 58.9994 34.2066 59.2871 34.6839C59.5902 35.146 59.7399 35.6301 59.736 36.1361C59.7312 36.7647 59.4738 37.3379 58.9638 37.8558C58.8402 37.9776 58.6553 38.099 58.409 38.22C58.1782 38.3257 57.9243 38.439 57.6474 38.5597C57.3705 38.6652 57.0861 38.7705 56.7939 38.8758C56.5018 38.9812 56.2326 39.0867 55.9865 39.1923C55.7557 39.298 55.5555 39.404 55.386 39.5102C55.2319 39.6164 55.1467 39.7308 55.1304 39.8534C55.1138 40.022 55.1047 40.1982 55.1033 40.3822C55.1174 40.551 55.1009 40.7042 55.0538 40.8419C55.0221 40.9797 54.9599 41.0943 54.8672 41.1856C54.7745 41.277 54.6131 41.3219 54.3831 41.3203C54.0765 41.3182 53.7932 41.2702 53.5332 41.1764C53.2734 41.0673 53.1449 40.8287 53.1477 40.4608C53.1484 40.3688 53.1491 40.2691 53.15 40.1618C53.1661 40.0545 53.1747 39.9319 53.1758 39.7939C53.1772 39.6099 53.1634 39.4105 53.1344 39.1956C53.1207 38.9809 53.0764 38.7582 53.0015 38.5277C52.9565 38.3894 52.9654 38.2284 53.0282 38.0449C53.1062 37.8614 53.2071 37.7011 53.3309 37.5639C53.4699 37.4269 53.6317 37.3284 53.8161 37.2683C54.0161 37.193 54.2231 37.1944 54.4371 37.2726C54.6207 37.3352 54.889 37.337 55.2421 37.2781C55.6106 37.2193 55.9794 37.1145 56.3485 36.9637C56.7178 36.7976 57.0336 36.6081 57.2959 36.3953C57.5737 36.1672 57.7136 35.9228 57.7156 35.6621C57.7172 35.4475 57.6038 35.232 57.3755 35.0158C57.1625 34.7996 56.7885 34.5824 56.2535 34.364C56.07 34.2861 55.8941 34.2389 55.7255 34.2224C55.5724 34.1907 55.4116 34.1742 55.2429 34.173C54.9976 34.1714 54.752 34.2003 54.5062 34.26C54.2605 34.3043 53.9841 34.3637 53.6768 34.4383C53.5078 34.4831 53.3158 34.5201 53.1009 34.5493C52.9014 34.5786 52.7019 34.5925 52.5026 34.5912C52.15 34.5887 51.8592 34.5101 51.6304 34.3552C51.417 34.185 51.3964 33.8705 51.5686 33.4117C51.6468 33.2129 51.8245 33.0378 52.1017 32.8864C52.3943 32.7197 52.7173 32.5916 53.0706 32.502C53.4394 32.3972 53.7927 32.323 54.1304 32.2793C54.4835 32.2204 54.7674 32.1917 54.982 32.1932ZM53.0475 44.5312C53.0461 44.7152 53.1522 44.8769 53.3658 45.0164C53.5948 45.1406 53.7936 45.2187 53.962 45.2505C54.2989 45.3141 54.6056 45.3086 54.8822 45.2338C55.1741 45.1592 55.3216 44.9148 55.3248 44.5009C55.326 44.3475 55.3041 44.194 55.2593 44.0404C55.2298 43.8869 55.1695 43.7561 55.0783 43.6481C54.668 43.17 54.2788 42.9296 53.9108 42.9271C53.6501 42.9253 53.4421 43.0618 53.2866 43.3368C53.1313 43.5964 53.0516 43.9945 53.0475 44.5312Z" fill="black"/>
</svg>
