<svg width="133" height="66" viewBox="0 0 133 66" fill="none" xmlns="http://www.w3.org/2000/svg">
<g filter="url(#filter0_d_598_494)">
<path d="M129 30.2826C129 45.5905 101.018 58 66.5 58C31.9822 58 4 45.5905 4 30.2826C4 14.9747 31.9822 9.63489e-09 66.5 1.62831e-08C101.018 2.29296e-08 129 14.9747 129 30.2826Z" fill="white"/>
<path d="M66.5 1.5C83.5591 1.5 98.9492 5.20309 110.023 10.7422C115.562 13.5125 119.967 16.7148 122.968 20.0898C125.969 23.4651 127.5 26.9312 127.5 30.2822C127.5 33.62 125.981 36.9137 123.003 40.0361C120.018 43.1662 115.627 46.0535 110.086 48.5107C99.0083 53.4234 83.5996 56.5 66.5 56.5C49.4004 56.5 33.9917 53.4234 22.9141 48.5107C17.3733 46.0535 12.9823 43.1662 9.99707 40.0361C7.01912 36.9137 5.5 33.62 5.5 30.2822C5.50012 26.9312 7.03088 23.4651 10.0322 20.0898C13.0335 16.7148 17.438 13.5125 22.9766 10.7422C34.0508 5.20309 49.4409 1.5 66.5 1.5Z" stroke="black" stroke-width="3"/>
</g>
<defs>
<filter id="filter0_d_598_494" x="0" y="0" width="133" height="66" filterUnits="userSpaceOnUse" color-interpolation-filters="sRGB">
<feFlood flood-opacity="0" result="BackgroundImageFix"/>
<feColorMatrix in="SourceAlpha" type="matrix" values="0 0 0 0 0 0 0 0 0 0 0 0 0 0 0 0 0 0 127 0" result="hardAlpha"/>
<feOffset dy="4"/>
<feGaussianBlur stdDeviation="2"/>
<feComposite in2="hardAlpha" operator="out"/>
<feColorMatrix type="matrix" values="0 0 0 0 0 0 0 0 0 0 0 0 0 0 0 0 0 0 0.25 0"/>
<feBlend mode="normal" in2="BackgroundImageFix" result="effect1_dropShadow_598_494"/>
<feBlend mode="normal" in="SourceGraphic" in2="effect1_dropShadow_598_494" result="shape"/>
</filter>
</defs>
</svg>
