<svg width="174" height="73" viewBox="0 0 174 73" fill="none" xmlns="http://www.w3.org/2000/svg">
<g filter="url(#filter0_d_598_492)">
<path d="M170 32.5C170 50.4493 132.84 65 87 65C41.1604 65 4 50.4493 4 32.5C4 14.5507 41.1604 0 87 0C132.84 0 170 14.5507 170 32.5Z" fill="white"/>
<path d="M87 1.5C109.781 1.5 130.337 5.11865 145.143 10.916C152.55 13.8165 158.443 17.233 162.458 20.9502C166.472 24.6659 168.5 28.5703 168.5 32.5C168.5 36.4297 166.472 40.3341 162.458 44.0498C158.443 47.767 152.55 51.1835 145.143 54.084C130.337 59.8813 109.781 63.5 87 63.5C64.219 63.5 43.6631 59.8813 28.8574 54.084C21.4501 51.1835 15.5574 47.767 11.542 44.0498C7.52837 40.3341 5.5 36.4297 5.5 32.5C5.5 28.5703 7.52837 24.6659 11.542 20.9502C15.5574 17.233 21.4501 13.8165 28.8574 10.916C43.6631 5.11865 64.219 1.5 87 1.5Z" stroke="black" stroke-width="3"/>
</g>
<defs>
<filter id="filter0_d_598_492" x="0" y="0" width="174" height="73" filterUnits="userSpaceOnUse" color-interpolation-filters="sRGB">
<feFlood flood-opacity="0" result="BackgroundImageFix"/>
<feColorMatrix in="SourceAlpha" type="matrix" values="0 0 0 0 0 0 0 0 0 0 0 0 0 0 0 0 0 0 127 0" result="hardAlpha"/>
<feOffset dy="4"/>
<feGaussianBlur stdDeviation="2"/>
<feComposite in2="hardAlpha" operator="out"/>
<feColorMatrix type="matrix" values="0 0 0 0 0 0 0 0 0 0 0 0 0 0 0 0 0 0 0.25 0"/>
<feBlend mode="normal" in2="BackgroundImageFix" result="effect1_dropShadow_598_492"/>
<feBlend mode="normal" in="SourceGraphic" in2="effect1_dropShadow_598_492" result="shape"/>
</filter>
</defs>
</svg>
