<svg width="77" height="26" viewBox="0 0 77 26" fill="none" xmlns="http://www.w3.org/2000/svg">
<path d="M7.27992 9.36058C7.54689 9.3286 7.79365 9.28937 8.0202 9.24289C8.24674 9.19641 8.4649 9.16061 8.67466 9.13548C8.97977 9.09894 9.26198 9.11349 9.5213 9.17914C9.78062 9.24479 10.0155 9.42943 10.226 9.73305C10.3632 9.91004 10.4398 10.0653 10.4558 10.1988C10.4909 10.33 10.4031 10.4855 10.1926 10.6655C9.98202 10.8455 9.72648 10.9728 9.42594 11.0475C9.14218 11.1008 8.83822 11.1469 8.51404 11.1857C8.30428 11.2108 8.08498 11.2371 7.85615 11.2645C7.64639 11.2896 7.44731 11.3232 7.2589 11.3651C6.57926 11.5045 5.98201 11.6051 5.46714 11.6667C4.95227 11.7284 4.53846 11.8263 4.2257 11.9605C3.91066 12.0756 3.68103 12.2579 3.53682 12.5073C3.40939 12.7353 3.37423 13.0877 3.43134 13.5644C3.48159 13.9839 3.60275 14.511 3.79483 15.1457C3.89087 15.463 4.16618 15.6621 4.62076 15.7431C5.07305 15.8049 5.56617 15.8039 6.10011 15.74C6.48149 15.6943 6.84152 15.6318 7.1802 15.5526C7.51659 15.4542 7.78739 15.3734 7.99258 15.3102C8.21456 15.2256 8.44225 15.1886 8.67565 15.1993C8.92811 15.2078 9.15655 15.2578 9.36094 15.3494C9.58213 15.4196 9.7602 15.5337 9.89518 15.6916C10.0492 15.8472 10.1399 16.0394 10.1674 16.2683C10.1993 16.5352 10.1276 16.8243 9.95207 17.1355C9.87043 17.2613 9.72816 17.3654 9.52525 17.4477C9.33912 17.5087 9.11258 17.5552 8.84561 17.5872C8.40702 17.6397 7.91732 17.6693 7.37653 17.6761C6.83574 17.6828 6.31745 17.7159 5.82165 17.7753C5.28771 17.8392 4.82851 17.962 4.44405 18.1434C4.07865 18.3226 3.88294 18.6265 3.85692 19.0551C3.8439 19.2695 3.86292 19.509 3.91397 19.7737C3.98408 20.0361 4.05763 20.3271 4.1346 20.6467C4.20928 20.9472 4.28511 21.2573 4.36208 21.5769C4.45812 21.8942 4.52555 22.215 4.56438 22.5391C4.58951 22.7489 4.60396 22.9503 4.60773 23.1433C4.60922 23.3172 4.59278 23.5029 4.55841 23.7004C4.49504 23.9788 4.39393 24.1844 4.25509 24.3171C4.11624 24.4497 3.94193 24.5286 3.73217 24.5538C3.52241 24.5789 3.30694 24.5564 3.08576 24.4861C2.88364 24.4136 2.69717 24.3102 2.52635 24.176C2.3723 24.0203 2.24572 23.8517 2.14661 23.6702C2.04749 23.4886 2.01397 23.2895 2.04605 23.0729C2.13693 22.5398 2.15919 21.9181 2.11281 21.208C2.0855 20.4956 2.02731 19.7675 1.93823 19.0238C1.85143 18.2992 1.74899 17.6055 1.63091 16.9426C1.52961 16.2584 1.43859 15.66 1.35784 15.1474C1.23976 14.4846 1.04654 13.8404 0.778189 13.2149C0.52662 12.568 0.411963 11.9338 0.434216 11.3121C0.453389 10.8263 0.741019 10.4823 1.29711 10.2803C1.85319 10.0783 2.50309 9.93276 3.24679 9.84367C3.76165 9.782 4.27881 9.7394 4.79824 9.71587C5.33447 9.67098 5.82187 9.62227 6.26047 9.56973C6.67999 9.51948 7.01981 9.44976 7.27992 9.36058ZM15.5322 15.4806C15.5764 15.6881 15.6099 15.8871 15.6328 16.0778C15.6533 16.2495 15.6739 16.4211 15.6944 16.5927C15.7744 17.2601 15.8227 17.825 15.8394 18.2872C15.8538 18.7303 15.8796 19.0271 15.917 19.1773C15.9543 19.3276 15.981 19.4695 15.997 19.603C16.013 19.7364 16.0301 19.8795 16.0484 20.032C16.0781 20.2799 16.0971 20.5194 16.1054 20.7505C16.1306 20.9603 16.1664 21.1785 16.2128 21.405C16.3264 22.0297 16.3324 22.4836 16.2308 22.7665C16.1271 23.0304 15.9703 23.1749 15.7605 23.2C15.608 23.2183 15.4284 23.1721 15.2217 23.0615C15.0341 22.9485 14.8514 22.7963 14.6737 22.6049C14.5151 22.4111 14.3722 22.1864 14.2448 21.9309C14.1175 21.6753 14.0379 21.4141 14.0059 21.1471C13.9359 20.4011 13.8754 19.654 13.8244 18.9057C13.7735 18.1575 13.7023 17.4019 13.611 16.6392C13.5859 16.4294 13.5607 16.2196 13.5356 16.0099C13.5082 15.7811 13.4724 15.5629 13.4282 15.3554C13.3726 15.0526 13.3196 14.6914 13.2694 14.2719C13.2191 13.8524 13.1582 13.4245 13.0866 12.9882C13.015 12.5518 12.9361 12.1358 12.85 11.7399C12.7639 11.344 12.6656 11.0076 12.5551 10.7307C12.2677 10.1075 12.2167 9.60098 12.4021 9.21126C12.6043 8.80018 12.8866 8.57294 13.2489 8.52954C13.5159 8.49756 13.7881 8.59068 14.0657 8.80888C14.3433 9.02709 14.5641 9.41652 14.7279 9.97718C14.7653 10.1274 14.8038 10.2872 14.8434 10.4566C14.8998 10.6046 14.9322 10.7941 14.9405 11.0252C14.9557 11.3136 14.9861 11.6484 15.0318 12.0298C15.0966 12.4089 15.1625 12.7975 15.2295 13.1957C15.2965 13.5939 15.354 13.9932 15.402 14.3936C15.469 14.7918 15.5124 15.1541 15.5322 15.4806ZM25.8288 13.1737C25.9661 13.3507 26.1461 13.5612 26.3687 13.8054C26.5891 14.0304 26.8023 14.2757 27.0081 14.5412C27.4581 15.0676 27.8191 15.4982 28.0914 15.8331C28.3636 16.168 28.5664 16.3275 28.6999 16.3115C28.8334 16.2955 28.8625 15.9729 28.7871 15.3436C28.7688 15.191 28.7494 15.0289 28.7288 14.8573C28.7083 14.6857 28.6759 14.4962 28.6317 14.2887C28.5456 13.8928 28.4824 13.4458 28.4421 12.9477C28.4185 12.4283 28.3771 11.9207 28.3177 11.4249C28.2583 10.9291 28.1726 10.4558 28.0606 10.005C27.9676 9.55186 27.8254 9.17237 27.6341 8.86646C27.4686 8.61548 27.3413 8.35993 27.2521 8.09982C27.1606 7.82063 27.0989 7.54755 27.0669 7.28058C27.0144 6.84199 27.0461 6.46101 27.1621 6.13763C27.2949 5.79289 27.5234 5.60111 27.8476 5.56228C28.2099 5.51888 28.6686 5.71539 29.2238 6.1518C29.3306 6.23572 29.4457 6.55076 29.5691 7.09692C29.7094 7.62172 29.8477 8.29182 29.984 9.10723C30.1395 9.92036 30.2979 10.8395 30.4594 11.8647C30.6209 12.8898 30.7846 13.9341 30.9507 14.9974C31.1167 16.0607 31.2698 17.0965 31.41 18.1049C31.5692 19.111 31.7242 20.0016 31.8751 20.7766C31.9192 20.984 31.8422 21.148 31.6438 21.2685C31.4646 21.3867 31.2414 21.4617 30.9745 21.4937C30.6312 21.5348 30.2621 21.521 29.867 21.4523C29.491 21.3813 29.2366 21.2763 29.1039 21.1375C28.734 20.7949 28.36 20.3368 27.9818 19.7632C27.6013 19.1704 27.2182 18.636 26.8323 18.16C26.172 17.33 25.5139 16.519 24.8581 15.7272C24.2191 14.9139 23.566 14.0637 22.8987 13.1765C22.4161 12.538 21.9898 12.0474 21.6199 11.7049C21.2691 11.36 20.9889 11.2002 20.7791 11.2253C20.4549 11.2641 20.3488 11.7508 20.4607 12.6852C20.4813 12.8568 20.503 13.0379 20.5258 13.2286C20.5487 13.4193 20.5929 13.6268 20.6584 13.8511C20.724 14.0753 20.7727 14.3209 20.8047 14.5879C20.8367 14.8549 20.8698 15.1314 20.9041 15.4174L21.1165 17.1908C21.1827 17.7439 21.2562 18.2767 21.337 18.7892C21.4368 19.2995 21.5595 19.7587 21.7051 20.1668C21.8507 20.5749 21.9395 20.9125 21.9714 21.1794C22.0377 21.7325 21.9735 22.1657 21.7789 22.4791C21.5844 22.7926 21.3441 22.9664 21.058 23.0007C20.7529 23.0372 20.4463 22.8999 20.1382 22.5886C19.8492 22.2751 19.6613 21.756 19.5745 21.0313L19.1771 17.7133C19.0492 16.6454 18.9033 15.5894 18.7396 14.5451C18.5949 13.4986 18.42 12.5234 18.215 11.6195C18.1754 11.4502 18.1026 11.2461 17.9966 11.0073C17.9097 10.7663 17.8122 10.5169 17.7039 10.259C17.6147 9.9989 17.5255 9.73879 17.4364 9.47867C17.3449 9.19948 17.2843 8.93594 17.2546 8.68804C17.2112 8.32573 17.2509 8.01148 17.3738 7.74531C17.4967 7.47914 17.7633 7.28278 18.1737 7.15626C18.491 7.06022 18.7679 6.94968 19.0044 6.82464C19.2408 6.6996 19.5231 6.71415 19.851 6.8683C20.4238 7.12852 20.9935 7.52451 21.5601 8.05626C22.1267 8.58802 22.6693 9.16134 23.1878 9.77623C23.7254 10.3888 24.2153 11.0071 24.6576 11.6312C25.1166 12.2338 25.5071 12.748 25.8288 13.1737ZM39.6716 5.33555C39.8882 5.36764 40.1124 5.54388 40.3442 5.86428C40.5928 6.16333 40.8421 6.54934 41.0922 7.0223C41.34 7.47618 41.584 7.97889 41.8241 8.53041C42.0811 9.06057 42.3094 9.59417 42.5091 10.1312C42.7256 10.6468 42.9078 11.1183 43.0557 11.5454C43.2227 11.9703 43.3473 12.2842 43.4296 12.4871C43.7895 13.3918 44.171 14.2359 44.5744 15.0193C44.9777 15.8028 45.3231 16.5061 45.6105 17.1293C45.9147 17.7312 46.1205 18.2385 46.228 18.6511C46.3545 19.0615 46.3114 19.3471 46.0985 19.508C45.7445 19.7826 45.4341 19.9358 45.1671 19.9678C44.7094 20.0226 44.3506 19.8528 44.0906 19.4584C43.9465 19.2242 43.8085 18.9603 43.6766 18.6666C43.5638 18.3706 43.4521 18.0842 43.3415 17.8073C43.2501 17.5281 43.1525 17.2787 43.0488 17.059C42.9619 16.8179 42.8735 16.6448 42.7835 16.5395C42.6508 16.4006 42.4487 16.3281 42.1771 16.322C41.9033 16.2967 41.5853 16.3058 41.2229 16.3492C40.8988 16.388 40.5673 16.4471 40.2287 16.5263C39.8877 16.5865 39.5479 16.6562 39.2092 16.7355C38.8896 16.8125 38.5795 16.8883 38.279 16.963C37.9952 17.0163 37.758 17.0544 37.5673 17.0772C37.1669 17.1252 36.8648 17.2678 36.6611 17.5049C36.4764 17.7398 36.3345 18.0083 36.2353 18.3103C36.1551 18.6101 36.0773 18.9289 36.0017 19.2668C35.9452 19.6024 35.8448 19.8948 35.7006 20.1442C35.5228 20.4363 35.3084 20.6651 35.0574 20.8306C34.8065 20.996 34.557 21.0936 34.3091 21.1233C34.004 21.1599 33.7519 21.074 33.5529 20.8657C33.3707 20.6361 33.3524 20.2417 33.4983 19.6827C33.712 18.8834 33.9246 18.0745 34.136 17.2561C34.3666 16.4355 34.5876 15.6159 34.799 14.7976C35.0204 13.9006 35.2643 13.03 35.5307 12.1857C35.8161 11.3391 36.0886 10.465 36.3481 9.56352C36.4596 9.202 36.5546 8.78442 36.6333 8.31077C36.7097 7.81805 36.8181 7.35051 36.9585 6.90814C37.099 6.46578 37.2855 6.08559 37.5183 5.76757C37.7677 5.4282 38.1118 5.23225 38.5504 5.17971C38.8936 5.1386 39.2674 5.19054 39.6716 5.33555ZM40.9162 11.3665C40.7798 11.0347 40.5842 10.6132 40.3296 10.1021C40.0749 9.59102 39.8782 9.16002 39.7395 8.80913C39.6549 8.58715 39.5519 8.45441 39.4307 8.41091C39.3262 8.34605 39.219 8.33954 39.1092 8.39139C39.0161 8.42188 38.9276 8.4905 38.8437 8.59727C38.7598 8.70404 38.6865 8.8192 38.6239 8.94275C38.5759 9.02588 38.524 9.15782 38.4683 9.33858C38.4102 9.50027 38.345 9.68218 38.2725 9.88429C38.2168 10.065 38.1527 10.2565 38.0802 10.4586C38.0054 10.6416 37.9462 10.7938 37.9027 10.9151C37.7386 11.3216 37.5997 11.6961 37.486 12.0385C37.3914 12.3787 37.3192 12.7452 37.2695 13.138C37.2107 13.4545 37.2012 13.6974 37.2408 13.8668C37.2804 14.0361 37.3334 14.1555 37.3997 14.2249C37.4852 14.292 37.5767 14.3294 37.6743 14.3371C37.7887 14.3234 37.8936 14.3108 37.9889 14.2994C38.2536 14.2484 38.5957 14.1977 39.0153 14.1475C39.4348 14.0972 39.8043 14.0336 40.124 13.9566C40.2361 13.9238 40.3875 13.896 40.5782 13.8732C40.7666 13.8313 40.9337 13.7726 41.0794 13.6971C41.2441 13.6193 41.3685 13.5271 41.4524 13.4203C41.534 13.2945 41.5444 13.1385 41.4834 12.9524C41.4575 12.8974 41.4152 12.7865 41.3565 12.6194C41.2955 12.4333 41.225 12.2483 41.1449 12.0645C41.0839 11.8783 41.0264 11.7208 40.9723 11.5919C40.9349 11.4416 40.9162 11.3665 40.9162 11.3665ZM49.7696 13.0334C49.8047 13.1646 49.8313 13.3064 49.8496 13.459C49.8679 13.6115 49.8862 13.7641 49.9044 13.9166L50.0141 14.832C50.078 15.3659 50.1542 15.8404 50.2426 16.2553C50.331 16.6703 50.4835 16.8938 50.7001 16.9259C50.7352 17.0571 50.8682 17.1185 51.0994 17.1101C51.3282 17.0827 51.6119 17.0294 51.9506 16.9502C52.3084 16.8686 52.6936 16.7741 53.1062 16.6667C53.5189 16.5592 53.9255 16.4815 54.3259 16.4335C54.7073 16.3878 55.0658 16.3933 55.4014 16.4498C55.7347 16.4872 56.0104 16.6089 56.2285 16.8149C56.5153 17.1094 56.6712 17.3615 56.6963 17.5713C56.7329 17.8764 56.565 18.0899 56.1928 18.2119C55.8182 18.3148 55.4307 18.3902 55.0303 18.4382L54.2008 18.5375C53.7431 18.5924 53.2771 18.6579 52.8026 18.734C52.3282 18.8102 51.8796 18.9413 51.457 19.1273C50.7003 19.4307 50.1313 19.6053 49.7499 19.651C49.2541 19.7103 48.9033 19.6073 48.6974 19.3418C48.4915 19.0763 48.3543 18.6576 48.2858 18.0855C48.2355 17.666 48.2047 17.1667 48.1934 16.5878C48.1828 16.3376 48.1626 16.0886 48.1329 15.8407C48.1223 15.5905 48.1021 15.3415 48.0724 15.0936C47.9925 14.4261 47.8946 13.7705 47.7788 13.1267C47.663 12.483 47.5674 11.8464 47.4921 11.2171C47.4738 11.0646 47.4567 10.9216 47.4407 10.7881C47.4437 10.6523 47.4373 10.5177 47.4213 10.3842C47.3795 9.71221 47.2546 8.99215 47.0465 8.22402C46.8552 7.43453 46.7257 6.67633 46.658 5.94942C46.6032 5.49176 46.5407 5.13173 46.4706 4.86933C46.4005 4.60692 46.423 4.39145 46.5382 4.22291C46.6893 4.03073 46.8804 3.93047 47.1115 3.92213C47.3617 3.9115 47.6115 3.9783 47.8608 4.12251C48.1079 4.24765 48.3249 4.44411 48.5117 4.71187C48.7176 4.97735 48.8613 5.28897 48.9429 5.64672C48.9871 5.85419 49.0229 6.07235 49.0503 6.30118C49.0945 6.50865 49.1325 6.74588 49.1645 7.01285C49.2331 7.58492 49.2871 8.19742 49.3266 8.85034C49.3829 9.48191 49.4358 10.0849 49.4852 10.6592C49.5347 11.2336 49.5762 11.7412 49.6096 12.1821C49.6599 12.6016 49.7132 12.8854 49.7696 13.0334ZM59.8815 11.8221C59.9166 11.9533 59.9432 12.0952 59.9615 12.2478C59.9798 12.4003 59.9981 12.5529 60.0163 12.7054L60.126 13.6207C60.1899 14.1547 60.2661 14.6291 60.3545 15.0441C60.4429 15.459 60.5954 15.6825 60.812 15.7146C60.8471 15.8458 60.9801 15.9073 61.2113 15.8989C61.4401 15.8715 61.7238 15.8182 62.0625 15.7389C62.4203 15.6574 62.8055 15.5629 63.2181 15.4554C63.6308 15.348 64.0374 15.2703 64.4378 15.2223C64.8192 15.1766 65.1777 15.182 65.5133 15.2385C65.8466 15.276 66.1223 15.3977 66.3404 15.6037C66.6272 15.8982 66.7831 16.1503 66.8082 16.3601C66.8448 16.6652 66.6769 16.8787 66.3047 17.0007C65.9301 17.1036 65.5426 17.179 65.1422 17.2269L64.3127 17.3263C63.855 17.3811 63.389 17.4466 62.9145 17.5228C62.4401 17.599 61.9915 17.7301 61.5689 17.9161C60.8122 18.2195 60.2432 18.394 59.8618 18.4397C59.366 18.4991 59.0151 18.3961 58.8093 18.1306C58.6034 17.8651 58.4662 17.4463 58.3976 16.8743C58.3474 16.4547 58.3166 15.9555 58.3053 15.3766C58.2947 15.1264 58.2745 14.8774 58.2448 14.6295C58.2342 14.3793 58.214 14.1302 58.1843 13.8823C58.1044 13.2149 58.0065 12.5593 57.8907 11.9155C57.7749 11.2717 57.6793 10.6352 57.604 10.0059C57.5857 9.85336 57.5686 9.71034 57.5526 9.57686C57.5556 9.44109 57.5492 9.30646 57.5332 9.17298C57.4914 8.50099 57.3665 7.78092 57.1584 7.01279C56.9671 6.2233 56.8376 5.4651 56.7699 4.73819C56.7151 4.28053 56.6526 3.9205 56.5825 3.6581C56.5124 3.3957 56.5349 3.18023 56.6501 3.01168C56.8012 2.8195 56.9923 2.71924 57.2234 2.7109C57.4736 2.70028 57.7234 2.76707 57.9727 2.91128C58.2198 3.03643 58.4368 3.23288 58.6236 3.50065C58.8295 3.76613 58.9732 4.07774 59.0548 4.43549C59.099 4.64296 59.1348 4.86112 59.1622 5.08995C59.2064 5.29743 59.2444 5.53465 59.2764 5.80162C59.3449 6.37369 59.399 6.98619 59.4385 7.63911C59.4948 8.27068 59.5477 8.87365 59.5971 9.44801C59.6466 10.0224 59.6881 10.53 59.7215 10.9709C59.7718 11.3904 59.8251 11.6741 59.8815 11.8221ZM71.3637 12.1876C71.3652 12.3615 71.3926 12.5904 71.4459 12.8741C71.4993 13.1579 71.5453 13.4618 71.5842 13.786C71.623 14.1102 71.6428 14.4366 71.6435 14.7654C71.6632 15.0918 71.6509 15.3931 71.6067 15.6692C71.5814 15.9431 71.5123 16.1738 71.3994 16.3614C71.2842 16.5299 71.1122 16.6279 70.8834 16.6553C70.5401 16.6964 70.1061 16.5453 69.5814 16.202C69.4342 16.1035 69.342 15.9792 69.3046 15.8289C69.2673 15.6786 69.2586 15.525 69.2784 15.3678C69.2983 15.2107 69.3277 15.0524 69.3666 14.893C69.4033 14.7146 69.4231 14.5574 69.4262 14.4217C69.421 14.0548 69.405 13.6795 69.3784 13.2958C69.3686 12.8908 69.3385 12.4786 69.2883 12.059C69.1718 11.0865 68.9538 10.1551 68.6344 9.26494C68.3341 8.37246 67.8636 7.67444 67.223 7.17089C66.9904 7.00532 66.6309 6.74858 66.1443 6.40066C65.6577 6.05275 65.1498 5.68804 64.6206 5.30655C64.1081 4.90371 63.636 4.51537 63.2044 4.14153C62.7728 3.76769 62.5051 3.47093 62.4014 3.25123C62.2436 2.90262 62.307 2.62423 62.5915 2.41606C62.8928 2.18654 63.2247 2.05008 63.587 2.00668C63.7968 1.98156 63.992 1.99685 64.1728 2.05257C64.3512 2.08922 64.4687 2.18154 64.5251 2.32953C64.7127 2.44245 64.9831 2.68087 65.3361 3.04478C65.6892 3.40868 66.0911 3.77641 66.5418 4.14797C66.9902 4.50046 67.4615 4.80184 67.9557 5.05213C68.469 5.30013 68.9797 5.3647 69.4877 5.24582C69.7333 5.19705 69.9942 4.95303 70.2704 4.51375C70.5466 4.07446 70.8278 3.5959 71.1139 3.07805C71.3978 2.54114 71.6756 2.03397 71.9472 1.55655C72.2379 1.07684 72.5194 0.762648 72.7918 0.61397C72.9901 0.493498 73.2151 0.514903 73.4668 0.678186C73.7352 0.820115 73.9938 1.0406 74.2424 1.33965C74.401 1.53343 74.4402 1.78019 74.36 2.07993C74.2776 2.3606 74.1212 2.66948 73.8907 3.00657C73.6794 3.34137 73.4131 3.70209 73.0919 4.08874C72.7898 4.4731 72.4972 4.85632 72.2141 5.23839C71.883 5.7036 71.635 6.21687 71.4701 6.77822C71.322 7.31822 71.2262 7.89064 71.1826 8.49549C71.139 9.10034 71.1358 9.71969 71.173 10.3535C71.2293 10.9851 71.2929 11.5965 71.3637 12.1876Z" fill="black"/>
</svg>
