<svg width="194" height="22" viewBox="0 0 194 22" fill="none" xmlns="http://www.w3.org/2000/svg">
<path d="M9.70798 2.73159C10.0346 2.72958 10.3386 2.71607 10.6198 2.69106C10.9011 2.66604 11.17 2.65275 11.4267 2.65117C11.8 2.64889 12.1352 2.70506 12.4323 2.8197C12.7294 2.93434 12.9723 3.18907 13.1611 3.58388C13.2886 3.81602 13.348 4.01364 13.3393 4.17674C13.3539 4.3397 13.2162 4.51523 12.9262 4.70335C12.6362 4.89146 12.3033 5.00997 11.9275 5.05885C11.5763 5.0843 11.2023 5.09824 10.8057 5.10067C10.549 5.10224 10.2807 5.10389 10.0007 5.10561C9.744 5.10718 9.49839 5.12033 9.26381 5.14506C8.42008 5.22011 7.68322 5.25957 7.05323 5.26343C6.42324 5.26729 5.9068 5.32869 5.5039 5.44762C5.10225 5.54325 4.78894 5.73151 4.56396 6.0124C4.36357 6.26984 4.24777 6.68981 4.21657 7.27231C4.18911 7.78491 4.22417 8.43688 4.32173 9.22822C4.37051 9.62388 4.65886 9.90162 5.18678 10.0614C5.71595 10.1979 6.30719 10.2642 6.96051 10.2602C7.42717 10.2573 7.87174 10.2313 8.29423 10.1821C8.71797 10.1097 9.05942 10.0493 9.31857 10.0012C9.60231 9.92955 9.88293 9.91618 10.1604 9.96107C10.4613 10.0058 10.7246 10.0974 10.9504 10.2357C11.2009 10.3507 11.3905 10.5125 11.5192 10.7214C11.6713 10.9301 11.7399 11.1742 11.7249 11.4538C11.7074 11.78 11.561 12.1187 11.2856 12.4697C11.1615 12.6102 10.9692 12.7162 10.7088 12.7877C10.4729 12.8357 10.1917 12.8608 9.86504 12.8628C9.32839 12.8661 8.73527 12.8348 8.08569 12.7689C7.43612 12.703 6.808 12.6719 6.20134 12.6756C5.54802 12.6796 4.972 12.7647 4.47327 12.9308C3.99788 13.0967 3.69979 13.4363 3.579 13.9495C3.5186 14.206 3.49133 14.4974 3.49719 14.8234C3.52638 15.1493 3.5537 15.5102 3.57915 15.906C3.60585 16.2785 3.63192 16.6627 3.65737 17.0585C3.70615 17.4542 3.71993 17.85 3.69871 18.2461C3.68499 18.5024 3.66021 18.7472 3.6244 18.9803C3.58983 19.1902 3.53131 19.4118 3.44883 19.6452C3.31469 19.9721 3.15055 20.2061 2.9564 20.347C2.76224 20.4879 2.53684 20.5592 2.28018 20.5608C2.02351 20.5624 1.76997 20.5057 1.51955 20.3907C1.29246 20.2757 1.09058 20.1255 0.913901 19.9403C0.761804 19.7316 0.64533 19.511 0.564479 19.2786C0.483629 19.0461 0.485067 18.8016 0.568795 18.5448C0.789157 17.9146 0.945761 17.1683 1.03861 16.3059C1.15478 15.4434 1.23721 14.5578 1.28589 13.6491C1.33332 12.7637 1.35554 11.9134 1.35256 11.0982C1.37416 10.2595 1.39014 9.52569 1.4005 8.89674C1.39752 8.08153 1.30058 7.27854 1.10969 6.48777C0.943378 5.67356 0.938523 4.8933 1.09513 4.14699C1.21966 3.56392 1.63629 3.18869 2.34501 3.0213C3.05374 2.8539 3.86309 2.76742 4.77307 2.76184C5.40306 2.75798 6.0318 2.77742 6.65929 2.82016C7.31137 2.83945 7.90573 2.84745 8.44239 2.84416C8.95571 2.84101 9.37758 2.80349 9.70798 2.73159ZM15.5081 7.55247C15.918 6.43193 16.4248 5.46219 17.0285 4.64326C17.6555 3.82419 18.356 3.15606 19.1301 2.63889C19.9043 2.12171 20.7175 1.74405 21.57 1.5059C22.4471 1.24431 23.3406 1.11072 24.2506 1.10514C25.5339 1.09728 26.7814 1.32255 27.993 1.78097C29.2293 2.21594 30.315 2.84982 31.25 3.68261C32.2096 4.49196 32.9616 5.47727 33.5058 6.63855C34.0501 7.79983 34.2841 9.09111 34.208 10.5124C34.183 10.9784 34.1237 11.433 34.03 11.8761C33.8092 12.9489 33.4037 13.9879 32.8134 14.9931C32.2476 15.9748 31.5469 16.8642 30.7111 17.6613C29.9 18.4349 28.9777 19.1044 27.9445 19.6697C26.9358 20.2116 25.8775 20.5908 24.7696 20.8072C24.0155 20.9516 23.2534 21.0262 22.4834 21.0309C21.3635 21.0377 20.2651 20.8581 19.1885 20.4921C18.1364 20.1025 17.2405 19.4093 16.5008 18.4122C15.6741 17.2993 15.1009 16.243 14.7812 15.2434C14.4849 14.2436 14.3648 13.2195 14.421 12.171C14.4597 11.4487 14.569 10.7143 14.7489 9.96787C14.9535 9.19798 15.2065 8.39284 15.5081 7.55247ZM21.6997 4.96401C20.186 5.78852 19.0436 6.86696 18.2725 8.19935C17.5259 9.5083 17.1158 10.8501 17.0422 12.2248C16.9985 13.0403 17.0727 13.8318 17.2649 14.5993C17.4816 15.3433 17.8194 16.005 18.2782 16.5845C18.7382 17.1407 19.3205 17.5914 20.0251 17.9364C20.731 18.2582 21.5622 18.4161 22.5189 18.4103C22.8455 18.4083 23.1845 18.3945 23.5357 18.3691C23.9115 18.3202 24.3009 18.2363 24.7038 18.1174C25.7208 17.8549 26.5893 17.5352 27.3093 17.1581C28.0305 16.7577 28.6382 16.2997 29.1323 15.7843C29.651 15.2454 30.0911 14.6487 30.4527 13.9943C30.8156 13.3166 31.1588 12.5692 31.4825 11.752C31.6721 11.2617 31.7824 10.7253 31.8136 10.1428C31.8473 9.51367 31.7981 8.90837 31.666 8.32687C31.5351 7.72208 31.3507 7.24571 31.1128 6.89779C30.5094 5.9698 29.6718 5.27616 28.6001 4.81689C27.5297 4.33431 26.3995 4.09667 25.2095 4.10397C24.6029 4.10769 23.9925 4.18131 23.3783 4.32482C22.7875 4.4682 22.228 4.68126 21.6997 4.96401ZM36.9725 7.42088C37.3824 6.30034 37.8892 5.3306 38.4929 4.51167C39.1199 3.6926 39.8205 3.02447 40.5946 2.5073C41.3687 1.99012 42.182 1.61246 43.0345 1.37431C43.9115 1.11272 44.805 0.979133 45.715 0.973555C46.9983 0.965687 48.2458 1.19096 49.4575 1.64938C50.6937 2.08435 51.7794 2.71823 52.7144 3.55102C53.6741 4.36037 54.426 5.34568 54.9703 6.50696C55.5145 7.66824 55.7486 8.95952 55.6724 10.3808C55.6475 10.8468 55.5881 11.3014 55.4944 11.7445C55.2737 12.8173 54.8682 13.8563 54.2778 14.8615C53.7121 15.8432 53.0113 16.7326 52.1756 17.5297C51.3644 18.3033 50.4422 18.9728 49.4089 19.5381C48.4002 20.0801 47.3419 20.4592 46.2341 20.6756C45.4799 20.82 44.7179 20.8946 43.9479 20.8993C42.8279 20.9062 41.7296 20.7265 40.6529 20.3605C39.6008 19.971 38.7049 19.2777 37.9653 18.2806C37.1385 17.1677 36.5653 16.1114 36.2457 15.1118C35.9494 14.112 35.8293 13.0879 35.8854 12.0394C35.9241 11.3171 36.0334 10.5827 36.2134 9.83629C36.4179 9.06639 36.671 8.26125 36.9725 7.42088ZM43.1641 4.83242C41.6504 5.65693 40.5081 6.73538 39.7369 8.06776C38.9904 9.37671 38.5803 10.7185 38.5066 12.0932C38.463 12.9087 38.5372 13.7002 38.7293 14.4677C38.9461 15.2117 39.2838 15.8735 39.7426 16.4529C40.2026 17.0091 40.785 17.4598 41.4896 17.8048C42.1954 18.1266 43.0266 18.2846 43.9833 18.2787C44.31 18.2767 44.6489 18.263 45.0001 18.2375C45.376 18.1886 45.7653 18.1047 46.1682 17.9858C47.1853 17.7233 48.0538 17.4036 48.7737 17.0265C49.4949 16.6261 50.1026 16.1682 50.5967 15.6527C51.1154 15.1138 51.5556 14.5171 51.9172 13.8627C52.28 13.185 52.6233 12.4376 52.947 11.6204C53.1365 11.1301 53.2469 10.5937 53.2781 10.0112C53.3118 9.38208 53.2626 8.77678 53.1304 8.19528C52.9996 7.59049 52.8151 7.11413 52.5772 6.7662C51.9738 5.83821 51.1363 5.14458 50.0646 4.6853C48.9942 4.20272 47.8639 3.96508 46.674 3.97238C46.0673 3.9761 45.4569 4.04972 44.8428 4.19324C44.252 4.33661 43.6924 4.54967 43.1641 4.83242ZM60.0697 2.28309C61.3446 1.99576 62.6004 1.84831 63.8371 1.84073C65.517 1.83043 67.0654 2.10045 68.4821 2.65078C69.9233 3.17766 71.1021 4.03225 72.0184 5.21454C72.3901 5.67811 72.6679 6.1539 72.8517 6.64191C73.0355 7.12992 73.172 7.62987 73.2612 8.14175C73.3749 8.63019 73.4402 9.15386 73.4569 9.71278C73.4982 10.2482 73.5389 10.7954 73.5789 11.3541C73.4891 13.0317 73.0979 14.455 72.4055 15.6238C71.7365 16.7925 70.8453 17.753 69.7321 18.5052C68.6421 19.2572 67.3762 19.8123 65.9341 20.1705C64.5167 20.5053 63.0263 20.6775 61.463 20.6871C60.5997 20.6924 59.8962 20.5453 59.3524 20.2458C58.8099 19.9231 58.6101 19.5167 58.7529 19.0267C58.7729 18.6539 58.7795 18.0948 58.7728 17.3495C58.7906 16.5807 58.7895 15.7306 58.7695 14.799C58.774 13.844 58.7564 12.8658 58.7167 11.8645C58.7016 10.8397 58.6699 9.90825 58.6215 9.07002C58.5964 8.23165 58.5639 7.53308 58.5238 6.97431C58.485 6.39224 58.4331 6.05482 58.3681 5.96205C58.161 5.47419 58.0699 4.99725 58.0949 4.53125C58.1298 3.87886 58.355 3.37669 58.7704 3.02476C59.187 2.64953 59.6201 2.40231 60.0697 2.28309ZM61.2954 12.0583C61.3239 13.2694 61.3415 14.2475 61.3482 14.9928C61.3795 15.7147 61.4429 16.2733 61.5383 16.6687C61.635 17.0408 61.7969 17.2844 62.024 17.3994C62.2511 17.5145 62.5752 17.5591 62.9965 17.5332C63.9323 17.4809 64.7668 17.3593 65.5002 17.1685C66.258 16.9542 66.927 16.659 67.5069 16.2827C68.0881 15.8832 68.6037 15.4026 69.0537 14.8408C69.5282 14.2556 69.9506 13.5542 70.321 12.7367C70.6913 11.9192 70.8977 11.1144 70.9401 10.3222C70.9888 9.41346 70.8102 8.61097 70.4043 7.91469C70.0218 7.21827 69.5047 6.63913 68.853 6.17728C68.2246 5.71529 67.5083 5.3703 66.7042 5.1423C65.9233 4.91417 65.1712 4.80232 64.4479 4.80675C63.5846 4.81204 62.8403 4.9913 62.2149 5.34452C61.5908 5.67444 61.2606 6.17724 61.2244 6.85294C61.2169 6.99274 61.2136 7.27227 61.2145 7.69152C61.2399 8.08734 61.2622 8.5414 61.2815 9.05371C61.3007 9.56602 61.307 10.1017 61.3003 10.6608C61.3183 11.1964 61.3167 11.6622 61.2954 12.0583ZM86.2942 12.9882L86.3747 11.4853C86.4146 10.7397 86.4448 9.95925 86.4651 9.14389C86.5088 8.32839 86.5075 7.69951 86.4612 7.25724C86.387 6.46576 86.2876 5.70937 86.1629 4.98807C86.0383 4.26678 85.991 3.62653 86.0209 3.06733C86.0459 2.60133 86.1481 2.21638 86.3277 1.91248C86.5306 1.60844 86.8685 1.39674 87.3414 1.27738C87.8843 1.15759 88.4953 1.07232 89.1744 1.02157C89.8548 0.947521 90.5334 0.908423 91.21 0.904275C91.5367 0.902272 91.84 0.900412 92.12 0.898696C92.4233 0.896836 92.7021 0.91842 92.9562 0.963445C93.8846 1.05092 94.6881 1.29057 95.3669 1.68237C96.0702 2.05074 96.6396 2.52474 97.0751 3.10438C97.5351 3.66057 97.8631 4.28745 98.059 4.98502C98.2782 5.68244 98.3678 6.40396 98.3279 7.14955C98.2904 7.84855 98.1363 8.54826 97.8656 9.24869C97.6181 9.94898 97.2442 10.6151 96.7439 11.2471C96.2448 11.8557 95.6321 12.4068 94.9059 12.9004C94.181 13.3707 93.345 13.7369 92.3979 13.9989C92.1608 14.0702 91.844 14.1071 91.4473 14.1095C91.074 14.1118 90.6994 14.1374 90.3236 14.1863C89.9711 14.2351 89.6505 14.3418 89.3618 14.5066C89.0964 14.6713 88.9537 14.9401 88.9337 15.3129C88.9063 15.8255 88.923 16.3844 88.9839 16.9896C89.0447 17.5948 89.0614 18.1537 89.034 18.6663C89.0015 19.2721 88.8476 19.7506 88.5722 20.1016C88.3214 20.4293 87.8277 20.5022 87.091 20.3203C86.7227 20.2294 86.4848 19.8815 86.3772 19.2766C86.293 18.6715 86.2481 17.9846 86.2427 17.216C86.2605 16.4473 86.2907 15.6668 86.3331 14.8746C86.3755 14.0824 86.3626 13.4536 86.2942 12.9882ZM88.8857 9.02424C88.9024 9.58315 88.972 10.0253 89.0946 10.3506C89.2183 10.6527 89.3809 10.8846 89.5821 11.0464C89.7834 11.2082 90.0111 11.3116 90.2652 11.3567C90.544 11.3782 90.8357 11.3764 91.1402 11.3513C91.7261 11.3011 92.1958 11.24 92.5496 11.168C92.9046 11.0726 93.2025 10.9543 93.4433 10.8131C93.7074 10.6717 93.9378 10.5073 94.1345 10.3197C94.3324 10.1089 94.5432 9.87466 94.7669 9.61707C95.561 8.7271 95.9805 7.86271 96.0254 7.02391C96.0529 6.51132 95.9612 6.04603 95.7503 5.62806C95.5394 5.2101 95.2438 4.85088 94.8634 4.55041C94.5075 4.2265 94.089 3.9845 93.6077 3.8244C93.1277 3.64101 92.6427 3.55081 92.1527 3.55382C91.7327 3.55639 91.3206 3.62879 90.9165 3.77102C90.5124 3.91326 90.1388 4.13682 89.796 4.44172C89.5022 4.69974 89.2839 5.07375 89.1411 5.56377C88.9994 6.03048 88.9111 6.59004 88.8762 7.24244C88.8462 7.80163 88.8494 8.39557 88.8857 9.02424ZM107.724 1.956C107.977 2.02433 108.209 2.26748 108.42 2.68544C108.655 3.07997 108.874 3.57941 109.074 4.18378C109.277 4.76485 109.464 5.40424 109.636 6.10195C109.834 6.77622 109.996 7.4507 110.123 8.1254C110.275 8.77665 110.394 9.36987 110.482 9.90505C110.594 10.4401 110.677 10.8355 110.734 11.0914C110.976 12.2313 111.257 13.301 111.576 14.3006C111.896 15.3002 112.163 16.1953 112.377 16.9859C112.616 17.7531 112.757 18.3928 112.799 18.905C112.865 19.417 112.754 19.7554 112.465 19.9202C111.983 20.2027 111.579 20.3449 111.253 20.3469C110.693 20.3503 110.298 20.0966 110.069 19.5855C109.945 19.2835 109.835 18.9464 109.738 18.5743C109.665 18.2021 109.591 17.8415 109.516 17.4926C109.465 17.1435 109.4 16.8295 109.322 16.5505C109.268 16.248 109.198 16.0271 109.112 15.8879C108.982 15.7024 108.755 15.5873 108.431 15.5427C108.108 15.4748 107.725 15.4422 107.282 15.4449C106.885 15.4474 106.475 15.4732 106.053 15.5224C105.632 15.5482 105.21 15.5858 104.787 15.6349C104.388 15.684 104.001 15.7329 103.625 15.7818C103.274 15.8073 102.981 15.8207 102.748 15.8221C102.258 15.8251 101.866 15.9556 101.572 16.2137C101.302 16.4715 101.076 16.7757 100.894 17.1262C100.735 17.4766 100.575 17.8502 100.414 18.2472C100.276 18.644 100.095 18.9828 99.8695 19.2637C99.5954 19.5915 99.2906 19.8379 98.9552 20.003C98.6198 20.1681 98.3005 20.2516 97.9972 20.2535C97.6238 20.2558 97.3397 20.1178 97.1446 19.8395C96.9742 19.5377 97.0348 19.0598 97.3264 18.4059C97.7496 17.4716 98.1735 16.5256 98.598 15.5681C99.0458 14.6103 99.482 13.6527 99.9065 12.6951C100.359 11.6442 100.834 10.628 101.329 9.64672C101.848 8.66526 102.358 7.64892 102.857 6.59771C103.066 6.17717 103.268 5.6868 103.461 5.1266C103.655 4.5431 103.883 3.99433 104.144 3.4803C104.405 2.96627 104.708 2.53351 105.053 2.18201C105.423 1.80706 105.876 1.61795 106.413 1.61466C106.833 1.61208 107.27 1.72586 107.724 1.956ZM107.955 9.39647C107.861 8.97778 107.715 8.44296 107.517 7.79199C107.318 7.14102 107.173 6.59455 107.08 6.15256C107.025 5.87339 106.929 5.69929 106.793 5.63025C106.681 5.53776 106.554 5.51525 106.411 5.56271C106.294 5.58672 106.173 5.65734 106.05 5.77455C105.927 5.89177 105.815 6.02056 105.715 6.16093C105.64 6.25456 105.55 6.40651 105.445 6.61678C105.342 6.80375 105.226 7.0141 105.097 7.24781C104.992 7.45808 104.875 7.68008 104.746 7.91379C104.618 8.1242 104.515 8.29953 104.438 8.43976C104.156 8.90733 103.912 9.33973 103.704 9.73698C103.519 10.1341 103.356 10.566 103.214 11.0327C103.078 11.4062 103.016 11.6977 103.028 11.9073C103.04 12.1169 103.078 12.268 103.143 12.3608C103.232 12.4534 103.334 12.511 103.449 12.5336C103.589 12.5328 103.717 12.532 103.834 12.5313C104.162 12.506 104.582 12.4917 105.096 12.4886C105.609 12.4854 106.065 12.4593 106.464 12.4103C106.606 12.3862 106.793 12.3734 107.026 12.3719C107.261 12.3472 107.473 12.2993 107.664 12.2283C107.878 12.1571 108.046 12.0629 108.169 11.9457C108.293 11.8051 108.338 11.6185 108.304 11.3858C108.284 11.3161 108.257 11.1765 108.221 10.9671C108.187 10.7344 108.141 10.5017 108.084 10.2691C108.049 10.0364 108.013 9.83866 107.975 9.67585C107.962 9.48959 107.955 9.39647 107.955 9.39647ZM115.763 12.7376L115.883 10.5008C115.919 9.82514 115.942 9.17281 115.952 8.54386C115.987 7.89146 115.98 7.37908 115.93 7.00671C115.856 6.21522 115.756 5.45883 115.631 4.73754C115.507 4.01624 115.459 3.37599 115.489 2.8168C115.514 2.3508 115.617 1.96585 115.796 1.66195C115.999 1.3579 116.337 1.1462 116.81 1.02684C117.353 0.907051 117.964 0.821782 118.643 0.771033C119.347 0.696843 120.037 0.657674 120.714 0.653526C121.04 0.651523 121.343 0.661313 121.622 0.682896C121.902 0.68118 122.181 0.691113 122.46 0.712696C123.388 0.800174 124.204 1.0281 124.907 1.39646C125.611 1.76482 126.192 2.2271 126.652 2.7833C127.112 3.33949 127.452 3.9663 127.671 4.66373C127.89 5.36115 127.98 6.08266 127.94 6.82826C127.891 7.73696 127.644 8.64687 127.199 9.558C126.778 10.4457 126.141 11.2415 125.287 11.9455C124.822 12.3444 124.41 12.638 124.05 12.8266C123.715 12.9917 123.54 13.2024 123.526 13.4587C123.516 13.6451 123.609 13.8774 123.804 14.1557C123.999 14.4341 124.317 14.8048 124.759 15.2679C125.068 15.5921 125.324 15.8235 125.527 15.962C125.754 16.0771 126.047 16.2616 126.407 16.5156C126.9 16.8853 127.361 17.1969 127.791 17.4505C128.244 17.7039 128.462 17.9937 128.444 18.3199C128.434 18.5063 128.305 18.74 128.057 19.0211C127.832 19.3019 127.412 19.5258 126.796 19.6926C126.559 19.7639 126.271 19.6958 125.932 19.4883C125.594 19.2807 125.234 19.0267 124.854 18.7262C124.497 18.4256 124.14 18.1134 123.784 17.7895C123.452 17.4654 123.174 17.2109 122.95 17.0259C122.77 16.9106 122.511 16.7375 122.174 16.5066C121.861 16.2523 121.501 15.9983 121.095 15.7446C120.145 15.1914 119.46 14.9161 119.04 14.9187C118.55 14.9217 118.287 15.261 118.25 15.9367C118.234 16.2396 118.269 16.682 118.354 17.2637C118.44 17.8455 118.471 18.3461 118.449 18.7655C118.42 19.3014 118.258 19.7217 117.961 20.0263C117.666 20.3076 117.151 20.3573 116.414 20.1755C116.024 20.0615 115.79 19.632 115.713 18.8871C115.661 18.1188 115.66 17.2686 115.71 16.3366L115.775 15.1134C115.8 14.6474 115.812 14.2047 115.812 13.7855C115.834 13.3661 115.818 13.0168 115.763 12.7376ZM118.354 8.7737C118.371 9.33261 118.441 9.77474 118.563 10.1001C118.687 10.4021 118.849 10.634 119.051 10.7959C119.252 10.9577 119.48 11.0611 119.734 11.1061C120.013 11.1277 120.316 11.1258 120.644 11.1005C121.206 11.0505 121.664 10.9895 122.018 10.9174C122.396 10.8219 122.706 10.7036 122.947 10.5623C123.211 10.421 123.43 10.2566 123.603 10.0692C123.801 9.85834 124.023 9.62405 124.27 9.36632C124.692 8.89789 124.996 8.45348 125.182 8.03308C125.367 7.61268 125.471 7.20443 125.492 6.80833C125.52 6.29573 125.416 5.83052 125.182 5.41269C124.972 4.97143 124.677 4.60056 124.297 4.30009C123.941 3.97618 123.523 3.73418 123.041 3.57408C122.561 3.39069 122.076 3.30049 121.586 3.30349C121.166 3.30607 120.754 3.37847 120.35 3.5207C119.97 3.63949 119.609 3.85134 119.266 4.15624C118.973 4.41425 118.754 4.78827 118.611 5.27828C118.492 5.76815 118.415 6.33929 118.38 6.99169C118.365 7.27129 118.349 7.56253 118.333 7.86543C118.341 8.14489 118.348 8.44765 118.354 8.7737ZM135.113 8.18182C135.134 7.78572 135.143 7.40135 135.14 7.02869C135.161 6.63259 135.159 6.23664 135.133 5.84082C135.109 5.42171 135.057 5.09594 134.976 4.86352C134.919 4.60765 134.802 4.41038 134.623 4.27173C134.467 4.13293 134.227 4.02958 133.904 3.96168C133.605 3.89364 133.2 3.8379 132.689 3.79444C132.038 3.75185 131.495 3.66201 131.059 3.52493C130.624 3.36455 130.439 3.12111 130.503 2.79463C130.533 2.23543 130.739 1.87314 131.121 1.70775C131.504 1.51906 131.964 1.42307 132.501 1.41978C132.944 1.41706 133.398 1.44923 133.86 1.51626C134.325 1.56 134.732 1.56915 135.084 1.5437C135.693 1.49338 136.454 1.43049 137.368 1.35501C138.283 1.25623 139.149 1.20434 139.965 1.19933C140.595 1.19547 141.141 1.23871 141.603 1.32905C142.066 1.39608 142.361 1.54567 142.488 1.77781C142.509 1.82427 142.552 1.89389 142.617 1.98666C142.684 2.05613 142.737 2.14897 142.777 2.26518C142.842 2.35795 142.884 2.45087 142.902 2.54392C142.921 2.63698 142.894 2.69537 142.823 2.7191C142.805 3.0453 142.597 3.24457 142.196 3.3169C141.819 3.38909 141.373 3.4384 140.859 3.46485C140.369 3.46786 139.877 3.49416 139.385 3.54376C138.892 3.59337 138.523 3.74703 138.276 4.00476C138.079 4.19231 137.926 4.64744 137.818 5.37017C137.732 6.09275 137.666 6.89674 137.618 7.78214C137.59 8.31804 137.561 8.85394 137.532 9.38984C137.527 9.92559 137.523 10.4264 137.522 10.8923C137.52 11.3581 137.509 11.7774 137.489 12.1502C137.471 12.4997 137.457 12.756 137.448 12.9191C137.396 13.4552 137.387 14.0608 137.421 14.7361C137.456 15.3881 137.456 16.0402 137.421 16.6926C137.397 17.1353 137.34 17.5433 137.251 17.9165C137.184 18.2896 137.05 18.6049 136.85 18.8623C136.476 19.3072 136.126 19.5306 135.799 19.5326C135.589 19.5339 135.395 19.4652 135.216 19.3265C135.038 19.1646 134.884 18.9792 134.756 18.7704C134.627 18.5615 134.522 18.3409 134.441 18.1085C134.385 17.8526 134.362 17.6198 134.374 17.4101C134.421 16.5247 134.541 15.5923 134.733 14.6128C134.927 13.6101 135.049 12.631 135.101 11.6757C135.118 11.3495 135.112 11.0351 135.081 10.7325C135.074 10.4298 135.055 10.1387 135.023 9.85942L135.113 8.18182ZM153.47 9.11744C153.597 9.34958 153.769 9.62803 153.985 9.9528C154.202 10.2543 154.406 10.5791 154.597 10.9273C155.026 11.6235 155.369 12.192 155.626 12.633C155.882 13.074 156.092 13.294 156.255 13.293C156.418 13.292 156.521 12.907 156.562 12.1381C156.572 11.9517 156.582 11.7537 156.594 11.544C156.605 11.3343 156.606 11.1013 156.596 10.8452C156.576 10.3562 156.593 9.8087 156.649 9.20276C156.729 8.57338 156.786 7.95579 156.818 7.34999C156.851 6.74419 156.847 6.16191 156.807 5.60314C156.79 5.04423 156.699 4.56729 156.534 4.17234C156.388 3.84714 156.289 3.52166 156.236 3.19589C156.185 2.84682 156.168 2.50918 156.185 2.18298C156.214 1.64708 156.332 1.19216 156.538 0.818222C156.77 0.420835 157.083 0.220926 157.48 0.218494C157.923 0.215776 158.432 0.515457 159.006 1.11754C159.117 1.23332 159.189 1.62885 159.223 2.30412C159.281 2.95594 159.307 3.78266 159.3 4.78427C159.316 5.78574 159.314 6.91543 159.293 8.17334C159.272 9.43125 159.251 10.7125 159.227 12.017C159.204 13.3215 159.171 14.5911 159.128 15.8259C159.109 17.0605 159.108 18.1552 159.127 19.1101C159.137 19.3662 159.01 19.5534 158.747 19.6714C158.508 19.7894 158.225 19.8493 157.898 19.8513C157.478 19.8539 157.038 19.7867 156.579 19.6498C156.143 19.5127 155.86 19.3514 155.73 19.1658C155.359 18.7023 155.006 18.0988 154.673 17.3555C154.341 16.5889 153.993 15.8923 153.63 15.2656C153.012 14.1747 152.393 13.107 151.772 12.0627C151.177 10.9949 150.571 9.88056 149.957 8.71971C149.512 7.88392 149.104 7.23424 148.732 6.77067C148.384 6.30696 148.081 6.07589 147.825 6.07747C147.428 6.0799 147.199 6.65196 147.138 7.79366C147.127 8.00336 147.115 8.22471 147.102 8.45771C147.09 8.69071 147.099 8.94686 147.131 9.22618C147.163 9.50549 147.17 9.80824 147.152 10.1344C147.135 10.4606 147.117 10.7985 147.098 11.148L146.982 13.3149C146.946 13.9906 146.923 14.6429 146.912 15.2719C146.925 15.9007 146.976 16.471 147.065 16.9829C147.155 17.4948 147.19 17.9138 147.173 18.24C147.137 18.9157 146.969 19.4292 146.671 19.7804C146.372 20.1316 146.048 20.3083 145.698 20.3104C145.324 20.3127 144.985 20.1052 144.681 19.6878C144.4 19.2702 144.284 18.6188 144.331 17.7334L144.548 13.6792C144.618 12.3744 144.664 11.0814 144.686 9.80018C144.731 8.51883 144.726 7.31931 144.669 6.20163C144.657 5.99207 144.612 5.73613 144.535 5.4338C144.481 5.13133 144.417 4.81728 144.341 4.49166C144.288 4.16589 144.236 3.84012 144.183 3.51435C144.132 3.16528 144.114 2.83929 144.131 2.53639C144.154 2.09369 144.268 1.72032 144.47 1.41628C144.673 1.11224 145.034 0.912042 145.552 0.815696C145.953 0.743364 146.308 0.648019 146.617 0.52966C146.927 0.411301 147.262 0.467476 147.623 0.698187C148.255 1.09028 148.855 1.64562 149.423 2.36419C149.991 3.08277 150.521 3.84817 151.014 4.66037C151.531 5.47244 151.989 6.28486 152.388 7.09764C152.812 7.88698 153.173 8.56024 153.47 9.11744ZM173.377 1.58845C173.612 1.56372 173.811 1.55085 173.974 1.54985C174.162 1.52541 174.325 1.53606 174.462 1.5818C174.623 1.6274 174.77 1.70802 174.904 1.82366C175.039 1.916 175.194 2.0781 175.368 2.30995C175.564 2.56496 175.667 2.82055 175.677 3.0767C175.688 3.30956 175.606 3.51969 175.433 3.70709C175.284 3.87105 175.021 3.98912 174.644 4.06131C174.267 4.1335 173.779 4.1132 173.178 4.00042C172.924 3.9554 172.541 3.92281 172.029 3.90265C171.541 3.85906 171.018 3.83898 170.458 3.84241C169.921 3.8457 169.383 3.87229 168.844 3.92218C168.306 3.94877 167.812 4.02167 167.363 4.14089C166.914 4.23681 166.534 4.37889 166.22 4.56715C165.931 4.73197 165.768 4.95425 165.73 5.23399C165.627 5.84022 165.565 6.34138 165.544 6.73748C165.515 7.27338 165.635 7.65697 165.902 7.88825C166.171 8.09623 166.76 8.19744 167.67 8.19186C168.114 8.18914 168.71 8.16219 169.459 8.11102C170.232 8.0597 171.015 8.0316 171.808 8.02674C172.648 8.02159 173.426 8.07505 174.143 8.18711C174.862 8.27588 175.341 8.48257 175.58 8.8072C175.863 9.17814 175.999 9.48011 175.986 9.71311C175.965 10.1092 175.59 10.3561 174.862 10.4537C174.133 10.5513 173.256 10.6033 172.229 10.6096C171.483 10.6142 170.724 10.6305 169.952 10.6585C169.183 10.6632 168.468 10.7258 167.808 10.8463C167.15 10.9435 166.592 11.1216 166.135 11.3807C165.701 11.6395 165.448 12.0138 165.375 12.5034C165.337 12.7831 165.297 13.0861 165.257 13.4125C165.216 13.7388 165.187 14.0651 165.169 14.3913C165.148 14.7874 165.151 15.1717 165.177 15.5442C165.227 15.9166 165.315 16.2421 165.44 16.5209C165.59 16.7762 165.79 16.9613 166.04 17.0762C166.314 17.191 166.664 17.1888 167.09 17.0698C167.894 16.8552 168.754 16.7102 169.667 16.6347C170.606 16.5358 171.541 16.4835 172.475 16.4777L173.525 16.4713C174.2 16.4905 174.751 16.6501 175.179 16.9503C175.606 17.2505 175.81 17.5637 175.793 17.8899C175.78 18.1229 175.618 18.3335 175.304 18.5218C175.016 18.6866 174.521 18.7711 173.821 18.7754C172.795 18.7817 171.718 18.8466 170.592 18.9699C169.467 19.07 168.409 19.2162 167.419 19.4086C166.807 19.5288 166.179 19.7074 165.536 19.9442C164.917 20.181 164.363 20.3008 163.873 20.3038C163.429 20.3066 163.064 20.1574 162.777 19.8563C162.49 19.5553 162.335 18.9623 162.313 18.0773C162.305 17.7746 162.298 17.4835 162.289 17.204C162.304 16.9244 162.32 16.6332 162.336 16.3303C162.395 15.2352 162.489 14.1282 162.619 13.0094C162.772 11.8904 162.879 10.7717 162.939 9.65334C162.965 9.16404 162.979 8.68647 162.981 8.22061C162.983 7.73145 162.962 7.25409 162.917 6.78852C162.881 6.60241 162.835 6.35812 162.782 6.05565C162.729 5.72988 162.678 5.38081 162.628 5.00844C162.578 4.63607 162.539 4.26363 162.513 3.89111C162.486 3.5186 162.481 3.16925 162.499 2.84305C162.526 2.33045 162.628 1.95715 162.804 1.72315C163.005 1.4424 163.319 1.25415 163.744 1.15837C164.17 1.0393 164.663 0.978042 165.223 0.974609C165.853 0.970747 166.539 1.01313 167.281 1.10175C168.022 1.19037 168.764 1.27899 169.505 1.36762C170.224 1.45638 170.908 1.53371 171.557 1.59961C172.232 1.64206 172.838 1.63834 173.377 1.58845ZM179.472 12.3471L179.592 10.1103C179.628 9.43456 179.652 8.78224 179.662 8.15328C179.697 7.50088 179.69 6.9885 179.64 6.61613C179.565 5.82465 179.466 5.06826 179.341 4.34696C179.217 3.62566 179.169 2.98542 179.199 2.42622C179.224 1.96022 179.326 1.57527 179.506 1.27137C179.709 0.967327 180.047 0.755625 180.52 0.636265C181.063 0.516475 181.674 0.431206 182.353 0.380457C183.056 0.306267 183.747 0.267098 184.423 0.262949C184.75 0.260947 185.053 0.270737 185.331 0.29232C185.611 0.290604 185.891 0.300537 186.17 0.32212C187.098 0.409598 187.914 0.637519 188.617 1.00588C189.32 1.37425 189.902 1.83653 190.362 2.39272C190.822 2.94892 191.162 3.57573 191.381 4.27315C191.6 4.97057 191.69 5.69209 191.65 6.43768C191.601 7.34638 191.354 8.25629 190.909 9.16742C190.488 10.0551 189.851 10.851 188.997 11.555C188.532 11.9538 188.12 12.2475 187.76 12.436C187.424 12.6011 187.25 12.8118 187.236 13.0681C187.226 13.2545 187.319 13.4869 187.514 13.7652C187.709 14.0435 188.027 14.4142 188.469 14.8773C188.778 15.2015 189.034 15.4329 189.236 15.5714C189.463 15.6865 189.757 15.871 190.116 16.125C190.61 16.4947 191.071 16.8063 191.501 17.0599C191.954 17.3133 192.171 17.6031 192.154 17.9293C192.144 18.1157 192.015 18.3494 191.767 18.6305C191.542 18.9114 191.121 19.1352 190.506 19.302C190.269 19.3734 189.981 19.3053 189.642 19.0977C189.303 18.8901 188.944 18.6361 188.563 18.3357C188.206 18.0351 187.85 17.7228 187.494 17.3989C187.161 17.0748 186.884 16.8203 186.66 16.6354C186.48 16.52 186.221 16.3469 185.883 16.116C185.57 15.8617 185.211 15.6077 184.805 15.354C183.854 14.8008 183.169 14.5255 182.749 14.5281C182.259 14.5311 181.996 14.8704 181.96 15.5461C181.944 15.849 181.979 16.2914 182.064 16.8732C182.15 17.4549 182.181 17.9555 182.159 18.3749C182.13 18.9108 181.967 19.3311 181.671 19.6357C181.376 19.917 180.86 19.9668 180.124 19.7849C179.733 19.6709 179.5 19.2414 179.423 18.4965C179.371 17.7282 179.37 16.878 179.42 15.946L179.485 14.7228C179.51 14.2568 179.522 13.8142 179.521 13.3949C179.544 12.9755 179.528 12.6262 179.472 12.3471ZM182.064 8.38313C182.081 8.94204 182.15 9.38416 182.273 9.7095C182.397 10.0115 182.559 10.2435 182.76 10.4053C182.962 10.5671 183.189 10.6705 183.444 10.7155C183.722 10.7371 184.026 10.7353 184.354 10.71C184.916 10.6599 185.374 10.5989 185.728 10.5268C186.106 10.4314 186.416 10.313 186.657 10.1718C186.921 10.0304 187.139 9.86601 187.313 9.67861C187.511 9.46776 187.733 9.23348 187.98 8.97575C188.402 8.50732 188.706 8.0629 188.891 7.6425C189.077 7.2221 189.181 6.81385 189.202 6.41775C189.229 5.90515 189.126 5.43994 188.892 5.02212C188.682 4.58085 188.387 4.20998 188.007 3.90951C187.651 3.5856 187.232 3.3436 186.751 3.18351C186.271 3.00011 185.786 2.90991 185.296 2.91292C184.876 2.91549 184.464 2.9879 184.06 3.13013C183.68 3.24892 183.319 3.46076 182.976 3.76566C182.682 4.02368 182.464 4.39769 182.321 4.88771C182.202 5.37758 182.124 5.94871 182.089 6.60111C182.074 6.88071 182.059 7.17196 182.043 7.47486C182.051 7.75431 182.058 8.05707 182.064 8.38313Z" fill="black"/>
</svg>
