<svg width="116" height="18" viewBox="0 0 116 18" fill="none" xmlns="http://www.w3.org/2000/svg">
<path d="M13.0469 7.32422C13.0469 7.42839 13.0208 7.52604 12.9688 7.61719C12.8255 7.8125 12.4479 7.94271 11.8359 8.00781C8.00781 8.45052 4.98698 9.05599 2.77344 9.82422C2.79948 10.6706 2.89714 11.7057 3.06641 12.9297C3.14453 13.4375 3.23568 13.9453 3.33984 14.4531C3.43099 15.0651 3.47656 15.5794 3.47656 15.9961C3.47656 16.3216 3.28125 16.5951 2.89062 16.8164C2.5651 16.9857 2.22656 17.0703 1.875 17.0703C1.48438 17.0703 1.23047 16.9336 1.11328 16.6602C0.996094 16.3867 0.898438 14.2839 0.820312 10.3516C0.273438 10.2083 0 9.77214 0 9.04297C0 8.40495 0.247396 8.02734 0.742188 7.91016C0.664062 5.76172 0.625 4.38802 0.625 3.78906C0.625 3.16406 0.63151 2.8125 0.644531 2.73438C0.696615 2.34375 0.859375 2.05078 1.13281 1.85547C1.26302 1.73828 1.59505 1.60156 2.12891 1.44531C3.82161 0.924479 4.79167 0.63151 5.03906 0.566406C5.96354 0.358073 6.97917 0.253906 8.08594 0.253906C8.8151 0.253906 9.3099 0.279948 9.57031 0.332031C10.0521 0.436198 10.4622 0.683594 10.8008 1.07422C11.1523 1.45182 11.3281 1.80339 11.3281 2.12891C11.3281 2.58464 10.9245 2.84505 10.1172 2.91016C8.20312 3.06641 6.96615 3.19661 6.40625 3.30078C5.35156 3.49609 4.15365 3.88021 2.8125 4.45312C2.76042 5.40365 2.73438 6.33464 2.73438 7.24609C5.5599 6.38672 8.11849 5.95703 10.4102 5.95703C10.8398 5.95703 11.1784 5.97656 11.4258 6.01562C11.7513 6.06771 12.1029 6.23047 12.4805 6.50391C12.8581 6.76432 13.0469 7.03776 13.0469 7.32422ZM28.5391 15.6445C28.5391 15.9701 28.3633 16.2305 28.0117 16.4258C27.6602 16.6211 27.3086 16.7188 26.957 16.7188C26.5534 16.7188 26.293 16.5755 26.1758 16.2891C26.1367 16.1979 26.0977 15.3255 26.0586 13.6719C24.9388 14.3099 23.4609 14.9544 21.625 15.6055C19.5807 16.3216 18.0638 16.6797 17.0742 16.6797C16.3711 16.6797 16.0195 16.2956 16.0195 15.5273C16.0195 15.4362 16.026 15.2734 16.0391 15.0391C16.0521 14.8307 16.0521 14.668 16.0391 14.5508V14.3164C16.026 13.3138 15.9544 11.5234 15.8242 8.94531C15.7201 6.67969 15.668 4.89583 15.668 3.59375C15.668 2.5651 15.7461 1.875 15.9023 1.52344C16.1628 0.963542 16.7487 0.683594 17.6602 0.683594C18.194 0.683594 18.4609 0.872396 18.4609 1.25C18.4609 1.19792 18.3828 1.89453 18.2266 3.33984C18.0443 4.92839 17.9531 7.18099 17.9531 10.0977C17.9531 12.2852 18.0638 13.4766 18.2852 13.6719C18.3633 13.737 18.487 13.7695 18.6562 13.7695C19.2682 13.7695 20.4857 13.4049 22.3086 12.6758C23.7409 12.0898 24.9518 11.543 25.9414 11.0352C25.7982 7.98828 25.7266 5.48177 25.7266 3.51562C25.7266 2.57812 25.8047 1.92708 25.9609 1.5625C26.2214 0.963542 26.7682 0.664062 27.6016 0.664062C28.2135 0.664062 28.5195 0.859375 28.5195 1.25C28.5195 1.61458 28.487 2.07031 28.4219 2.61719C28.3177 3.42448 28.2591 3.8737 28.2461 3.96484C28.0898 5.5013 28.0117 7.26562 28.0117 9.25781C28.0117 10.651 28.1094 12.0898 28.3047 13.5742C28.4609 14.8372 28.5391 15.5273 28.5391 15.6445ZM46.2383 0.761719C46.2383 0.878906 46.1797 1.25651 46.0625 1.89453C45.5417 4.64193 45.2812 7.59115 45.2812 10.7422C45.2812 11.9271 45.3138 12.9297 45.3789 13.75C45.3919 13.8932 45.431 14.1602 45.4961 14.5508C45.5482 14.8763 45.5742 15.1432 45.5742 15.3516C45.5742 16.1979 45.0078 16.6211 43.875 16.6211C43.3932 16.6211 43.1654 16.4844 43.1914 16.2109L34.3438 6.21094C34.2656 7.47396 34.2266 8.67839 34.2266 9.82422C34.2266 11.8945 34.3177 13.6068 34.5 14.9609C34.513 15.0391 34.5651 15.2995 34.6562 15.7422C34.7214 16.0677 34.7539 16.3346 34.7539 16.543C34.7539 16.8555 34.5586 17.1159 34.168 17.3242C33.8294 17.5195 33.4974 17.6172 33.1719 17.6172C32.7552 17.6172 32.4948 17.4609 32.3906 17.1484C32.3255 16.9922 32.2344 14.974 32.1172 11.0938C32 7.5 31.9414 5.35156 31.9414 4.64844C31.9414 3.47656 31.9935 2.76042 32.0977 2.5C32.332 1.88802 32.9375 1.58203 33.9141 1.58203C34.2526 1.58203 34.5 1.67318 34.6562 1.85547L43.2695 11.875C43.2826 11.4323 43.3607 9.66146 43.5039 6.5625C43.543 5.67708 43.5755 4.77865 43.6016 3.86719C43.6536 2.8125 43.7383 1.92057 43.8555 1.19141C43.9596 0.397135 44.526 0 45.5547 0C46.0104 0 46.2383 0.253906 46.2383 0.761719ZM64.4062 7.20703C64.4062 9.65495 63.2018 11.7513 60.793 13.4961C58.8789 14.8893 56.5417 15.8594 53.7812 16.4062C53.2995 16.4844 52.5833 16.6211 51.6328 16.8164C50.8776 16.9987 50.5 17.0898 50.5 17.0898C50.2786 17.0898 50.1029 16.9661 49.9727 16.7188C49.8555 16.4714 49.7318 13.1706 49.6016 6.81641C49.3542 6.51693 49.2305 6.15885 49.2305 5.74219C49.2305 5.36458 49.3672 4.98698 49.6406 4.60938C49.7708 4.4401 50.0573 4.14062 50.5 3.71094C52.7786 1.51042 55.181 0.410156 57.707 0.410156C59.569 0.410156 61.151 1.08073 62.4531 2.42188C63.7552 3.75 64.4062 5.34505 64.4062 7.20703ZM61.7891 7.87109C61.7891 6.47786 61.2812 5.30599 60.2656 4.35547C59.25 3.39193 58.0456 2.91016 56.6523 2.91016C54.9206 2.91016 53.2474 3.67188 51.6328 5.19531C51.5807 6.10677 51.5547 7.01823 51.5547 7.92969C51.5547 10.1823 51.724 12.3568 52.0625 14.4531C54.4974 14.2188 56.5742 13.6654 58.293 12.793C60.6237 11.5951 61.7891 9.95443 61.7891 7.87109ZM80.5039 7.26562C80.5039 7.61719 80.0612 7.84505 79.1758 7.94922C74.8529 8.44401 71.5586 9.06901 69.293 9.82422C69.3451 11.4779 69.4948 13.0794 69.7422 14.6289C70.9661 14.6289 72.3724 14.4727 73.9609 14.1602C75.3542 13.8607 76.7474 13.5547 78.1406 13.2422C78.375 13.1901 78.5703 13.1641 78.7266 13.1641C79.2604 13.1641 79.5273 13.3919 79.5273 13.8477C79.5273 14.1471 79.4232 14.4596 79.2148 14.7852C79.0195 15.0977 78.7917 15.3255 78.5312 15.4688C77.4375 16.0938 75.9466 16.582 74.0586 16.9336C72.444 17.207 70.8555 17.3438 69.293 17.3438C68.4987 17.3438 67.9714 17.1289 67.7109 16.6992C67.5547 16.4258 67.4245 14.2904 67.3203 10.293C66.7734 10.0977 66.5 9.68099 66.5 9.04297C66.5 8.45703 66.7474 8.06641 67.2422 7.87109H67.2617C67.1706 6.54297 67.125 5.14323 67.125 3.67188C67.125 3.03385 67.138 2.69531 67.1641 2.65625C67.2161 2.27865 67.3724 1.99219 67.6328 1.79688C67.763 1.67969 68.0951 1.54297 68.6289 1.38672C69.4753 1.1263 70.3151 0.859375 71.1484 0.585938C72.125 0.325521 72.9974 0.195312 73.7656 0.195312H74.5859C75.3021 0.182292 75.7969 0.208333 76.0703 0.273438C76.5521 0.377604 76.9622 0.625 77.3008 1.01562C77.6523 1.40625 77.8281 1.76432 77.8281 2.08984C77.8281 2.53255 77.431 2.78646 76.6367 2.85156C74.6706 3.02083 73.4271 3.15104 72.9062 3.24219C71.8776 3.4375 70.6862 3.82161 69.332 4.39453C69.2669 5.29297 69.2344 6.24349 69.2344 7.24609C72.3333 6.33464 75.1263 5.87891 77.6133 5.87891C78.0951 5.87891 78.4727 5.90495 78.7461 5.95703C79.0846 5.99609 79.4492 6.13932 79.8398 6.38672C80.2826 6.6862 80.5039 6.97917 80.5039 7.26562ZM98.1641 7.20703C98.1641 9.65495 96.9596 11.7513 94.5508 13.4961C92.6367 14.8893 90.2995 15.8594 87.5391 16.4062C87.0573 16.4844 86.3411 16.6211 85.3906 16.8164C84.6354 16.9987 84.2578 17.0898 84.2578 17.0898C84.0365 17.0898 83.8607 16.9661 83.7305 16.7188C83.6133 16.4714 83.4896 13.1706 83.3594 6.81641C83.112 6.51693 82.9883 6.15885 82.9883 5.74219C82.9883 5.36458 83.125 4.98698 83.3984 4.60938C83.5286 4.4401 83.8151 4.14062 84.2578 3.71094C86.5365 1.51042 88.9388 0.410156 91.4648 0.410156C93.3268 0.410156 94.9089 1.08073 96.2109 2.42188C97.513 3.75 98.1641 5.34505 98.1641 7.20703ZM95.5469 7.87109C95.5469 6.47786 95.0391 5.30599 94.0234 4.35547C93.0078 3.39193 91.8034 2.91016 90.4102 2.91016C88.6784 2.91016 87.0052 3.67188 85.3906 5.19531C85.3385 6.10677 85.3125 7.01823 85.3125 7.92969C85.3125 10.1823 85.4818 12.3568 85.8203 14.4531C88.2552 14.2188 90.332 13.6654 92.0508 12.793C94.3815 11.5951 95.5469 9.95443 95.5469 7.87109ZM101.098 13.5742C101.098 13.7565 101.013 14.2318 100.844 15C100.674 15.7682 100.551 16.237 100.473 16.4062C100.329 16.7448 99.9779 16.9141 99.418 16.9141C98.806 16.9141 98.5 16.7057 98.5 16.2891C98.5 15.1823 98.5586 14.3164 98.6758 13.6914C98.7409 13.3268 99.1771 13.1445 99.9844 13.1445C100.727 13.1445 101.098 13.2878 101.098 13.5742ZM108.328 13.5742C108.328 13.7565 108.243 14.2318 108.074 15C107.905 15.7682 107.781 16.237 107.703 16.4062C107.56 16.7448 107.208 16.9141 106.648 16.9141C106.036 16.9141 105.73 16.7057 105.73 16.2891C105.73 15.1823 105.789 14.3164 105.906 13.6914C105.971 13.3268 106.408 13.1445 107.215 13.1445C107.957 13.1445 108.328 13.2878 108.328 13.5742ZM115.559 13.5742C115.559 13.7565 115.474 14.2318 115.305 15C115.135 15.7682 115.012 16.237 114.934 16.4062C114.79 16.7448 114.439 16.9141 113.879 16.9141C113.267 16.9141 112.961 16.7057 112.961 16.2891C112.961 15.1823 113.02 14.3164 113.137 13.6914C113.202 13.3268 113.638 13.1445 114.445 13.1445C115.188 13.1445 115.559 13.2878 115.559 13.5742Z" fill="black"/>
</svg>
