<svg width="101" height="29" viewBox="0 0 101 29" fill="none" xmlns="http://www.w3.org/2000/svg">
<path d="M4.12145 24.1075C4.13058 24.1838 4.14771 24.3268 4.17284 24.5366C4.19568 24.7273 4.2292 24.9264 4.2734 25.1339C4.31759 25.3413 4.34997 25.5309 4.37052 25.7025C4.41015 25.8718 4.44903 25.9542 4.48717 25.9497C4.64191 26.434 4.62085 26.8234 4.42399 27.1178C4.22714 27.4122 3.9857 27.5765 3.69966 27.6108C3.5471 27.629 3.38045 27.6103 3.19969 27.5546C3.03571 27.4775 2.89463 27.3493 2.77645 27.1701C2.66054 27.0099 2.59499 26.7856 2.5798 26.4973C2.58139 26.1876 2.56391 25.8802 2.52737 25.5751C2.46113 25.0221 2.37468 24.4619 2.26801 23.8943C2.16135 23.3268 2.06536 22.7677 1.98005 22.217C1.93209 21.8165 1.88184 21.397 1.8293 20.9584C1.79355 20.4985 1.74941 20.0492 1.69687 19.6106C1.61921 18.9623 1.51523 18.3364 1.38493 17.7331C1.2737 17.1274 1.10868 16.5572 0.889889 16.0225C0.861683 15.9485 0.801845 15.7719 0.710375 15.4927C0.616621 15.1945 0.521725 14.8867 0.425687 14.5693C0.346433 14.2307 0.281283 13.929 0.230236 13.6643C0.198257 13.3973 0.218123 13.2402 0.289831 13.1929C0.264705 12.9832 0.34292 12.8287 0.524476 12.7296C0.706031 12.6305 0.914651 12.5958 1.15033 12.6256C1.40509 12.6531 1.65716 12.739 1.90654 12.8832C2.15593 13.0274 2.32522 13.2296 2.4144 13.4897C2.5318 13.8238 2.63354 14.1888 2.71965 14.5847C2.82483 14.9783 2.91093 15.3742 2.97797 15.7724C3.06407 16.1683 3.12883 16.5474 3.17222 16.9097C3.23241 17.2506 3.27735 17.5451 3.30704 17.793C3.33902 18.0599 3.44539 18.2213 3.62615 18.277C3.80462 18.3136 4.02963 18.335 4.30117 18.3412C4.45829 18.3611 4.61313 18.3619 4.76568 18.3436C4.91823 18.3253 5.07079 18.307 5.22334 18.2888C5.681 18.234 6.17452 18.1555 6.70389 18.0534C7.23097 17.9322 7.79009 17.8363 8.38123 17.7654C8.70313 17.7075 9.0132 17.6317 9.31146 17.538C9.60971 17.4442 9.88319 17.3051 10.1319 17.1205C10.2753 17.026 10.3619 16.8609 10.3917 16.6252C10.4192 16.3704 10.4147 16.0905 10.3782 15.7854C10.3256 15.3468 10.2327 14.8937 10.0993 14.4261C9.98268 13.9372 9.89886 13.5604 9.84782 13.2957C9.73658 12.69 9.71151 12.2385 9.77259 11.941C9.83139 11.6245 10.0183 11.4087 10.3334 11.2936C10.5172 11.2135 10.7067 11.1811 10.902 11.1964C11.0973 11.2117 11.2696 11.2781 11.4191 11.3956C11.5854 11.4918 11.7203 11.6497 11.824 11.8694C11.9254 12.07 11.9658 12.3263 11.9451 12.6382C12.022 13.4414 12.124 14.2126 12.2513 14.9517C12.3785 15.6909 12.508 16.4491 12.6398 17.2263C12.7182 17.7198 12.7822 18.2538 12.8316 18.8281C12.8979 19.3812 12.9653 19.9437 13.0338 20.5158C13.0955 21.0306 13.1655 21.5348 13.244 22.0283C13.3224 22.5219 13.4238 22.9643 13.548 23.3556C13.6182 23.618 13.6765 23.8625 13.7229 24.089C13.7862 24.2942 13.8304 24.5017 13.8555 24.7114C13.9149 25.2072 13.9057 25.6146 13.8278 25.9334C13.7476 26.2331 13.6324 26.4016 13.4822 26.439C12.8338 26.5167 12.404 26.4811 12.1928 26.3323C11.9983 26.1622 11.8504 25.9768 11.749 25.7762C11.7246 25.4116 11.7118 24.9005 11.7104 24.243C11.709 23.5855 11.6683 22.9231 11.5884 22.2557C11.5427 21.8743 11.4718 21.5249 11.3758 21.2076C11.2966 20.8689 11.1837 20.573 11.0373 20.3197C10.8696 20.0496 10.6583 19.9009 10.4036 19.8734C10.1488 19.8458 9.85212 19.8717 9.51345 19.951C9.00315 20.0508 8.36661 20.1464 7.60384 20.2377C6.85786 20.3077 6.14505 20.4125 5.46541 20.5519C5.05046 20.6403 4.72246 20.7279 4.48141 20.8148C4.24036 20.9017 4.06948 21.0093 3.96877 21.1374C3.86806 21.2655 3.82073 21.4356 3.82679 21.6476C3.83056 21.8406 3.86254 22.1076 3.92273 22.4485L4.12145 24.1075ZM23.0723 10.0288C23.2607 9.98687 23.4217 9.95792 23.5552 9.94193C23.7054 9.90459 23.8401 9.89813 23.959 9.92256C24.0971 9.94471 24.229 9.99661 24.3549 10.0783C24.4784 10.1408 24.6279 10.2583 24.8033 10.4307C25 10.6199 25.1205 10.8183 25.1647 11.0258C25.2066 11.2142 25.17 11.3926 25.0548 11.5612C24.9563 11.7084 24.758 11.8288 24.4597 11.9226C24.1615 12.0164 23.7588 12.0453 23.2515 12.0093C23.0372 11.9963 22.7191 12.0054 22.2973 12.0365C21.8923 12.0464 21.461 12.0787 21.0033 12.1335C20.5647 12.1861 20.1284 12.2577 19.6944 12.3483C19.2581 12.4199 18.8645 12.5251 18.5136 12.6639C18.1604 12.7835 17.869 12.9345 17.6394 13.1167C17.4265 13.2776 17.3243 13.4736 17.3326 13.7048C17.3348 14.2074 17.3553 14.6208 17.3941 14.945C17.4467 15.3836 17.5988 15.6845 17.8504 15.8478C18.0998 15.992 18.5964 16.0196 19.3401 15.9305C19.7024 15.8871 20.1864 15.8098 20.792 15.6986C21.4167 15.585 22.0533 15.4895 22.7016 15.4118C23.3881 15.3296 24.0326 15.3007 24.6352 15.3253C25.2355 15.3307 25.6565 15.4544 25.8982 15.6962C26.1827 15.9716 26.3363 16.2047 26.3592 16.3954C26.398 16.7196 26.1264 16.9552 25.5444 17.1023C24.9624 17.2494 24.2519 17.3732 23.4128 17.4737C22.8026 17.5468 22.184 17.6305 21.557 17.725C20.9277 17.8003 20.3518 17.9177 19.8293 18.077C19.3045 18.2172 18.8735 18.4139 18.5363 18.6671C18.2182 18.918 18.064 19.2459 18.0739 19.6509C18.0822 19.882 18.0928 20.1322 18.1058 20.4015C18.1187 20.6707 18.1411 20.9388 18.1731 21.2058C18.2119 21.53 18.2687 21.8423 18.3434 22.1429C18.4371 22.4411 18.5549 22.6978 18.6967 22.913C18.8553 23.1067 19.0452 23.2387 19.2664 23.3089C19.5067 23.3769 19.7927 23.3426 20.1245 23.2062C20.7523 22.9569 21.4346 22.7591 22.1715 22.6128C22.9251 22.4452 23.6833 22.3156 24.4461 22.2243L25.3042 22.1215C25.8595 22.0743 26.3331 22.153 26.7252 22.3575C27.1172 22.562 27.3292 22.7977 27.3611 23.0647C27.384 23.2554 27.2806 23.4419 27.051 23.6241C26.8381 23.785 26.4457 23.8997 25.8736 23.9682C25.0345 24.0687 24.1631 24.2215 23.2592 24.4265C22.353 24.6124 21.5086 24.8296 20.7259 25.0781C20.2416 25.2328 19.7534 25.4364 19.2613 25.6887C18.7884 25.9388 18.3517 26.0878 17.9512 26.1358C17.5889 26.1792 17.2689 26.0918 16.9913 25.8736C16.7138 25.6554 16.503 25.1874 16.3589 24.4696C16.3102 24.224 16.2626 23.9879 16.2161 23.7614C16.1887 23.5325 16.1601 23.2942 16.1304 23.0463C16.0231 22.15 15.9432 21.2408 15.8907 20.3186C15.8574 19.3942 15.7859 18.4743 15.6762 17.559C15.6283 17.1585 15.5719 16.7687 15.5072 16.3896C15.4401 15.9915 15.3552 15.6051 15.2523 15.2306C15.1959 15.0826 15.1242 14.8881 15.0373 14.647C14.9481 14.3869 14.8566 14.1077 14.7629 13.8095C14.6691 13.5112 14.5849 13.2118 14.5102 12.9113C14.4356 12.6107 14.3822 12.327 14.3502 12.06C14.3 11.6405 14.3302 11.3274 14.4408 11.1207C14.566 10.8736 14.7956 10.6914 15.1297 10.574C15.4615 10.4375 15.8563 10.3419 16.3139 10.287C16.8288 10.2254 17.3959 10.1961 18.0153 10.1993C18.6346 10.2025 19.254 10.2057 19.8733 10.2089C20.4736 10.2143 21.0441 10.2137 21.5849 10.2069C22.1425 10.1788 22.6383 10.1195 23.0723 10.0288ZM29.5852 18.214L29.3659 16.3834C29.2997 15.8304 29.2262 15.2976 29.1454 14.785C29.0815 14.2511 29.0026 13.835 28.9089 13.5367C28.7359 12.8998 28.5472 12.2937 28.3429 11.7186C28.1386 11.1434 28.0091 10.627 27.9543 10.1694C27.9086 9.78798 27.9376 9.46534 28.0414 9.20146C28.1643 8.93528 28.4107 8.73168 28.7807 8.59065C29.2078 8.44277 29.6956 8.31664 30.2441 8.21226C30.8093 8.08653 31.3684 7.99054 31.9214 7.9243C32.1884 7.89232 32.4374 7.87216 32.6685 7.86382C32.8974 7.83641 33.1273 7.81854 33.3585 7.8102C34.1304 7.79511 34.8302 7.90471 35.4579 8.13901C36.0855 8.37331 36.627 8.69531 37.0823 9.105C37.5376 9.51469 37.9044 9.99301 38.1826 10.54C38.4609 11.0869 38.6366 11.6655 38.7097 12.2757C38.7988 13.0194 38.7258 13.7825 38.4907 14.5651C38.2724 15.3262 37.8638 16.0328 37.2649 16.6849C36.9414 17.0524 36.6458 17.3296 36.378 17.5164C36.127 17.6819 36.0141 17.8695 36.0392 18.0793C36.0575 18.2318 36.1662 18.4122 36.3652 18.6205C36.5642 18.8288 36.8773 19.1008 37.3043 19.4365C37.6033 19.6715 37.8454 19.8359 38.0307 19.9298C38.2329 20.0023 38.499 20.1251 38.8293 20.2983C39.2853 20.5532 39.7071 20.7638 40.0945 20.9302C40.501 21.0942 40.7203 21.3098 40.7523 21.5767C40.7705 21.7293 40.698 21.9314 40.5348 22.1831C40.3905 22.4325 40.0785 22.6536 39.5987 22.8465C39.4149 22.9265 39.1697 22.8979 38.8631 22.7605C38.5565 22.6231 38.2262 22.4499 37.8724 22.2408C37.5376 22.0295 37.2016 21.8086 36.8645 21.5782C36.5465 21.3455 36.283 21.1643 36.0741 21.0346C35.9101 20.9575 35.6737 20.8407 35.3648 20.6843C35.0727 20.5065 34.7425 20.3333 34.3741 20.1647C33.5184 19.8029 32.9189 19.6426 32.5756 19.6837C32.1752 19.7317 32.0081 20.0322 32.0743 20.5852C32.104 20.8331 32.1951 21.1897 32.3475 21.655C32.5 22.1203 32.5968 22.5246 32.6379 22.8678C32.6904 23.3064 32.6171 23.6634 32.418 23.9387C32.2165 24.1949 31.8016 24.2833 31.1731 24.2039C30.8375 24.1474 30.5855 23.8197 30.417 23.2209C30.2654 22.6008 30.1439 21.9093 30.0525 21.1465L29.9326 20.1454C29.8869 19.764 29.834 19.4028 29.7738 19.0619C29.7327 18.7186 29.6698 18.436 29.5852 18.214ZM31.1431 14.7488C31.2361 15.2019 31.3557 15.5551 31.5021 15.8084C31.6462 16.0426 31.8121 16.2161 31.9997 16.329C32.1873 16.442 32.3883 16.5049 32.6026 16.518C32.8337 16.5096 33.0816 16.4799 33.3463 16.4289C33.7994 16.3359 34.1655 16.2437 34.4447 16.1522C34.7407 16.0394 34.9772 15.9144 35.1542 15.7771C35.3502 15.6376 35.5059 15.4835 35.6211 15.315C35.7531 15.1251 35.9018 14.9138 36.0674 14.6812C36.3459 14.261 36.5313 13.8713 36.6237 13.5121C36.7161 13.1528 36.7428 12.8111 36.704 12.4869C36.6538 12.0674 36.5032 11.6986 36.2523 11.3805C36.0182 11.041 35.7243 10.7667 35.3704 10.5577C35.0333 10.3272 34.6565 10.1693 34.2401 10.0838C33.8214 9.97917 33.4118 9.95086 33.0113 9.99883C32.6681 10.0399 32.3412 10.1371 32.0307 10.2904C31.7371 10.4223 31.4716 10.6281 31.2343 10.908C31.0306 11.1452 30.9051 11.4697 30.8577 11.8816C30.8294 12.2912 30.8472 12.7629 30.9111 13.2969C30.9386 13.5257 30.9671 13.7641 30.9968 14.012C31.0433 14.2385 31.092 14.4841 31.1431 14.7488ZM49.5811 6.85349C49.7695 6.81158 49.9305 6.78263 50.064 6.76664C50.2142 6.7293 50.3489 6.72284 50.4679 6.74728C50.6059 6.76943 50.7379 6.82132 50.8637 6.90296C50.9872 6.96553 51.1367 7.08303 51.3121 7.25545C51.5089 7.44465 51.6293 7.64299 51.6735 7.85047C51.7154 8.03888 51.6788 8.21735 51.5636 8.3859C51.4651 8.53308 51.2668 8.65356 50.9686 8.74731C50.6703 8.84107 50.2676 8.86996 49.7603 8.83401C49.546 8.82099 49.2279 8.83008 48.8061 8.86126C48.4011 8.87109 47.9698 8.90341 47.5121 8.95823C47.0735 9.01077 46.6372 9.08237 46.2032 9.17305C45.7669 9.24465 45.3733 9.34983 45.0224 9.48857C44.6692 9.60825 44.3778 9.75921 44.1482 9.94146C43.9353 10.1024 43.8331 10.2984 43.8414 10.5295C43.8436 11.0321 43.8641 11.4455 43.9029 11.7697C43.9555 12.2083 44.1076 12.5092 44.3593 12.6725C44.6086 12.8167 45.1052 12.8443 45.8489 12.7552C46.2112 12.7118 46.6952 12.6345 47.3008 12.5233C47.9255 12.4098 48.5621 12.3142 49.2104 12.2365C49.8969 12.1543 50.5415 12.1254 51.144 12.15C51.7443 12.1554 52.1653 12.2791 52.4071 12.5209C52.6915 12.7964 52.8451 13.0294 52.868 13.2201C52.9068 13.5443 52.6352 13.7799 52.0532 13.927C51.4712 14.0741 50.7607 14.1979 49.9216 14.2984C49.3114 14.3715 48.6928 14.4552 48.0658 14.5497C47.4365 14.6251 46.8606 14.7424 46.3381 14.9017C45.8133 15.0419 45.3823 15.2386 45.0451 15.4918C44.727 15.7427 44.5729 16.0706 44.5827 16.4756C44.591 16.7068 44.6017 16.9569 44.6146 17.2262C44.6275 17.4954 44.6499 17.7636 44.6819 18.0305C44.7207 18.3547 44.7775 18.6671 44.8522 18.9676C44.9459 19.2659 45.0637 19.5225 45.2055 19.7377C45.3641 19.9314 45.554 20.0634 45.7752 20.1337C46.0155 20.2016 46.3015 20.1673 46.6333 20.0309C47.2611 19.7816 47.9435 19.5838 48.6803 19.4375C49.4339 19.2699 50.1921 19.1404 50.9549 19.049L51.813 18.9462C52.3683 18.899 52.842 18.9777 53.234 19.1822C53.626 19.3867 53.838 19.6224 53.8699 19.8894C53.8928 20.0801 53.7894 20.2666 53.5598 20.4488C53.3469 20.6097 52.9545 20.7244 52.3824 20.7929C51.5433 20.8934 50.6719 21.0462 49.768 21.2512C48.8618 21.4371 48.0174 21.6543 47.2347 21.9028C46.7504 22.0575 46.2622 22.2611 45.7701 22.5134C45.2972 22.7635 44.8605 22.9125 44.46 22.9605C44.0977 23.0039 43.7777 22.9165 43.5002 22.6983C43.2226 22.4801 43.0118 22.0121 42.8678 21.2943C42.819 21.0487 42.7714 20.8126 42.7249 20.5861C42.6975 20.3572 42.6689 20.1189 42.6392 19.871C42.5319 18.9747 42.452 18.0655 42.3996 17.1433C42.3662 16.2189 42.2947 15.299 42.1851 14.3837C42.1371 13.9832 42.0807 13.5934 42.016 13.2143C41.9489 12.8162 41.864 12.4298 41.7611 12.0553C41.7047 11.9073 41.633 11.7128 41.5461 11.4717C41.4569 11.2116 41.3655 10.9324 41.2717 10.6342C41.1779 10.3359 41.0937 10.0365 41.019 9.73599C40.9444 9.43545 40.891 9.15169 40.8591 8.88473C40.8088 8.4652 40.839 8.1521 40.9496 7.94542C41.0748 7.69832 41.3044 7.51607 41.6385 7.39868C41.9703 7.26222 42.3651 7.16657 42.8227 7.11176C43.3376 7.05008 43.9047 7.02084 44.5241 7.02402C45.1434 7.02721 45.7628 7.03039 46.3821 7.03357C46.9824 7.03904 47.5529 7.0384 48.0937 7.03165C48.6513 7.00355 49.1471 6.94416 49.5811 6.85349ZM63.073 5.2374C63.2614 5.19549 63.4223 5.16654 63.5558 5.15055C63.7061 5.11321 63.8407 5.10676 63.9597 5.13119C64.0977 5.15334 64.2297 5.20524 64.3555 5.28688C64.4791 5.34945 64.6286 5.46694 64.8039 5.63936C65.0007 5.82857 65.1212 6.02691 65.1654 6.23438C65.2073 6.42279 65.1706 6.60127 65.0554 6.76981C64.957 6.917 64.7586 7.03747 64.4604 7.13123C64.1621 7.22498 63.7594 7.25388 63.2522 7.21792C63.0378 7.20491 62.7198 7.21399 62.298 7.24517C61.893 7.255 61.4616 7.28733 61.0039 7.34215C60.5654 7.39468 60.129 7.46629 59.695 7.55696C59.2587 7.62857 58.8651 7.73374 58.5142 7.87249C58.161 7.99216 57.8696 8.14312 57.64 8.32537C57.4272 8.48627 57.3249 8.68227 57.3333 8.91339C57.3354 9.41604 57.356 9.82945 57.3948 10.1536C57.4473 10.5922 57.5994 10.8932 57.8511 11.0564C58.1005 11.2007 58.597 11.2282 59.3407 11.1391C59.703 11.0957 60.187 11.0184 60.7927 10.9072C61.4174 10.7937 62.0539 10.6981 62.7023 10.6204C63.3888 10.5382 64.0333 10.5093 64.6359 10.5339C65.2361 10.5394 65.6571 10.663 65.8989 10.9049C66.1833 11.1803 66.337 11.4133 66.3598 11.604C66.3987 11.9282 66.1271 12.1638 65.5451 12.3109C64.963 12.458 64.2525 12.5818 63.4135 12.6823C62.8033 12.7554 62.1846 12.8392 61.5576 12.9336C60.9284 13.009 60.3525 13.1263 59.8299 13.2856C59.3051 13.4258 58.8742 13.6225 58.537 13.8757C58.2188 14.1266 58.0647 14.4545 58.0745 14.8596C58.0829 15.0907 58.0935 15.3409 58.1064 15.6101C58.1193 15.8794 58.1418 16.1475 58.1737 16.4144C58.2126 16.7386 58.2693 17.051 58.344 17.3515C58.4378 17.6498 58.5555 17.9065 58.6974 18.1216C58.856 18.3154 59.0459 18.4474 59.2671 18.5176C59.5073 18.5855 59.7934 18.5512 60.1252 18.4148C60.753 18.1655 61.4353 17.9677 62.1721 17.8214C62.9258 17.6538 63.684 17.5243 64.4467 17.4329L65.3049 17.3301C65.8601 17.283 66.3338 17.3616 66.7258 17.5661C67.1178 17.7706 67.3298 18.0064 67.3618 18.2733C67.3846 18.464 67.2812 18.6505 67.0516 18.8327C66.8388 18.9936 66.4463 19.1083 65.8742 19.1769C65.0352 19.2774 64.1637 19.4301 63.2598 19.6351C62.3536 19.821 61.5092 20.0382 60.7266 20.2867C60.2422 20.4414 59.754 20.645 59.262 20.8973C58.789 21.1474 58.3523 21.2965 57.9519 21.3444C57.5895 21.3878 57.2696 21.3004 56.992 21.0822C56.7144 20.864 56.5036 20.396 56.3596 19.6782C56.3108 19.4326 56.2632 19.1965 56.2167 18.97C56.1893 18.7412 56.1608 18.5028 56.1311 18.2549C56.0237 17.3586 55.9438 16.4494 55.8914 15.5273C55.858 14.6028 55.7865 13.6829 55.6769 12.7676C55.6289 12.3671 55.5726 11.9774 55.5078 11.5983C55.4408 11.2001 55.3558 10.8137 55.2529 10.4392C55.1965 10.2912 55.1249 10.0967 55.038 9.85565C54.9488 9.59553 54.8573 9.31635 54.7635 9.01809C54.6698 8.71984 54.5856 8.42044 54.5109 8.1199C54.4362 7.81936 54.3829 7.53561 54.3509 7.26864C54.3006 6.84912 54.3308 6.53602 54.4415 6.32934C54.5666 6.08223 54.7962 5.89998 55.1304 5.78259C55.4622 5.64613 55.8569 5.55049 56.3146 5.49567C56.8295 5.434 57.3966 5.40475 58.0159 5.40794C58.6353 5.41112 59.2546 5.41431 59.874 5.41749C60.4743 5.42296 61.0448 5.42232 61.5856 5.41557C62.1432 5.38747 62.639 5.32808 63.073 5.2374ZM76.5648 3.62132C76.7532 3.57941 76.9142 3.55046 77.0477 3.53447C77.1979 3.49713 77.3325 3.49067 77.4515 3.51511C77.5896 3.53726 77.7215 3.58915 77.8474 3.67079C77.9709 3.73336 78.1204 3.85086 78.2958 4.02328C78.4925 4.21248 78.613 4.41082 78.6572 4.6183C78.6991 4.80671 78.6625 4.98518 78.5472 5.15373C78.4488 5.30092 78.2505 5.42139 77.9522 5.51514C77.654 5.6089 77.2512 5.63779 76.744 5.60184C76.5297 5.58882 76.2116 5.59791 75.7898 5.62909C75.3848 5.63892 74.9534 5.67124 74.4958 5.72606C74.0572 5.7786 73.6209 5.8502 73.1869 5.94088C72.7506 6.01248 72.357 6.11766 72.0061 6.2564C71.6529 6.37608 71.3615 6.52704 71.1319 6.70929C70.919 6.87018 70.8168 7.06619 70.8251 7.2973C70.8273 7.79995 70.8478 8.21337 70.8866 8.53754C70.9392 8.97614 71.0913 9.27707 71.3429 9.44035C71.5923 9.58457 72.0889 9.61213 72.8326 9.52305C73.1949 9.47965 73.6789 9.40234 74.2845 9.2911C74.9092 9.17759 75.5458 9.082 76.1941 9.00434C76.8806 8.92211 77.5251 8.89326 78.1277 8.9178C78.728 8.92327 79.149 9.04692 79.3907 9.28877C79.6752 9.56418 79.8288 9.79723 79.8517 9.98793C79.8905 10.3121 79.6189 10.5477 79.0369 10.6948C78.4549 10.8419 77.7444 10.9657 76.9053 11.0662C76.2951 11.1393 75.6765 11.2231 75.0495 11.3175C74.4202 11.3929 73.8443 11.5102 73.3218 11.6695C72.797 11.8098 72.366 12.0065 72.0288 12.2596C71.7107 12.5105 71.5565 12.8384 71.5664 13.2435C71.5747 13.4746 71.5853 13.7248 71.5982 13.994C71.6111 14.2633 71.6336 14.5314 71.6656 14.7984C71.7044 15.1225 71.7612 15.4349 71.8358 15.7354C71.9296 16.0337 72.0474 16.2904 72.1892 16.5055C72.3478 16.6993 72.5377 16.8313 72.7589 16.9015C72.9992 16.9694 73.2852 16.9352 73.617 16.7987C74.2448 16.5494 74.9271 16.3516 75.664 16.2053C76.4176 16.0377 77.1758 15.9082 77.9386 15.8168L78.7967 15.714C79.352 15.6669 79.8256 15.7455 80.2176 15.95C80.6097 16.1545 80.8216 16.3903 80.8536 16.6572C80.8765 16.8479 80.7731 17.0344 80.5434 17.2166C80.3306 17.3775 79.9381 17.4922 79.3661 17.5608C78.527 17.6613 77.6556 17.814 76.7516 18.019C75.8455 18.2049 75.0011 18.4221 74.2184 18.6706C73.734 18.8253 73.2458 19.0289 72.7538 19.2813C72.2809 19.5313 71.8441 19.6804 71.4437 19.7283C71.0814 19.7717 70.7614 19.6843 70.4838 19.4661C70.2062 19.2479 69.9954 18.7799 69.8514 18.0621C69.8027 17.8165 69.755 17.5805 69.7086 17.3539C69.6812 17.1251 69.6526 16.8867 69.6229 16.6388C69.5156 15.7426 69.4357 14.8333 69.3832 13.9112C69.3499 12.9867 69.2784 12.0668 69.1687 11.1515C69.1208 10.751 69.0644 10.3613 68.9996 9.98217C68.9326 9.584 68.8476 9.19765 68.7448 8.82312C68.6883 8.67513 68.6167 8.48061 68.5298 8.23957C68.4406 7.97945 68.3491 7.70026 68.2554 7.40201C68.1616 7.10375 68.0774 6.80436 68.0027 6.50382C67.928 6.20328 67.8747 5.91953 67.8427 5.65256C67.7925 5.23303 67.8227 4.91993 67.9333 4.71325C68.0585 4.46615 68.2881 4.2839 68.6222 4.16651C68.954 4.03005 69.3488 3.93441 69.8064 3.87959C70.3213 3.81791 70.8884 3.78867 71.5078 3.79185C72.1271 3.79504 72.7465 3.79822 73.3658 3.80141C73.9661 3.80687 74.5366 3.80623 75.0774 3.79948C75.635 3.77138 76.1308 3.71199 76.5648 3.62132ZM90.0567 2.00523C90.2451 1.96332 90.406 1.93437 90.5395 1.91838C90.6898 1.88104 90.8244 1.87459 90.9434 1.89902C91.0814 1.92117 91.2134 1.97307 91.3392 2.05471C91.4628 2.11728 91.6122 2.23477 91.7876 2.40719C91.9844 2.5964 92.1048 2.79474 92.149 3.00221C92.191 3.19062 92.1543 3.3691 92.0391 3.53764C91.9407 3.68483 91.7423 3.8053 91.4441 3.89906C91.1458 3.99281 90.7431 4.02171 90.2359 3.98575C90.0215 3.97274 89.7035 3.98182 89.2817 4.013C88.8766 4.02283 88.4453 4.05516 87.9876 4.10998C87.549 4.16251 87.1127 4.23412 86.6787 4.32479C86.2424 4.3964 85.8488 4.50157 85.4979 4.64032C85.1447 4.75999 84.8533 4.91095 84.6237 5.0932C84.4109 5.2541 84.3086 5.4501 84.3169 5.68121C84.3191 6.18387 84.3396 6.59728 84.3785 6.92146C84.431 7.36005 84.5831 7.66099 84.8348 7.82427C85.0842 7.96848 85.5807 7.99605 86.3244 7.90697C86.6867 7.86357 87.1707 7.78625 87.7763 7.67502C88.4011 7.5615 89.0376 7.46592 89.6859 7.38826C90.3724 7.30603 91.017 7.27718 91.6195 7.30172C92.2198 7.30718 92.6408 7.43084 92.8826 7.67268C93.167 7.9481 93.3207 8.18115 93.3435 8.37184C93.3823 8.69602 93.1107 8.93165 92.5287 9.07873C91.9467 9.22582 91.2362 9.34961 90.3972 9.45012C89.7869 9.52321 89.1683 9.60698 88.5413 9.70143C87.912 9.7768 87.3361 9.89414 86.8136 10.0534C86.2888 10.1937 85.8578 10.3904 85.5206 10.6435C85.2025 10.8944 85.0484 11.2224 85.0582 11.6274C85.0665 11.8585 85.0772 12.1087 85.0901 12.3779C85.103 12.6472 85.1254 12.9153 85.1574 13.1823C85.1962 13.5064 85.253 13.8188 85.3277 14.1193C85.4214 14.4176 85.5392 14.6743 85.6811 14.8894C85.8397 15.0832 86.0296 15.2152 86.2507 15.2854C86.491 15.3533 86.777 15.3191 87.1089 15.1826C87.7367 14.9333 88.419 14.7355 89.1558 14.5893C89.9095 14.4216 90.6677 14.2921 91.4304 14.2007L92.2885 14.098C92.8438 14.0508 93.3175 14.1294 93.7095 14.3339C94.1015 14.5384 94.3135 14.7742 94.3455 15.0412C94.3683 15.2318 94.2649 15.4183 94.0353 15.6006C93.8224 15.7615 93.43 15.8762 92.8579 15.9447C92.0189 16.0452 91.1474 16.1979 90.2435 16.4029C89.3373 16.5888 88.4929 16.806 87.7103 17.0545C87.2259 17.2093 86.7377 17.4128 86.2457 17.6652C85.7727 17.9153 85.336 18.0643 84.9355 18.1122C84.5732 18.1556 84.2533 18.0682 83.9757 17.85C83.6981 17.6318 83.4873 17.1638 83.3433 16.4461C83.2945 16.2004 83.2469 15.9644 83.2004 15.7378C83.173 15.509 83.1444 15.2706 83.1148 15.0227C83.0074 14.1265 82.9275 13.2173 82.8751 12.2951C82.8417 11.3706 82.7702 10.4507 82.6606 9.53541C82.6126 9.13496 82.5562 8.74518 82.4915 8.36608C82.4245 7.96791 82.3395 7.58156 82.2366 7.20703C82.1802 7.05904 82.1085 6.86453 82.0216 6.62348C81.9324 6.36336 81.841 6.08418 81.7472 5.78592C81.6535 5.48767 81.5692 5.18827 81.4946 4.88773C81.4199 4.58719 81.3665 4.30344 81.3346 4.03647C81.2843 3.61695 81.3145 3.30385 81.4252 3.09716C81.5503 2.85006 81.7799 2.66781 82.114 2.55042C82.4459 2.41396 82.8406 2.31832 83.2983 2.2635C83.8131 2.20183 84.3802 2.17258 84.9996 2.17577C85.6189 2.17895 86.2383 2.18214 86.8576 2.18532C87.4579 2.19079 88.0285 2.19015 88.5693 2.1834C89.1268 2.1553 89.6226 2.09591 90.0567 2.00523ZM96.4597 15.5713C96.3797 14.9039 96.4157 14.3966 96.5676 14.0496C96.7171 13.6835 96.954 13.4811 97.2782 13.4423C97.7358 13.3874 98.2575 13.6248 98.8432 14.1542C98.9736 14.274 99.0704 14.4365 99.1337 14.6417C99.2137 14.8255 99.264 15.0033 99.2846 15.1749C99.3166 15.4419 99.294 15.6573 99.217 15.8213C99.1376 15.9662 99.0155 16.0775 98.8508 16.1553C98.7074 16.2499 98.5308 16.3097 98.321 16.3348C98.1303 16.3577 97.9278 16.3626 97.7135 16.3496C97.4991 16.3365 97.2398 16.2709 96.9355 16.1526C96.648 16.013 96.4894 15.8192 96.4597 15.5713ZM98.4899 7.81342C98.4769 8.02775 98.5382 8.37825 98.6738 8.86491C98.8263 9.33022 98.9299 9.79171 98.9848 10.2494C99.0304 10.6308 99.0121 10.9618 98.9296 11.2425C98.8472 11.5231 98.626 11.6947 98.2659 11.7572C97.6221 11.873 97.1283 11.7871 96.7843 11.4994C96.4595 11.2095 96.2639 10.788 96.1977 10.235C96.1474 9.81552 96.1639 9.388 96.2471 8.95249C96.2914 8.67639 96.2839 8.29043 96.2245 7.79463C96.1819 7.27748 96.1241 6.7138 96.051 6.10358C95.9947 5.47201 95.9288 4.84159 95.8534 4.2123C95.7948 3.56167 95.7622 2.96595 95.7554 2.42516C95.7677 1.88209 95.8308 1.43933 95.9445 1.09688C96.075 0.733072 96.2833 0.534039 96.5693 0.499777C96.7409 0.479219 96.9492 0.521978 97.194 0.628052C97.4388 0.734127 97.7236 0.932122 98.0485 1.22204C98.1766 1.32275 98.2555 1.49705 98.2852 1.74495C98.3149 1.99285 98.3267 2.25257 98.3205 2.52411C98.3144 2.79564 98.2975 3.05879 98.27 3.31354C98.2402 3.54922 98.2238 3.73495 98.2207 3.87072C98.213 4.45193 98.2239 5.10828 98.2535 5.83976C98.2998 6.54989 98.3786 7.20778 98.4899 7.81342Z" fill="black"/>
</svg>
