<svg width="237" height="31" viewBox="0 0 237 31" fill="none" xmlns="http://www.w3.org/2000/svg">
<g filter="url(#filter0_d_559_808)">
<path d="M6.80444 18.9555C6.80286 19.0355 6.79989 19.1855 6.79554 19.4054C6.79158 19.6054 6.79742 19.8151 6.81306 20.0346C6.8287 20.254 6.83474 20.4538 6.83118 20.6337C6.84762 20.8132 6.87583 20.9024 6.91581 20.9015C7.0055 21.4189 6.9276 21.8206 6.68214 22.1063C6.43667 22.3921 6.16398 22.5387 5.86407 22.546C5.70411 22.5499 5.53495 22.514 5.35659 22.4384C5.19862 22.3423 5.07162 22.1955 4.97561 21.998C4.8792 21.8204 4.84396 21.5815 4.86989 21.281C4.91621 20.9601 4.94253 20.6397 4.94886 20.3198C4.96034 19.7399 4.95202 19.1505 4.9239 18.5516C4.89578 17.9527 4.87747 17.3635 4.86895 16.7841C4.87726 16.3642 4.88596 15.9243 4.89506 15.4644C4.92455 14.984 4.94385 14.5138 4.95295 14.0539C4.9664 13.374 4.94947 12.7149 4.90215 12.0765C4.87482 11.4376 4.78692 10.8301 4.63844 10.2541C4.62003 10.1746 4.5838 9.98565 4.52976 9.68716C4.4761 9.36869 4.42265 9.04021 4.3694 8.70174C4.33653 8.34278 4.31287 8.02357 4.29841 7.74411C4.30395 7.46417 4.34711 7.30323 4.42788 7.26129C4.43223 7.04133 4.53517 6.88893 4.73669 6.80408C4.93821 6.71923 5.15835 6.70388 5.39709 6.75803C5.65582 6.8117 5.90338 6.92559 6.13974 7.09972C6.37611 7.27385 6.52152 7.50015 6.57596 7.77864C6.64881 8.13662 6.70108 8.52509 6.73276 8.94403C6.78443 9.36249 6.81611 9.78143 6.82779 10.2009C6.85947 10.6198 6.87155 11.0192 6.86404 11.3992C6.87691 11.7586 6.88077 12.0683 6.87563 12.3283C6.87009 12.6082 6.9565 12.786 7.13486 12.8616C7.31362 12.9172 7.54257 12.9616 7.82169 12.9948C7.98085 13.0309 8.14041 13.047 8.30036 13.0431C8.46032 13.0392 8.62027 13.0353 8.78022 13.0314C9.26008 13.0197 9.78032 12.9871 10.3409 12.9335C10.902 12.8599 11.4924 12.8155 12.1122 12.8004C12.4525 12.7722 12.7832 12.7242 13.1043 12.6564C13.4254 12.5886 13.7275 12.4713 14.0105 12.3046C14.1721 12.2207 14.2852 12.058 14.3499 11.8166C14.4151 11.5552 14.4508 11.2645 14.4571 10.9446C14.4662 10.4847 14.4357 10.0058 14.3657 9.50781C14.316 8.98937 14.2839 8.59042 14.2694 8.31096C14.2421 7.67206 14.2814 7.20142 14.3873 6.89905C14.4936 6.57668 14.7175 6.37137 15.059 6.28311C15.2601 6.21826 15.4602 6.2034 15.6594 6.23852C15.8585 6.27365 16.0267 6.3595 16.1639 6.49607C16.3215 6.61215 16.4379 6.7892 16.5131 7.0272C16.5887 7.24522 16.5934 7.51492 16.5271 7.83632C16.4905 8.67664 16.4844 9.48624 16.509 10.2651C16.5335 11.044 16.5577 11.8429 16.5815 12.6617C16.5912 13.1811 16.5801 13.741 16.5482 14.3414C16.5368 14.9213 16.5251 15.5112 16.5132 16.111C16.5025 16.6509 16.502 17.1806 16.5118 17.7C16.5215 18.2194 16.5621 18.6881 16.6338 19.1061C16.6683 19.3851 16.6931 19.6443 16.7084 19.8837C16.744 20.1027 16.7596 20.3222 16.7553 20.5422C16.745 21.0621 16.6767 21.4834 16.5504 21.8063C16.4245 22.1091 16.2814 22.2725 16.121 22.2964C15.4412 22.3129 15.0031 22.2337 14.8068 22.0586C14.6308 21.863 14.505 21.6562 14.4293 21.4382C14.4569 21.0578 14.5173 20.5267 14.6108 19.8448C14.7042 19.163 14.7578 18.4722 14.7717 17.7723C14.7796 17.3724 14.7569 17.0032 14.7037 16.6647C14.6708 16.3058 14.5971 15.9878 14.4827 15.7108C14.3487 15.4142 14.1523 15.2391 13.8936 15.1855C13.6348 15.1318 13.3251 15.1293 12.9645 15.1781C12.4238 15.2312 11.7536 15.2675 10.9539 15.287C10.1745 15.2859 9.42431 15.3242 8.70334 15.4017C8.26268 15.4524 7.91179 15.5109 7.65068 15.5772C7.38957 15.6435 7.19785 15.7381 7.07551 15.861C6.95317 15.9839 6.87983 16.1556 6.85548 16.376C6.83153 16.5765 6.82599 16.8564 6.83886 17.2158L6.80444 18.9555ZM26.1515 17.2556C26.1279 17.4361 26.1232 17.676 26.1372 17.9755C26.1513 18.2749 26.155 18.5946 26.1482 18.9345C26.1415 19.2745 26.1148 19.6149 26.0681 19.9558C26.0414 20.2962 25.9852 20.6074 25.8997 20.8893C25.8342 21.1707 25.7297 21.4031 25.5862 21.5864C25.443 21.7498 25.2515 21.8344 25.0116 21.8403C24.6517 21.849 24.226 21.6495 23.7344 21.2418C23.5968 21.1252 23.5196 20.9872 23.5028 20.8277C23.486 20.6682 23.4991 20.508 23.5423 20.347C23.5855 20.1861 23.6386 20.0249 23.7018 19.8635C23.7653 19.6821 23.8084 19.5211 23.8312 19.3807C23.8787 18.9998 23.9164 18.6091 23.9443 18.2087C23.9926 17.7878 24.0211 17.3574 24.0298 16.9175C24.05 15.8977 23.9596 14.9106 23.7587 13.9561C23.5777 13.0012 23.1933 12.231 22.6053 11.6457C22.3894 11.4511 22.0556 11.1495 21.604 10.7407C21.1525 10.332 20.6813 9.90377 20.1906 9.45602C19.7202 8.98779 19.2895 8.53858 18.8983 8.1084C18.5071 7.67822 18.2739 7.34412 18.1987 7.10611C18.0862 6.72911 18.1917 6.44673 18.5152 6.25898C18.8591 6.05075 19.2209 5.94201 19.6008 5.93277C19.8208 5.92742 20.0199 5.96255 20.1983 6.03815C20.377 6.09376 20.4848 6.20106 20.5216 6.36006C20.6988 6.49565 20.9432 6.76952 21.2548 7.18165C21.5664 7.59379 21.9278 8.0147 22.339 8.4444C22.7505 8.8541 23.1931 9.21309 23.6666 9.52135C24.1601 9.82912 24.6774 9.94645 25.2184 9.87333C25.4787 9.84701 25.783 9.61975 26.1312 9.19156C26.4794 8.76338 26.8384 8.29495 27.2082 7.7863C27.5784 7.25764 27.938 6.75922 28.287 6.29104C28.656 5.82238 28.9916 5.52441 29.2939 5.39713C29.5158 5.2918 29.7447 5.3362 29.9807 5.53032C30.2371 5.70396 30.4719 5.95807 30.6851 6.29265C30.8207 6.50921 30.8255 6.76891 30.6996 7.07177C30.5741 7.35464 30.3683 7.65944 30.082 7.98619C29.8157 8.31245 29.4891 8.66017 29.1021 9.02934C28.7351 9.39803 28.3781 9.76647 28.031 10.1347C27.6225 10.5843 27.2927 11.092 27.0417 11.6577C26.811 12.203 26.6296 12.787 26.4974 13.4098C26.3652 14.0326 26.2725 14.6744 26.2195 15.3353C26.1864 15.9956 26.1638 16.6357 26.1515 17.2556ZM33.5293 6.10353C34.6138 5.83731 35.6858 5.69131 36.7455 5.66552C38.1851 5.6305 39.5199 5.83786 40.7501 6.2876C42.0006 6.71687 43.0357 7.43118 43.8552 8.43055C44.1872 8.8222 44.439 9.2258 44.6107 9.64134C44.7823 10.0569 44.9137 10.4834 45.005 10.9209C45.1167 11.3379 45.1877 11.7858 45.2182 12.2648C45.2691 12.7232 45.3198 13.1917 45.3703 13.6701C45.3418 15.1098 45.0477 16.3362 44.4881 17.3491C43.9485 18.3616 43.2125 19.1989 42.2801 19.8612C41.3677 20.5229 40.2987 21.0186 39.0731 21.3482C37.8679 21.6574 36.5955 21.8282 35.2559 21.8608C34.5162 21.8788 33.9089 21.7637 33.4342 21.5154C32.9599 21.2471 32.7769 20.9018 32.8851 20.4795C32.8915 20.1595 32.881 19.6801 32.8537 19.0412C32.8467 18.3818 32.8212 17.653 32.777 16.8546C32.7532 16.0357 32.7099 15.1973 32.6469 14.3394C32.6044 13.4611 32.5502 12.6629 32.4845 11.945C32.4387 11.2266 32.3906 10.6282 32.3401 10.1497C32.29 9.6513 32.2358 9.36282 32.1774 9.28429C31.9858 8.86924 31.8939 8.46175 31.9018 8.06183C31.9129 7.50194 32.0914 7.06789 32.4372 6.75968C32.7834 6.43147 33.1475 6.21276 33.5293 6.10353ZM34.8627 14.4654C34.9221 15.5033 34.9655 16.3416 34.9928 16.9805C35.0405 17.599 35.111 18.0769 35.2042 18.4144C35.2979 18.7319 35.4437 18.9382 35.6416 19.0333C35.8396 19.1285 36.1187 19.1616 36.479 19.1329C37.2796 19.0734 37.9913 18.9562 38.6143 18.7811C39.2577 18.5856 39.8225 18.322 40.3087 17.9904C40.7952 17.6388 41.2232 17.2187 41.5926 16.73C41.9824 16.2209 42.3242 15.613 42.6179 14.9063C42.9117 14.1996 43.0653 13.5063 43.0788 12.8265C43.0942 12.0466 42.9179 11.3614 42.5499 10.7707C42.2019 10.1796 41.7419 9.69115 41.17 9.30534C40.6181 8.91903 39.9942 8.63442 39.2984 8.45148C38.6225 8.26806 37.9747 8.18389 37.3549 8.19897C36.6151 8.21697 35.9823 8.38227 35.4565 8.69486C34.9311 8.98745 34.6627 9.42369 34.6512 10.0036C34.6489 10.1236 34.6541 10.3633 34.667 10.7227C34.7002 11.0617 34.7325 11.4506 34.7638 11.8896C34.7951 12.3285 34.816 12.7877 34.8265 13.2671C34.8574 13.726 34.8694 14.1255 34.8627 14.4654ZM47.8839 15.018L47.9219 13.0984C47.9334 12.5185 47.9344 11.9588 47.9251 11.4194C47.9362 10.8595 47.9149 10.4204 47.8613 10.1019C47.7748 9.42445 47.6677 8.77749 47.54 8.16102C47.4123 7.54455 47.3532 6.99636 47.3627 6.51645C47.3706 6.11653 47.4471 5.78489 47.5922 5.52154C47.7573 5.25769 48.0408 5.07092 48.4426 4.96121C48.9045 4.85004 49.4257 4.76741 50.0063 4.71331C50.6073 4.63872 51.1977 4.59438 51.7776 4.58027C52.0575 4.57346 52.3172 4.57713 52.5568 4.59129C52.7967 4.58546 53.0364 4.58962 53.2759 4.60377C54.0741 4.6643 54.78 4.84699 55.3934 5.15185C56.0069 5.4567 56.5189 5.84398 56.9292 6.31367C57.3396 6.78336 57.6488 7.31547 57.8569 7.91C58.065 8.50453 58.1627 9.12173 58.15 9.76161C58.1346 10.5415 57.9492 11.3254 57.5939 12.1136C57.2589 12.8812 56.7356 13.5735 56.024 14.1904C55.6373 14.5395 55.2925 14.7978 54.9894 14.965C54.7067 15.1118 54.5632 15.2952 54.5589 15.5151C54.5557 15.6751 54.6417 15.8729 54.8169 16.1085C54.9921 16.344 55.2757 16.6569 55.6677 17.0471C55.942 17.3202 56.168 17.5146 56.3456 17.6302C56.5435 17.7253 56.8003 17.879 57.1159 18.0911C57.5494 18.4004 57.9539 18.6604 58.3295 18.8711C58.725 19.0813 58.92 19.3264 58.9145 19.6063C58.9113 19.7663 58.8074 19.9687 58.6027 20.2135C58.418 20.4578 58.0643 20.6563 57.5417 20.8089C57.3406 20.8738 57.0918 20.8199 56.7955 20.6472C56.4991 20.4745 56.1836 20.2624 55.8488 20.0107C55.5341 19.7585 55.2195 19.4964 54.9051 19.2242C54.6108 18.9516 54.3652 18.7377 54.1684 18.5826C54.0104 18.4865 53.7835 18.3421 53.4875 18.1494C53.212 17.9363 52.8964 17.7241 52.5409 17.5129C51.7106 17.0535 51.1155 16.8281 50.7556 16.8368C50.3358 16.8471 50.1201 17.1421 50.1086 17.722C50.1035 17.982 50.1459 18.3607 50.236 18.8581C50.3261 19.3556 50.3676 19.7843 50.3605 20.1442C50.3514 20.6041 50.2243 20.967 49.9792 21.2328C49.7345 21.4786 49.2939 21.5293 48.6572 21.3849C48.3193 21.2931 48.1067 20.9286 48.0194 20.2911C47.9524 19.6332 47.9269 18.9043 47.9427 18.1045L47.9635 17.0547C47.9714 16.6548 47.9689 16.2751 47.9561 15.9156C47.9632 15.5557 47.9391 15.2565 47.8839 15.018ZM49.9904 11.579C50.0209 12.058 50.0933 12.436 50.2077 12.713C50.3226 12.97 50.4686 13.1663 50.6457 13.3019C50.8229 13.4375 51.0211 13.5226 51.2402 13.5573C51.4797 13.5714 51.7397 13.5651 52.02 13.5383C52.5006 13.4866 52.8915 13.4272 53.1926 13.3599C53.5141 13.2721 53.776 13.1658 53.9783 13.041C54.2006 12.9156 54.3833 12.7713 54.5265 12.6079C54.69 12.424 54.8739 12.2197 55.0782 11.9949C55.426 11.5867 55.6734 11.2009 55.8205 10.8376C55.9676 10.4743 56.0445 10.1226 56.0512 9.78269C56.0599 9.34278 55.9579 8.94553 55.7451 8.59096C55.5526 8.2159 55.2891 7.90253 54.9543 7.65085C54.6399 7.37868 54.2742 7.17773 53.8571 7.04797C53.4404 6.89822 53.0221 6.82845 52.6022 6.83866C52.2423 6.84742 51.8912 6.91592 51.549 7.04417C51.2271 7.15193 50.9236 7.33919 50.6385 7.60595C50.3943 7.83175 50.218 8.15582 50.1097 8.57817C50.0214 9.00003 49.9717 9.49091 49.9607 10.0508C49.9559 10.2908 49.951 10.5407 49.9458 10.8007C49.9611 11.0401 49.9759 11.2996 49.9904 11.579ZM69.004 5.21043C69.2228 5.26506 69.4286 5.46992 69.6214 5.82498C69.8346 6.15956 70.036 6.58437 70.2257 7.0994C70.4157 7.59444 70.5948 8.13971 70.7629 8.73522C70.9513 9.31024 71.1098 9.88599 71.2383 10.4625C71.3872 11.0185 71.507 11.5252 71.5979 11.9827C71.7088 12.4397 71.792 12.7774 71.8476 12.9959C72.0882 13.9694 72.3599 14.8822 72.6628 15.7342C72.9657 16.5863 73.2204 17.3495 73.4268 18.0241C73.6537 18.6781 73.7928 19.2243 73.8441 19.6628C73.9153 20.1008 73.8296 20.3927 73.5869 20.5385C73.1823 20.7881 72.84 20.9164 72.5601 20.9232C72.0802 20.9349 71.7347 20.7234 71.5235 20.2889C71.4087 20.0318 71.3044 19.7446 71.2108 19.4271C71.1371 19.1091 71.0633 18.8011 70.9893 18.5031C70.9352 18.2046 70.8706 17.9364 70.7953 17.6984C70.7405 17.4399 70.6743 17.2516 70.5967 17.1336C70.4799 16.9765 70.2819 16.8814 70.0028 16.8482C69.7241 16.795 69.3948 16.7731 69.0149 16.7823C68.675 16.7906 68.3247 16.8191 67.964 16.8679C67.6037 16.8966 67.2432 16.9354 66.8825 16.9841C66.5418 17.0324 66.2111 17.0804 65.8904 17.1282C65.5901 17.1555 65.34 17.1715 65.1401 17.1764C64.7202 17.1866 64.3881 17.3046 64.1438 17.5304C63.9196 17.7557 63.7345 18.02 63.5886 18.3234C63.4627 18.6263 63.3364 18.9491 63.2097 19.292C63.103 19.6343 62.9573 19.9277 62.7726 20.172C62.5471 20.4573 62.293 20.6733 62.0104 20.8201C61.7277 20.9669 61.4564 21.0435 61.1964 21.0498C60.8765 21.0576 60.629 20.9437 60.4538 20.7081C60.299 20.452 60.3371 20.0414 60.5681 19.4762C60.9038 18.6685 61.2398 17.8509 61.5759 17.0233C61.932 16.1952 62.2781 15.3673 62.6143 14.5397C62.972 13.6316 63.3491 12.753 63.7456 11.9039C64.1621 11.0544 64.5692 10.175 64.9669 9.26597C65.1339 8.90215 65.2922 8.47859 65.4417 7.99527C65.5915 7.49197 65.7708 7.01792 65.9794 6.57315C66.1881 6.12837 66.4353 5.7526 66.7212 5.44585C67.0274 5.11861 67.4104 4.9494 67.8703 4.93821C68.2302 4.92946 68.6081 5.0202 69.004 5.21043ZM69.4175 11.586C69.3246 11.2285 69.1838 10.7723 68.9949 10.2173C68.806 9.66223 68.6654 9.19597 68.5729 8.81848C68.5177 8.57999 68.4307 8.4322 68.3119 8.37513C68.2135 8.29758 68.1039 8.28026 67.9832 8.32317C67.8828 8.3456 67.7817 8.40802 67.6797 8.51044C67.5778 8.61285 67.4856 8.72502 67.4033 8.84694C67.3417 8.92838 67.2692 9.06006 67.1856 9.24197C67.1025 9.40388 67.0089 9.58604 66.905 9.78843C66.8215 9.97034 66.7277 10.1625 66.6238 10.3649C66.5203 10.5473 66.4373 10.6992 66.375 10.8206C66.1471 11.2259 65.9499 11.6005 65.7832 11.9443C65.6365 12.2876 65.5092 12.6605 65.4013 13.0628C65.295 13.3852 65.2501 13.6361 65.2665 13.8156C65.283 13.9951 65.3204 14.1241 65.3788 14.2026C65.4572 14.2806 65.5462 14.3284 65.6457 14.346C65.7657 14.3431 65.8757 14.3404 65.9756 14.338C66.2559 14.3112 66.616 14.2924 67.0559 14.2817C67.4958 14.271 67.8861 14.2415 68.2268 14.1933C68.3471 14.1704 68.5073 14.1565 68.7072 14.1516C68.9075 14.1267 69.0883 14.0824 69.2494 14.0185C69.4306 13.9541 69.5721 13.8707 69.674 13.7683C69.7764 13.6459 69.8095 13.4852 69.7735 13.2862C69.7547 13.2267 69.7271 13.1075 69.6907 12.9285C69.6546 12.7295 69.6086 12.5307 69.5526 12.3322C69.5165 12.1333 69.4799 11.9643 69.4427 11.8253C69.4259 11.6658 69.4175 11.586 69.4175 11.586ZM76.6378 10.511C76.6445 10.171 76.6411 9.84135 76.6274 9.5219C76.6341 9.18196 76.6209 8.84252 76.5876 8.50356C76.5547 8.1446 76.5003 7.86611 76.4243 7.6681C76.3687 7.4496 76.2621 7.28231 76.1045 7.16623C75.9669 7.04966 75.7587 6.96478 75.48 6.9116C75.2213 6.85794 74.8724 6.81646 74.4333 6.78717C73.8742 6.7608 73.406 6.69225 73.0284 6.58152C72.6513 6.45079 72.4855 6.24496 72.5311 5.96404C72.5406 5.48414 72.7066 5.17031 73.0293 5.02255C73.3524 4.8548 73.7439 4.76533 74.2037 4.75414C74.5836 4.7449 74.9729 4.7654 75.3716 4.81566C75.7707 4.84592 76.1204 4.84741 76.4207 4.82012C76.9413 4.76748 77.5921 4.70168 78.3731 4.62272C79.1544 4.52376 79.895 4.46577 80.5948 4.44874C81.1346 4.43561 81.6037 4.46417 82.002 4.53442C82.4007 4.58468 82.6581 4.70833 82.7741 4.90537C82.7933 4.94488 82.8321 5.00389 82.8905 5.08242C82.9493 5.14095 82.9977 5.21971 83.0357 5.31872C83.0941 5.39725 83.1325 5.47626 83.1509 5.55576C83.1693 5.63525 83.1483 5.68573 83.0879 5.70719C83.0824 5.98713 82.9091 6.16123 82.568 6.22949C82.2469 6.29726 81.8662 6.3465 81.426 6.3772C81.0061 6.38741 80.5858 6.41763 80.1651 6.46783C79.7445 6.51804 79.432 6.65556 79.2277 6.88038C79.0646 7.04424 78.9469 7.43684 78.8747 8.05818C78.8224 8.67903 78.7888 9.36938 78.7737 10.1292C78.7646 10.5891 78.7555 11.0491 78.7464 11.509C78.7573 11.9684 78.7688 12.3978 78.7809 12.7972C78.793 13.1967 78.7958 13.5564 78.7895 13.8763C78.7836 14.1762 78.7792 14.3962 78.7764 14.5362C78.7473 14.9966 78.7571 15.516 78.8056 16.0944C78.8545 16.6528 78.8734 17.212 78.8623 17.7719C78.8548 18.1518 78.8179 18.5025 78.7515 18.8239C78.7052 19.1448 78.5999 19.4172 78.4356 19.641C78.1282 20.0282 77.8345 20.2253 77.5546 20.2321C77.3746 20.2364 77.2059 20.1806 77.0483 20.0645C76.8911 19.9284 76.7543 19.7719 76.6379 19.5948C76.5215 19.4178 76.4253 19.2302 76.3493 19.0322C76.2937 18.8137 76.2676 18.6145 76.2712 18.4345C76.2862 17.6747 76.362 16.8734 76.4986 16.0306C76.6356 15.1679 76.7122 14.3266 76.7284 13.5067C76.734 13.2268 76.7193 12.9573 76.6845 12.6984C76.6696 12.4389 76.6446 12.1897 76.6093 11.9507L76.6378 10.511ZM91.2294 12.5243C91.2454 12.7238 91.2517 12.9135 91.2481 13.0935C91.2446 13.2735 91.2412 13.4434 91.238 13.6034C91.2254 14.2433 91.1947 14.7837 91.146 15.2245C91.0977 15.6454 91.082 15.9356 91.0988 16.0951C91.1105 16.5145 91.1139 16.8442 91.1092 17.0842C91.1244 17.3236 91.1407 17.5131 91.1579 17.6526C91.1951 17.7916 91.2633 17.8799 91.3625 17.9175C91.4617 17.955 91.6212 17.9711 91.8412 17.9658C91.9811 17.9624 92.1411 17.9585 92.321 17.9541C92.5214 17.9292 92.7615 17.9134 93.0414 17.9066L94.361 17.8745C94.3606 17.8945 94.4504 17.9023 94.6303 17.8979C94.8103 17.8935 95.01 17.8987 95.2296 17.9133C95.4491 17.9279 95.6583 17.9628 95.857 18.018C96.0562 18.0531 96.1849 18.1099 96.2433 18.1884C96.3209 18.3065 96.3584 18.4355 96.3556 18.5754C96.3728 18.7149 96.3698 18.8649 96.3467 19.0254C96.2784 19.4467 96.1431 19.7198 95.9408 19.8447C95.7589 19.949 95.5279 20.0046 95.248 20.0114C95.0881 20.0153 94.8981 20.0199 94.6782 20.0253C94.4786 20.0102 94.2689 20.0053 94.049 20.0106C93.5483 20.0628 93.0881 20.094 92.6682 20.1042C92.2483 20.1144 91.7982 20.1353 91.318 20.167C90.9177 20.1967 90.3677 20.2201 89.6679 20.2371C88.9681 20.2542 88.3075 20.3102 87.6861 20.4053C87.3454 20.4535 86.9841 20.5323 86.6023 20.6415C86.24 20.7702 85.8889 20.8387 85.549 20.847C85.2091 20.8553 84.9212 20.7624 84.6852 20.5682C84.4688 20.3936 84.3458 20.0468 84.3161 19.5279C84.3008 19.2885 84.3346 19.0978 84.4173 18.9558C84.5201 18.8134 84.6522 18.7003 84.8138 18.6164C84.9753 18.5325 85.1464 18.4684 85.3272 18.4241C85.5279 18.3792 85.7084 18.3448 85.8688 18.3209C86.1091 18.2951 86.3392 18.2795 86.5592 18.2742C86.7991 18.2683 87.039 18.2625 87.279 18.2566C87.6588 18.2474 87.9492 18.2204 88.1499 18.1755C88.3706 18.1302 88.5324 18.0363 88.6351 17.8939C88.7382 17.7315 88.8026 17.5101 88.8281 17.2296C88.8536 16.9492 88.8813 16.5588 88.9112 16.0584C88.9407 15.578 88.97 15.1076 88.9991 14.6472C89.0286 14.1668 89.0481 13.6867 89.0576 13.2068C89.0608 13.0468 89.0639 12.8868 89.0671 12.7269C89.0706 12.5469 89.0642 12.3672 89.0478 12.1877C89.0365 11.7483 89.0368 11.2286 89.0486 10.6287C89.0609 10.0088 89.0526 9.41945 89.0237 8.86053C88.9764 8.22212 88.9147 7.8039 88.8387 7.60589C88.7627 7.40787 88.5947 7.31203 88.3348 7.31835C88.1748 7.32224 87.9745 7.3471 87.7337 7.39293C87.513 7.43828 87.2323 7.48508 86.8916 7.53334C86.5909 7.58063 86.3106 7.60744 86.0507 7.61376C85.8112 7.5996 85.5626 7.5357 85.3051 7.42204C85.0275 7.30888 84.8209 7.14402 84.6853 6.92747C84.5497 6.71092 84.4841 6.49266 84.4885 6.2727C84.4928 6.05275 84.5468 5.85157 84.6503 5.66917C84.7742 5.46629 84.9471 5.31219 85.169 5.20686C85.3306 5.12298 85.5015 5.06886 85.6819 5.04448C85.8822 5.01962 86.0923 5.00451 86.3123 4.99916C86.8321 4.98652 87.381 5.02313 87.9588 5.109C88.5371 5.17488 89.0261 5.20295 89.426 5.19322C89.8459 5.18301 90.2458 5.17328 90.6256 5.16403C91.0259 5.13431 91.416 5.11482 91.7959 5.10558C91.9958 5.10071 92.1858 5.09609 92.3657 5.09171C92.5457 5.08734 92.7254 5.09296 92.905 5.10858C93.1253 5.08323 93.3356 5.05812 93.536 5.03326C93.7363 5.0084 93.9364 4.99354 94.1364 4.98867C94.5363 4.97894 94.875 5.03066 95.1525 5.14383C95.4301 5.257 95.6055 5.48257 95.6787 5.82056C95.7332 6.09905 95.7186 6.32924 95.6351 6.51115C95.5719 6.67258 95.4594 6.80523 95.2974 6.9091C95.1559 6.99249 94.9748 7.05686 94.754 7.1022C94.5337 7.12755 94.3136 7.1429 94.0936 7.14825C93.9337 7.15214 93.7737 7.15604 93.6138 7.15993C93.4542 7.14382 93.3145 7.13723 93.1945 7.14015C92.9146 7.14696 92.6749 7.1428 92.4753 7.12767C92.2758 7.11254 92.096 7.10692 91.9361 7.11081C91.6362 7.11811 91.4344 7.21295 91.3309 7.39535C91.2474 7.57726 91.2093 7.98791 91.2166 8.6273C91.2259 9.16671 91.233 9.81609 91.238 10.5755C91.2633 11.3143 91.2605 11.964 91.2294 12.5243ZM98.6712 8.80568C98.9901 7.83857 99.3964 6.99925 99.8901 6.28771C100.404 5.57568 100.985 4.99193 101.633 4.53645C102.282 4.08097 102.968 3.74449 103.692 3.52702C104.436 3.28906 105.198 3.1606 105.978 3.14162C107.077 3.11487 108.153 3.28856 109.205 3.6627C110.277 4.01635 111.226 4.5429 112.051 5.24232C112.897 5.92127 113.57 6.75432 114.07 7.74147C114.57 8.72863 114.808 9.83209 114.784 11.0519C114.776 11.4518 114.739 11.8424 114.671 12.2238C114.513 13.147 114.195 14.0442 113.718 14.9152C113.262 15.7657 112.687 16.5392 111.994 17.2356C111.321 17.9115 110.55 18.4999 109.681 19.0007C108.832 19.4811 107.936 19.8226 106.993 20.0255C106.35 20.161 105.699 20.2368 105.04 20.2529C104.08 20.2762 103.133 20.1394 102.2 19.8423C101.287 19.5247 100.499 18.9443 99.8362 18.101C99.0954 17.1597 98.5736 16.263 98.2707 15.411C97.9878 14.5584 97.8552 13.6822 97.873 12.7824C97.8853 12.1625 97.9577 11.5312 98.0904 10.8884C98.2434 10.2251 98.437 9.53089 98.6712 8.80568ZM103.903 6.48987C102.629 7.22038 101.682 8.16282 101.059 9.31719C100.457 10.4511 100.145 11.6079 100.121 12.7877C100.107 13.4875 100.194 14.165 100.381 14.82C100.588 15.4545 100.897 16.0166 101.307 16.5063C101.717 16.976 102.229 17.3533 102.843 17.6381C103.457 17.903 104.174 18.0254 104.994 18.0055C105.274 17.9987 105.564 17.9816 105.864 17.9543C106.185 17.9066 106.516 17.8286 106.858 17.7203C107.722 17.4794 108.457 17.1917 109.064 16.8572C109.67 16.5027 110.178 16.1006 110.586 15.6509C111.015 15.1808 111.375 14.6624 111.666 14.0957C111.958 13.509 112.23 12.8628 112.484 12.1571C112.632 11.7338 112.711 11.2722 112.721 10.7723C112.732 10.2324 112.672 9.71417 112.542 9.21768C112.413 8.70118 112.241 8.29564 112.027 8.00105C111.483 7.21483 110.745 6.63319 109.813 6.25613C108.882 5.85908 107.906 5.67296 106.886 5.69777C106.366 5.71042 105.845 5.78305 105.323 5.91568C104.821 6.04782 104.348 6.23921 103.903 6.48987ZM124.791 10.2388C124.907 10.4358 125.062 10.6719 125.257 10.9469C125.451 11.202 125.636 11.4774 125.81 11.7729C126.198 12.3631 126.508 12.8452 126.74 13.2193C126.973 13.5934 127.159 13.7787 127.299 13.7753C127.439 13.7719 127.515 13.4403 127.528 12.7804C127.532 12.6204 127.535 12.4505 127.539 12.2705C127.542 12.0905 127.536 11.8908 127.52 11.6713C127.489 11.2524 127.488 10.7827 127.518 10.2623C127.569 9.72148 127.599 9.19109 127.61 8.6712C127.62 8.1513 127.6 7.65212 127.549 7.17368C127.519 6.69474 127.427 6.28726 127.274 5.95122C127.139 5.67468 127.045 5.39716 126.991 5.11868C126.937 4.8202 126.912 4.53098 126.918 4.25104C126.927 3.79113 127.015 3.39926 127.181 3.07543C127.368 2.73112 127.631 2.55482 127.971 2.54655C128.351 2.53731 128.795 2.78632 129.305 3.29357C129.403 3.39111 129.476 3.7291 129.525 4.30753C129.594 4.86547 129.64 5.57387 129.662 6.43273C129.705 7.29111 129.736 8.2597 129.755 9.33852C129.773 10.4173 129.792 11.5161 129.81 12.635C129.827 13.7538 129.836 14.8428 129.835 15.9021C129.854 16.9609 129.885 17.8995 129.929 18.7179C129.945 18.9374 129.842 19.0998 129.62 19.2051C129.418 19.31 129.177 19.3658 128.897 19.3726C128.537 19.3814 128.158 19.3306 127.761 19.2204C127.383 19.1096 127.136 18.9757 127.019 18.8187C126.687 18.427 126.368 17.9152 126.06 17.2831C125.754 16.631 125.436 16.0391 125.106 15.5075C124.545 14.5818 123.983 13.6761 123.421 12.7904C122.88 11.8842 122.329 10.9382 121.769 9.95254C121.363 9.24289 120.994 8.69224 120.663 8.30059C120.351 7.90845 120.085 7.71506 119.865 7.72041C119.525 7.72868 119.345 8.22272 119.326 9.20253C119.322 9.38249 119.318 9.57246 119.314 9.77242C119.31 9.97238 119.326 10.1918 119.361 10.4308C119.397 10.6698 119.411 10.9293 119.406 11.2092C119.4 11.4892 119.395 11.7791 119.389 12.079L119.352 13.9387C119.34 14.5186 119.339 15.0782 119.349 15.6176C119.378 16.1565 119.438 16.6447 119.529 17.0822C119.621 17.5197 119.664 17.8784 119.658 18.1584C119.647 18.7383 119.518 19.1811 119.272 19.4869C119.026 19.7926 118.753 19.9492 118.453 19.9565C118.133 19.9643 117.837 19.7916 117.564 19.4385C117.312 19.0849 117.193 18.5281 117.208 17.7683L117.277 14.289C117.299 13.1692 117.301 12.0599 117.282 10.9611C117.284 9.86179 117.245 8.83345 117.164 7.87607C117.147 7.69659 117.102 7.47785 117.027 7.21985C116.972 6.96136 116.907 6.69311 116.833 6.41511C116.778 6.13663 116.724 5.85814 116.669 5.57965C116.615 5.28117 116.591 5.00196 116.596 4.74201C116.604 4.36208 116.69 4.0402 116.855 3.77636C117.02 3.51252 117.323 3.33525 117.765 3.24457C118.106 3.17631 118.407 3.08903 118.669 2.98272C118.931 2.87642 119.22 2.91936 119.536 3.11153C120.089 3.43785 120.62 3.90462 121.127 4.51185C121.635 5.11908 122.112 5.76703 122.558 6.4557C123.024 7.14389 123.44 7.83329 123.806 8.52392C124.192 9.19405 124.52 9.76567 124.791 10.2388ZM141.456 12.8013L141.482 11.5115C141.495 10.8716 141.498 10.202 141.492 9.50265C141.506 8.80278 141.486 8.26362 141.434 7.88515C141.347 7.20772 141.24 6.56076 141.112 5.94429C140.985 5.32782 140.926 4.77963 140.935 4.29972C140.943 3.8998 141.02 3.56816 141.165 3.30481C141.33 3.04096 141.613 2.85419 142.015 2.74448C142.477 2.63331 142.998 2.55068 143.579 2.49658C144.16 2.42248 144.74 2.37838 145.32 2.36427C145.6 2.35746 145.86 2.35114 146.1 2.3453C146.36 2.33897 146.599 2.35313 146.818 2.38777C147.617 2.4483 148.312 2.64123 148.905 2.96657C149.519 3.27143 150.021 3.66894 150.411 4.15912C150.821 4.62881 151.12 5.16116 151.308 5.75618C151.516 6.35071 151.614 6.96791 151.601 7.60779C151.59 8.20767 151.478 8.80998 151.266 9.41473C151.074 10.019 150.773 10.5959 150.362 11.1456C149.952 11.6752 149.443 12.1573 148.835 12.5918C148.227 13.0063 147.521 13.3332 146.717 13.5727C146.516 13.6375 146.245 13.6741 145.906 13.6823C145.586 13.6901 145.265 13.7179 144.945 13.7657C144.644 13.813 144.372 13.9095 144.13 14.0553C143.907 14.2007 143.792 14.4333 143.786 14.7532C143.777 15.1931 143.808 15.6721 143.877 16.19C143.947 16.708 143.978 17.1869 143.969 17.6268C143.959 18.1467 143.841 18.5593 143.615 18.8646C143.409 19.1494 142.988 19.2196 142.351 19.0752C142.033 19.003 141.819 18.7084 141.709 18.1915C141.62 17.674 141.561 17.0858 141.535 16.4269C141.528 15.7675 141.531 15.0979 141.544 14.418C141.558 13.7382 141.528 13.1992 141.456 12.8013ZM143.563 9.36231C143.593 9.84125 143.666 10.2192 143.78 10.4963C143.895 10.7533 144.041 10.9496 144.218 11.0852C144.395 11.2208 144.594 11.3059 144.813 11.3405C145.052 11.3547 145.302 11.3486 145.563 11.3223C146.063 11.2701 146.464 11.2104 146.765 11.1431C147.067 11.0559 147.319 10.9498 147.521 10.825C147.743 10.6996 147.936 10.555 148.099 10.3912C148.262 10.2073 148.436 10.0032 148.621 9.77889C149.276 9.00347 149.61 8.25583 149.624 7.53597C149.633 7.09606 149.541 6.69857 149.348 6.3435C149.155 5.98844 148.892 5.68507 148.557 5.43339C148.242 5.16123 147.877 4.96027 147.46 4.83051C147.043 4.68076 146.625 4.61099 146.205 4.6212C145.845 4.62996 145.494 4.69846 145.151 4.82671C144.809 4.95495 144.496 5.15246 144.21 5.41922C143.966 5.64501 143.79 5.96908 143.682 6.39143C143.574 6.79379 143.514 7.27491 143.503 7.8348C143.494 8.31471 143.514 8.82388 143.563 9.36231ZM159.505 3.00848C159.723 3.06312 159.929 3.26797 160.122 3.62303C160.335 3.95762 160.537 4.38242 160.726 4.89746C160.916 5.3925 161.095 5.93777 161.263 6.53327C161.452 7.10829 161.61 7.68404 161.739 8.26052C161.888 8.81652 162.008 9.32326 162.098 9.78074C162.209 10.2377 162.293 10.5755 162.348 10.794C162.589 11.7675 162.86 12.6802 163.163 13.5323C163.466 14.3843 163.721 15.1476 163.927 15.8221C164.154 16.4762 164.293 17.0224 164.345 17.4608C164.416 17.8988 164.33 18.1907 164.087 18.3365C163.683 18.5862 163.341 18.7144 163.061 18.7213C162.581 18.7329 162.235 18.5215 162.024 18.0869C161.909 17.8299 161.805 17.5426 161.711 17.2251C161.638 16.9071 161.564 16.5991 161.49 16.3011C161.436 16.0027 161.371 15.7344 161.296 15.4964C161.241 15.2379 161.175 15.0497 161.097 14.9316C160.98 14.7746 160.782 14.6795 160.503 14.6463C160.225 14.5931 159.895 14.5711 159.515 14.5804C159.176 14.5886 158.825 14.6172 158.465 14.6659C158.104 14.6947 157.744 14.7334 157.383 14.7822C157.042 14.8304 156.712 14.8784 156.391 14.9262C156.091 14.9535 155.841 14.9696 155.641 14.9745C155.221 14.9847 154.889 15.1027 154.644 15.3285C154.42 15.5538 154.235 15.8181 154.089 16.1214C153.963 16.4243 153.837 16.7472 153.71 17.09C153.604 17.4324 153.458 17.7257 153.273 17.9701C153.048 18.2554 152.794 18.4714 152.511 18.6182C152.228 18.765 151.957 18.8415 151.697 18.8478C151.377 18.8556 151.13 18.7417 150.954 18.5062C150.8 18.2501 150.838 17.8395 151.069 17.2742C151.404 16.4666 151.74 15.649 152.076 14.8213C152.433 13.9932 152.779 13.1654 153.115 12.3377C153.473 11.4296 153.85 10.5511 154.246 9.70198C154.663 8.85241 155.07 7.97309 155.467 7.06403C155.634 6.70021 155.793 6.27664 155.942 5.79333C156.092 5.29002 156.271 4.81598 156.48 4.3712C156.689 3.92642 156.936 3.55066 157.222 3.2439C157.528 2.91667 157.911 2.74746 158.371 2.73627C158.731 2.72751 159.109 2.81825 159.505 3.00848ZM159.918 9.3841C159.825 9.0266 159.684 8.57034 159.495 8.01531C159.307 7.46029 159.166 6.99403 159.073 6.61653C159.018 6.37804 158.931 6.23026 158.812 6.17319C158.714 6.09564 158.605 6.07832 158.484 6.12123C158.383 6.14366 158.282 6.20608 158.18 6.30849C158.078 6.4109 157.986 6.52307 157.904 6.64499C157.842 6.72644 157.77 6.85811 157.686 7.04002C157.603 7.20194 157.509 7.38409 157.406 7.58649C157.322 7.7684 157.228 7.96055 157.124 8.16294C157.021 8.34534 156.938 8.49725 156.876 8.61869C156.648 9.02396 156.45 9.39851 156.284 9.74234C156.137 10.0857 156.01 10.4585 155.902 10.8609C155.796 11.1832 155.751 11.4342 155.767 11.6136C155.784 11.7931 155.821 11.9221 155.879 12.0007C155.958 12.0787 156.047 12.1265 156.146 12.1441C156.266 12.1411 156.376 12.1385 156.476 12.136C156.757 12.1092 157.117 12.0905 157.556 12.0798C157.996 12.0691 158.387 12.0396 158.727 11.9913C158.848 11.9684 159.008 11.9545 159.208 11.9497C159.408 11.9248 159.589 11.8804 159.75 11.8165C159.931 11.7522 160.073 11.6688 160.175 11.5664C160.277 11.444 160.31 11.2833 160.274 11.0843C160.255 11.0248 160.228 10.9055 160.191 10.7265C160.155 10.5275 160.109 10.3288 160.053 10.1303C160.017 9.93131 159.98 9.76232 159.943 9.62332C159.926 9.46384 159.918 9.3841 159.918 9.3841ZM166.706 12.127L166.744 10.2073C166.756 9.62745 166.757 9.06781 166.747 8.5284C166.758 7.96851 166.737 7.52933 166.684 7.21085C166.597 6.53341 166.49 5.88646 166.362 5.26998C166.235 4.65351 166.175 4.10532 166.185 3.62542C166.193 3.22549 166.269 2.89386 166.414 2.6305C166.58 2.36666 166.863 2.17989 167.265 2.07018C167.727 1.95901 168.248 1.87637 168.829 1.82227C169.43 1.74769 170.02 1.70334 170.6 1.68924C170.88 1.68243 171.139 1.6861 171.379 1.70026C171.619 1.69442 171.859 1.69858 172.098 1.71274C172.896 1.77327 173.602 1.95596 174.216 2.26081C174.829 2.56567 175.341 2.95294 175.751 3.42263C176.162 3.89232 176.471 4.42443 176.679 5.01897C176.887 5.6135 176.985 6.2307 176.972 6.87057C176.957 7.65042 176.771 8.4344 176.416 9.22252C176.081 9.99016 175.558 10.6824 174.846 11.2993C174.46 11.6485 174.115 11.9067 173.812 12.074C173.529 12.2208 173.385 12.4042 173.381 12.6241C173.378 12.7841 173.464 12.9819 173.639 13.2174C173.814 13.453 174.098 13.7659 174.49 14.1561C174.764 14.4292 174.99 14.6236 175.168 14.7392C175.366 14.8343 175.623 14.9879 175.938 15.2001C176.372 15.5093 176.776 15.7693 177.152 15.98C177.547 16.1903 177.742 16.4353 177.737 16.7153C177.734 16.8753 177.63 17.0777 177.425 17.3225C177.24 17.5668 176.887 17.7653 176.364 17.9179C176.163 17.9828 175.914 17.9288 175.618 17.7562C175.321 17.5835 175.006 17.3713 174.671 17.1197C174.356 16.8675 174.042 16.6053 173.727 16.3332C173.433 16.0605 173.187 15.8466 172.991 15.6915C172.833 15.5955 172.606 15.4511 172.31 15.2584C172.034 15.0453 171.719 14.8331 171.363 14.6219C170.533 14.1624 169.938 13.9371 169.578 13.9458C169.158 13.956 168.942 14.2511 168.931 14.831C168.926 15.0909 168.968 15.4696 169.058 15.9671C169.148 16.4646 169.19 16.8933 169.183 17.2532C169.174 17.7131 169.047 18.076 168.801 18.3417C168.557 18.5875 168.116 18.6382 167.479 18.4938C167.142 18.4021 166.929 18.0375 166.842 17.4001C166.775 16.7422 166.749 16.0133 166.765 15.2134L166.786 14.1636C166.794 13.7637 166.791 13.384 166.778 13.0246C166.785 12.6647 166.761 12.3655 166.706 12.127ZM168.813 8.68801C168.843 9.16694 168.916 9.54492 169.03 9.82195C169.145 10.079 169.291 10.2753 169.468 10.4109C169.645 10.5465 169.843 10.6316 170.062 10.6662C170.302 10.6804 170.562 10.6741 170.842 10.6473C171.323 10.5956 171.714 10.5361 172.015 10.4688C172.336 10.3811 172.598 10.2748 172.801 10.1499C173.023 10.0246 173.206 9.88024 173.349 9.71687C173.512 9.53301 173.696 9.32867 173.9 9.10385C174.248 8.69566 174.496 8.3099 174.643 7.94656C174.79 7.58323 174.867 7.23159 174.873 6.89166C174.882 6.45175 174.78 6.0545 174.567 5.69992C174.375 5.32486 174.111 5.01149 173.777 4.75981C173.462 4.48765 173.096 4.28669 172.679 4.15693C172.263 4.00718 171.844 3.93741 171.424 3.94763C171.065 3.95639 170.713 4.02489 170.371 4.15313C170.049 4.2609 169.746 4.44816 169.461 4.71492C169.217 4.94071 169.04 5.26479 168.932 5.68714C168.844 6.109 168.794 6.59988 168.783 7.15977C168.778 7.39972 168.773 7.64967 168.768 7.90962C168.783 8.14909 168.798 8.40855 168.813 8.68801ZM183.159 7.91923C183.166 7.5793 183.162 7.24961 183.149 6.93016C183.155 6.59022 183.142 6.25078 183.109 5.91182C183.076 5.55286 183.022 5.27437 182.945 5.07636C182.89 4.85786 182.783 4.69057 182.626 4.57449C182.488 4.45791 182.28 4.37304 182.001 4.31986C181.742 4.2662 181.394 4.22472 180.954 4.19543C180.395 4.16906 179.927 4.10051 179.55 3.98977C179.173 3.85905 179.007 3.65322 179.052 3.3723C179.062 2.8924 179.228 2.57857 179.551 2.43081C179.874 2.26306 180.265 2.17359 180.725 2.1624C181.105 2.15316 181.494 2.17366 181.893 2.22392C182.292 2.25418 182.642 2.25567 182.942 2.22838C183.463 2.17574 184.113 2.10994 184.894 2.03098C185.676 1.93202 186.416 1.87403 187.116 1.857C187.656 1.84387 188.125 1.87243 188.523 1.94268C188.922 1.99294 189.179 2.11659 189.295 2.31363C189.314 2.35314 189.353 2.41215 189.412 2.49068C189.47 2.54921 189.519 2.62797 189.557 2.72698C189.615 2.80551 189.654 2.88452 189.672 2.96402C189.69 3.04351 189.67 3.09399 189.609 3.11545C189.604 3.39539 189.43 3.56949 189.089 3.63775C188.768 3.70552 188.387 3.75476 187.947 3.78546C187.527 3.79567 187.107 3.82588 186.686 3.87609C186.266 3.9263 185.953 4.06382 185.749 4.28864C185.586 4.4525 185.468 4.8451 185.396 5.46644C185.344 6.08729 185.31 6.77764 185.295 7.53749C185.286 7.9974 185.277 8.45731 185.268 8.91722C185.279 9.37664 185.29 9.80607 185.302 10.2055C185.314 10.6049 185.317 10.9646 185.311 11.2846C185.305 11.5845 185.3 11.8045 185.298 11.9444C185.269 12.4048 185.278 12.9242 185.327 13.5027C185.376 14.0611 185.395 14.6203 185.383 15.1802C185.376 15.5601 185.339 15.9107 185.273 16.2321C185.226 16.553 185.121 16.8254 184.957 17.0493C184.649 17.4365 184.356 17.6335 184.076 17.6403C183.896 17.6447 183.727 17.5889 183.57 17.4728C183.412 17.3367 183.276 17.1801 183.159 17.0031C183.043 16.826 182.947 16.6385 182.87 16.4405C182.815 16.222 182.789 16.0228 182.792 15.8428C182.807 15.0829 182.883 14.2816 183.02 13.4389C183.157 12.5761 183.233 11.7348 183.25 10.915C183.255 10.6351 183.241 10.3656 183.206 10.1066C183.191 9.84715 183.166 9.59793 183.131 9.35895L183.159 7.91923ZM198.919 8.43516C199.035 8.63221 199.191 8.86827 199.385 9.14335C199.58 9.39843 199.764 9.67376 199.938 9.96932C200.326 10.5595 200.636 11.0416 200.869 11.4157C201.101 11.7898 201.287 11.9751 201.427 11.9717C201.567 11.9683 201.644 11.6367 201.657 10.9768C201.66 10.8168 201.663 10.6469 201.667 10.4669C201.671 10.2869 201.665 10.0872 201.649 9.86774C201.617 9.44879 201.616 8.97913 201.647 8.45874C201.697 7.91788 201.728 7.38749 201.738 6.86759C201.748 6.3477 201.728 5.84852 201.678 5.37008C201.647 4.89114 201.556 4.48366 201.402 4.14762C201.268 3.87108 201.173 3.59356 201.119 3.31508C201.065 3.01659 201.041 2.72738 201.046 2.44744C201.055 1.98753 201.143 1.59566 201.309 1.27183C201.496 0.927515 201.759 0.751224 202.099 0.742954C202.479 0.733711 202.924 0.982715 203.433 1.48997C203.531 1.58751 203.605 1.9255 203.653 2.50393C203.722 3.06187 203.768 3.77027 203.791 4.62913C203.834 5.48751 203.865 6.4561 203.883 7.53491C203.902 8.61373 203.92 9.71254 203.938 10.8314C203.956 11.9502 203.964 13.0392 203.963 14.0985C203.982 15.1573 204.014 16.0959 204.057 16.9143C204.073 17.1338 203.97 17.2962 203.748 17.4015C203.546 17.5064 203.305 17.5622 203.025 17.569C202.665 17.5778 202.287 17.527 201.889 17.4168C201.512 17.306 201.265 17.1721 201.148 17.0151C200.816 16.6234 200.496 16.1116 200.189 15.4795C199.882 14.8274 199.564 14.2355 199.235 13.7039C198.674 12.7782 198.112 11.8725 197.55 10.9868C197.008 10.0806 196.457 9.13463 195.897 8.14894C195.492 7.43929 195.123 6.88864 194.791 6.49699C194.479 6.10485 194.213 5.91146 193.993 5.91681C193.653 5.92508 193.474 6.41912 193.454 7.39893C193.451 7.57889 193.447 7.76886 193.443 7.96882C193.439 8.16878 193.455 8.38825 193.49 8.62723C193.525 8.86621 193.54 9.12567 193.534 9.40562C193.529 9.68556 193.523 9.97551 193.517 10.2754L193.48 12.1351C193.469 12.715 193.468 13.2746 193.477 13.814C193.506 14.3529 193.567 14.8411 193.658 15.2786C193.749 15.7161 193.792 16.0748 193.787 16.3548C193.775 16.9347 193.646 17.3775 193.401 17.6833C193.155 17.989 192.882 18.1456 192.582 18.1529C192.262 18.1607 191.966 17.988 191.693 17.6349C191.44 17.2813 191.321 16.7245 191.336 15.9647L191.405 12.4854C191.427 11.3656 191.429 10.2563 191.411 9.15749C191.413 8.05819 191.373 7.02985 191.292 6.07247C191.276 5.89299 191.23 5.67425 191.155 5.41625C191.1 5.15776 191.036 4.88951 190.961 4.61151C190.907 4.33303 190.852 4.05454 190.798 3.77605C190.744 3.47757 190.719 3.19836 190.725 2.93841C190.732 2.55848 190.818 2.2366 190.984 1.97276C191.149 1.70892 191.452 1.53165 191.893 1.44097C192.234 1.37271 192.536 1.28543 192.798 1.17912C193.06 1.07282 193.349 1.11575 193.665 1.30793C194.218 1.63424 194.748 2.10102 195.256 2.70825C195.763 3.31548 196.24 3.96343 196.686 4.6521C197.152 5.34029 197.568 6.02969 197.934 6.72031C198.321 7.39045 198.649 7.96207 198.919 8.43516ZM215.764 1.66962C215.964 1.64476 216.135 1.63063 216.275 1.62723C216.435 1.60334 216.575 1.60993 216.694 1.647C216.833 1.68359 216.962 1.75042 217.08 1.84748C217.198 1.92454 217.335 2.06111 217.491 2.25718C217.667 2.47276 217.762 2.69028 217.778 2.90975C217.794 3.10923 217.73 3.29065 217.587 3.45403C217.465 3.59692 217.243 3.70225 216.922 3.77002C216.6 3.83779 216.181 3.82801 215.663 3.74068C215.444 3.70604 215.115 3.68407 214.675 3.67478C214.256 3.645 213.807 3.63595 213.327 3.64763C212.867 3.65882 212.407 3.69 211.946 3.74118C211.486 3.77237 211.065 3.84257 210.683 3.95179C210.301 4.04102 209.979 4.16878 209.716 4.33507C209.473 4.48088 209.34 4.67401 209.315 4.91445C209.245 5.43581 209.206 5.86645 209.199 6.20639C209.19 6.6663 209.304 6.99331 209.54 7.18743C209.776 7.36156 210.284 7.43914 211.064 7.42017C211.444 7.41092 211.954 7.37852 212.595 7.32296C213.255 7.26692 213.925 7.23063 214.605 7.21409C215.325 7.19657 215.994 7.23027 216.612 7.31517C217.23 7.38007 217.646 7.54982 217.861 7.82441C218.114 8.13803 218.239 8.39481 218.235 8.59477C218.228 8.93471 217.914 9.15221 217.293 9.24727C216.671 9.34234 215.921 9.40057 215.041 9.42198C214.401 9.43754 213.751 9.46335 213.091 9.4994C212.431 9.51545 211.82 9.58028 211.259 9.69388C210.697 9.78749 210.224 9.94889 209.84 10.1781C209.476 10.4068 209.27 10.7316 209.221 11.1525C209.197 11.3929 209.171 11.6534 209.146 11.9338C209.12 12.2142 209.105 12.4944 209.099 12.7744C209.093 13.1143 209.106 13.4438 209.14 13.7627C209.193 14.0812 209.278 14.359 209.393 14.596C209.529 14.8125 209.705 14.9681 209.923 15.0628C210.161 15.1569 210.461 15.1496 210.823 15.0409C211.506 14.8444 212.239 14.7066 213.02 14.6277C213.821 14.5282 214.621 14.4688 215.421 14.4493L216.321 14.4274C216.9 14.4333 217.378 14.5616 217.752 14.8123C218.127 15.063 218.312 15.3283 218.306 15.6083C218.302 15.8083 218.169 15.9914 217.905 16.1577C217.663 16.3035 217.242 16.3837 216.642 16.3983C215.762 16.4197 214.841 16.4921 213.88 16.6154C212.918 16.7187 212.016 16.8606 211.173 17.041C210.651 17.1536 210.119 17.3165 209.575 17.5296C209.051 17.7422 208.579 17.8536 208.159 17.8638C207.779 17.8731 207.462 17.7509 207.207 17.4972C206.952 17.2436 206.803 16.7376 206.758 15.9792C206.743 15.7197 206.728 15.4703 206.713 15.2308C206.717 14.9909 206.722 14.7409 206.727 14.481C206.746 13.5411 206.795 12.5906 206.874 11.6293C206.973 10.6676 207.032 9.70679 207.051 8.74698C207.059 8.32706 207.057 7.91738 207.045 7.51795C207.033 7.09852 207.001 6.68957 206.949 6.29111C206.913 6.13211 206.867 5.92337 206.812 5.66488C206.757 5.38639 206.703 5.08791 206.65 4.76943C206.596 4.45096 206.552 4.13223 206.519 3.81327C206.485 3.49431 206.471 3.19485 206.477 2.91491C206.485 2.47499 206.562 2.15335 206.706 1.94999C206.87 1.70614 207.133 1.53985 207.495 1.45111C207.857 1.34237 208.278 1.28216 208.757 1.27049C209.297 1.25735 209.886 1.28299 210.525 1.34741C211.163 1.41183 211.801 1.47625 212.439 1.54066C213.057 1.60557 213.646 1.6612 214.205 1.70757C214.784 1.73345 215.303 1.72081 215.764 1.66962ZM221.299 10.7987L221.337 8.87905C221.349 8.29916 221.35 7.73951 221.341 7.20011C221.352 6.64022 221.33 6.20103 221.277 5.88255C221.19 5.20512 221.083 4.55816 220.955 3.94169C220.828 3.32522 220.769 2.77703 220.778 2.29712C220.786 1.8972 220.863 1.56556 221.008 1.30221C221.173 1.03837 221.456 0.851592 221.858 0.741882C222.32 0.630713 222.841 0.548078 223.422 0.493977C224.023 0.419396 224.613 0.375051 225.193 0.360943C225.473 0.354133 225.733 0.357807 225.972 0.371965C226.212 0.366127 226.452 0.370287 226.691 0.384446C227.49 0.444971 228.195 0.627662 228.809 0.932519C229.422 1.23738 229.934 1.62465 230.345 2.09434C230.755 2.56403 231.064 3.09614 231.272 3.69067C231.48 4.2852 231.578 4.90241 231.565 5.54228C231.55 6.32213 231.365 7.10611 231.009 7.89423C230.674 8.66186 230.151 9.35414 229.439 9.97104C229.053 10.3202 228.708 10.5784 228.405 10.7457C228.122 10.8925 227.979 11.0759 227.974 11.2958C227.971 11.4558 228.057 11.6536 228.232 11.8891C228.408 12.1247 228.691 12.4376 229.083 12.8278C229.358 13.1009 229.583 13.2953 229.761 13.4109C229.959 13.506 230.216 13.6596 230.531 13.8718C230.965 14.1811 231.369 14.441 231.745 14.6517C232.14 14.862 232.335 15.1071 232.33 15.387C232.327 15.547 232.223 15.7494 232.018 15.9942C231.833 16.2385 231.48 16.437 230.957 16.5896C230.756 16.6545 230.507 16.6006 230.211 16.4279C229.915 16.2552 229.599 16.043 229.264 15.7914C228.95 15.5392 228.635 15.277 228.321 15.0049C228.026 14.7322 227.781 14.5184 227.584 14.3632C227.426 14.2672 227.199 14.1228 226.903 13.9301C226.627 13.717 226.312 13.5048 225.956 13.2936C225.126 12.8341 224.531 12.6088 224.171 12.6175C223.751 12.6277 223.536 12.9228 223.524 13.5027C223.519 13.7626 223.561 14.1413 223.651 14.6388C223.742 15.1363 223.783 15.565 223.776 15.9249C223.767 16.3848 223.64 16.7477 223.395 17.0134C223.15 17.2592 222.709 17.3099 222.073 17.1655C221.735 17.0738 221.522 16.7092 221.435 16.0718C221.368 15.4139 221.342 14.685 221.358 13.8851L221.379 12.8354C221.387 12.4354 221.384 12.0557 221.372 11.6963C221.379 11.3364 221.355 11.0372 221.299 10.7987ZM223.406 7.35972C223.436 7.83865 223.509 8.21663 223.623 8.49365C223.738 8.75068 223.884 8.947 224.061 9.08259C224.238 9.21819 224.437 9.3033 224.656 9.33794C224.895 9.3521 225.155 9.34578 225.435 9.31897C225.916 9.2673 226.307 9.20783 226.608 9.14054C226.93 9.05278 227.191 8.94647 227.394 8.82163C227.616 8.6963 227.799 8.55195 227.942 8.38858C228.105 8.20472 228.289 8.00038 228.494 7.77556C228.841 7.36737 229.089 6.9816 229.236 6.61827C229.383 6.25493 229.46 5.9033 229.467 5.56337C229.475 5.12345 229.373 4.72621 229.161 4.37163C228.968 3.99657 228.705 3.6832 228.37 3.43152C228.055 3.15936 227.69 2.9584 227.273 2.82864C226.856 2.67889 226.438 2.60912 226.018 2.61934C225.658 2.62809 225.307 2.69659 224.964 2.82484C224.643 2.9326 224.339 3.11987 224.054 3.38663C223.81 3.61242 223.633 3.93649 223.525 4.35884C223.437 4.78071 223.387 5.27158 223.376 5.83147C223.371 6.07143 223.366 6.32138 223.361 6.58133C223.377 6.82079 223.391 7.08026 223.406 7.35972Z" fill="black"/>
</g>
<defs>
<filter id="filter0_d_559_808" x="0" y="0" width="236.635" height="30.8311" filterUnits="userSpaceOnUse" color-interpolation-filters="sRGB">
<feFlood flood-opacity="0" result="BackgroundImageFix"/>
<feColorMatrix in="SourceAlpha" type="matrix" values="0 0 0 0 0 0 0 0 0 0 0 0 0 0 0 0 0 0 127 0" result="hardAlpha"/>
<feOffset dy="4"/>
<feGaussianBlur stdDeviation="2"/>
<feComposite in2="hardAlpha" operator="out"/>
<feColorMatrix type="matrix" values="0 0 0 0 0 0 0 0 0 0 0 0 0 0 0 0 0 0 0.25 0"/>
<feBlend mode="normal" in2="BackgroundImageFix" result="effect1_dropShadow_559_808"/>
<feBlend mode="normal" in="SourceGraphic" in2="effect1_dropShadow_559_808" result="shape"/>
</filter>
</defs>
</svg>
