<svg width="268" height="22" viewBox="0 0 268 22" fill="none" xmlns="http://www.w3.org/2000/svg">
<path d="M3.42291 17.3061C3.41792 17.3993 3.40856 17.5741 3.39483 17.8304C3.38235 18.0634 3.38091 18.3079 3.39051 18.5641C3.40011 18.8203 3.3993 19.0532 3.38807 19.2629C3.40017 19.4724 3.42955 19.5771 3.47622 19.5768C3.56043 20.1819 3.4538 20.6484 3.15633 20.9763C2.85887 21.3042 2.53514 21.4692 2.18514 21.4714C1.99848 21.4725 1.80265 21.4271 1.59764 21.3352C1.41722 21.2199 1.27492 21.046 1.17073 20.8138C1.0653 20.6048 1.03361 20.3255 1.07567 19.9758C1.1423 19.6027 1.1856 19.2298 1.20557 18.857C1.24177 18.1813 1.25526 17.4941 1.24603 16.7954C1.23681 16.0967 1.23863 15.4095 1.25149 14.734C1.2777 14.2447 1.30516 13.7321 1.33387 13.1962C1.38715 12.6368 1.42815 12.0892 1.45686 11.5533C1.49929 10.7611 1.50548 9.99245 1.47542 9.24728C1.46869 8.50197 1.3901 7.79203 1.23963 7.11748C1.22129 7.02442 1.18648 6.80336 1.1352 6.45429C1.08517 6.08192 1.03577 5.6979 0.986987 5.30223C0.962787 4.88312 0.947758 4.51054 0.941898 4.18448C0.959372 3.85828 1.01602 3.6716 1.11185 3.62442C1.12558 3.36812 1.2516 3.19266 1.48993 3.09803C1.72825 3.0034 1.98553 2.99018 2.26178 3.05836C2.56137 3.1264 2.84554 3.26441 3.1143 3.47239C3.38306 3.68038 3.54371 3.94725 3.59623 4.27302C3.6671 4.69185 3.71276 5.14577 3.73321 5.63478C3.777 6.12365 3.79746 6.61266 3.79458 7.10182C3.81504 7.59083 3.81341 8.05669 3.78969 8.49938C3.79056 8.91864 3.78288 9.27972 3.76666 9.58262C3.74918 9.90882 3.84295 10.1179 4.04795 10.2098C4.2542 10.2784 4.51941 10.335 4.84358 10.3796C5.02774 10.4251 5.21316 10.4472 5.39982 10.4461C5.58648 10.4449 5.77315 10.4438 5.95981 10.4426C6.5198 10.4392 7.1277 10.4122 7.78352 10.3616C8.44059 10.2877 9.13078 10.2485 9.8541 10.2441C10.252 10.2183 10.6395 10.1694 11.0166 10.0972C11.3936 10.025 11.7505 9.8947 12.0871 9.7063C12.2788 9.61196 12.4171 9.42477 12.5021 9.14474C12.5883 8.84141 12.6414 8.50335 12.6614 8.13055C12.6901 7.59465 12.6734 7.03574 12.6112 6.45381C12.5737 5.84844 12.552 5.38273 12.5461 5.05668C12.5394 4.31136 12.6037 3.7636 12.7391 3.41339C12.8758 3.03987 13.1449 2.8053 13.5465 2.70967C13.7836 2.63834 14.0176 2.62526 14.2484 2.67043C14.4792 2.7156 14.672 2.81923 14.8265 2.98133C15.0057 3.11998 15.1345 3.32883 15.2128 3.60785C15.2924 3.86358 15.2873 4.17806 15.1973 4.55129C15.1215 5.53003 15.0827 6.4736 15.0806 7.38201C15.0786 8.29042 15.0754 9.22213 15.0709 10.1771C15.0618 10.7828 15.0268 11.4352 14.966 12.1343C14.9298 12.81 14.893 13.4974 14.8556 14.1964C14.8219 14.8255 14.8005 15.4429 14.7914 16.0485C14.7822 16.6542 14.8112 17.2014 14.8784 17.6901C14.9075 18.016 14.9263 18.3187 14.9347 18.5981C14.9676 18.8542 14.9772 19.1103 14.9635 19.3666C14.931 19.9724 14.8348 20.4621 14.6749 20.8358C14.5161 21.1861 14.3428 21.3735 14.1549 21.398C13.3616 21.4029 12.8539 21.3012 12.6318 21.0929C12.4343 20.8612 12.2957 20.6175 12.2161 20.3617C12.2632 19.9189 12.3546 19.3011 12.4903 18.5083C12.6261 17.7155 12.7158 16.9114 12.7595 16.0959C12.7845 15.6299 12.7726 15.1991 12.7238 14.8034C12.6996 14.3843 12.6262 14.0121 12.5037 13.6867C12.3591 13.3382 12.137 13.13 11.8374 13.0619C11.5378 12.9939 11.1768 12.9844 10.7543 13.0336C10.1218 13.0841 9.33892 13.1122 8.40561 13.1179C7.49687 13.1002 6.62064 13.1288 5.77691 13.2039C5.26109 13.2536 4.84965 13.3144 4.54257 13.3861C4.2355 13.4579 4.00822 13.5641 3.86074 13.7048C3.71325 13.8454 3.62098 14.044 3.58391 14.3004C3.5481 14.5336 3.53063 14.8598 3.53149 15.279L3.42291 17.3061ZM26.0491 15.7349C26.0145 15.9448 25.9995 16.2244 26.0042 16.5737C26.0088 16.9231 26.0005 17.2958 25.9792 17.6919C25.958 18.088 25.9135 18.4842 25.8456 18.8806C25.801 19.2769 25.7234 19.6384 25.6126 19.9652C25.5251 20.2918 25.3941 20.5604 25.2195 20.7711C25.0462 20.9585 24.8195 21.0531 24.5395 21.0548C24.1196 21.0574 23.631 20.8158 23.0739 20.3301C22.918 20.1913 22.8335 20.0288 22.8201 19.8425C22.8068 19.6563 22.8284 19.4698 22.8851 19.2831C22.9417 19.0964 23.01 18.9097 23.09 18.7228C23.1712 18.5127 23.2279 18.326 23.26 18.1628C23.3303 17.7198 23.3897 17.2652 23.438 16.7991C23.5108 16.3095 23.561 15.8084 23.5885 15.2958C23.6521 14.1075 23.5856 12.955 23.3888 11.8381C23.2154 10.7212 22.7974 9.81533 22.1349 9.12062C21.8907 8.8892 21.5134 8.53048 21.0029 8.04447C20.4925 7.55847 19.96 7.0493 19.4053 6.51698C18.8753 5.96121 18.3907 5.42846 17.9515 4.91872C17.5123 4.40899 17.2535 4.0146 17.1752 3.73558C17.0589 3.29374 17.193 2.96682 17.5776 2.75483C17.9867 2.5194 18.4129 2.40033 18.8563 2.39761C19.1129 2.39604 19.3438 2.44121 19.5488 2.53312C19.755 2.60173 19.8765 2.72909 19.9132 2.91521C20.1144 3.07702 20.3886 3.40143 20.7357 3.88844C21.0828 4.37545 21.4877 4.87375 21.9502 5.38335C22.414 5.86964 22.9159 6.29747 23.4559 6.66684C24.0193 7.03606 24.6178 7.18379 25.2515 7.11003C25.5561 7.08487 25.9198 6.82642 26.3427 6.33469C26.7656 5.84296 27.2026 5.30456 27.6538 4.71949C28.1062 4.11112 28.5451 3.53776 28.9705 2.99943C29.4192 2.46096 29.8223 2.12075 30.1798 1.97881C30.4427 1.86073 30.7079 1.91734 30.9754 2.14862C31.2675 2.35646 31.5313 2.65764 31.7667 3.05217C31.9163 3.30747 31.9118 3.61029 31.753 3.96065C31.5956 4.28771 31.3435 4.63864 30.9969 5.01344C30.6736 5.3881 30.279 5.78649 29.8133 6.2086C29.3708 6.63058 28.94 7.05248 28.5209 7.47431C28.0268 7.98977 27.6222 8.57455 27.3073 9.22867C27.0169 9.85934 26.7824 10.5363 26.6037 11.2594C26.425 11.9826 26.2918 12.7287 26.2039 13.4979C26.1394 14.267 26.0878 15.0126 26.0491 15.7349ZM35.0907 2.89204C36.3656 2.60471 37.6214 2.45726 38.8581 2.44968C40.538 2.43938 42.0864 2.7094 43.503 3.25973C44.9443 3.78661 46.1231 4.6412 47.0394 5.82349C47.4111 6.28706 47.6889 6.76284 47.8727 7.25086C48.0564 7.73887 48.1929 8.23881 48.2821 8.7507C48.3959 9.23914 48.4612 9.76281 48.4779 10.3217C48.5192 10.8572 48.5599 11.4043 48.5999 11.9631C48.51 13.6407 48.1189 15.0639 47.4265 16.2328C46.7575 17.4015 45.8663 18.3619 44.753 19.1141C43.6631 19.8661 42.3971 20.4213 40.9551 20.7795C39.5377 21.1143 38.0473 21.2865 36.484 21.296C35.6207 21.3013 34.9171 21.1542 34.3734 20.8548C33.8309 20.532 33.631 20.1256 33.7739 19.6356C33.7939 19.2628 33.8005 18.7038 33.7938 17.9584C33.8116 17.1897 33.8105 16.3395 33.7904 15.408C33.7949 14.453 33.7774 13.4748 33.7377 12.4735C33.7226 11.4487 33.6909 10.5172 33.6425 9.67897C33.6174 8.8406 33.5849 8.14203 33.5448 7.58326C33.506 7.00119 33.4541 6.66377 33.3891 6.571C33.182 6.08313 33.0909 5.6062 33.1159 5.1402C33.1508 4.4878 33.376 3.98564 33.7914 3.63371C34.208 3.25848 34.6411 3.01125 35.0907 2.89204ZM36.3164 12.6673C36.3449 13.8783 36.3624 14.8565 36.3692 15.6018C36.4005 16.3237 36.4638 16.8823 36.5593 17.2777C36.656 17.6497 36.8179 17.8933 37.045 18.0084C37.2721 18.1235 37.5962 18.1681 38.0175 18.1422C38.9533 18.0899 39.7878 17.9683 40.5211 17.7774C41.279 17.5632 41.9479 17.2679 42.5279 16.8917C43.1091 16.4922 43.6247 16.0115 44.0746 15.4497C44.5492 14.8645 44.9716 14.1632 45.3419 13.3457C45.7123 12.5282 45.9187 11.7233 45.9611 10.9311C46.0098 10.0224 45.8312 9.21992 45.4253 8.52364C45.0428 7.82722 44.5256 7.24808 43.8739 6.78623C43.2456 6.32424 42.5293 5.97925 41.7251 5.75125C40.9443 5.52312 40.1922 5.41127 39.4689 5.4157C38.6056 5.42099 37.8612 5.60025 37.2359 5.95347C36.6117 6.28339 36.2816 6.78619 36.2454 7.46189C36.2379 7.60169 36.2346 7.88122 36.2355 8.30047C36.2609 8.69629 36.2832 9.15035 36.3024 9.66266C36.3216 10.175 36.3279 10.7107 36.3213 11.2697C36.3393 11.8053 36.3376 12.2712 36.3164 12.6673ZM51.4778 13.5875L51.5976 11.3508C51.6338 10.6751 51.6571 10.0227 51.6675 9.39377C51.7024 8.74138 51.6949 8.22899 51.6449 7.85662C51.5706 7.06514 51.4712 6.30875 51.3466 5.58745C51.2219 4.86616 51.1746 4.22591 51.2045 3.66671C51.2295 3.20071 51.3318 2.81576 51.5113 2.51186C51.7142 2.20782 52.0521 1.99612 52.525 1.87676C53.0679 1.75697 53.6789 1.6717 54.3581 1.62095C55.0618 1.54676 55.752 1.50759 56.4286 1.50344C56.7553 1.50144 57.058 1.51123 57.3367 1.53281C57.6167 1.5311 57.8961 1.54103 58.1749 1.56261C59.1032 1.65009 59.919 1.87801 60.6224 2.24638C61.3257 2.61474 61.9074 3.07702 62.3675 3.63321C62.8275 4.18941 63.1671 4.81622 63.3863 5.51364C63.6056 6.21107 63.6952 6.93258 63.6553 7.67818C63.6066 8.58687 63.3596 9.49679 62.9142 10.4079C62.4935 11.2956 61.8561 12.0914 61.002 12.7955C60.5374 13.1943 60.1252 13.4879 59.7652 13.6765C59.4298 13.8416 59.2552 14.0523 59.2415 14.3086C59.2315 14.495 59.324 14.7274 59.519 15.0057C59.7141 15.284 60.0324 15.6547 60.4741 16.1178C60.7833 16.442 61.0391 16.6734 61.2417 16.8119C61.4687 16.927 61.7621 17.1115 62.1217 17.3655C62.615 17.7352 63.0765 18.0468 63.5061 18.3004C63.959 18.5538 64.1768 18.8436 64.1593 19.1698C64.1493 19.3562 64.0202 19.5899 63.7719 19.871C63.5469 20.1519 63.1267 20.3757 62.5113 20.5425C62.2742 20.6139 61.9863 20.5457 61.6476 20.3382C61.3088 20.1306 60.9492 19.8766 60.5688 19.5762C60.2117 19.2755 59.8552 18.9633 59.4993 18.6394C59.1668 18.3153 58.8889 18.0608 58.6655 17.8758C58.4851 17.7605 58.2261 17.5874 57.8886 17.3565C57.5757 17.1022 57.2161 16.8482 56.8098 16.5945C55.8598 16.0413 55.1748 15.766 54.7548 15.7686C54.2648 15.7716 54.0017 16.1109 53.9655 16.7866C53.9493 17.0895 53.9839 17.5319 54.0694 18.1137C54.1549 18.6954 54.1864 19.196 54.1639 19.6154C54.1352 20.1513 53.9727 20.5716 53.6765 20.8762C53.3815 21.1575 52.8657 21.2073 52.129 21.0254C51.7386 20.9114 51.505 20.4819 51.4283 19.737C51.3762 18.9687 51.3751 18.1185 51.425 17.1865L51.4905 15.9633C51.5155 15.4973 51.5275 15.0547 51.5267 14.6354C51.5491 14.216 51.5328 13.8667 51.4778 13.5875ZM54.0693 9.62362C54.086 10.1825 54.1557 10.6247 54.2782 10.95C54.402 11.252 54.5645 11.484 54.7657 11.6458C54.967 11.8076 55.1947 11.911 55.4489 11.956C55.7276 11.9776 56.0309 11.9758 56.3589 11.9505C56.9213 11.9004 57.3795 11.8394 57.7332 11.7673C58.1115 11.6718 58.4211 11.5535 58.6619 11.4123C58.926 11.2709 59.1448 11.1065 59.3181 10.9191C59.516 10.7083 59.7385 10.474 59.9855 10.2162C60.4071 9.74781 60.7109 9.30339 60.8966 8.88299C61.0824 8.46259 61.186 8.05434 61.2072 7.65825C61.2346 7.14565 61.1313 6.68044 60.8971 6.26261C60.6874 5.82134 60.3924 5.45047 60.012 5.15001C59.6561 4.8261 59.2376 4.58409 58.7563 4.424C58.2763 4.2406 57.7913 4.15041 57.3013 4.15341C56.8813 4.15599 56.4693 4.22839 56.0651 4.37062C55.6856 4.48941 55.3243 4.70125 54.9814 5.00616C54.6877 5.26417 54.4694 5.63818 54.3265 6.1282C54.207 6.61807 54.1298 7.1892 54.0948 7.8416C54.0798 8.1212 54.0642 8.41245 54.048 8.71535C54.0564 8.99481 54.0635 9.29756 54.0693 9.62362ZM76.4905 2.60329C76.7434 2.67162 76.9753 2.91477 77.1861 3.33274C77.4216 3.72726 77.6397 4.22671 77.8406 4.83108C78.0427 5.41214 78.2301 6.05153 78.4026 6.74924C78.5998 7.42351 78.7619 8.09799 78.889 8.77269C79.0408 9.42394 79.1606 10.0172 79.2486 10.5523C79.3598 11.0874 79.4436 11.4828 79.4999 11.7387C79.7421 12.8785 80.023 13.9483 80.3426 14.9479C80.6623 15.9475 80.9292 16.8426 81.1435 17.6332C81.3823 18.4004 81.5229 19.0401 81.5655 19.5523C81.6314 20.0643 81.5199 20.4027 81.2312 20.5675C80.7496 20.85 80.3454 20.9922 80.0188 20.9942C79.4588 20.9976 79.0642 20.7438 78.835 20.2328C78.7112 19.9308 78.601 19.5937 78.5043 19.2216C78.4309 18.8494 78.3569 18.4888 78.2823 18.1399C78.231 17.7908 78.1662 17.4768 78.0879 17.1978C78.0341 16.8953 77.9643 16.6744 77.8784 16.5352C77.7484 16.3497 77.5213 16.2346 77.1972 16.19C76.8743 16.1221 76.4911 16.0895 76.0478 16.0922C75.6512 16.0947 75.2416 16.1205 74.8191 16.1696C74.3979 16.1955 73.976 16.233 73.5535 16.2822C73.1543 16.3313 72.7669 16.3802 72.391 16.4291C72.0398 16.4545 71.7475 16.468 71.5142 16.4694C71.0242 16.4724 70.6323 16.6029 70.3386 16.8609C70.0682 17.1188 69.842 17.423 69.6599 17.7735C69.5012 18.1239 69.3413 18.4975 69.18 18.8945C69.0422 19.2913 68.8607 19.6301 68.6358 19.911C68.3616 20.2388 68.0569 20.4852 67.7215 20.6503C67.3861 20.8154 67.0667 20.8989 66.7634 20.9008C66.39 20.9031 66.1059 20.7651 65.9109 20.4867C65.7404 20.185 65.801 19.7071 66.0926 19.0532C66.5159 18.1189 66.9397 17.1729 67.3642 16.2153C67.8121 15.2576 68.2482 14.3 68.6727 13.3424C69.1255 12.2914 69.5998 11.2753 70.0956 10.294C70.6147 9.31255 71.1239 8.29622 71.6234 7.245C71.8326 6.82446 72.0338 6.33409 72.2271 5.77389C72.4216 5.19039 72.6492 4.64163 72.91 4.1276C73.1708 3.61357 73.4739 3.1808 73.8193 2.8293C74.1892 2.45436 74.6426 2.26524 75.1792 2.26195C75.5992 2.25938 76.0363 2.37316 76.4905 2.60329ZM76.7217 10.0438C76.6275 9.62508 76.4812 9.09025 76.2828 8.43928C76.0844 7.78832 75.9388 7.24184 75.8458 6.79986C75.7908 6.52069 75.6952 6.34658 75.5589 6.27754C75.4472 6.18506 75.3202 6.16254 75.1777 6.21C75.0597 6.23402 74.9393 6.30463 74.8164 6.42185C74.6935 6.53906 74.5817 6.66785 74.4808 6.80823C74.4059 6.90185 74.3161 7.0538 74.2115 7.26408C74.1082 7.45105 73.992 7.66139 73.8628 7.89511C73.7583 8.10538 73.6414 8.32737 73.5123 8.56108C73.3844 8.7715 73.2817 8.94682 73.2042 9.08705C72.9226 9.55462 72.6778 9.98703 72.4699 10.3843C72.2854 10.7814 72.1223 11.2133 71.9807 11.68C71.844 12.0535 71.7818 12.345 71.7939 12.5546C71.806 12.7642 71.8445 12.9153 71.9095 13.0081C71.9979 13.1007 72.0997 13.1583 72.2151 13.1809C72.3551 13.18 72.4835 13.1793 72.6001 13.1785C72.928 13.1532 73.3487 13.139 73.862 13.1359C74.3753 13.1327 74.8316 13.1066 75.2307 13.0576C75.372 13.0334 75.5592 13.0207 75.7926 13.0192C76.0271 12.9945 76.2396 12.9466 76.43 12.8756C76.6438 12.8044 76.8121 12.7102 76.935 12.593C77.0592 12.4524 77.1042 12.2658 77.07 12.0331C77.0504 11.9634 77.0229 11.8238 76.9874 11.6144C76.9532 11.3816 76.9074 11.149 76.8499 10.9164C76.8157 10.6837 76.7796 10.486 76.7417 10.3231C76.7284 10.1369 76.7217 10.0438 76.7217 10.0438ZM85.1832 8.94373C85.2044 8.54764 85.2133 8.16326 85.2099 7.7906C85.2312 7.3945 85.229 6.99855 85.2036 6.60274C85.1794 6.18362 85.1269 5.85785 85.046 5.62543C84.9898 5.36956 84.872 5.17229 84.6929 5.03364C84.537 4.89484 84.2976 4.79149 83.9747 4.72359C83.6751 4.65555 83.2699 4.59981 82.7591 4.55635C82.1083 4.51376 81.5649 4.42392 81.1291 4.28684C80.6945 4.12646 80.5093 3.88303 80.5734 3.55654C80.6034 2.99734 80.8094 2.63505 81.1915 2.46966C81.5748 2.28097 82.0348 2.18498 82.5714 2.18169C83.0147 2.17898 83.4679 2.21114 83.9308 2.27817C84.3949 2.32191 84.8026 2.33106 85.1539 2.30562C85.763 2.2553 86.5245 2.1924 87.4382 2.11692C88.3532 2.01814 89.219 1.96625 90.0356 1.96124C90.6656 1.95738 91.2115 2.00062 91.6731 2.09096C92.136 2.158 92.4312 2.30758 92.5588 2.53973C92.5796 2.58618 92.6225 2.6558 92.6875 2.74857C92.7538 2.81804 92.8071 2.91088 92.8475 3.02709C92.9126 3.11986 92.9542 3.21278 92.9726 3.30583C92.9909 3.39889 92.9645 3.45728 92.8932 3.48101C92.8757 3.80721 92.6668 4.00648 92.2664 4.07881C91.8893 4.151 91.4435 4.20032 90.9289 4.22676C90.4389 4.22977 89.9477 4.25607 89.4552 4.30567C88.9627 4.35528 88.593 4.50894 88.3459 4.76667C88.1492 4.95422 87.9966 5.40935 87.8879 6.13208C87.8025 6.85466 87.7361 7.65865 87.6887 8.54405C87.66 9.07995 87.6313 9.61585 87.6026 10.1517C87.5972 10.6875 87.5937 11.1883 87.5921 11.6542C87.5905 12.12 87.5797 12.5393 87.5597 12.9121C87.541 13.2616 87.5272 13.5179 87.5185 13.681C87.4665 14.2171 87.4573 14.8227 87.4911 15.498C87.5262 16.15 87.5263 16.8022 87.4913 17.4546C87.4676 17.8973 87.4108 18.3052 87.3208 18.6784C87.2541 19.0515 87.1206 19.3668 86.9202 19.6242C86.5465 20.0691 86.1963 20.2925 85.8697 20.2945C85.6597 20.2958 85.4651 20.2271 85.2859 20.0885C85.108 19.9265 84.9547 19.7411 84.8259 19.5323C84.6971 19.3234 84.5923 19.1028 84.5115 18.8704C84.4552 18.6145 84.4327 18.3817 84.4439 18.172C84.4913 17.2866 84.6113 16.3542 84.8037 15.3747C84.9974 14.372 85.1198 13.3929 85.1709 12.4377C85.1884 12.1115 85.1819 11.797 85.1515 11.4944C85.1444 11.1917 85.125 10.9006 85.0933 10.6213L85.1832 8.94373ZM102.118 11.6C102.129 11.8329 102.129 12.0542 102.118 12.2639C102.106 12.4736 102.096 12.6716 102.086 12.858C102.046 13.6036 101.989 14.2329 101.915 14.7458C101.842 15.2353 101.812 15.5733 101.825 15.7595C101.823 16.2487 101.814 16.633 101.799 16.9126C101.807 17.1921 101.818 17.4133 101.833 17.5763C101.871 17.7391 101.947 17.8434 102.061 17.8893C102.175 17.9352 102.361 17.9574 102.617 17.9558C102.781 17.9548 102.967 17.9536 103.177 17.9523C103.412 17.9276 103.693 17.9142 104.019 17.9122L105.559 17.9028C105.558 17.9261 105.662 17.9371 105.872 17.9358C106.082 17.9345 106.315 17.9448 106.571 17.9665C106.826 17.9882 107.068 18.0333 107.298 18.1018C107.529 18.1469 107.677 18.2159 107.742 18.3087C107.828 18.4479 107.866 18.5991 107.857 18.7622C107.872 18.9251 107.863 19.0999 107.829 19.2864C107.733 19.7762 107.565 20.0916 107.324 20.2329C107.108 20.3506 106.836 20.4105 106.509 20.4125C106.323 20.4137 106.101 20.415 105.844 20.4166C105.612 20.3948 105.368 20.3846 105.111 20.3862C104.526 20.4364 103.988 20.4629 103.498 20.4659C103.008 20.469 102.482 20.4838 101.921 20.5106C101.453 20.5367 100.811 20.5523 99.994 20.5573C99.1773 20.5623 98.4048 20.6136 97.6765 20.7113C97.2774 20.7603 96.853 20.8444 96.4035 20.9636C95.976 21.106 95.5639 21.1784 95.1672 21.1808C94.7706 21.1833 94.4385 21.0689 94.171 20.8376C93.9256 20.6294 93.7957 20.2226 93.7815 19.6171C93.7732 19.3377 93.82 19.1161 93.9221 18.9524C94.0475 18.7886 94.206 18.6595 94.3977 18.5652C94.5893 18.4708 94.7914 18.3997 95.0039 18.3518C95.2397 18.3038 95.4516 18.2676 95.6395 18.2431C95.9207 18.2181 96.1897 18.2048 96.4464 18.2032C96.7264 18.2015 97.0063 18.1998 97.2863 18.1981C97.7297 18.1954 98.0692 18.17 98.3051 18.122C98.5642 18.0738 98.7565 17.9678 98.8819 17.804C99.0086 17.6169 99.0923 17.3601 99.1331 17.0338C99.1739 16.7075 99.2216 16.253 99.2761 15.6703C99.3294 15.111 99.3821 14.5633 99.4341 14.0273C99.4874 13.4679 99.529 12.9086 99.559 12.3494C99.5689 12.163 99.5789 11.9766 99.5889 11.7902C99.6001 11.5805 99.5997 11.3709 99.5876 11.1614C99.5917 10.6489 99.6125 10.0432 99.65 9.34418C99.6887 8.62188 99.7021 7.93468 99.6904 7.28257C99.6604 6.5374 99.6049 6.0486 99.5241 5.81617C99.4432 5.58375 99.2511 5.46846 98.9478 5.47032C98.7611 5.47147 98.5265 5.4962 98.2441 5.54451C97.9849 5.59269 97.6557 5.64129 97.2566 5.69032C96.9041 5.73907 96.5762 5.76437 96.2729 5.76623C95.9941 5.74465 95.7068 5.66488 95.411 5.52694C95.0918 5.38915 94.8574 5.1926 94.7078 4.9373C94.5582 4.682 94.4903 4.42621 94.504 4.16991C94.5177 3.91361 94.5886 3.68025 94.7165 3.46984C94.8689 3.23598 95.0766 3.06001 95.3395 2.94194C95.5312 2.8476 95.7326 2.78813 95.9439 2.76354C96.1785 2.73881 96.4241 2.72566 96.6807 2.72409C97.2874 2.72037 97.9259 2.77468 98.5963 2.88704C99.268 2.97609 99.8372 3.01918 100.304 3.01632C100.794 3.01332 101.26 3.01046 101.704 3.00774C102.172 2.98158 102.627 2.96714 103.071 2.96442C103.304 2.96299 103.526 2.96163 103.736 2.96034C103.946 2.95906 104.155 2.96942 104.364 2.99143C104.622 2.96656 104.868 2.94176 105.102 2.91703C105.337 2.8923 105.571 2.87921 105.804 2.87778C106.271 2.87492 106.664 2.94239 106.983 3.08019C107.302 3.21799 107.498 3.48465 107.57 3.88017C107.623 4.20594 107.597 4.47396 107.492 4.68424C107.412 4.87106 107.276 5.0233 107.083 5.14094C106.914 5.23515 106.701 5.30633 106.441 5.35451C106.183 5.37938 105.926 5.3926 105.67 5.39418C105.483 5.39532 105.296 5.39647 105.11 5.39761C104.924 5.37545 104.761 5.36481 104.621 5.36566C104.295 5.36767 104.015 5.35773 103.783 5.33586C103.551 5.31399 103.342 5.30363 103.155 5.30478C102.805 5.30692 102.566 5.4132 102.438 5.62362C102.334 5.83389 102.273 6.31175 102.257 7.05721C102.246 7.68616 102.229 8.44327 102.205 9.32852C102.205 10.1903 102.177 10.9475 102.118 11.6ZM110.942 7.42322C111.352 6.30268 111.859 5.33294 112.462 4.51401C113.089 3.69494 113.79 3.02681 114.564 2.50964C115.338 1.99246 116.151 1.6148 117.004 1.37665C117.881 1.11506 118.774 0.981474 119.684 0.975895C120.968 0.968028 122.215 1.1933 123.427 1.65172C124.663 2.08669 125.749 2.72058 126.684 3.55337C127.643 4.36271 128.395 5.34802 128.94 6.5093C129.484 7.67058 129.718 8.96187 129.642 10.3832C129.617 10.8492 129.557 11.3037 129.464 11.7469C129.243 12.8196 128.837 13.8586 128.247 14.8638C127.681 15.8456 126.981 16.735 126.145 17.532C125.334 18.3057 124.412 18.9751 123.378 19.5405C122.37 20.0824 121.311 20.4616 120.203 20.678C119.449 20.8224 118.687 20.8969 117.917 20.9016C116.797 20.9085 115.699 20.7289 114.622 20.3628C113.57 19.9733 112.674 19.28 111.935 18.283C111.108 17.17 110.535 16.1137 110.215 15.1141C109.919 14.1144 109.799 13.0903 109.855 12.0418C109.893 11.3195 110.003 10.5851 110.183 9.83863C110.387 9.06873 110.64 8.26359 110.942 7.42322ZM117.133 4.83476C115.62 5.65927 114.477 6.73772 113.706 8.0701C112.96 9.37905 112.55 10.7209 112.476 12.0956C112.432 12.9111 112.507 13.7025 112.699 14.47C112.915 15.214 113.253 15.8758 113.712 16.4553C114.172 17.0115 114.754 17.4621 115.459 17.8072C116.165 18.1289 116.996 18.2869 117.953 18.281C118.279 18.279 118.618 18.2653 118.969 18.2399C119.345 18.191 119.735 18.1071 120.138 17.9881C121.155 17.7257 122.023 17.4059 122.743 17.0288C123.464 16.6284 124.072 16.1705 124.566 15.655C125.085 15.1161 125.525 14.5195 125.886 13.8651C126.249 13.1874 126.593 12.4399 126.916 11.6227C127.106 11.1324 127.216 10.596 127.247 10.0135C127.281 9.38442 127.232 8.77912 127.1 8.19762C126.969 7.59283 126.784 7.11647 126.547 6.76854C125.943 5.84055 125.106 5.14692 124.034 4.68764C122.963 4.20506 121.833 3.96742 120.643 3.97472C120.037 3.97844 119.426 4.05206 118.812 4.19558C118.221 4.33895 117.662 4.55201 117.133 4.83476ZM141.342 9.6476C141.469 9.87974 141.641 10.1582 141.857 10.483C142.074 10.7844 142.278 11.1093 142.47 11.4575C142.899 12.1536 143.242 12.7222 143.498 13.1632C143.754 13.6041 143.964 13.8241 144.127 13.8231C144.291 13.8221 144.393 13.4372 144.434 12.6683C144.444 12.4819 144.455 12.2838 144.466 12.0741C144.477 11.8644 144.478 11.6315 144.468 11.3754C144.448 10.8863 144.465 10.3389 144.521 9.73293C144.602 9.10354 144.658 8.48595 144.691 7.88015C144.723 7.27436 144.719 6.69207 144.679 6.1333C144.662 5.57439 144.571 5.09746 144.406 4.7025C144.26 4.3773 144.161 4.05182 144.108 3.72605C144.057 3.37698 144.04 3.03935 144.058 2.71315C144.086 2.17725 144.204 1.72233 144.411 1.34839C144.642 0.950998 144.956 0.751089 145.352 0.748658C145.796 0.74594 146.305 1.04562 146.879 1.6477C146.989 1.76348 147.061 2.15901 147.095 2.83428C147.153 3.48611 147.179 4.31282 147.172 5.31443C147.188 6.3159 147.186 7.44559 147.166 8.7035C147.145 9.96141 147.123 11.2426 147.1 12.5471C147.076 13.8516 147.043 15.1213 147.001 16.356C146.981 17.5906 146.981 18.6854 147 19.6402C147.009 19.8964 146.882 20.0835 146.62 20.2016C146.38 20.3195 146.097 20.3795 145.77 20.3815C145.35 20.3841 144.911 20.3169 144.452 20.1799C144.016 20.0429 143.733 19.8815 143.603 19.696C143.231 19.2324 142.878 18.629 142.545 17.8857C142.213 17.1191 141.865 16.4224 141.502 15.7958C140.884 14.7048 140.265 13.6372 139.645 12.5928C139.049 11.525 138.444 10.4107 137.829 9.24988C137.384 8.41408 136.976 7.7644 136.604 7.30083C136.256 6.83712 135.953 6.60606 135.697 6.60763C135.3 6.61006 135.071 7.18213 135.01 8.32382C134.999 8.53352 134.987 8.75487 134.975 8.98787C134.962 9.22087 134.972 9.47703 135.003 9.75634C135.035 10.0357 135.042 10.3384 135.025 10.6646C135.007 10.9908 134.989 11.3287 134.97 11.6782L134.854 13.845C134.818 14.5207 134.795 15.1731 134.784 15.802C134.797 16.4308 134.849 17.0012 134.938 17.5131C135.027 18.025 135.063 18.444 135.045 18.7702C135.009 19.4459 134.842 19.9593 134.543 20.3106C134.244 20.6618 133.92 20.8385 133.57 20.8406C133.197 20.8429 132.858 20.6353 132.554 20.2179C132.273 19.8004 132.156 19.1489 132.203 18.2635L132.421 14.2094C132.491 12.9046 132.536 11.6116 132.558 10.3303C132.604 9.04899 132.598 7.84947 132.541 6.73179C132.529 6.52223 132.485 6.26629 132.407 5.96396C132.354 5.6615 132.289 5.34745 132.213 5.02182C132.16 4.69605 132.108 4.37028 132.055 4.04451C132.004 3.69544 131.987 3.36946 132.003 3.06656C132.027 2.62386 132.14 2.25049 132.343 1.94644C132.546 1.6424 132.906 1.44221 133.425 1.34586C133.825 1.27353 134.18 1.17818 134.49 1.05982C134.799 0.941464 135.134 0.99764 135.495 1.22835C136.127 1.62044 136.727 2.17578 137.295 2.89436C137.863 3.61294 138.394 4.37833 138.887 5.19054C139.403 6.0026 139.861 6.81502 140.261 7.6278C140.685 8.41714 141.045 9.09041 141.342 9.6476ZM160.674 12.988L160.754 11.4851C160.794 10.7395 160.824 9.95907 160.845 9.14372C160.888 8.32822 160.887 7.69934 160.841 7.25707C160.766 6.46558 160.667 5.7092 160.542 4.9879C160.418 4.2666 160.37 3.62636 160.4 3.06716C160.425 2.60116 160.528 2.21621 160.707 1.91231C160.91 1.60826 161.248 1.39656 161.721 1.2772C162.264 1.15741 162.875 1.07214 163.554 1.0214C164.234 0.947348 164.913 0.908249 165.589 0.904101C165.916 0.902098 166.219 0.900239 166.499 0.898522C166.803 0.896663 167.082 0.918246 167.336 0.963272C168.264 1.05075 169.068 1.29039 169.746 1.6822C170.45 2.05056 171.019 2.52457 171.455 3.1042C171.915 3.6604 172.243 4.28728 172.438 4.98485C172.658 5.68227 172.747 6.40378 172.707 7.14938C172.67 7.84838 172.516 8.54809 172.245 9.24852C171.998 9.9488 171.624 10.6149 171.123 11.2469C170.624 11.8555 170.012 12.4067 169.285 12.9003C168.56 13.3705 167.724 13.7367 166.777 13.9987C166.54 14.0701 166.223 14.1069 165.827 14.1094C165.453 14.1117 165.079 14.1372 164.703 14.1861C164.351 14.2349 164.03 14.3417 163.741 14.5065C163.476 14.6711 163.333 14.9399 163.313 15.3127C163.286 15.8253 163.302 16.3842 163.363 16.9894C163.424 17.5946 163.441 18.1536 163.413 18.6662C163.381 19.272 163.227 19.7504 162.952 20.1015C162.701 20.4291 162.207 20.502 161.47 20.3202C161.102 20.2293 160.864 19.8813 160.757 19.2764C160.672 18.6713 160.628 17.9845 160.622 17.2159C160.64 16.4471 160.67 15.6666 160.713 14.8744C160.755 14.0822 160.742 13.4534 160.674 12.988ZM163.265 9.02406C163.282 9.58298 163.352 10.0251 163.474 10.3504C163.598 10.6525 163.76 10.8844 163.962 11.0462C164.163 11.208 164.391 11.3115 164.645 11.3565C164.923 11.3781 165.215 11.3763 165.52 11.3511C166.106 11.3009 166.575 11.2398 166.929 11.1678C167.284 11.0724 167.582 10.9542 167.823 10.8129C168.087 10.6715 168.317 10.5071 168.514 10.3195C168.712 10.1087 168.923 9.87449 169.146 9.6169C169.94 8.72692 170.36 7.86254 170.405 7.02374C170.432 6.51114 170.341 6.04586 170.13 5.62789C169.919 5.20992 169.623 4.85071 169.243 4.55024C168.887 4.22633 168.468 3.98432 167.987 3.82423C167.507 3.64083 167.022 3.55064 166.532 3.55364C166.112 3.55622 165.7 3.62862 165.296 3.77085C164.892 3.91308 164.518 4.13665 164.175 4.44155C163.882 4.69957 163.663 5.07358 163.521 5.56359C163.379 6.03031 163.291 6.58986 163.256 7.24226C163.226 7.80146 163.229 8.39539 163.265 9.02406ZM182.104 1.95583C182.357 2.02415 182.589 2.2673 182.799 2.68527C183.035 3.07979 183.253 3.57924 183.454 4.18361C183.656 4.76468 183.843 5.40407 184.016 6.10178C184.213 6.77604 184.375 7.45053 184.502 8.12522C184.654 8.77648 184.774 9.36969 184.862 9.90488C184.973 10.4399 185.057 10.8354 185.113 11.0912C185.355 12.2311 185.636 13.3008 185.956 14.3004C186.276 15.3 186.542 16.1951 186.757 16.9858C186.996 17.7529 187.136 18.3926 187.179 18.9048C187.245 19.4168 187.133 19.7552 186.844 19.92C186.363 20.2025 185.959 20.3447 185.632 20.3467C185.072 20.3502 184.677 20.0964 184.448 19.5854C184.324 19.2833 184.214 18.9463 184.118 18.5742C184.044 18.2019 183.97 17.8414 183.896 17.4924C183.844 17.1434 183.779 16.8293 183.701 16.5503C183.647 16.2478 183.578 16.027 183.492 15.8877C183.362 15.7022 183.135 15.5871 182.81 15.5425C182.488 15.4746 182.104 15.4421 181.661 15.4448C181.264 15.4472 180.855 15.473 180.432 15.5222C180.011 15.5481 179.589 15.5856 179.167 15.6348C178.768 15.6838 178.38 15.7327 178.004 15.7816C177.653 15.8071 177.361 15.8205 177.127 15.8219C176.637 15.825 176.246 15.9555 175.952 16.2135C175.681 16.4713 175.455 16.7755 175.273 17.126C175.114 17.4764 174.955 17.8501 174.793 18.247C174.655 18.6438 174.474 18.9827 174.249 19.2636C173.975 19.5913 173.67 19.8378 173.335 20.0029C172.999 20.168 172.68 20.2515 172.377 20.2533C172.003 20.2556 171.719 20.1176 171.524 19.8393C171.354 19.5375 171.414 19.0597 171.706 18.4057C172.129 17.4714 172.553 16.5255 172.977 15.5679C173.425 14.6102 173.861 13.6525 174.286 12.6949C174.739 11.644 175.213 10.6279 175.709 9.64654C176.228 8.66509 176.737 7.64875 177.237 6.59754C177.446 6.17699 177.647 5.68662 177.84 5.12642C178.035 4.54292 178.262 3.99416 178.523 3.48013C178.784 2.9661 179.087 2.53334 179.433 2.18183C179.802 1.80689 180.256 1.61777 180.792 1.61448C181.212 1.61191 181.65 1.72569 182.104 1.95583ZM182.335 9.39629C182.241 8.97761 182.094 8.44278 181.896 7.79182C181.698 7.14085 181.552 6.59437 181.459 6.15239C181.404 5.87322 181.308 5.69911 181.172 5.63007C181.06 5.53759 180.933 5.51507 180.791 5.56253C180.673 5.58655 180.553 5.65716 180.43 5.77438C180.307 5.89159 180.195 6.02039 180.094 6.16076C180.019 6.25439 179.929 6.40634 179.825 6.61661C179.721 6.80358 179.605 7.01392 179.476 7.24764C179.372 7.45791 179.255 7.6799 179.126 7.91362C178.998 8.12403 178.895 8.29935 178.817 8.43958C178.536 8.90715 178.291 9.33956 178.083 9.7368C177.899 10.1339 177.736 10.5658 177.594 11.0325C177.457 11.406 177.395 11.6976 177.407 11.9071C177.419 12.1167 177.458 12.2679 177.523 12.3606C177.611 12.4532 177.713 12.5109 177.828 12.5334C177.968 12.5326 178.097 12.5318 178.213 12.5311C178.541 12.5058 178.962 12.4916 179.475 12.4884C179.989 12.4853 180.445 12.4592 180.844 12.4101C180.985 12.386 181.172 12.3732 181.406 12.3718C181.64 12.347 181.853 12.2991 182.043 12.2281C182.257 12.1569 182.425 12.0627 182.548 11.9455C182.672 11.805 182.717 11.6184 182.683 11.3856C182.664 11.3159 182.636 11.1763 182.601 10.9669C182.567 10.7342 182.521 10.5015 182.463 10.269C182.429 10.0363 182.393 9.83849 182.355 9.67568C182.342 9.48942 182.335 9.39629 182.335 9.39629ZM190.142 12.7375L190.262 10.5007C190.298 9.82496 190.322 9.17264 190.332 8.54368C190.367 7.89129 190.359 7.3789 190.309 7.00653C190.235 6.21505 190.136 5.45866 190.011 4.73736C189.886 4.01607 189.839 3.37582 189.869 2.81662C189.894 2.35062 189.996 1.96567 190.176 1.66177C190.379 1.35773 190.716 1.14603 191.189 1.02667C191.732 0.906878 192.343 0.821608 193.022 0.77086C193.726 0.696669 194.416 0.6575 195.093 0.653352C195.42 0.651349 195.722 0.66114 196.001 0.682723C196.281 0.681006 196.561 0.690939 196.839 0.712522C197.768 0.800001 198.583 1.02792 199.287 1.39629C199.99 1.76465 200.572 2.22693 201.032 2.78312C201.492 3.33932 201.832 3.96613 202.051 4.66355C202.27 5.36098 202.36 6.08249 202.32 6.82809C202.271 7.73678 202.024 8.6467 201.579 9.55783C201.158 10.4455 200.52 11.2414 199.666 11.9454C199.202 12.3442 198.79 12.6379 198.43 12.8264C198.094 12.9915 197.92 13.2022 197.906 13.4585C197.896 13.6449 197.988 13.8773 198.183 14.1556C198.378 14.4339 198.697 14.8046 199.139 15.2677C199.448 15.5919 199.704 15.8233 199.906 15.9618C200.133 16.0769 200.426 16.2614 200.786 16.5154C201.279 16.8851 201.741 17.1967 202.17 17.4503C202.623 17.7037 202.841 17.9935 202.824 18.3197C202.814 18.5061 202.685 18.7398 202.436 19.0209C202.211 19.3018 201.791 19.5256 201.176 19.6924C200.939 19.7638 200.651 19.6957 200.312 19.4881C199.973 19.2805 199.614 19.0265 199.233 18.7261C198.876 18.4255 198.52 18.1132 198.164 17.7893C197.831 17.4652 197.553 17.2107 197.33 17.0258C197.15 16.9104 196.891 16.7373 196.553 16.5064C196.24 16.2521 195.88 15.9981 195.474 15.7444C194.524 15.1912 193.839 14.9159 193.419 14.9185C192.929 14.9215 192.666 15.2608 192.63 15.9365C192.614 16.2394 192.648 16.6818 192.734 17.2636C192.819 17.8453 192.851 18.3459 192.828 18.7653C192.8 19.3012 192.637 19.7215 192.341 20.0261C192.046 20.3074 191.53 20.3572 190.793 20.1753C190.403 20.0613 190.169 19.6318 190.093 18.8869C190.041 18.1186 190.039 17.2684 190.089 16.3364L190.155 15.1132C190.18 14.6472 190.192 14.2046 190.191 13.7853C190.214 13.3659 190.197 13.0166 190.142 12.7375ZM192.734 8.77353C192.75 9.33244 192.82 9.77457 192.943 10.0999C193.066 10.4019 193.229 10.6339 193.43 10.7957C193.631 10.9575 193.859 11.0609 194.113 11.1059C194.392 11.1275 194.695 11.1257 195.023 11.1004C195.586 11.0503 196.044 10.9893 196.398 10.9172C196.776 10.8218 197.085 10.7034 197.326 10.5622C197.59 10.4208 197.809 10.2564 197.982 10.069C198.18 9.85817 198.403 9.62388 198.65 9.36615C199.072 8.89772 199.375 8.4533 199.561 8.0329C199.747 7.6125 199.85 7.20425 199.872 6.80816C199.899 6.29556 199.796 5.83035 199.561 5.41252C199.352 4.97125 199.057 4.60038 198.676 4.29992C198.321 3.97601 197.902 3.734 197.421 3.57391C196.941 3.39051 196.456 3.30032 195.966 3.30332C195.546 3.3059 195.134 3.3783 194.73 3.52053C194.35 3.63932 193.989 3.85116 193.646 4.15607C193.352 4.41408 193.134 4.78809 192.991 5.27811C192.871 5.76798 192.794 6.33911 192.759 6.99151C192.744 7.27111 192.729 7.56236 192.712 7.86526C192.721 8.14472 192.728 8.44747 192.734 8.77353ZM209.492 8.18165C209.514 7.78555 209.522 7.40117 209.519 7.02852C209.54 6.63242 209.538 6.23646 209.513 5.84065C209.489 5.42154 209.436 5.09577 209.355 4.86334C209.299 4.60747 209.181 4.41021 209.002 4.27155C208.846 4.13276 208.607 4.02941 208.284 3.96151C207.984 3.89347 207.579 3.83772 207.068 3.79427C206.417 3.75168 205.874 3.66184 205.438 3.52476C205.004 3.36437 204.818 3.12094 204.883 2.79446C204.913 2.23526 205.119 1.87296 205.501 1.70758C205.884 1.51889 206.344 1.4229 206.881 1.41961C207.324 1.41689 207.777 1.44905 208.24 1.51609C208.704 1.55983 209.112 1.56898 209.463 1.54353C210.072 1.49321 210.834 1.43031 211.747 1.35483C212.662 1.25606 213.528 1.20416 214.345 1.19916C214.975 1.1953 215.521 1.23853 215.982 1.32887C216.445 1.39591 216.74 1.5455 216.868 1.77764C216.889 1.8241 216.932 1.89371 216.997 1.98648C217.063 2.05595 217.116 2.14879 217.157 2.26501C217.222 2.35778 217.263 2.45069 217.282 2.54375C217.3 2.63681 217.274 2.6952 217.202 2.71893C217.185 3.04513 216.976 3.24439 216.576 3.31672C216.199 3.38891 215.753 3.43823 215.238 3.46468C214.748 3.46768 214.257 3.49399 213.764 3.54359C213.272 3.59319 212.902 3.74686 212.655 4.00459C212.458 4.19213 212.306 4.64727 212.197 5.37C212.112 6.09258 212.045 6.89657 211.998 7.78197C211.969 8.31787 211.94 8.85376 211.912 9.38966C211.906 9.92542 211.903 10.4262 211.901 10.8921C211.9 11.3579 211.889 11.7773 211.869 12.1501C211.85 12.4996 211.836 12.7559 211.828 12.919C211.776 13.455 211.767 14.0607 211.8 14.7359C211.835 15.3879 211.835 16.0401 211.8 16.6925C211.777 17.1352 211.72 17.5431 211.63 17.9164C211.563 18.2894 211.43 18.6047 211.229 18.8622C210.856 19.307 210.506 19.5304 210.179 19.5324C209.969 19.5337 209.774 19.465 209.595 19.3264C209.417 19.1644 209.264 18.979 209.135 18.7702C209.006 18.5613 208.902 18.3407 208.821 18.1083C208.764 17.8524 208.742 17.6196 208.753 17.4099C208.801 16.5245 208.92 15.5921 209.113 14.6126C209.307 13.6099 209.429 12.6309 209.48 11.6756C209.498 11.3494 209.491 11.035 209.461 10.7323C209.454 10.4296 209.434 10.1386 209.402 9.85925L209.492 8.18165ZM227.849 9.11727C227.977 9.34941 228.148 9.62786 228.364 9.95263C228.581 10.2541 228.785 10.5789 228.977 10.9271C229.406 11.6233 229.749 12.1918 230.005 12.6328C230.261 13.0738 230.471 13.2938 230.634 13.2928C230.798 13.2918 230.9 12.9068 230.941 12.138C230.951 11.9516 230.962 11.7535 230.973 11.5438C230.984 11.3341 230.985 11.1012 230.975 10.845C230.955 10.356 230.973 9.80853 231.028 9.20259C231.109 8.57321 231.165 7.95561 231.198 7.34982C231.23 6.74402 231.226 6.16173 231.186 5.60296C231.17 5.04405 231.078 4.56712 230.913 4.17217C230.767 3.84697 230.668 3.52148 230.615 3.19571C230.564 2.84664 230.547 2.50901 230.565 2.18281C230.593 1.64691 230.711 1.19199 230.918 0.818048C231.149 0.420661 231.463 0.220752 231.86 0.21832C232.303 0.215603 232.812 0.515283 233.386 1.11736C233.496 1.23315 233.568 1.62867 233.602 2.30394C233.661 2.95577 233.686 3.78249 233.679 4.7841C233.696 5.78557 233.693 6.91525 233.673 8.17316C233.652 9.43107 233.63 10.7123 233.607 12.0168C233.584 13.3213 233.551 14.5909 233.508 15.8257C233.488 17.0603 233.488 18.155 233.507 19.1099C233.516 19.3661 233.39 19.5532 233.127 19.6713C232.887 19.7892 232.604 19.8491 232.277 19.8511C231.857 19.8537 231.418 19.7865 230.959 19.6496C230.523 19.5125 230.24 19.3512 230.11 19.1657C229.738 18.7021 229.386 18.0987 229.052 17.3554C228.72 16.5887 228.373 15.8921 228.01 15.2654C227.392 14.1745 226.772 13.1068 226.152 12.0625C225.556 10.9947 224.951 9.88039 224.337 8.71954C223.892 7.88374 223.483 7.23406 223.112 6.7705C222.763 6.30679 222.461 6.07572 222.204 6.07729C221.807 6.07972 221.578 6.65179 221.517 7.79349C221.506 8.00318 221.494 8.22453 221.482 8.45753C221.469 8.69053 221.479 8.94669 221.51 9.226C221.542 9.50531 221.549 9.80807 221.532 10.1343C221.514 10.4605 221.496 10.7983 221.478 11.1478L221.361 13.3147C221.325 13.9904 221.302 14.6427 221.292 15.2717C221.305 15.9005 221.356 16.4708 221.445 16.9827C221.534 17.4946 221.57 17.9137 221.552 18.2399C221.516 18.9156 221.349 19.429 221.05 19.7802C220.751 20.1314 220.427 20.3081 220.077 20.3103C219.704 20.3126 219.365 20.105 219.061 19.6876C218.78 19.2701 218.663 18.6186 218.711 17.7332L218.928 13.679C218.998 12.3742 219.044 11.0812 219.066 9.80001C219.111 8.51865 219.105 7.31913 219.048 6.20145C219.036 5.9919 218.992 5.73596 218.915 5.43363C218.861 5.13116 218.796 4.81711 218.72 4.49148C218.668 4.16571 218.615 3.83994 218.563 3.51417C218.511 3.1651 218.494 2.83912 218.51 2.53622C218.534 2.09352 218.647 1.72015 218.85 1.41611C219.053 1.11206 219.413 0.911868 219.932 0.815523C220.332 0.743191 220.687 0.647845 220.997 0.529486C221.306 0.411127 221.641 0.467303 222.002 0.698013C222.634 1.09011 223.234 1.64544 223.802 2.36402C224.37 3.0826 224.901 3.84799 225.394 4.6602C225.91 5.47226 226.368 6.28469 226.768 7.09747C227.192 7.8868 227.552 8.56007 227.849 9.11727ZM247.757 1.58828C247.991 1.56354 248.19 1.55068 248.354 1.54968C248.542 1.52523 248.704 1.53588 248.842 1.58162C249.003 1.62722 249.15 1.70784 249.284 1.82348C249.419 1.91583 249.573 2.07792 249.747 2.30978C249.944 2.56479 250.047 2.82037 250.056 3.07653C250.067 3.30939 249.986 3.51952 249.813 3.70692C249.664 3.87087 249.401 3.98895 249.024 4.06114C248.647 4.13332 248.158 4.11303 247.558 4.00025C247.303 3.95522 246.92 3.92263 246.408 3.90248C245.921 3.85888 245.397 3.8388 244.837 3.84223C244.3 3.84552 243.762 3.87211 243.223 3.922C242.685 3.94859 242.192 4.0215 241.742 4.14072C241.294 4.23663 240.913 4.37872 240.6 4.56698C240.311 4.7318 240.147 4.95407 240.109 5.23382C240.007 5.84004 239.945 6.34121 239.924 6.73731C239.895 7.2732 240.014 7.6568 240.282 7.88808C240.551 8.09606 241.14 8.19726 242.05 8.19168C242.493 8.18897 243.089 8.16202 243.839 8.11084C244.611 8.05952 245.394 8.03143 246.187 8.02657C247.027 8.02142 247.806 8.07487 248.523 8.18694C249.241 8.2757 249.72 8.4824 249.959 8.80703C250.243 9.17797 250.378 9.47993 250.366 9.71293C250.344 10.109 249.97 10.3559 249.241 10.4535C248.513 10.5512 247.635 10.6031 246.609 10.6094C245.862 10.614 245.103 10.6303 244.332 10.6583C243.562 10.663 242.847 10.7257 242.188 10.8462C241.529 10.9434 240.972 11.1215 240.515 11.3805C240.081 11.6394 239.828 12.0136 239.755 12.5032C239.716 12.7829 239.677 13.086 239.636 13.4123C239.595 13.7386 239.566 14.0649 239.549 14.3911C239.527 14.7872 239.53 15.1715 239.557 15.544C239.607 15.9164 239.694 16.242 239.819 16.5207C239.969 16.776 240.169 16.9611 240.419 17.076C240.693 17.1908 241.043 17.1887 241.469 17.0696C242.274 16.855 243.133 16.71 244.047 16.6345C244.985 16.5356 245.921 16.4833 246.854 16.4776L247.904 16.4711C248.58 16.4903 249.131 16.65 249.558 16.9501C249.985 17.2503 250.19 17.5635 250.172 17.8897C250.16 18.1227 249.997 18.3333 249.684 18.5216C249.395 18.6864 248.901 18.771 248.201 18.7753C247.174 18.7815 246.098 18.8464 244.971 18.9697C243.846 19.0698 242.789 19.216 241.799 19.4085C241.186 19.5287 240.558 19.7072 239.916 19.9441C239.297 20.1808 238.742 20.3007 238.252 20.3037C237.809 20.3064 237.444 20.1572 237.157 19.8562C236.869 19.5551 236.715 18.9621 236.692 18.0772C236.685 17.7744 236.677 17.4833 236.669 17.2038C236.684 16.9242 236.699 16.633 236.716 16.3301C236.774 15.235 236.869 14.128 236.999 13.0092C237.152 11.8902 237.258 10.7716 237.318 9.65317C237.344 9.16387 237.358 8.68629 237.36 8.22044C237.363 7.73128 237.342 7.25392 237.297 6.78835C237.26 6.60224 237.215 6.35794 237.161 6.05547C237.109 5.7297 237.057 5.38063 237.007 5.00826C236.957 4.63589 236.919 4.26345 236.892 3.89094C236.865 3.51843 236.861 3.16907 236.878 2.84287C236.906 2.33027 237.007 1.95698 237.183 1.72297C237.385 1.44223 237.698 1.25397 238.123 1.1582C238.549 1.03912 239.043 0.977869 239.603 0.974436C240.232 0.970573 240.918 1.01295 241.66 1.10158C242.402 1.1902 243.143 1.27882 243.885 1.36744C244.603 1.45621 245.287 1.53354 245.937 1.59943C246.611 1.64188 247.218 1.63817 247.757 1.58828ZM253.852 12.3469L253.972 10.1101C254.008 9.43439 254.031 8.78206 254.042 8.15311C254.077 7.50071 254.069 6.98833 254.019 6.61596C253.945 5.82447 253.845 5.06808 253.721 4.34679C253.596 3.62549 253.549 2.98524 253.579 2.42605C253.604 1.96005 253.706 1.5751 253.885 1.2712C254.088 0.967153 254.426 0.755451 254.899 0.636091C255.442 0.516302 256.053 0.431032 256.732 0.380283C257.436 0.306093 258.126 0.266924 258.803 0.262776C259.129 0.260773 259.432 0.270563 259.711 0.292146C259.991 0.29043 260.27 0.300363 260.549 0.321946C261.477 0.409424 262.293 0.637345 262.997 1.00571C263.7 1.37407 264.282 1.83635 264.742 2.39255C265.202 2.94874 265.541 3.57555 265.76 4.27298C265.98 4.9704 266.069 5.69191 266.029 6.43751C265.981 7.34621 265.734 8.25612 265.288 9.16725C264.868 10.0549 264.23 10.8508 263.376 11.5548C262.912 11.9536 262.499 12.2473 262.139 12.4358C261.804 12.6009 261.629 12.8116 261.616 13.0679C261.606 13.2543 261.698 13.4867 261.893 13.765C262.088 14.0433 262.407 14.414 262.848 14.8772C263.157 15.2014 263.413 15.4327 263.616 15.5712C263.843 15.6863 264.136 15.8708 264.496 16.1249C264.989 16.4945 265.451 16.8061 265.88 17.0597C266.333 17.3131 266.551 17.603 266.533 17.9292C266.523 18.1156 266.394 18.3493 266.146 18.6303C265.921 18.9112 265.501 19.135 264.885 19.3019C264.648 19.3732 264.36 19.3051 264.022 19.0975C263.683 18.89 263.323 18.636 262.943 18.3355C262.586 18.0349 262.229 17.7226 261.873 17.3987C261.541 17.0747 261.263 16.8201 261.04 16.6352C260.859 16.5198 260.6 16.3467 260.263 16.1159C259.95 15.8616 259.59 15.6076 259.184 15.3538C258.234 14.8006 257.549 14.5253 257.129 14.5279C256.639 14.5309 256.376 14.8703 256.34 15.546C256.323 15.8489 256.358 16.2912 256.444 16.873C256.529 17.4548 256.56 17.9554 256.538 18.3748C256.509 18.9107 256.347 19.3309 256.051 19.6355C255.756 19.9168 255.24 19.9666 254.503 19.7848C254.113 19.6707 253.879 19.2412 253.802 18.4963C253.75 17.728 253.749 16.8779 253.799 15.9459L253.865 14.7226C253.89 14.2566 253.902 13.814 253.901 13.3947C253.923 12.9753 253.907 12.626 253.852 12.3469ZM256.443 8.38295C256.46 8.94186 256.53 9.38399 256.652 9.70933C256.776 10.0114 256.939 10.2433 257.14 10.4051C257.341 10.5669 257.569 10.6703 257.823 10.7154C258.102 10.737 258.405 10.7351 258.733 10.7098C259.295 10.6598 259.754 10.5987 260.107 10.5267C260.486 10.4312 260.795 10.3128 261.036 10.1716C261.3 10.0302 261.519 9.86583 261.692 9.67843C261.89 9.46759 262.113 9.2333 262.36 8.97557C262.781 8.50714 263.085 8.06273 263.271 7.64233C263.457 7.22193 263.56 6.81368 263.581 6.41758C263.609 5.90498 263.505 5.43977 263.271 5.02194C263.062 4.58068 262.767 4.20981 262.386 3.90934C262.03 3.58543 261.612 3.34343 261.13 3.18333C260.65 2.99994 260.165 2.90974 259.675 2.91274C259.255 2.91532 258.843 2.98772 258.439 3.12995C258.06 3.24874 257.698 3.46059 257.356 3.76549C257.062 4.0235 256.844 4.39752 256.701 4.88753C256.581 5.3774 256.504 5.94854 256.469 6.60094C256.454 6.88054 256.438 7.17178 256.422 7.47468C256.43 7.75414 256.438 8.0569 256.443 8.38295Z" fill="black"/>
</svg>
