<svg width="467" height="18" viewBox="0 0 467 18" fill="none" xmlns="http://www.w3.org/2000/svg">
<path d="M14.2969 0.917969C14.2969 1.03516 14.2383 1.41276 14.1211 2.05078C13.6003 4.79818 13.3398 7.7474 13.3398 10.8984C13.3398 12.0833 13.3724 13.0859 13.4375 13.9062C13.4505 14.0495 13.4896 14.3164 13.5547 14.707C13.6068 15.0326 13.6328 15.2995 13.6328 15.5078C13.6328 16.3542 13.0664 16.7773 11.9336 16.7773C11.4518 16.7773 11.224 16.6406 11.25 16.3672L2.40234 6.36719C2.32422 7.63021 2.28516 8.83464 2.28516 9.98047C2.28516 12.0508 2.3763 13.763 2.55859 15.1172C2.57161 15.1953 2.6237 15.4557 2.71484 15.8984C2.77995 16.224 2.8125 16.4909 2.8125 16.6992C2.8125 17.0117 2.61719 17.2721 2.22656 17.4805C1.88802 17.6758 1.55599 17.7734 1.23047 17.7734C0.813802 17.7734 0.553385 17.6172 0.449219 17.3047C0.384115 17.1484 0.292969 15.1302 0.175781 11.25C0.0585938 7.65625 0 5.50781 0 4.80469C0 3.63281 0.0520833 2.91667 0.15625 2.65625C0.390625 2.04427 0.996094 1.73828 1.97266 1.73828C2.3112 1.73828 2.55859 1.82943 2.71484 2.01172L11.3281 12.0312C11.3411 11.5885 11.4193 9.81771 11.5625 6.71875C11.6016 5.83333 11.6341 4.9349 11.6602 4.02344C11.7122 2.96875 11.7969 2.07682 11.9141 1.34766C12.0182 0.553385 12.5846 0.15625 13.6133 0.15625C14.069 0.15625 14.2969 0.410156 14.2969 0.917969ZM27.582 2.12891C27.582 2.28516 27.556 2.40234 27.5039 2.48047C27.3607 2.70182 26.9831 2.83203 26.3711 2.87109C25.056 2.96224 23.8971 3.05339 22.8945 3.14453C22.7773 4.65495 22.7188 6.11979 22.7188 7.53906C22.7188 10.013 22.8945 12.3763 23.2461 14.6289C23.3372 14.6159 23.9492 14.4401 25.082 14.1016C25.8372 13.8932 26.4557 13.7891 26.9375 13.7891C27.3281 13.7891 27.5234 13.9453 27.5234 14.2578C27.5234 14.5052 27.4258 14.7852 27.2305 15.0977C27.0352 15.4102 26.8268 15.6315 26.6055 15.7617C25.8242 16.2435 24.6198 16.6406 22.9922 16.9531C21.5729 17.2266 20.2969 17.3633 19.1641 17.3633C18.5391 17.3633 18.0898 17.2917 17.8164 17.1484C17.4258 16.9401 17.2305 16.556 17.2305 15.9961C17.2305 15.306 17.6732 14.9609 18.5586 14.9609C18.6888 14.9609 18.8841 14.974 19.1445 15C19.4049 15.013 19.5872 15.0195 19.6914 15.0195C20.1992 15.0195 20.6484 15 21.0391 14.9609C20.8568 12.474 20.7396 8.73698 20.6875 3.75C19.2422 4.38802 18.4089 4.70703 18.1875 4.70703C17.862 4.70703 17.6016 4.4987 17.4062 4.08203C17.263 3.76953 17.1914 3.42448 17.1914 3.04688C17.1914 2.35677 17.4323 1.86849 17.9141 1.58203C19.5547 0.644531 21.5924 0.175781 24.0273 0.175781C24.9388 0.175781 25.6159 0.247396 26.0586 0.390625C26.7747 0.598958 27.2565 1.02214 27.5039 1.66016C27.556 1.80339 27.582 1.95964 27.582 2.12891ZM41.8828 2.30469C41.8828 2.46094 41.8438 2.58464 41.7656 2.67578C41.5964 2.89714 41.1471 3.02734 40.418 3.06641C39.0117 3.13151 37.6836 3.21615 36.4336 3.32031C36.3294 4.90885 36.2773 6.41276 36.2773 7.83203C36.2773 10.2799 36.4401 12.4935 36.7656 14.4727C36.9479 15.5924 37.0391 16.1914 37.0391 16.2695C37.0391 16.5299 36.8307 16.7643 36.4141 16.9727C36.0625 17.1419 35.7305 17.2266 35.418 17.2266C35.0664 17.2266 34.8255 17.0898 34.6953 16.8164C34.5 16.3346 34.3568 11.9857 34.2656 3.76953C33.6667 3.99089 33.0612 4.21224 32.4492 4.43359C31.5638 4.74609 30.9909 4.90234 30.7305 4.90234C30.3529 4.90234 30.0404 4.71354 29.793 4.33594C29.5846 4.01042 29.4805 3.64583 29.4805 3.24219C29.4805 2.55208 29.7669 2.0638 30.3398 1.77734C32.306 0.852865 34.8385 0.390625 37.9375 0.390625C38.888 0.390625 39.6107 0.455729 40.1055 0.585938C40.9128 0.807292 41.4661 1.23047 41.7656 1.85547C41.8438 2.02474 41.8828 2.17448 41.8828 2.30469ZM55.3047 2.30469C55.3047 2.46094 55.2656 2.58464 55.1875 2.67578C55.0182 2.89714 54.569 3.02734 53.8398 3.06641C52.4336 3.13151 51.1055 3.21615 49.8555 3.32031C49.7513 4.90885 49.6992 6.41276 49.6992 7.83203C49.6992 10.2799 49.862 12.4935 50.1875 14.4727C50.3698 15.5924 50.4609 16.1914 50.4609 16.2695C50.4609 16.5299 50.2526 16.7643 49.8359 16.9727C49.4844 17.1419 49.1523 17.2266 48.8398 17.2266C48.4883 17.2266 48.2474 17.0898 48.1172 16.8164C47.9219 16.3346 47.7786 11.9857 47.6875 3.76953C47.0885 3.99089 46.4831 4.21224 45.8711 4.43359C44.9857 4.74609 44.4128 4.90234 44.1523 4.90234C43.7747 4.90234 43.4622 4.71354 43.2148 4.33594C43.0065 4.01042 42.9023 3.64583 42.9023 3.24219C42.9023 2.55208 43.1888 2.0638 43.7617 1.77734C45.7279 0.852865 48.2604 0.390625 51.3594 0.390625C52.3099 0.390625 53.0326 0.455729 53.5273 0.585938C54.3346 0.807292 54.888 1.23047 55.1875 1.85547C55.2656 2.02474 55.3047 2.17448 55.3047 2.30469ZM69.7812 7.48047C69.7812 7.58464 69.7552 7.68229 69.7031 7.77344C69.5599 7.96875 69.1823 8.09896 68.5703 8.16406C64.7422 8.60677 61.7214 9.21224 59.5078 9.98047C59.5339 10.8268 59.6315 11.862 59.8008 13.0859C59.8789 13.5938 59.9701 14.1016 60.0742 14.6094C60.1654 15.2214 60.2109 15.7357 60.2109 16.1523C60.2109 16.4779 60.0156 16.7513 59.625 16.9727C59.2995 17.1419 58.9609 17.2266 58.6094 17.2266C58.2188 17.2266 57.9648 17.0898 57.8477 16.8164C57.7305 16.543 57.6328 14.4401 57.5547 10.5078C57.0078 10.3646 56.7344 9.92839 56.7344 9.19922C56.7344 8.5612 56.9818 8.18359 57.4766 8.06641C57.3984 5.91797 57.3594 4.54427 57.3594 3.94531C57.3594 3.32031 57.3659 2.96875 57.3789 2.89062C57.431 2.5 57.5938 2.20703 57.8672 2.01172C57.9974 1.89453 58.3294 1.75781 58.8633 1.60156C60.556 1.08073 61.526 0.78776 61.7734 0.722656C62.6979 0.514323 63.7135 0.410156 64.8203 0.410156C65.5495 0.410156 66.0443 0.436198 66.3047 0.488281C66.7865 0.592448 67.1966 0.839844 67.5352 1.23047C67.8867 1.60807 68.0625 1.95964 68.0625 2.28516C68.0625 2.74089 67.6589 3.0013 66.8516 3.06641C64.9375 3.22266 63.7005 3.35286 63.1406 3.45703C62.0859 3.65234 60.888 4.03646 59.5469 4.60938C59.4948 5.5599 59.4688 6.49089 59.4688 7.40234C62.2943 6.54297 64.8529 6.11328 67.1445 6.11328C67.5742 6.11328 67.9128 6.13281 68.1602 6.17188C68.4857 6.22396 68.8372 6.38672 69.2148 6.66016C69.5924 6.92057 69.7812 7.19401 69.7812 7.48047ZM85.7227 7.42188C85.7227 7.77344 85.2799 8.0013 84.3945 8.10547C80.0716 8.60026 76.7773 9.22526 74.5117 9.98047C74.5638 11.6341 74.7135 13.2357 74.9609 14.7852C76.1849 14.7852 77.5911 14.6289 79.1797 14.3164C80.5729 14.0169 81.9661 13.7109 83.3594 13.3984C83.5938 13.3464 83.7891 13.3203 83.9453 13.3203C84.4792 13.3203 84.7461 13.5482 84.7461 14.0039C84.7461 14.3034 84.6419 14.6159 84.4336 14.9414C84.2383 15.2539 84.0104 15.4818 83.75 15.625C82.6562 16.25 81.1654 16.7383 79.2773 17.0898C77.6628 17.3633 76.0742 17.5 74.5117 17.5C73.7174 17.5 73.1901 17.2852 72.9297 16.8555C72.7734 16.582 72.6432 14.4466 72.5391 10.4492C71.9922 10.2539 71.7188 9.83724 71.7188 9.19922C71.7188 8.61328 71.9661 8.22266 72.4609 8.02734H72.4805C72.3893 6.69922 72.3438 5.29948 72.3438 3.82812C72.3438 3.1901 72.3568 2.85156 72.3828 2.8125C72.4349 2.4349 72.5911 2.14844 72.8516 1.95312C72.9818 1.83594 73.3138 1.69922 73.8477 1.54297C74.694 1.28255 75.5339 1.01562 76.3672 0.742188C77.3438 0.481771 78.2161 0.351562 78.9844 0.351562H79.8047C80.5208 0.338542 81.0156 0.364583 81.2891 0.429688C81.7708 0.533854 82.181 0.78125 82.5195 1.17188C82.8711 1.5625 83.0469 1.92057 83.0469 2.24609C83.0469 2.6888 82.6497 2.94271 81.8555 3.00781C79.8893 3.17708 78.6458 3.30729 78.125 3.39844C77.0964 3.59375 75.9049 3.97786 74.5508 4.55078C74.4857 5.44922 74.4531 6.39974 74.4531 7.40234C77.5521 6.49089 80.3451 6.03516 82.832 6.03516C83.3138 6.03516 83.6914 6.0612 83.9648 6.11328C84.3034 6.15234 84.668 6.29557 85.0586 6.54297C85.5013 6.84245 85.7227 7.13542 85.7227 7.42188ZM103.832 8.90625C103.832 9.25781 103.793 9.55078 103.715 9.78516C103.064 11.9596 101.632 13.763 99.418 15.1953C97.2956 16.5885 95.069 17.2852 92.7383 17.2852C91.8529 17.2852 91.1758 17.1419 90.707 16.8555C90.043 16.4648 89.4635 15.8529 88.9688 15.0195C88.474 14.1732 88.2266 13.3659 88.2266 12.5977C88.2266 11.9857 88.3958 11.6797 88.7344 11.6797C89.0599 11.6797 89.3594 11.875 89.6328 12.2656C89.8411 12.5911 90.0495 12.9102 90.2578 13.2227C91.1172 14.3815 92.582 14.9609 94.6523 14.9609C95.9154 14.9609 97.0612 14.707 98.0898 14.1992C99.2617 13.6263 100.062 12.806 100.492 11.7383C100.635 11.3737 100.707 11.0677 100.707 10.8203C100.707 10.4557 100.499 10.1888 100.082 10.0195C99.0143 9.61589 97.3802 9.34896 95.1797 9.21875C93.474 9.15365 91.7747 9.08203 90.082 9.00391C89.4701 8.95182 89.0469 8.79557 88.8125 8.53516C88.5781 8.27474 88.4609 7.84505 88.4609 7.24609C88.4609 6.54297 89.0339 5.54036 90.1797 4.23828C92.6536 1.42578 95.7591 0.0195312 99.4961 0.0195312C99.9258 0.0195312 100.225 0.0716146 100.395 0.175781C100.577 0.279948 100.688 0.520833 100.727 0.898438C100.753 1.09375 100.831 1.47135 100.961 2.03125C101.065 2.51302 101.117 2.89062 101.117 3.16406C101.117 3.45052 100.889 3.74349 100.434 4.04297C99.9779 4.32943 99.6003 4.47266 99.3008 4.47266C99.0143 4.47266 98.7344 3.9388 98.4609 2.87109C98.2396 2.85807 98.0182 2.85156 97.7969 2.85156C95.3359 2.85156 93.3763 3.78906 91.918 5.66406C91.6576 5.98958 91.5273 6.21094 91.5273 6.32812C91.5273 6.4974 92.2956 6.5625 93.832 6.52344H93.793C94.9909 6.52344 96.5924 6.60156 98.5977 6.75781C100.98 6.95312 102.491 7.16797 103.129 7.40234C103.598 7.57161 103.832 8.07292 103.832 8.90625ZM118.23 2.30469C118.23 2.46094 118.191 2.58464 118.113 2.67578C117.944 2.89714 117.495 3.02734 116.766 3.06641C115.359 3.13151 114.031 3.21615 112.781 3.32031C112.677 4.90885 112.625 6.41276 112.625 7.83203C112.625 10.2799 112.788 12.4935 113.113 14.4727C113.296 15.5924 113.387 16.1914 113.387 16.2695C113.387 16.5299 113.178 16.7643 112.762 16.9727C112.41 17.1419 112.078 17.2266 111.766 17.2266C111.414 17.2266 111.173 17.0898 111.043 16.8164C110.848 16.3346 110.704 11.9857 110.613 3.76953C110.014 3.99089 109.409 4.21224 108.797 4.43359C107.911 4.74609 107.339 4.90234 107.078 4.90234C106.701 4.90234 106.388 4.71354 106.141 4.33594C105.932 4.01042 105.828 3.64583 105.828 3.24219C105.828 2.55208 106.115 2.0638 106.688 1.77734C108.654 0.852865 111.186 0.390625 114.285 0.390625C115.236 0.390625 115.958 0.455729 116.453 0.585938C117.26 0.807292 117.814 1.23047 118.113 1.85547C118.191 2.02474 118.23 2.17448 118.23 2.30469ZM139.801 2.12891C139.801 2.28516 139.775 2.40234 139.723 2.48047C139.579 2.70182 139.202 2.83203 138.59 2.87109C137.275 2.96224 136.116 3.05339 135.113 3.14453C134.996 4.65495 134.938 6.11979 134.938 7.53906C134.938 10.013 135.113 12.3763 135.465 14.6289C135.556 14.6159 136.168 14.4401 137.301 14.1016C138.056 13.8932 138.674 13.7891 139.156 13.7891C139.547 13.7891 139.742 13.9453 139.742 14.2578C139.742 14.5052 139.645 14.7852 139.449 15.0977C139.254 15.4102 139.046 15.6315 138.824 15.7617C138.043 16.2435 136.839 16.6406 135.211 16.9531C133.792 17.2266 132.516 17.3633 131.383 17.3633C130.758 17.3633 130.309 17.2917 130.035 17.1484C129.645 16.9401 129.449 16.556 129.449 15.9961C129.449 15.306 129.892 14.9609 130.777 14.9609C130.908 14.9609 131.103 14.974 131.363 15C131.624 15.013 131.806 15.0195 131.91 15.0195C132.418 15.0195 132.867 15 133.258 14.9609C133.076 12.474 132.958 8.73698 132.906 3.75C131.461 4.38802 130.628 4.70703 130.406 4.70703C130.081 4.70703 129.82 4.4987 129.625 4.08203C129.482 3.76953 129.41 3.42448 129.41 3.04688C129.41 2.35677 129.651 1.86849 130.133 1.58203C131.773 0.644531 133.811 0.175781 136.246 0.175781C137.158 0.175781 137.835 0.247396 138.277 0.390625C138.993 0.598958 139.475 1.02214 139.723 1.66016C139.775 1.80339 139.801 1.95964 139.801 2.12891ZM158.301 8.90625C158.301 9.25781 158.262 9.55078 158.184 9.78516C157.533 11.9596 156.1 13.763 153.887 15.1953C151.764 16.5885 149.538 17.2852 147.207 17.2852C146.322 17.2852 145.645 17.1419 145.176 16.8555C144.512 16.4648 143.932 15.8529 143.438 15.0195C142.943 14.1732 142.695 13.3659 142.695 12.5977C142.695 11.9857 142.865 11.6797 143.203 11.6797C143.529 11.6797 143.828 11.875 144.102 12.2656C144.31 12.5911 144.518 12.9102 144.727 13.2227C145.586 14.3815 147.051 14.9609 149.121 14.9609C150.384 14.9609 151.53 14.707 152.559 14.1992C153.73 13.6263 154.531 12.806 154.961 11.7383C155.104 11.3737 155.176 11.0677 155.176 10.8203C155.176 10.4557 154.967 10.1888 154.551 10.0195C153.483 9.61589 151.849 9.34896 149.648 9.21875C147.943 9.15365 146.243 9.08203 144.551 9.00391C143.939 8.95182 143.516 8.79557 143.281 8.53516C143.047 8.27474 142.93 7.84505 142.93 7.24609C142.93 6.54297 143.503 5.54036 144.648 4.23828C147.122 1.42578 150.228 0.0195312 153.965 0.0195312C154.395 0.0195312 154.694 0.0716146 154.863 0.175781C155.046 0.279948 155.156 0.520833 155.195 0.898438C155.221 1.09375 155.299 1.47135 155.43 2.03125C155.534 2.51302 155.586 2.89062 155.586 3.16406C155.586 3.45052 155.358 3.74349 154.902 4.04297C154.447 4.32943 154.069 4.47266 153.77 4.47266C153.483 4.47266 153.203 3.9388 152.93 2.87109C152.708 2.85807 152.487 2.85156 152.266 2.85156C149.805 2.85156 147.845 3.78906 146.387 5.66406C146.126 5.98958 145.996 6.21094 145.996 6.32812C145.996 6.4974 146.764 6.5625 148.301 6.52344H148.262C149.46 6.52344 151.061 6.60156 153.066 6.75781C155.449 6.95312 156.96 7.16797 157.598 7.40234C158.066 7.57161 158.301 8.07292 158.301 8.90625ZM183.953 5.54688C183.953 7.76042 182.599 9.55078 179.891 10.918C177.99 11.8945 175.659 12.5716 172.898 12.9492C172.924 13.1576 173.016 13.7174 173.172 14.6289C173.315 15.306 173.387 15.8659 173.387 16.3086C173.387 16.5951 173.185 16.849 172.781 17.0703C172.443 17.2526 172.111 17.3438 171.785 17.3438C171.46 17.3438 171.212 17.2396 171.043 17.0312C170.887 16.8099 170.757 13.4961 170.652 7.08984C170.431 6.79036 170.32 6.41276 170.32 5.95703C170.32 5.26693 170.945 4.33594 172.195 3.16406C174.174 1.34115 176.219 0.429688 178.328 0.429688C179.799 0.429688 181.089 0.904948 182.195 1.85547C183.367 2.85807 183.953 4.08854 183.953 5.54688ZM181.434 6.15234C181.434 5.21484 180.939 4.4401 179.949 3.82812C179.064 3.28125 178.126 3.00781 177.137 3.00781C175.691 3.00781 174.214 3.76302 172.703 5.27344C172.664 6.08073 172.645 6.90755 172.645 7.75391C172.645 8.71745 172.671 9.69401 172.723 10.6836C176.629 10.5664 179.148 9.88932 180.281 8.65234C181.049 7.79297 181.434 6.95964 181.434 6.15234ZM204.211 7.96875C204.211 10.5469 203.189 12.793 201.145 14.707C199.126 16.556 196.822 17.4805 194.23 17.4805C191.965 17.4805 190.044 16.7188 188.469 15.1953C186.893 13.6719 186.105 11.7839 186.105 9.53125C186.105 6.9401 187.128 4.70052 189.172 2.8125C191.164 0.9375 193.462 0 196.066 0C198.332 0 200.253 0.768229 201.828 2.30469C203.417 3.82812 204.211 5.71615 204.211 7.96875ZM201.262 8.88672C201.262 7.08984 200.676 5.52083 199.504 4.17969C198.28 2.79948 196.783 2.10938 195.012 2.10938C193.28 2.10938 191.802 2.8125 190.578 4.21875C189.432 5.57292 188.859 7.12891 188.859 8.88672C188.859 10.6706 189.458 12.2331 190.656 13.5742C191.867 14.9414 193.358 15.625 195.129 15.625C196.861 15.625 198.326 14.9219 199.523 13.5156C200.682 12.1875 201.262 10.6445 201.262 8.88672ZM225.133 2.14844C225.133 2.2526 224.853 2.95573 224.293 4.25781C223.616 5.85938 222.958 7.76042 222.32 9.96094C222.32 9.96094 221.806 11.901 220.777 15.7812C220.582 16.4714 220.224 16.8164 219.703 16.8164C219.482 16.8164 219.293 16.6341 219.137 16.2695C219.059 16.0872 218.792 15.1888 218.336 13.5742C218.062 12.6367 217.659 11.4909 217.125 10.1367C216.682 9.01693 216.233 7.89714 215.777 6.77734C214.54 10.2669 213.46 13.6719 212.535 16.9922C212.353 17.6693 211.995 18.0078 211.461 18.0078C211.214 18.0078 211.025 17.832 210.895 17.4805C210.764 17.1419 210.641 16.7057 210.523 16.1719C210.419 15.7292 210.322 15.2865 210.23 14.8438C209.111 10.3906 208.108 7.04427 207.223 4.80469C206.663 3.3724 206.383 2.63021 206.383 2.57812C206.383 2.26562 206.559 1.91406 206.91 1.52344C207.275 1.11979 207.613 0.917969 207.926 0.917969C208.082 0.917969 208.212 0.989583 208.316 1.13281C208.551 1.44531 209.072 3.11198 209.879 6.13281C210.257 7.60417 210.855 9.62891 211.676 12.207C212.236 10.293 213.173 7.61068 214.488 4.16016C214.996 2.84505 215.53 2.1875 216.09 2.1875C216.337 2.1875 216.546 2.38932 216.715 2.79297C216.754 2.88411 216.845 3.19661 216.988 3.73047C217.066 4.01693 217.47 5.13672 218.199 7.08984C218.733 8.53516 219.241 10.0195 219.723 11.543C220.191 10.0195 221.227 6.77734 222.828 1.81641C222.906 1.51693 223.062 1.08724 223.297 0.527344C223.44 0.266927 223.596 0.136719 223.766 0.136719C224.078 0.136719 224.384 0.403646 224.684 0.9375C224.983 1.41927 225.133 1.82292 225.133 2.14844ZM241.094 7.42188C241.094 7.77344 240.651 8.0013 239.766 8.10547C235.443 8.60026 232.148 9.22526 229.883 9.98047C229.935 11.6341 230.085 13.2357 230.332 14.7852C231.556 14.7852 232.962 14.6289 234.551 14.3164C235.944 14.0169 237.337 13.7109 238.73 13.3984C238.965 13.3464 239.16 13.3203 239.316 13.3203C239.85 13.3203 240.117 13.5482 240.117 14.0039C240.117 14.3034 240.013 14.6159 239.805 14.9414C239.609 15.2539 239.382 15.4818 239.121 15.625C238.027 16.25 236.536 16.7383 234.648 17.0898C233.034 17.3633 231.445 17.5 229.883 17.5C229.089 17.5 228.561 17.2852 228.301 16.8555C228.145 16.582 228.014 14.4466 227.91 10.4492C227.363 10.2539 227.09 9.83724 227.09 9.19922C227.09 8.61328 227.337 8.22266 227.832 8.02734H227.852C227.76 6.69922 227.715 5.29948 227.715 3.82812C227.715 3.1901 227.728 2.85156 227.754 2.8125C227.806 2.4349 227.962 2.14844 228.223 1.95312C228.353 1.83594 228.685 1.69922 229.219 1.54297C230.065 1.28255 230.905 1.01562 231.738 0.742188C232.715 0.481771 233.587 0.351562 234.355 0.351562H235.176C235.892 0.338542 236.387 0.364583 236.66 0.429688C237.142 0.533854 237.552 0.78125 237.891 1.17188C238.242 1.5625 238.418 1.92057 238.418 2.24609C238.418 2.6888 238.021 2.94271 237.227 3.00781C235.26 3.17708 234.017 3.30729 233.496 3.39844C232.467 3.59375 231.276 3.97786 229.922 4.55078C229.857 5.44922 229.824 6.39974 229.824 7.40234C232.923 6.49089 235.716 6.03516 238.203 6.03516C238.685 6.03516 239.062 6.0612 239.336 6.11328C239.674 6.15234 240.039 6.29557 240.43 6.54297C240.872 6.84245 241.094 7.13542 241.094 7.42188ZM257.348 5.625C257.348 7.44792 256.371 9.00391 254.418 10.293C252.973 11.2305 251.163 11.9401 248.988 12.4219C250.915 13.5286 252.562 14.2513 253.93 14.5898C254.086 14.6159 254.32 14.668 254.633 14.7461C254.919 14.8633 255.062 15.0326 255.062 15.2539C255.062 15.4753 254.945 15.6836 254.711 15.8789C254.477 16.0612 254.242 16.1523 254.008 16.1523C253.122 16.1523 251.885 15.9049 250.297 15.4102C248.839 14.9674 247.647 14.5052 246.723 14.0234C246.736 14.2318 246.801 14.6094 246.918 15.1562C247.022 15.638 247.074 16.0286 247.074 16.3281C247.074 16.6276 246.892 16.875 246.527 17.0703C246.228 17.2266 245.909 17.3047 245.57 17.3047C245.154 17.3047 244.88 17.1745 244.75 16.9141C244.568 16.5625 244.431 13.3398 244.34 7.24609C244.066 7.18099 243.826 7.00521 243.617 6.71875C243.409 6.41927 243.305 6.1263 243.305 5.83984C243.305 5.52734 243.48 5.14974 243.832 4.70703C246.072 1.89453 248.572 0.488281 251.332 0.488281C252.895 0.488281 254.268 0.9375 255.453 1.83594C256.716 2.82552 257.348 4.08854 257.348 5.625ZM255.004 6.03516C255.004 5.1237 254.522 4.35547 253.559 3.73047C252.712 3.19661 251.794 2.92969 250.805 2.92969C249.359 2.92969 247.888 3.67839 246.391 5.17578C246.352 5.99609 246.332 6.82292 246.332 7.65625C246.332 8.63281 246.358 9.61589 246.41 10.6055C250.238 10.5013 252.719 9.83073 253.852 8.59375C254.62 7.73438 255.004 6.88151 255.004 6.03516ZM273.309 7.42188C273.309 7.77344 272.866 8.0013 271.98 8.10547C267.658 8.60026 264.363 9.22526 262.098 9.98047C262.15 11.6341 262.299 13.2357 262.547 14.7852C263.771 14.7852 265.177 14.6289 266.766 14.3164C268.159 14.0169 269.552 13.7109 270.945 13.3984C271.18 13.3464 271.375 13.3203 271.531 13.3203C272.065 13.3203 272.332 13.5482 272.332 14.0039C272.332 14.3034 272.228 14.6159 272.02 14.9414C271.824 15.2539 271.596 15.4818 271.336 15.625C270.242 16.25 268.751 16.7383 266.863 17.0898C265.249 17.3633 263.66 17.5 262.098 17.5C261.303 17.5 260.776 17.2852 260.516 16.8555C260.359 16.582 260.229 14.4466 260.125 10.4492C259.578 10.2539 259.305 9.83724 259.305 9.19922C259.305 8.61328 259.552 8.22266 260.047 8.02734H260.066C259.975 6.69922 259.93 5.29948 259.93 3.82812C259.93 3.1901 259.943 2.85156 259.969 2.8125C260.021 2.4349 260.177 2.14844 260.438 1.95312C260.568 1.83594 260.9 1.69922 261.434 1.54297C262.28 1.28255 263.12 1.01562 263.953 0.742188C264.93 0.481771 265.802 0.351562 266.57 0.351562H267.391C268.107 0.338542 268.602 0.364583 268.875 0.429688C269.357 0.533854 269.767 0.78125 270.105 1.17188C270.457 1.5625 270.633 1.92057 270.633 2.24609C270.633 2.6888 270.236 2.94271 269.441 3.00781C267.475 3.17708 266.232 3.30729 265.711 3.39844C264.682 3.59375 263.491 3.97786 262.137 4.55078C262.072 5.44922 262.039 6.39974 262.039 7.40234C265.138 6.49089 267.931 6.03516 270.418 6.03516C270.9 6.03516 271.277 6.0612 271.551 6.11328C271.889 6.15234 272.254 6.29557 272.645 6.54297C273.087 6.84245 273.309 7.13542 273.309 7.42188ZM290.969 7.36328C290.969 9.8112 289.764 11.9076 287.355 13.6523C285.441 15.0456 283.104 16.0156 280.344 16.5625C279.862 16.6406 279.146 16.7773 278.195 16.9727C277.44 17.1549 277.062 17.2461 277.062 17.2461C276.841 17.2461 276.665 17.1224 276.535 16.875C276.418 16.6276 276.294 13.3268 276.164 6.97266C275.917 6.67318 275.793 6.3151 275.793 5.89844C275.793 5.52083 275.93 5.14323 276.203 4.76562C276.333 4.59635 276.62 4.29688 277.062 3.86719C279.341 1.66667 281.743 0.566406 284.27 0.566406C286.132 0.566406 287.714 1.23698 289.016 2.57812C290.318 3.90625 290.969 5.5013 290.969 7.36328ZM288.352 8.02734C288.352 6.63411 287.844 5.46224 286.828 4.51172C285.812 3.54818 284.608 3.06641 283.215 3.06641C281.483 3.06641 279.81 3.82812 278.195 5.35156C278.143 6.26302 278.117 7.17448 278.117 8.08594C278.117 10.3385 278.286 12.513 278.625 14.6094C281.06 14.375 283.137 13.8216 284.855 12.9492C287.186 11.7513 288.352 10.1107 288.352 8.02734ZM316.621 13.3398C316.621 14.694 315.449 15.7617 313.105 16.543C311.673 17.0247 309.479 17.2656 306.523 17.2656C305.846 17.2656 305.391 17.2526 305.156 17.2266C304.583 17.1484 304.193 16.9531 303.984 16.6406C303.789 16.3281 303.639 13.2943 303.535 7.53906C303.483 7.55208 303.431 7.55859 303.379 7.55859C303.092 7.55859 302.865 7.38932 302.695 7.05078C302.565 6.77734 302.5 6.48438 302.5 6.17188C302.5 5.46875 303.001 4.57682 304.004 3.49609C304.85 2.59766 305.671 1.91406 306.465 1.44531C307.585 0.794271 308.835 0.46875 310.215 0.46875C311.816 0.46875 313.125 0.872396 314.141 1.67969C315.234 2.5651 315.781 3.78906 315.781 5.35156C315.781 6.9401 314.74 8.35286 312.656 9.58984C313.633 9.86328 314.492 10.306 315.234 10.918C316.159 11.6732 316.621 12.4805 316.621 13.3398ZM313.848 5.56641C313.848 4.72005 313.379 4.05599 312.441 3.57422C311.673 3.17057 310.833 2.96875 309.922 2.96875C308.49 2.96875 307.044 3.71094 305.586 5.19531C305.56 5.98958 305.547 6.80339 305.547 7.63672C305.547 8.23568 305.553 8.85417 305.566 9.49219C309.29 9.38802 311.686 8.78906 312.754 7.69531C313.483 6.96615 313.848 6.25651 313.848 5.56641ZM314.668 13.3789C314.668 12.7148 313.939 12.1745 312.48 11.7578C311.361 11.4323 310.345 11.2695 309.434 11.2695C308.053 11.2695 306.816 11.6732 305.723 12.4805C305.801 13.3138 305.892 14.0885 305.996 14.8047C307.467 14.9089 308.73 14.9609 309.785 14.9609C311.829 14.9609 313.164 14.7656 313.789 14.375C314.375 14.0365 314.668 13.7044 314.668 13.3789ZM333.832 1.52344C333.832 1.69271 333.533 2.18099 332.934 2.98828C332.543 3.49609 332.159 4.00391 331.781 4.51172C329.229 8.0013 327.198 11.3346 325.688 14.5117C325.453 15.0846 325.206 15.6641 324.945 16.25C324.581 16.9141 324.118 17.2461 323.559 17.2461C323.259 17.2461 322.973 17.1615 322.699 16.9922C322.361 16.7708 322.191 16.5299 322.191 16.2695C322.191 16.1914 323.181 14.362 325.16 10.7812L322.406 7.16797C321.742 6.33464 320.798 5.05859 319.574 3.33984C319.353 3.0013 319.242 2.68229 319.242 2.38281C319.242 2.10938 319.366 1.76432 319.613 1.34766C319.874 0.917969 320.141 0.703125 320.414 0.703125C320.544 0.703125 320.688 0.800781 320.844 0.996094C320.896 1.07422 321.195 1.55599 321.742 2.44141C323.07 4.61589 324.574 6.75781 326.254 8.86719C326.54 8.35938 327.647 6.48438 329.574 3.24219C329.861 2.70833 330.336 1.9401 331 0.9375C331.299 0.559896 331.69 0.371094 332.172 0.371094C332.536 0.371094 332.888 0.46875 333.227 0.664062C333.63 0.898438 333.832 1.1849 333.832 1.52344ZM358.82 7.59766C358.82 8.06641 358.293 8.30078 357.238 8.30078C357.238 10.5664 357.316 12.3242 357.473 13.5742C357.486 13.6393 357.544 13.9453 357.648 14.4922C357.714 14.8568 357.746 15.1693 357.746 15.4297C357.746 15.7422 357.564 15.9961 357.199 16.1914C356.848 16.3867 356.509 16.4844 356.184 16.4844C355.754 16.4844 355.487 16.3281 355.383 16.0156C355.279 15.7031 355.227 15.2018 355.227 14.5117C355.24 15.9049 355.246 15.3711 355.246 12.9102C355.246 12.3503 355.22 11.6276 355.168 10.7422C355.116 9.55729 355.083 8.83464 355.07 8.57422C352.349 8.9388 349.914 9.52474 347.766 10.332C347.857 12.0378 347.98 13.4049 348.137 14.4336C348.345 15.6185 348.449 16.2695 348.449 16.3867C348.449 16.6471 348.241 16.8815 347.824 17.0898C347.46 17.2591 347.128 17.3438 346.828 17.3438C346.451 17.3438 346.21 17.2135 346.105 16.9531C346.027 16.7318 345.982 16.3737 345.969 15.8789C345.969 15.5143 345.962 15.1432 345.949 14.7656C345.806 12.7865 345.663 10.8138 345.52 8.84766C345.35 6.49089 345.266 4.51172 345.266 2.91016C345.266 2.42839 345.448 2.03125 345.812 1.71875C346.151 1.44531 346.574 1.30859 347.082 1.30859C347.668 1.30859 347.961 1.53646 347.961 1.99219C347.961 2.01823 347.922 2.58464 347.844 3.69141C347.753 4.98047 347.707 6.32812 347.707 7.73438C350.129 6.9401 352.557 6.47786 354.992 6.34766L354.953 2.89062C354.953 1.86198 355.116 1.20443 355.441 0.917969C355.819 0.605469 356.333 0.449219 356.984 0.449219C357.492 0.449219 357.74 0.638021 357.727 1.01562V1.03516L357.707 1.15234L357.688 1.48438L357.512 2.8125C357.408 3.91927 357.329 5.09115 357.277 6.32812C357.616 6.40625 357.935 6.55599 358.234 6.77734C358.625 7.05078 358.82 7.32422 358.82 7.59766ZM374.645 7.42188C374.645 7.77344 374.202 8.0013 373.316 8.10547C368.993 8.60026 365.699 9.22526 363.434 9.98047C363.486 11.6341 363.635 13.2357 363.883 14.7852C365.107 14.7852 366.513 14.6289 368.102 14.3164C369.495 14.0169 370.888 13.7109 372.281 13.3984C372.516 13.3464 372.711 13.3203 372.867 13.3203C373.401 13.3203 373.668 13.5482 373.668 14.0039C373.668 14.3034 373.564 14.6159 373.355 14.9414C373.16 15.2539 372.932 15.4818 372.672 15.625C371.578 16.25 370.087 16.7383 368.199 17.0898C366.585 17.3633 364.996 17.5 363.434 17.5C362.639 17.5 362.112 17.2852 361.852 16.8555C361.695 16.582 361.565 14.4466 361.461 10.4492C360.914 10.2539 360.641 9.83724 360.641 9.19922C360.641 8.61328 360.888 8.22266 361.383 8.02734H361.402C361.311 6.69922 361.266 5.29948 361.266 3.82812C361.266 3.1901 361.279 2.85156 361.305 2.8125C361.357 2.4349 361.513 2.14844 361.773 1.95312C361.904 1.83594 362.236 1.69922 362.77 1.54297C363.616 1.28255 364.456 1.01562 365.289 0.742188C366.266 0.481771 367.138 0.351562 367.906 0.351562H368.727C369.443 0.338542 369.938 0.364583 370.211 0.429688C370.693 0.533854 371.103 0.78125 371.441 1.17188C371.793 1.5625 371.969 1.92057 371.969 2.24609C371.969 2.6888 371.572 2.94271 370.777 3.00781C368.811 3.17708 367.568 3.30729 367.047 3.39844C366.018 3.59375 364.827 3.97786 363.473 4.55078C363.408 5.44922 363.375 6.39974 363.375 7.40234C366.474 6.49089 369.267 6.03516 371.754 6.03516C372.236 6.03516 372.613 6.0612 372.887 6.11328C373.225 6.15234 373.59 6.29557 373.98 6.54297C374.423 6.84245 374.645 7.13542 374.645 7.42188ZM390.898 5.625C390.898 7.44792 389.922 9.00391 387.969 10.293C386.523 11.2305 384.714 11.9401 382.539 12.4219C384.466 13.5286 386.113 14.2513 387.48 14.5898C387.637 14.6159 387.871 14.668 388.184 14.7461C388.47 14.8633 388.613 15.0326 388.613 15.2539C388.613 15.4753 388.496 15.6836 388.262 15.8789C388.027 16.0612 387.793 16.1523 387.559 16.1523C386.673 16.1523 385.436 15.9049 383.848 15.4102C382.389 14.9674 381.198 14.5052 380.273 14.0234C380.286 14.2318 380.352 14.6094 380.469 15.1562C380.573 15.638 380.625 16.0286 380.625 16.3281C380.625 16.6276 380.443 16.875 380.078 17.0703C379.779 17.2266 379.46 17.3047 379.121 17.3047C378.704 17.3047 378.431 17.1745 378.301 16.9141C378.118 16.5625 377.982 13.3398 377.891 7.24609C377.617 7.18099 377.376 7.00521 377.168 6.71875C376.96 6.41927 376.855 6.1263 376.855 5.83984C376.855 5.52734 377.031 5.14974 377.383 4.70703C379.622 1.89453 382.122 0.488281 384.883 0.488281C386.445 0.488281 387.819 0.9375 389.004 1.83594C390.267 2.82552 390.898 4.08854 390.898 5.625ZM388.555 6.03516C388.555 5.1237 388.073 4.35547 387.109 3.73047C386.263 3.19661 385.345 2.92969 384.355 2.92969C382.91 2.92969 381.439 3.67839 379.941 5.17578C379.902 5.99609 379.883 6.82292 379.883 7.65625C379.883 8.63281 379.909 9.61589 379.961 10.6055C383.789 10.5013 386.27 9.83073 387.402 8.59375C388.171 7.73438 388.555 6.88151 388.555 6.03516ZM411.234 7.96875C411.234 10.5469 410.212 12.793 408.168 14.707C406.15 16.556 403.845 17.4805 401.254 17.4805C398.988 17.4805 397.068 16.7188 395.492 15.1953C393.917 13.6719 393.129 11.7839 393.129 9.53125C393.129 6.9401 394.151 4.70052 396.195 2.8125C398.188 0.9375 400.486 0 403.09 0C405.355 0 407.276 0.768229 408.852 2.30469C410.44 3.82812 411.234 5.71615 411.234 7.96875ZM408.285 8.88672C408.285 7.08984 407.699 5.52083 406.527 4.17969C405.303 2.79948 403.806 2.10938 402.035 2.10938C400.303 2.10938 398.826 2.8125 397.602 4.21875C396.456 5.57292 395.883 7.12891 395.883 8.88672C395.883 10.6706 396.482 12.2331 397.68 13.5742C398.891 14.9414 400.382 15.625 402.152 15.625C403.884 15.625 405.349 14.9219 406.547 13.5156C407.706 12.1875 408.285 10.6445 408.285 8.88672ZM427.625 7.42188C427.625 7.77344 427.182 8.0013 426.297 8.10547C421.974 8.60026 418.68 9.22526 416.414 9.98047C416.466 11.6341 416.616 13.2357 416.863 14.7852C418.087 14.7852 419.493 14.6289 421.082 14.3164C422.475 14.0169 423.868 13.7109 425.262 13.3984C425.496 13.3464 425.691 13.3203 425.848 13.3203C426.382 13.3203 426.648 13.5482 426.648 14.0039C426.648 14.3034 426.544 14.6159 426.336 14.9414C426.141 15.2539 425.913 15.4818 425.652 15.625C424.559 16.25 423.068 16.7383 421.18 17.0898C419.565 17.3633 417.977 17.5 416.414 17.5C415.62 17.5 415.092 17.2852 414.832 16.8555C414.676 16.582 414.546 14.4466 414.441 10.4492C413.895 10.2539 413.621 9.83724 413.621 9.19922C413.621 8.61328 413.868 8.22266 414.363 8.02734H414.383C414.292 6.69922 414.246 5.29948 414.246 3.82812C414.246 3.1901 414.259 2.85156 414.285 2.8125C414.337 2.4349 414.493 2.14844 414.754 1.95312C414.884 1.83594 415.216 1.69922 415.75 1.54297C416.596 1.28255 417.436 1.01562 418.27 0.742188C419.246 0.481771 420.118 0.351562 420.887 0.351562H421.707C422.423 0.338542 422.918 0.364583 423.191 0.429688C423.673 0.533854 424.083 0.78125 424.422 1.17188C424.773 1.5625 424.949 1.92057 424.949 2.24609C424.949 2.6888 424.552 2.94271 423.758 3.00781C421.792 3.17708 420.548 3.30729 420.027 3.39844C418.999 3.59375 417.807 3.97786 416.453 4.55078C416.388 5.44922 416.355 6.39974 416.355 7.40234C419.454 6.49089 422.247 6.03516 424.734 6.03516C425.216 6.03516 425.594 6.0612 425.867 6.11328C426.206 6.15234 426.57 6.29557 426.961 6.54297C427.404 6.84245 427.625 7.13542 427.625 7.42188ZM445.734 8.90625C445.734 9.25781 445.695 9.55078 445.617 9.78516C444.966 11.9596 443.534 13.763 441.32 15.1953C439.198 16.5885 436.971 17.2852 434.641 17.2852C433.755 17.2852 433.078 17.1419 432.609 16.8555C431.945 16.4648 431.366 15.8529 430.871 15.0195C430.376 14.1732 430.129 13.3659 430.129 12.5977C430.129 11.9857 430.298 11.6797 430.637 11.6797C430.962 11.6797 431.262 11.875 431.535 12.2656C431.743 12.5911 431.952 12.9102 432.16 13.2227C433.02 14.3815 434.484 14.9609 436.555 14.9609C437.818 14.9609 438.964 14.707 439.992 14.1992C441.164 13.6263 441.965 12.806 442.395 11.7383C442.538 11.3737 442.609 11.0677 442.609 10.8203C442.609 10.4557 442.401 10.1888 441.984 10.0195C440.917 9.61589 439.283 9.34896 437.082 9.21875C435.376 9.15365 433.677 9.08203 431.984 9.00391C431.372 8.95182 430.949 8.79557 430.715 8.53516C430.48 8.27474 430.363 7.84505 430.363 7.24609C430.363 6.54297 430.936 5.54036 432.082 4.23828C434.556 1.42578 437.661 0.0195312 441.398 0.0195312C441.828 0.0195312 442.128 0.0716146 442.297 0.175781C442.479 0.279948 442.59 0.520833 442.629 0.898438C442.655 1.09375 442.733 1.47135 442.863 2.03125C442.967 2.51302 443.02 2.89062 443.02 3.16406C443.02 3.45052 442.792 3.74349 442.336 4.04297C441.88 4.32943 441.503 4.47266 441.203 4.47266C440.917 4.47266 440.637 3.9388 440.363 2.87109C440.142 2.85807 439.921 2.85156 439.699 2.85156C437.238 2.85156 435.279 3.78906 433.82 5.66406C433.56 5.98958 433.43 6.21094 433.43 6.32812C433.43 6.4974 434.198 6.5625 435.734 6.52344H435.695C436.893 6.52344 438.495 6.60156 440.5 6.75781C442.883 6.95312 444.393 7.16797 445.031 7.40234C445.5 7.57161 445.734 8.07292 445.734 8.90625ZM452.262 13.7305C452.262 13.9128 452.177 14.388 452.008 15.1562C451.839 15.9245 451.715 16.3932 451.637 16.5625C451.493 16.901 451.142 17.0703 450.582 17.0703C449.97 17.0703 449.664 16.862 449.664 16.4453C449.664 15.3385 449.723 14.4727 449.84 13.8477C449.905 13.4831 450.341 13.3008 451.148 13.3008C451.891 13.3008 452.262 13.444 452.262 13.7305ZM459.492 13.7305C459.492 13.9128 459.408 14.388 459.238 15.1562C459.069 15.9245 458.945 16.3932 458.867 16.5625C458.724 16.901 458.372 17.0703 457.812 17.0703C457.201 17.0703 456.895 16.862 456.895 16.4453C456.895 15.3385 456.953 14.4727 457.07 13.8477C457.135 13.4831 457.572 13.3008 458.379 13.3008C459.121 13.3008 459.492 13.444 459.492 13.7305ZM466.723 13.7305C466.723 13.9128 466.638 14.388 466.469 15.1562C466.299 15.9245 466.176 16.3932 466.098 16.5625C465.954 16.901 465.603 17.0703 465.043 17.0703C464.431 17.0703 464.125 16.862 464.125 16.4453C464.125 15.3385 464.184 14.4727 464.301 13.8477C464.366 13.4831 464.802 13.3008 465.609 13.3008C466.352 13.3008 466.723 13.444 466.723 13.7305Z" fill="black"/>
</svg>
