<svg width="130" height="32" viewBox="0 0 130 32" fill="none" xmlns="http://www.w3.org/2000/svg">
<path d="M8.79374 21.6176C8.931 21.7946 9.11096 22.0051 9.33363 22.2493C9.55402 22.4743 9.76715 22.7196 9.97304 22.9851C10.4229 23.5115 10.784 23.9421 11.0562 24.277C11.3285 24.6119 11.5313 24.7714 11.6648 24.7554C11.7983 24.7394 11.8274 24.4168 11.752 23.7875C11.7337 23.6349 11.7143 23.4729 11.6937 23.3012C11.6732 23.1296 11.6408 22.9401 11.5966 22.7326C11.5105 22.3367 11.4473 21.8897 11.407 21.3916C11.3834 20.8722 11.342 20.3646 11.2826 19.8688C11.2232 19.373 11.1375 18.8997 11.0255 18.4489C10.9325 17.9958 10.7903 17.6163 10.5989 17.3104C10.4335 17.0594 10.3062 16.8038 10.217 16.5437C10.1255 16.2645 10.0638 15.9915 10.0318 15.7245C9.97927 15.2859 10.011 14.9049 10.127 14.5815C10.2598 14.2368 10.4883 14.045 10.8125 14.0062C11.1748 13.9628 11.6335 14.1593 12.1887 14.5957C12.2955 14.6796 12.4106 14.9947 12.534 15.5408C12.6743 16.0656 12.8126 16.7357 12.9489 17.5511C13.1043 18.3643 13.2628 19.2834 13.4243 20.3086C13.5858 21.3337 13.7495 22.378 13.9156 23.4413C14.0816 24.5046 14.2347 25.5404 14.3749 26.5488C14.5341 27.5549 14.6891 28.4455 14.8399 29.2205C14.8841 29.4279 14.8071 29.5919 14.6087 29.7124C14.4295 29.8306 14.2063 29.9057 13.9394 29.9376C13.5961 29.9787 13.227 29.9649 12.8319 29.8962C12.4558 29.8252 12.2015 29.7203 12.0688 29.5814C11.6989 29.2389 11.3249 28.7807 10.9467 28.2071C10.5662 27.6143 10.1831 27.0799 9.79721 26.6039C9.13685 25.7739 8.47877 24.963 7.82298 24.1711C7.18397 23.3579 6.53085 22.5076 5.86364 21.6204C5.38096 20.9819 4.95468 20.4913 4.58483 20.1488C4.23403 19.804 3.95376 19.6441 3.744 19.6692C3.41982 19.7081 3.31369 20.1947 3.42562 21.1291C3.44618 21.3007 3.46787 21.4818 3.49072 21.6725C3.51356 21.8632 3.55775 22.0707 3.6233 22.295C3.68885 22.5192 3.73761 22.7648 3.76959 23.0318C3.80157 23.2988 3.83469 23.5753 3.86895 23.8613L4.08138 25.6348C4.14762 26.1878 4.22111 26.7206 4.30185 27.2331C4.40166 27.7434 4.52437 28.2026 4.66996 28.6107C4.81556 29.0188 4.90435 29.3564 4.93633 29.6234C5.00257 30.1764 4.9384 30.6096 4.74384 30.923C4.54927 31.2365 4.30896 31.4103 4.02293 31.4446C3.71782 31.4811 3.41122 31.3438 3.10314 31.0325C2.81412 30.719 2.62622 30.1999 2.53942 29.4752L2.14198 26.1572C2.01406 25.0893 1.86822 24.0333 1.70446 22.989C1.55976 21.9425 1.38492 20.9673 1.17993 20.0634C1.14031 19.8941 1.06751 19.69 0.961536 19.4512C0.874635 19.2102 0.777056 18.9608 0.668801 18.7029C0.579615 18.4428 0.49043 18.1827 0.401244 17.9226C0.309774 17.6434 0.249192 17.3798 0.219498 17.1319C0.176099 16.7696 0.215829 16.4554 0.338689 16.1892C0.461548 15.923 0.728171 15.7267 1.13856 15.6002C1.45588 15.5041 1.73278 15.3936 1.96926 15.2685C2.20574 15.1435 2.48795 15.1581 2.8159 15.3122C3.38867 15.5724 3.95836 15.9684 4.52497 16.5002C5.09158 17.0319 5.63415 17.6053 6.15269 18.2201C6.69029 18.8327 7.18023 19.4511 7.62249 20.0751C8.08153 20.6777 8.47195 21.1919 8.79374 21.6176ZM22.8191 21.3593C22.861 21.5477 22.8922 21.7277 22.9128 21.8994C22.9333 22.071 22.9527 22.2331 22.971 22.3856C23.0441 22.9958 23.0867 23.513 23.0988 23.9371C23.1086 24.3421 23.1322 24.6198 23.1696 24.77C23.2366 25.1682 23.2838 25.4817 23.3112 25.7105C23.3577 25.9371 23.3985 26.1159 23.4335 26.2471C23.4877 26.3761 23.5647 26.4539 23.6646 26.4806C23.7645 26.5073 23.9194 26.5081 24.1291 26.483C24.2626 26.467 24.4152 26.4487 24.5868 26.4282C24.7752 26.3863 25.0029 26.3493 25.2698 26.3173L26.5284 26.1666C26.5307 26.1856 26.6177 26.1849 26.7893 26.1643C26.9609 26.1438 27.1527 26.1305 27.3648 26.1244C27.5768 26.1184 27.7816 26.1325 27.9792 26.1669C28.1744 26.1822 28.3052 26.2245 28.3716 26.294C28.4616 26.3992 28.5145 26.5186 28.5305 26.6521C28.5656 26.7833 28.5827 26.9263 28.5819 27.0812C28.5727 27.4885 28.4796 27.7608 28.3026 27.898C28.1424 28.0139 27.9288 28.0879 27.6618 28.1198C27.5093 28.1381 27.3281 28.1598 27.1184 28.1849C26.9254 28.1887 26.724 28.2032 26.5142 28.2283C26.0421 28.3235 25.6058 28.3951 25.2053 28.4431C24.8049 28.4911 24.377 28.552 23.9216 28.6259C23.5425 28.6906 23.0192 28.763 22.3518 28.8429C21.6844 28.9229 21.0597 29.0364 20.4776 29.1835C20.158 29.2604 19.8228 29.3683 19.4719 29.507C19.1424 29.6626 18.8155 29.7598 18.4913 29.7986C18.1671 29.8374 17.8792 29.7752 17.6275 29.6119C17.3972 29.4654 17.2333 29.1465 17.1358 28.6553C17.0893 28.4288 17.0962 28.2442 17.1565 28.1016C17.2358 27.9567 17.3472 27.8369 17.4906 27.7424C17.6341 27.6478 17.7893 27.5712 17.9564 27.5125C18.1425 27.4515 18.3107 27.4024 18.4609 27.365C18.6875 27.3185 18.9056 27.2827 19.1154 27.2576C19.3442 27.2302 19.5731 27.2028 19.8019 27.1754C20.1642 27.132 20.4384 27.0798 20.6246 27.0188C20.8298 26.9556 20.972 26.8515 21.0514 26.7066C21.1285 26.5426 21.1605 26.326 21.1476 26.0567C21.1347 25.7875 21.1092 25.4133 21.0712 24.9343C21.0355 24.4744 21.0009 24.024 20.9674 23.5831C20.9316 23.1231 20.8864 22.6643 20.8315 22.2067C20.8133 22.0541 20.795 21.9016 20.7767 21.749C20.7562 21.5774 20.7261 21.4069 20.6864 21.2376C20.6171 20.8203 20.5482 20.3257 20.4797 19.7536C20.4089 19.1625 20.3224 18.6022 20.2203 18.0728C20.09 17.4695 19.9753 17.077 19.8762 16.8955C19.7771 16.7139 19.6036 16.638 19.3557 16.6677C19.2031 16.6859 19.0147 16.7279 18.7904 16.7934C18.5852 16.8567 18.3228 16.9268 18.0032 17.0037C17.7218 17.0762 17.4571 17.1272 17.2092 17.1569C16.9781 17.1652 16.7317 17.127 16.4701 17.0423C16.1894 16.9599 15.9698 16.8218 15.8112 16.628C15.6526 16.4342 15.5607 16.2325 15.5356 16.0227C15.5104 15.8129 15.5353 15.6165 15.6101 15.4335C15.7016 15.2291 15.8466 15.0667 16.0449 14.9462C16.1884 14.8516 16.3447 14.7846 16.5141 14.7449C16.7025 14.703 16.9016 14.6695 17.1113 14.6444C17.6071 14.585 18.1372 14.5698 18.7017 14.599C19.2638 14.609 19.7356 14.5912 20.117 14.5455C20.5174 14.4975 20.8988 14.4518 21.2611 14.4084C21.6402 14.3437 22.0109 14.2896 22.3732 14.2462C22.5639 14.2234 22.7451 14.2017 22.9167 14.1811C23.0883 14.1605 23.2611 14.1495 23.435 14.148C23.6425 14.1038 23.8404 14.0608 24.0288 14.0189C24.2172 13.977 24.4068 13.9446 24.5975 13.9218C24.9789 13.8761 25.3099 13.8944 25.5906 13.9769C25.8712 14.0593 26.0691 14.2581 26.1842 14.5731C26.2734 14.8332 26.2902 15.0537 26.2344 15.2344C26.1955 15.3938 26.1055 15.5303 25.9643 15.644C25.84 15.7362 25.6752 15.814 25.47 15.8772C25.2625 15.9214 25.0539 15.9561 24.8442 15.9812C24.6916 15.9995 24.5391 16.0178 24.3865 16.036C24.2317 16.0353 24.097 16.0417 23.9826 16.0554C23.7157 16.0874 23.4857 16.1053 23.2927 16.109C23.0997 16.1128 22.927 16.1238 22.7744 16.1421C22.4884 16.1764 22.308 16.285 22.2332 16.4681C22.1775 16.6488 22.1957 17.0432 22.2878 17.6511C22.3686 18.1637 22.4619 18.7811 22.5677 19.5035C22.6904 20.2045 22.7742 20.8231 22.8191 21.3593ZM32.5539 17.9011C32.5151 17.577 32.4679 17.2635 32.4122 16.9606C32.3734 16.6365 32.3155 16.3146 32.2385 15.995C32.1593 15.6563 32.0701 15.3962 31.971 15.2146C31.8886 15.0117 31.7644 14.8622 31.5981 14.766C31.4509 14.6676 31.2404 14.6058 30.9666 14.5805C30.7118 14.553 30.3724 14.5453 29.9483 14.5574C29.4098 14.5833 28.9525 14.5607 28.5765 14.4896C28.1982 14.3996 28.0121 14.2187 28.0183 13.9472C27.9635 13.4895 28.0806 13.1757 28.3698 13.0057C28.6566 12.8166 29.0193 12.6958 29.4579 12.6432C29.8202 12.5998 30.1955 12.5839 30.5837 12.5954C30.9697 12.5879 31.3045 12.5574 31.5883 12.5041C32.0795 12.4066 32.6936 12.2847 33.4304 12.1384C34.165 11.973 34.866 11.8504 35.5334 11.7704C36.0482 11.7087 36.5009 11.6932 36.8915 11.7238C37.2797 11.7353 37.5424 11.8296 37.6797 12.0066C37.7033 12.0424 37.7483 12.0951 37.8147 12.1645C37.8787 12.2148 37.9355 12.2854 37.9851 12.3762C38.0514 12.4456 38.0987 12.5173 38.1269 12.5913C38.1551 12.6653 38.1418 12.7153 38.0869 12.7412C38.1188 13.0081 37.9762 13.1896 37.6588 13.2857C37.3606 13.3794 37.0028 13.461 36.5856 13.5303C36.1851 13.5783 35.787 13.6453 35.3911 13.7314C34.9952 13.8175 34.7145 13.9769 34.5489 14.2095C34.4146 14.3803 34.3543 14.7647 34.3679 15.3627C34.4006 15.9584 34.4603 16.6186 34.5471 17.3432C34.5996 17.7818 34.6522 18.2204 34.7047 18.659C34.7763 19.0953 34.8445 19.503 34.9092 19.8821C34.974 20.2612 35.0246 20.6033 35.0612 20.9084C35.0954 21.1945 35.1206 21.4042 35.1366 21.5377C35.17 21.9786 35.2485 22.4721 35.3719 23.0183C35.4931 23.5453 35.5857 24.0758 35.6496 24.6098C35.693 24.9721 35.7044 25.3092 35.6837 25.6212C35.6821 25.9309 35.6176 26.1997 35.4902 26.4278C35.2475 26.8243 34.9927 27.0386 34.7258 27.0706C34.5542 27.0912 34.3852 27.0534 34.219 26.9572C34.0504 26.842 33.8987 26.7054 33.7637 26.5475C33.6287 26.3896 33.5117 26.2199 33.4125 26.0383C33.3302 25.8354 33.2788 25.6481 33.2582 25.4765C33.1714 24.7519 33.1373 23.9823 33.1557 23.1677C33.1719 22.334 33.1332 21.5262 33.0396 20.7444C33.0076 20.4774 32.9577 20.2223 32.8898 19.9789C32.8411 19.7333 32.7839 19.4984 32.7184 19.2741L32.5539 17.9011ZM43.1686 16.6297C43.1298 16.3055 43.0826 15.992 43.0269 15.6892C42.9881 15.365 42.9302 15.0431 42.8532 14.7235C42.774 14.3848 42.6848 14.1247 42.5857 13.9431C42.5033 13.7402 42.379 13.5907 42.2128 13.4946C42.0656 13.3961 41.8551 13.3343 41.5813 13.3091C41.3265 13.2816 40.9871 13.2739 40.563 13.286C40.0245 13.3118 39.5672 13.2892 39.1912 13.2182C38.8129 13.1281 38.6268 12.9473 38.633 12.6758C38.5782 12.2181 38.6953 11.9042 38.9845 11.7342C39.2713 11.5451 39.634 11.4243 40.0726 11.3718C40.4349 11.3284 40.8102 11.3124 41.1984 11.324C41.5844 11.3164 41.9192 11.286 42.203 11.2326C42.6942 11.1351 43.3082 11.0132 44.0451 10.8669C44.7797 10.7016 45.4807 10.5789 46.1481 10.499C46.6629 10.4373 47.1156 10.4217 47.5062 10.4523C47.8944 10.4639 48.1571 10.5581 48.2944 10.7351C48.318 10.771 48.363 10.8236 48.4294 10.893C48.4934 10.9434 48.5502 11.0139 48.5998 11.1047C48.6661 11.1741 48.7134 11.2459 48.7416 11.3198C48.7698 11.3938 48.7565 11.4438 48.7015 11.4697C48.7335 11.7367 48.5909 11.9182 48.2735 12.0142C47.9753 12.108 47.6175 12.1895 47.2003 12.2588C46.7998 12.3068 46.4017 12.3738 46.0058 12.46C45.6099 12.5461 45.3292 12.7054 45.1636 12.938C45.0293 13.1088 44.969 13.4933 44.9826 14.0913C45.0153 14.687 45.075 15.3471 45.1618 16.0718C45.2143 16.5104 45.2669 16.949 45.3194 17.3875C45.391 17.8239 45.4592 18.2316 45.5239 18.6107C45.5887 18.9898 45.6393 19.3319 45.6759 19.637C45.7101 19.923 45.7353 20.1328 45.7513 20.2663C45.7847 20.7071 45.8632 21.2006 45.9866 21.7468C46.1078 22.2739 46.2004 22.8044 46.2643 23.3383C46.3077 23.7006 46.3191 24.0378 46.2984 24.3497C46.2968 24.6594 46.2323 24.9283 46.1049 25.1563C45.8622 25.5529 45.6074 25.7672 45.3405 25.7991C45.1688 25.8197 44.9999 25.7819 44.8337 25.6858C44.6651 25.5706 44.5133 25.434 44.3784 25.2761C44.2434 25.1182 44.1264 24.9484 44.0272 24.7669C43.9449 24.564 43.8935 24.3767 43.8729 24.2051C43.7861 23.4804 43.7519 22.7108 43.7704 21.8962C43.7866 21.0625 43.7479 20.2548 43.6542 19.4729C43.6223 19.206 43.5724 18.9508 43.5045 18.7075C43.4558 18.4619 43.3986 18.2269 43.3331 18.0027L43.1686 16.6297ZM56.9777 9.81105C57.2447 9.77907 57.4915 9.73984 57.718 9.69337C57.9446 9.64689 58.1627 9.61108 58.3725 9.58596C58.6776 9.54941 58.9598 9.56397 59.2191 9.62962C59.4784 9.69527 59.7133 9.8799 59.9238 10.1835C60.061 10.3605 60.1377 10.5157 60.1536 10.6492C60.1887 10.7804 60.101 10.936 59.8904 11.116C59.6798 11.2959 59.4243 11.4233 59.1238 11.498C58.84 11.5513 58.536 11.5974 58.2119 11.6362C58.0021 11.6613 57.7828 11.6876 57.554 11.715C57.3442 11.7401 57.1451 11.7736 56.9567 11.8156C56.2771 11.955 55.6798 12.0555 55.165 12.1172C54.6501 12.1789 54.2363 12.2768 53.9235 12.411C53.6085 12.5261 53.3788 12.7083 53.2346 12.9577C53.1072 13.1858 53.072 13.5381 53.1292 14.0149C53.1794 14.4344 53.3006 14.9615 53.4926 15.5961C53.5887 15.9135 53.864 16.1126 54.3186 16.1935C54.7709 16.2554 55.264 16.2544 55.7979 16.1904C56.1793 16.1447 56.5393 16.0823 56.878 16.003C57.2144 15.9047 57.4852 15.8239 57.6904 15.7606C57.9124 15.676 58.1401 15.6391 58.3735 15.6498C58.6259 15.6583 58.8544 15.7083 59.0588 15.7998C59.2799 15.8701 59.458 15.9841 59.593 16.142C59.747 16.2977 59.8378 16.4899 59.8652 16.7187C59.8971 16.9857 59.8254 17.2748 59.6499 17.5859C59.5682 17.7118 59.426 17.8159 59.2231 17.8982C59.0369 17.9592 58.8104 18.0057 58.5434 18.0376C58.1048 18.0902 57.6151 18.1198 57.0743 18.1266C56.5336 18.1333 56.0153 18.1664 55.5195 18.2258C54.9855 18.2897 54.5263 18.4124 54.1419 18.5939C53.7765 18.773 53.5808 19.077 53.5547 19.5056C53.5417 19.7199 53.5607 19.9595 53.6118 20.2241C53.6819 20.4865 53.7554 20.7775 53.8324 21.0972C53.9071 21.3977 53.9829 21.7078 54.0599 22.0274C54.1559 22.3447 54.2234 22.6654 54.2622 22.9896C54.2873 23.1994 54.3018 23.4008 54.3055 23.5937C54.307 23.7676 54.2906 23.9534 54.2562 24.1509C54.1929 24.4293 54.0917 24.6348 53.9529 24.7675C53.8141 24.9002 53.6397 24.9791 53.43 25.0042C53.2202 25.0294 53.0048 25.0068 52.7836 24.9366C52.5815 24.8641 52.395 24.7607 52.2242 24.6264C52.0701 24.4708 51.9435 24.3022 51.8444 24.1206C51.7453 23.9391 51.7118 23.74 51.7439 23.5234C51.8347 22.9902 51.857 22.3686 51.8106 21.6585C51.7833 20.9461 51.7251 20.218 51.636 19.4743C51.5492 18.7497 51.4468 18.0559 51.3287 17.3931C51.2274 16.7089 51.1364 16.1105 51.0557 15.5979C50.9376 14.935 50.7444 14.2909 50.476 13.6654C50.2244 13.0185 50.1098 12.3842 50.132 11.7626C50.1512 11.2767 50.4388 10.9328 50.9949 10.7308C51.551 10.5288 52.2009 10.3832 52.9446 10.2942C53.4595 10.2325 53.9766 10.1899 54.4961 10.1663C55.0323 10.1215 55.5197 10.0727 55.9583 10.0202C56.3778 9.96996 56.7176 9.90024 56.9777 9.81105ZM70.3265 8.09605C70.5149 8.05414 70.6758 8.02519 70.8093 8.0092C70.9596 7.97186 71.0942 7.9654 71.2132 7.98984C71.3513 8.01199 71.4832 8.06388 71.609 8.14552C71.7326 8.20809 71.8821 8.32559 72.0575 8.49801C72.2542 8.68721 72.3747 8.88555 72.4189 9.09303C72.4608 9.28144 72.4241 9.45991 72.3089 9.62846C72.2105 9.77565 72.0122 9.89612 71.7139 9.98987C71.4156 10.0836 71.0129 10.1125 70.5057 10.0766C70.2914 10.0636 69.9733 10.0726 69.5515 10.1038C69.1465 10.1136 68.7151 10.146 68.2575 10.2008C67.8189 10.2533 67.3826 10.3249 66.9485 10.4156C66.5122 10.4872 66.1186 10.5924 65.7677 10.7311C65.4146 10.8508 65.1232 11.0018 64.8935 11.184C64.6807 11.3449 64.5784 11.5409 64.5868 11.772C64.589 12.2747 64.6095 12.6881 64.6483 13.0123C64.7008 13.4509 64.8529 13.7518 65.1046 13.9151C65.354 14.0593 65.8505 14.0869 66.5942 13.9978C66.9566 13.9544 67.4405 13.8771 68.0462 13.7658C68.6709 13.6523 69.3074 13.5567 69.9558 13.4791C70.6423 13.3968 71.2868 13.368 71.8894 13.3925C72.4897 13.398 72.9107 13.5217 73.1524 13.7635C73.4368 14.0389 73.5905 14.272 73.6133 14.4627C73.6522 14.7868 73.3806 15.0225 72.7986 15.1696C72.2166 15.3166 71.506 15.4404 70.667 15.5409C70.0568 15.614 69.4382 15.6978 68.8112 15.7922C68.1819 15.8676 67.606 15.985 67.0835 16.1443C66.5587 16.2845 66.1277 16.4812 65.7905 16.7344C65.4724 16.9852 65.3182 17.3132 65.328 17.7182C65.3364 17.9493 65.347 18.1995 65.3599 18.4688C65.3728 18.738 65.3953 19.0061 65.4272 19.2731C65.4661 19.5973 65.5228 19.9096 65.5975 20.2102C65.6913 20.5084 65.8091 20.7651 65.9509 20.9802C66.1095 21.174 66.2994 21.306 66.5206 21.3762C66.7608 21.4442 67.0469 21.4099 67.3787 21.2734C68.0065 21.0241 68.6888 20.8264 69.4257 20.6801C70.1793 20.5124 70.9375 20.3829 71.7003 20.2916L72.5584 20.1888C73.1137 20.1416 73.5873 20.2203 73.9793 20.4248C74.3713 20.6293 74.5833 20.865 74.6153 21.132C74.6381 21.3227 74.5347 21.5091 74.3051 21.6914C74.0923 21.8523 73.6998 21.967 73.1277 22.0355C72.2887 22.136 71.4172 22.2888 70.5133 22.4937C69.6071 22.6797 68.7627 22.8969 67.9801 23.1453C67.4957 23.3001 67.0075 23.5036 66.5155 23.756C66.0425 24.0061 65.6058 24.1551 65.2054 24.2031C64.8431 24.2465 64.5231 24.1591 64.2455 23.9409C63.9679 23.7226 63.7571 23.2547 63.6131 22.5369C63.5643 22.2913 63.5167 22.0552 63.4702 21.8286C63.4428 21.5998 63.4143 21.3614 63.3846 21.1135C63.2772 20.2173 63.1973 19.3081 63.1449 18.3859C63.1115 17.4614 63.04 16.5415 62.9304 15.6262C62.8824 15.2258 62.8261 14.836 62.7613 14.4569C62.6943 14.0587 62.6093 13.6724 62.5064 13.2978C62.45 13.1499 62.3784 12.9553 62.2915 12.7143C62.2023 12.4542 62.1108 12.175 62.0171 11.8767C61.9233 11.5785 61.8391 11.2791 61.7644 10.9785C61.6897 10.678 61.6364 10.3943 61.6044 10.1273C61.5541 9.70776 61.5843 9.39466 61.695 9.18798C61.8201 8.94088 62.0498 8.75863 62.3839 8.64124C62.7157 8.50478 63.1104 8.40914 63.5681 8.35432C64.083 8.29264 64.6501 8.2634 65.2694 8.26658C65.8888 8.26977 66.5081 8.27295 67.1275 8.27614C67.7278 8.2816 68.2983 8.28096 68.8391 8.27421C69.3967 8.24611 69.8925 8.18672 70.3265 8.09605ZM83.4371 7.65719C83.2334 7.89436 83.0324 8.07318 82.834 8.19365C82.6525 8.29277 82.4568 8.35489 82.247 8.38002C81.9229 8.41885 81.6014 8.39933 81.2826 8.32146C80.9637 8.24359 80.6136 8.2275 80.2323 8.27318C79.9844 8.30287 79.7136 8.38367 79.4199 8.51556C79.143 8.6261 78.8466 8.81634 78.5308 9.08629C78.1623 9.40122 78.089 9.75817 78.3109 10.1571C78.5328 10.5561 78.914 10.994 79.4547 11.4708C79.9931 11.9286 80.6326 12.4226 81.3731 12.9529C82.1136 13.4832 82.8183 14.0371 83.4871 14.6146C84.1536 15.1731 84.7175 15.7632 85.1789 16.3849C85.6379 16.9876 85.8574 17.6093 85.8375 18.25C85.8229 18.774 85.6668 19.2473 85.3692 19.6698C85.0694 20.0732 84.6769 20.4297 84.1917 20.7393C83.7042 21.0298 83.1527 21.2699 82.5371 21.4597C81.9406 21.6472 81.3277 21.7786 80.6984 21.854C79.8022 21.9614 78.9696 21.9547 78.2008 21.834C77.432 21.7134 76.8817 21.4795 76.55 21.1323C76.351 20.9241 76.2305 20.7257 76.1886 20.5373C76.1444 20.3298 76.162 20.1536 76.2413 20.0087C76.3184 19.8448 76.4382 19.7144 76.6007 19.6175C76.7609 19.5016 76.9363 19.4323 77.127 19.4094C77.4512 19.3706 77.7425 19.4614 78.0011 19.6819C78.146 19.7613 78.4434 19.8223 78.8934 19.8652C79.3602 19.8866 79.8701 19.8642 80.4231 19.798C80.7664 19.7569 81.0978 19.6978 81.4174 19.6208C81.7348 19.5248 82.0189 19.3941 82.2699 19.2286C82.5209 19.0631 82.7207 18.8748 82.8695 18.6635C83.016 18.4332 83.0794 18.1548 83.0596 17.8284C83.0345 17.6186 82.887 17.3558 82.617 17.04C82.3471 16.7241 82.007 16.3877 81.5967 16.0306C81.1864 15.6736 80.7368 15.3116 80.248 14.9446C79.7592 14.5776 79.2821 14.2285 78.8169 13.8974C78.3494 13.5472 77.9258 13.2401 77.546 12.9761C77.183 12.6907 76.9138 12.4619 76.7384 12.2894C76.3235 11.8943 76.017 11.5151 75.8188 11.152C75.6205 10.7889 75.502 10.4452 75.4632 10.1211C75.3969 9.56805 75.5198 9.06009 75.8319 8.59717C76.144 8.13425 76.5594 7.72665 77.0781 7.37437C77.5969 7.02209 78.1808 6.7297 78.8299 6.4972C79.4791 6.2647 80.1088 6.1119 80.719 6.03881C81.1576 5.98628 81.5626 5.97645 81.9341 6.00933C82.3246 6.03992 82.6445 6.12732 82.8939 6.27154C83.1601 6.3944 83.3462 6.57521 83.4521 6.81397C83.5558 7.03366 83.5508 7.31474 83.4371 7.65719ZM90.2364 10.9918C90.1976 10.6676 90.1504 10.3541 90.0947 10.0513C90.0559 9.7271 89.998 9.40521 89.921 9.0856C89.8418 8.74692 89.7526 8.48681 89.6535 8.30525C89.5711 8.10234 89.4469 7.95282 89.2806 7.85668C89.1334 7.75825 88.9229 7.69642 88.6491 7.67119C88.3943 7.64368 88.0549 7.63598 87.6308 7.64809C87.0923 7.67391 86.635 7.65131 86.259 7.58029C85.8807 7.49021 85.6946 7.3094 85.7008 7.03786C85.646 6.5802 85.7631 6.26635 86.0523 6.09632C86.3391 5.90722 86.7018 5.7864 87.1404 5.73387C87.5027 5.69047 87.878 5.67453 88.2662 5.68606C88.6522 5.67851 88.987 5.64807 89.2708 5.59474C89.762 5.49722 90.3761 5.37531 91.1129 5.22902C91.8475 5.06366 92.5485 4.94101 93.2159 4.86106C93.7307 4.79939 94.1834 4.78385 94.574 4.81444C94.9622 4.82597 95.2249 4.92022 95.3622 5.09721C95.3858 5.13307 95.4308 5.18571 95.4972 5.25513C95.5612 5.30548 95.618 5.37605 95.6676 5.46683C95.7339 5.53625 95.7812 5.60796 95.8094 5.68195C95.8376 5.75595 95.8243 5.8059 95.7694 5.83183C95.8013 6.0988 95.6587 6.2803 95.3413 6.37634C95.0431 6.47009 94.6853 6.55163 94.2681 6.62095C93.8676 6.66892 93.4695 6.73595 93.0736 6.82206C92.6777 6.90816 92.397 7.06752 92.2314 7.30012C92.0971 7.47095 92.0368 7.85536 92.0504 8.45336C92.0831 9.04907 92.1428 9.70924 92.2296 10.4339C92.2821 10.8725 92.3347 11.3111 92.3872 11.7497C92.4588 12.186 92.527 12.5937 92.5917 12.9728C92.6565 13.3519 92.7071 13.694 92.7437 13.9991C92.7779 14.2851 92.8031 14.4949 92.8191 14.6284C92.8525 15.0692 92.931 15.5627 93.0544 16.1089C93.1756 16.636 93.2682 17.1665 93.3321 17.7004C93.3755 18.0628 93.3869 18.3999 93.3662 18.7119C93.3646 19.0215 93.3001 19.2904 93.1727 19.5184C92.93 19.915 92.6752 20.1293 92.4083 20.1612C92.2367 20.1818 92.0677 20.144 91.9015 20.0479C91.7329 19.9327 91.5812 19.7961 91.4462 19.6382C91.3112 19.4803 91.1942 19.3105 91.095 19.129C91.0127 18.9261 90.9613 18.7388 90.9407 18.5672C90.8539 17.8425 90.8198 17.0729 90.8382 16.2583C90.8544 15.4246 90.8157 14.6169 90.7221 13.835C90.6901 13.5681 90.6402 13.3129 90.5723 13.0696C90.5236 12.824 90.4664 12.589 90.4009 12.3648L90.2364 10.9918ZM112.597 10.6055C112.639 10.7939 112.67 10.9739 112.691 11.1455C112.711 11.3172 112.731 11.4792 112.749 11.6318C112.822 12.242 112.865 12.7592 112.877 13.1833C112.887 13.5883 112.91 13.8659 112.948 14.0162C113.015 14.4144 113.062 14.7279 113.089 14.9567C113.136 15.1832 113.176 15.3621 113.212 15.4933C113.266 15.6222 113.343 15.7001 113.443 15.7268C113.543 15.7535 113.697 15.7543 113.907 15.7292C114.041 15.7132 114.193 15.6949 114.365 15.6743C114.553 15.6324 114.781 15.5955 115.048 15.5635L116.306 15.4127C116.309 15.4318 116.396 15.4311 116.567 15.4105C116.739 15.39 116.931 15.3767 117.143 15.3706C117.355 15.3645 117.56 15.3787 117.757 15.4131C117.952 15.4284 118.083 15.4707 118.15 15.5401C118.24 15.6454 118.293 15.7648 118.309 15.8983C118.344 16.0295 118.361 16.1725 118.36 16.3273C118.351 16.7346 118.258 17.0069 118.081 17.1442C117.92 17.2601 117.707 17.334 117.44 17.366C117.287 17.3843 117.106 17.406 116.896 17.4311C116.703 17.4349 116.502 17.4493 116.292 17.4745C115.82 17.5697 115.384 17.6413 114.983 17.6893C114.583 17.7372 114.155 17.7982 113.7 17.8721C113.32 17.9368 112.797 18.0092 112.13 18.0891C111.462 18.169 110.838 18.2826 110.256 18.4296C109.936 18.5066 109.601 18.6145 109.25 18.7532C108.92 18.9087 108.593 19.0059 108.269 19.0448C107.945 19.0836 107.657 19.0214 107.406 18.8581C107.175 18.7116 107.011 18.3927 106.914 17.9015C106.867 17.6749 106.874 17.4904 106.934 17.3477C107.014 17.2028 107.125 17.0831 107.269 16.9886C107.412 16.894 107.567 16.8174 107.734 16.7587C107.92 16.6977 108.089 16.6485 108.239 16.6112C108.465 16.5647 108.684 16.5289 108.893 16.5038C109.122 16.4764 109.351 16.449 109.58 16.4216C109.942 16.3782 110.216 16.326 110.403 16.265C110.608 16.2017 110.75 16.0976 110.829 15.9527C110.906 15.7888 110.939 15.5722 110.926 15.3029C110.913 15.0336 110.887 14.6595 110.849 14.1805C110.813 13.7206 110.779 13.2701 110.745 12.8293C110.71 12.3693 110.664 11.9105 110.61 11.4529C110.591 11.3003 110.573 11.1478 110.555 10.9952C110.534 10.8236 110.504 10.6531 110.464 10.4838C110.395 10.0665 110.326 9.57186 110.258 8.99978C110.187 8.40864 110.1 7.84838 109.998 7.31901C109.868 6.71565 109.753 6.32319 109.654 6.14164C109.555 5.96008 109.382 5.88415 109.134 5.91384C108.981 5.93212 108.793 5.97403 108.568 6.03958C108.363 6.10284 108.101 6.17296 107.781 6.24993C107.5 6.32233 107.235 6.37337 106.987 6.40307C106.756 6.41141 106.51 6.37322 106.248 6.2885C105.967 6.20606 105.748 6.06795 105.589 5.87418C105.431 5.68041 105.339 5.47864 105.314 5.26888C105.288 5.05912 105.313 4.86272 105.388 4.67968C105.48 4.47528 105.625 4.31284 105.823 4.19237C105.966 4.09782 106.123 4.03073 106.292 3.99111C106.48 3.9492 106.68 3.91568 106.889 3.89055C107.385 3.83116 107.915 3.81602 108.48 3.84513C109.042 3.85516 109.514 3.83734 109.895 3.79166C110.295 3.74369 110.677 3.69801 111.039 3.65461C111.418 3.58986 111.789 3.53578 112.151 3.49238C112.342 3.46954 112.523 3.44784 112.695 3.42728C112.866 3.40672 113.039 3.3957 113.213 3.39422C113.42 3.35002 113.618 3.30697 113.807 3.26506C113.995 3.22315 114.185 3.19077 114.375 3.16793C114.757 3.12224 115.088 3.14062 115.369 3.22306C115.649 3.3055 115.847 3.50423 115.962 3.81927C116.051 4.07939 116.068 4.29983 116.012 4.48059C115.973 4.63999 115.883 4.77651 115.742 4.89013C115.618 4.98239 115.453 5.06016 115.248 5.12342C115.041 5.16762 114.832 5.20228 114.622 5.2274C114.47 5.24568 114.317 5.26395 114.164 5.28222C114.01 5.28143 113.875 5.28788 113.761 5.30159C113.494 5.33356 113.264 5.35144 113.071 5.35521C112.878 5.35898 112.705 5.37001 112.552 5.38828C112.266 5.42254 112.086 5.5312 112.011 5.71424C111.955 5.895 111.974 6.28934 112.066 6.89727C112.147 7.40986 112.24 8.02732 112.346 8.74967C112.468 9.45066 112.552 10.0693 112.597 10.6055ZM126.762 2.46765C126.558 2.70482 126.357 2.88364 126.159 3.00411C125.977 3.10323 125.782 3.16535 125.572 3.19048C125.248 3.22931 124.926 3.20979 124.607 3.13192C124.288 3.05405 123.938 3.03796 123.557 3.08364C123.309 3.11334 123.038 3.19413 122.745 3.32602C122.468 3.43656 122.171 3.6268 121.855 3.89675C121.487 4.21168 121.414 4.56863 121.636 4.9676C121.857 5.36657 122.239 5.80446 122.779 6.2813C123.318 6.73906 123.957 7.23308 124.698 7.76335C125.438 8.29362 126.143 8.84753 126.812 9.42507C127.478 9.98355 128.042 10.5737 128.504 11.1954C128.963 11.7981 129.182 12.4197 129.162 13.0605C129.148 13.5845 128.992 14.0577 128.694 14.4802C128.394 14.8836 128.002 15.2401 127.516 15.5497C127.029 15.8402 126.477 16.0804 125.862 16.2702C125.265 16.4577 124.652 16.5891 124.023 16.6645C123.127 16.7718 122.294 16.7652 121.526 16.6445C120.757 16.5238 120.206 16.2899 119.875 15.9428C119.676 15.7345 119.555 15.5362 119.513 15.3478C119.469 15.1403 119.487 14.9641 119.566 14.8192C119.643 14.6552 119.763 14.5248 119.925 14.428C120.086 14.3121 120.261 14.2427 120.452 14.2199C120.776 14.181 121.067 14.2719 121.326 14.4924C121.471 14.5717 121.768 14.6328 122.218 14.6756C122.685 14.6971 123.195 14.6747 123.748 14.6084C124.091 14.5673 124.423 14.5083 124.742 14.4313C125.059 14.3353 125.344 14.2045 125.595 14.0391C125.846 13.8736 126.045 13.6852 126.194 13.474C126.341 13.2437 126.404 12.9653 126.384 12.6388C126.359 12.4291 126.212 12.1663 125.942 11.8504C125.672 11.5346 125.332 11.1981 124.921 10.8411C124.511 10.484 124.062 10.122 123.573 9.75503C123.084 9.38804 122.607 9.03898 122.142 8.70785C121.674 8.35765 121.251 8.05055 120.871 7.78656C120.508 7.50121 120.239 7.27233 120.063 7.09991C119.648 6.70472 119.342 6.32556 119.143 5.96245C118.945 5.59934 118.827 5.2557 118.788 4.93152C118.722 4.37851 118.845 3.87055 119.157 3.40763C119.469 2.94471 119.884 2.53711 120.403 2.18483C120.922 1.83255 121.506 1.54016 122.155 1.30766C122.804 1.07516 123.433 0.922365 124.044 0.849272C124.482 0.796737 124.887 0.786908 125.259 0.819786C125.649 0.85038 125.969 0.937783 126.219 1.082C126.485 1.20486 126.671 1.38567 126.777 1.62443C126.881 1.84412 126.876 2.1252 126.762 2.46765Z" fill="black"/>
</svg>
