<svg width="237" height="25" viewBox="0 0 237 25" fill="none" xmlns="http://www.w3.org/2000/svg">
<path d="M1.44361 15.5877L1.54451 13.8706C1.59457 13.0188 1.63364 12.127 1.66173 11.1955C1.71648 10.2638 1.71872 9.54526 1.66844 9.03997C1.58829 8.13572 1.47914 7.27156 1.34097 6.4475C1.2028 5.62345 1.15249 4.89197 1.19003 4.25308C1.22132 3.72066 1.34046 3.28082 1.54746 2.93357C1.78112 2.58614 2.16853 2.34417 2.70967 2.20768C3.33081 2.07067 4.02961 1.97308 4.80606 1.91492C5.58407 1.83014 6.35973 1.78528 7.13305 1.78036C7.50637 1.77799 7.85303 1.77578 8.17303 1.77374C8.51969 1.77154 8.83812 1.79612 9.12831 1.84749C10.1887 1.94719 11.1056 2.22077 11.879 2.66823C12.6806 3.0889 13.3285 3.6303 13.8227 4.29242C14.3452 4.92775 14.7163 5.64388 14.936 6.44081C15.1824 7.23756 15.2806 8.06187 15.2305 8.91374C15.1836 9.71236 15.0033 10.5118 14.6897 11.3122C14.4028 12.1123 13.9716 12.8735 13.396 13.5956C12.822 14.2911 12.1186 14.921 11.2858 15.4851C10.4545 16.0226 9.49693 16.4412 8.41308 16.7408C8.14172 16.8223 7.77939 16.8646 7.32606 16.8675C6.8994 16.8702 6.47118 16.8995 6.04139 16.9555C5.63827 17.0112 5.27124 17.1333 4.9403 17.3217C4.63602 17.5099 4.47137 17.817 4.44634 18.2429C4.41192 18.8286 4.42771 19.4671 4.4937 20.1586C4.5597 20.8501 4.57548 21.4886 4.54107 22.0743C4.5004 22.7664 4.32167 23.3131 4.00487 23.7143C3.71631 24.0886 3.15163 24.1721 2.31083 23.9645C1.89043 23.8608 1.62057 23.4633 1.50124 22.7722C1.40858 22.0809 1.3614 21.2962 1.35969 20.418C1.38464 19.5397 1.42372 18.648 1.4769 17.7429C1.53009 16.8378 1.51899 16.1194 1.44361 15.5877ZM4.42871 11.0581C4.4445 11.6967 4.52144 12.2018 4.65954 12.5735C4.7992 12.9185 4.98355 13.1835 5.2126 13.3683C5.44164 13.5531 5.70126 13.6712 5.99146 13.7226C6.30989 13.7472 6.64322 13.745 6.99144 13.7162C7.66122 13.6587 8.19846 13.5888 8.60314 13.5064C9.00939 13.3973 9.35054 13.2621 9.62659 13.1007C9.9293 12.9391 10.1936 12.7511 10.4194 12.5368C10.6468 12.2959 10.8891 12.0282 11.1463 11.7339C12.0591 10.7168 12.5436 9.72916 12.6 8.77082C12.6344 8.18516 12.5323 7.65359 12.2938 7.17612C12.0553 6.69864 11.7196 6.28831 11.2866 5.94513C10.8818 5.57515 10.4049 5.29877 9.85589 5.11599C9.30841 4.90659 8.75468 4.80367 8.19469 4.80724C7.7147 4.81029 7.24335 4.89312 6.78064 5.05573C6.31793 5.21834 5.88974 5.47387 5.49608 5.82232C5.15888 6.11718 4.90719 6.54456 4.74101 7.10444C4.57639 7.6377 4.47218 8.27702 4.42838 9.02241C4.39084 9.6613 4.39095 10.3399 4.42871 11.0581ZM17.8437 8.77736C18.3188 7.49702 18.9037 6.38895 19.5985 5.45315C20.3199 4.51718 21.1244 3.75365 22.0122 3.16256C22.8999 2.57147 23.8316 2.13977 24.8072 1.86745C25.8111 1.56835 26.833 1.41548 27.873 1.40887C29.3396 1.39953 30.7639 1.65657 32.1459 2.17999C33.5562 2.67662 34.7931 3.40055 35.8568 4.35176C36.9487 5.27619 37.8022 6.40172 38.4173 7.72834C39.0324 9.05497 39.2922 10.5302 39.1968 12.1541C39.1655 12.6865 39.095 13.2059 38.9853 13.7122C38.7267 14.9379 38.2571 16.1251 37.5765 17.2737C36.9241 18.3955 36.1181 19.4118 35.1582 20.3227C34.2266 21.2068 33.1687 21.9719 31.9845 22.6181C30.8286 23.2375 29.6169 23.671 28.3495 23.9186C27.4868 24.0837 26.6155 24.1691 25.7355 24.1747C24.4555 24.1828 23.2014 23.9779 21.9731 23.56C20.7731 23.1152 19.7533 22.3234 18.914 21.1845C17.9757 19.9131 17.3269 18.7065 16.9675 17.5645C16.6348 16.4223 16.5036 15.2523 16.574 14.0544C16.6225 13.2291 16.7518 12.3901 16.9619 11.5372C17.2001 10.6575 17.4941 9.73757 17.8437 8.77736ZM24.9349 5.81834C23.2002 6.76076 21.8883 7.99321 20.9991 9.51568C20.1382 11.0114 19.6616 12.5445 19.5693 14.1151C19.5145 15.0469 19.5947 15.9511 19.8097 16.8279C20.053 17.6779 20.4351 18.4339 20.9559 19.0958C21.4784 19.7312 22.1412 20.2459 22.9444 20.6399C23.7491 21.0073 24.6982 21.1876 25.7915 21.1806C26.1648 21.1782 26.5522 21.1625 26.9538 21.1333C27.3836 21.0774 27.8291 20.9814 28.2902 20.8454C29.454 20.5453 30.4485 20.1797 31.2735 19.7487C32.1001 19.291 32.7972 18.7677 33.365 18.1786C33.9609 17.5628 34.4675 16.881 34.8846 16.1332C35.3033 15.3588 35.7 14.5048 36.0748 13.571C36.2943 13.0108 36.4236 12.3979 36.4627 11.7324C36.5049 11.0136 36.4523 10.3221 36.3047 9.65777C36.1587 8.96681 35.9508 8.42262 35.6809 8.02517C34.9969 6.9651 34.0438 6.17284 32.8218 5.6484C31.6013 5.09734 30.3111 4.82614 28.9511 4.83479C28.2578 4.83921 27.5598 4.92348 26.8571 5.08762C26.1811 5.25159 25.5403 5.49516 24.9349 5.81834ZM53.6583 4.39813C53.3211 4.69299 53.0019 4.90791 52.7008 5.04288C52.4279 5.15106 52.1447 5.20609 51.8514 5.20795C51.3981 5.21084 50.9628 5.13378 50.5455 4.97677C50.1283 4.81976 49.653 4.74295 49.1196 4.74635C48.773 4.74855 48.3824 4.81756 47.9479 4.95338C47.5417 5.06241 47.0892 5.27818 46.5904 5.60068C46.0085 5.97694 45.8204 6.45713 46.0259 7.04126C46.2315 7.62539 46.6457 8.28802 47.2686 9.02916C47.893 9.74368 48.6468 10.5239 49.5301 11.3698C50.4134 12.2157 51.2417 13.0886 52.0152 13.9885C52.7902 14.8617 53.417 15.7625 53.8956 16.6908C54.3757 17.5925 54.5233 18.483 54.3384 19.3624C54.1895 20.0818 53.8594 20.7093 53.3481 21.2447C52.8384 21.7536 52.2134 22.1833 51.473 22.534C50.7343 22.858 49.9202 23.1027 49.0309 23.268C48.1681 23.4332 47.2968 23.5186 46.4168 23.5242C45.1635 23.5321 44.0255 23.393 43.0027 23.1068C41.9799 22.8206 41.2842 22.4126 40.9155 21.8827C40.6943 21.5648 40.5781 21.2728 40.5671 21.0067C40.5577 20.7141 40.6251 20.4742 40.7694 20.287C40.9152 20.0732 41.1112 19.9122 41.3575 19.8042C41.6053 19.6696 41.8626 19.6014 42.1292 19.5997C42.5825 19.5969 42.959 19.7674 43.2587 20.1115C43.4375 20.2434 43.8297 20.3739 44.4352 20.5031C45.0689 20.6055 45.7725 20.6543 46.5458 20.6494C47.0258 20.6463 47.494 20.6167 47.9504 20.5606C48.4085 20.4778 48.8296 20.3421 49.2139 20.1534C49.5982 19.9647 49.9181 19.7364 50.1737 19.4687C50.4309 19.1744 50.5862 18.8008 50.6394 18.3481C50.6566 18.0553 50.5193 17.6703 50.2275 17.1931C49.9357 16.716 49.5528 16.1995 49.079 15.6437C48.6052 15.0879 48.0789 14.5191 47.5 13.9374C46.9211 13.3556 46.3539 12.8004 45.7986 12.2717C45.2447 11.7164 44.7404 11.2273 44.2854 10.8045C43.8587 10.3548 43.5465 9.99753 43.3488 9.73268C42.8781 9.12363 42.5517 8.55357 42.3697 8.02252C42.1877 7.49146 42.1099 6.99966 42.1365 6.5471C42.1819 5.7751 42.4751 5.09466 43.0162 4.50578C43.5573 3.9169 44.2262 3.42034 45.023 3.01611C45.8197 2.61187 46.691 2.30031 47.6369 2.0814C48.5827 1.86249 49.4823 1.75032 50.3356 1.74489C50.9489 1.74099 51.5058 1.79067 52.0062 1.89392C52.5332 1.99701 52.9497 2.16733 53.2556 2.40488C53.5898 2.61564 53.8 2.89372 53.8864 3.23911C53.9742 3.55788 53.8982 3.94422 53.6583 4.39813ZM62.1457 10.0521C62.1723 9.59957 62.1848 9.16041 62.1831 8.73465C62.2097 8.2821 62.2097 7.82972 62.1829 7.3775C62.1578 6.89867 62.0997 6.52649 62.0086 6.26096C61.9458 5.96864 61.8125 5.7433 61.6085 5.58493C61.4313 5.4264 61.1583 5.30838 60.7897 5.2309C60.4477 5.15324 59.985 5.08966 59.4014 5.04015C58.6579 4.99166 58.0375 4.88917 57.5402 4.73267C57.0445 4.54955 56.8343 4.27147 56.9095 3.89844C56.9471 3.25954 57.1846 2.84557 57.6223 2.65651C58.0614 2.44082 58.5877 2.33103 59.201 2.32713C59.7077 2.3239 60.2253 2.36052 60.7539 2.43699C61.2841 2.48684 61.75 2.49718 62.1516 2.46801C62.848 2.41036 63.7186 2.33829 64.7632 2.25181C65.8095 2.13871 66.7992 2.07919 67.7326 2.07325C68.4525 2.06866 69.0761 2.11792 69.6031 2.22101C70.1318 2.29747 70.4683 2.4683 70.6126 2.73349C70.6361 2.78656 70.6848 2.86609 70.7585 2.97206C70.8338 3.05141 70.8942 3.15747 70.9398 3.29023C71.0135 3.39621 71.0606 3.50235 71.081 3.60867C71.1014 3.71498 71.0708 3.7817 70.9892 3.80883C70.9673 4.18152 70.7274 4.40924 70.2694 4.49199C69.838 4.57457 69.3282 4.63103 68.74 4.66139C68.18 4.66495 67.6185 4.69514 67.0554 4.75194C66.4922 4.80875 66.0687 4.98441 65.7849 5.27894C65.559 5.49326 65.3819 6.0133 65.2534 6.83905C65.1515 7.66463 65.0709 8.58322 65.0115 9.59481C64.9755 10.2071 64.9395 10.8194 64.9035 11.4316C64.8942 12.0437 64.8873 12.6159 64.8826 13.1482C64.878 13.6804 64.8632 14.1595 64.8382 14.5854C64.8147 14.9847 64.7975 15.2776 64.7865 15.4639C64.7239 16.0764 64.7099 16.7683 64.7445 17.5398C64.7807 18.2847 64.7769 19.0298 64.7331 19.7752C64.7034 20.281 64.636 20.7471 64.531 21.1736C64.4526 21.5998 64.2982 21.9601 64.0676 22.2542C63.6379 22.7626 63.2364 23.0179 62.8631 23.0203C62.6231 23.0218 62.4011 22.9434 62.1972 22.7851C61.9948 22.6001 61.8206 22.3883 61.6747 22.1497C61.5288 21.9112 61.4103 21.6591 61.3193 21.3936C61.2565 21.1013 61.2322 20.8353 61.2463 20.5957C61.3057 19.5841 61.4483 18.5188 61.674 17.3997C61.9012 16.254 62.0469 15.1354 62.1111 14.044C62.133 13.6713 62.1274 13.3121 62.0944 12.9663C62.0881 12.6204 62.0676 12.2879 62.0331 11.9688L62.1457 10.0521ZM80.022 2.63369C80.3106 2.71168 80.5742 2.98942 80.8127 3.4669C81.0794 3.91758 81.3258 4.48815 81.5517 5.17859C81.7793 5.84241 81.9896 6.57287 82.1827 7.36996C82.404 8.14027 82.5853 8.91083 82.7266 9.68164C82.8961 10.4257 83.0295 11.1034 83.1269 11.7148C83.2509 12.3261 83.3443 12.7779 83.4071 13.0702C83.6771 14.3724 83.9918 15.5945 84.3512 16.7365C84.7106 17.8784 85.0104 18.901 85.2505 19.8043C85.5189 20.6807 85.6758 21.4115 85.7214 21.9967C85.7937 22.5817 85.6643 22.9683 85.3334 23.1567C84.7813 23.4796 84.3186 23.6422 83.9453 23.6445C83.3053 23.6486 82.8558 23.3588 82.5969 22.775C82.4572 22.4299 82.3333 22.0449 82.225 21.6198C82.1433 21.1945 82.0609 20.7826 81.9777 20.3839C81.9212 19.9851 81.849 19.6264 81.7611 19.3076C81.7014 18.962 81.6229 18.7097 81.5257 18.5507C81.3782 18.3387 81.1193 18.2073 80.7491 18.1565C80.3805 18.079 79.9429 18.0418 79.4362 18.0451C78.9829 18.0479 78.5147 18.0775 78.0315 18.1338C77.55 18.1635 77.0677 18.2065 76.5845 18.2628C76.1281 18.3189 75.685 18.375 75.2552 18.4309C74.8536 18.4601 74.5195 18.4755 74.2528 18.4772C73.6929 18.4808 73.2443 18.63 72.9071 18.9249C72.5965 19.2196 72.3362 19.5672 72.1261 19.9676C71.9426 20.368 71.7576 20.7949 71.571 21.2485C71.4111 21.7019 71.2017 22.0891 70.943 22.4101C70.6277 22.7846 70.278 23.0663 69.8937 23.255C69.5094 23.4437 69.144 23.5392 68.7973 23.5414C68.3706 23.5441 68.0467 23.3865 67.8255 23.0686C67.6325 22.7239 67.7046 22.1779 68.0417 21.4306C68.5309 20.3631 69.0209 19.2822 69.5117 18.1881C70.0292 17.0937 70.5333 15.9995 71.0241 14.9053C71.5478 13.7045 72.0959 12.5434 72.6682 11.4221C73.2672 10.3007 73.8553 9.13936 74.4323 7.9382C74.6738 7.45767 74.9067 6.89736 75.1309 6.25727C75.3566 5.59057 75.6201 4.96354 75.9211 4.37618C76.2222 3.78883 76.5711 3.29431 76.9679 2.89262C77.393 2.46414 77.9121 2.24795 78.5254 2.24405C79.0054 2.241 79.5043 2.37088 80.022 2.63369ZM80.2421 11.1344C80.137 10.6561 79.973 10.0451 79.7501 9.30142C79.5272 8.55774 79.364 7.93342 79.2604 7.42848C79.1992 7.10954 79.0909 6.91065 78.9356 6.8318C78.8085 6.72617 78.6634 6.70048 78.5003 6.75474C78.3654 6.78221 78.2274 6.86292 78.0862 6.99687C77.9451 7.13083 77.8165 7.278 77.7004 7.43841C77.6142 7.5454 77.5107 7.71903 77.3899 7.95929C77.2707 8.17294 77.1367 8.41329 76.9877 8.68034C76.8669 8.92061 76.7321 9.17427 76.5831 9.44133C76.4357 9.68176 76.3173 9.8821 76.2279 10.0423C75.9033 10.5766 75.621 11.0707 75.3811 11.5246C75.1679 11.9784 74.9789 12.4719 74.8143 13.0051C74.656 13.4319 74.5831 13.765 74.5957 14.0044C74.6082 14.2438 74.6514 14.4165 74.7251 14.5225C74.8256 14.6283 74.9416 14.6941 75.0734 14.7199C75.2334 14.7189 75.3801 14.7179 75.5134 14.7171C75.8883 14.6881 76.3691 14.6717 76.9557 14.668C77.5424 14.6642 78.0639 14.6343 78.5204 14.5782C78.6819 14.5505 78.896 14.5359 79.1627 14.5342C79.4309 14.5059 79.6741 14.4511 79.8921 14.3699C80.1368 14.2885 80.3297 14.1808 80.4708 14.0469C80.6136 13.8863 80.6661 13.6731 80.6284 13.4072C80.6064 13.3275 80.5758 13.168 80.5365 12.9288C80.4989 12.6629 80.4478 12.3971 80.3835 12.1314C80.3458 11.8656 80.3057 11.6396 80.2634 11.4536C80.2492 11.2408 80.2421 11.1344 80.2421 11.1344ZM91.5517 14.8146C91.5674 15.0008 91.569 15.2003 91.5565 15.4133C91.5439 15.6263 91.5314 15.8392 91.5189 16.0522L91.4438 17.33C91.4 18.0754 91.3876 18.7407 91.4065 19.326C91.4254 19.9113 91.5792 20.243 91.8678 20.321C91.8835 20.5072 92.0506 20.6126 92.369 20.6371C92.689 20.6351 93.0906 20.6059 93.5737 20.5496C94.0835 20.4932 94.6341 20.4231 95.2254 20.3395C95.8168 20.2559 96.3924 20.2124 96.9524 20.2088C97.4857 20.2054 97.9752 20.2688 98.4207 20.399C98.8677 20.5026 99.2152 20.7133 99.4631 21.0311C99.7832 21.4814 99.9346 21.853 99.9174 22.1458C99.8923 22.5718 99.61 22.8397 99.0705 22.9495C98.5324 23.0328 97.9834 23.0762 97.4235 23.0798L96.2635 23.0872C95.6235 23.0912 94.9694 23.1087 94.3012 23.1396C93.633 23.1704 92.9867 23.281 92.3624 23.4712C91.2519 23.771 90.43 23.9226 89.8967 23.926C89.2034 23.9304 88.7484 23.7337 88.5319 23.3359C88.3154 22.9382 88.2306 22.34 88.2775 21.5413C88.3119 20.9557 88.3926 20.2633 88.5195 19.4642C88.5665 19.1179 88.6002 18.7718 88.6205 18.4257C88.6675 18.0794 88.7012 17.7333 88.7215 17.3872C88.7763 16.4555 88.8036 15.5373 88.8034 14.6325C88.8033 13.7277 88.829 12.8361 88.8807 11.9576C88.8932 11.7446 88.9049 11.545 88.9159 11.3586C88.9535 11.1721 88.9778 10.9857 88.9887 10.7994C89.0968 9.86729 89.1029 8.85604 89.007 7.76561C88.9394 6.64838 88.9486 5.58389 89.0348 4.57213C89.0723 3.93324 89.0754 3.42761 89.0439 3.05526C89.0125 2.68291 89.0964 2.38966 89.2955 2.1755C89.5496 1.93439 89.8359 1.82612 90.1543 1.85071C90.4994 1.87512 90.8249 2.0061 91.1308 2.24365C91.4383 2.45458 91.687 2.75903 91.8768 3.15698C92.0934 3.55476 92.2134 4.00638 92.237 4.51184C92.2465 4.8045 92.2418 5.11055 92.2231 5.43C92.2325 5.72266 92.2263 6.05533 92.2044 6.42802C92.1575 7.22664 92.0808 8.07868 91.9742 8.98412C91.8959 9.86278 91.82 10.7015 91.7464 11.5003C91.6728 12.2991 91.6047 13.0047 91.542 13.6172C91.5076 14.2028 91.5108 14.6019 91.5517 14.8146ZM114.527 14.8679L114.628 13.1509C114.678 12.299 114.717 11.4073 114.745 10.4758C114.8 9.54403 114.802 8.82553 114.752 8.32024C114.672 7.41598 114.563 6.55183 114.425 5.72777C114.286 4.90372 114.236 4.17224 114.274 3.53334C114.305 3.00093 114.424 2.56109 114.631 2.21383C114.865 1.86641 115.252 1.62444 115.793 1.48795C116.414 1.35094 117.113 1.25335 117.89 1.19519C118.668 1.11041 119.443 1.06555 120.217 1.06063C120.59 1.05825 120.937 1.05605 121.257 1.05401C121.603 1.05181 121.922 1.07639 122.212 1.12776C123.272 1.22746 124.189 1.50104 124.963 1.9485C125.764 2.36917 126.412 2.91056 126.906 3.57269C127.429 4.20802 127.8 4.92415 128.02 5.72108C128.266 6.51783 128.364 7.34214 128.314 8.19401C128.267 8.99263 128.087 9.7921 127.773 10.5924C127.486 11.3926 127.055 12.1537 126.48 12.8759C125.906 13.5714 125.202 14.2012 124.369 14.7654C123.538 15.3029 122.581 15.7214 121.497 16.0211C121.225 16.1026 120.863 16.1448 120.41 16.1477C119.983 16.1504 119.555 16.1798 119.125 16.2357C118.722 16.2915 118.355 16.4136 118.024 16.602C117.72 16.7902 117.555 17.0973 117.53 17.5232C117.496 18.1089 117.511 18.7474 117.577 19.4389C117.643 20.1303 117.659 20.7689 117.625 21.3545C117.584 22.0467 117.405 22.5933 117.089 22.9945C116.8 23.3689 116.235 23.4523 115.394 23.2448C114.974 23.141 114.704 22.7436 114.585 22.0525C114.492 21.3612 114.445 20.5765 114.443 19.6983C114.468 18.82 114.507 17.9283 114.561 17.0232C114.614 16.1181 114.603 15.3997 114.527 14.8679ZM117.512 10.3384C117.528 10.977 117.605 11.4821 117.743 11.8537C117.883 12.1988 118.067 12.4637 118.296 12.6485C118.525 12.8334 118.785 12.9515 119.075 13.0028C119.394 13.0274 119.727 13.0253 120.075 12.9965C120.745 12.939 121.282 12.869 121.687 12.7866C122.093 12.6776 122.434 12.5424 122.71 12.381C123.013 12.2194 123.277 12.0314 123.503 11.8171C123.73 11.5761 123.973 11.3085 124.23 11.0141C125.143 9.99711 125.627 9.00943 125.684 8.05108C125.718 7.46543 125.616 6.93386 125.377 6.45639C125.139 5.97891 124.803 5.56858 124.37 5.2254C123.965 4.85542 123.489 4.57904 122.94 4.39626C122.392 4.18686 121.838 4.08394 121.278 4.0875C120.798 4.09056 120.327 4.17339 119.864 4.336C119.402 4.49861 118.973 4.75414 118.58 5.10258C118.243 5.39745 117.991 5.82482 117.825 6.38471C117.66 6.91797 117.556 7.55729 117.512 8.30267C117.474 8.94157 117.475 9.62015 117.512 10.3384ZM139.083 2.25779C139.372 2.33578 139.635 2.61352 139.874 3.091C140.141 3.54168 140.387 4.11224 140.613 4.80269C140.841 5.46651 141.051 6.19697 141.244 6.99406C141.465 7.76437 141.647 8.53492 141.788 9.30574C141.957 10.0498 142.091 10.7275 142.188 11.3389C142.312 11.9502 142.406 12.402 142.468 12.6943C142.738 13.9965 143.053 15.2186 143.413 16.3606C143.772 17.5025 144.072 18.5251 144.312 19.4284C144.58 20.3048 144.737 21.0356 144.783 21.6208C144.855 22.2058 144.726 22.5924 144.395 22.7808C143.843 23.1037 143.38 23.2663 143.007 23.2686C142.367 23.2727 141.917 22.9829 141.658 22.3991C141.519 22.054 141.395 21.669 141.286 21.2439C141.205 20.8186 141.122 20.4067 141.039 20.008C140.982 19.6092 140.91 19.2505 140.822 18.9317C140.763 18.5861 140.684 18.3338 140.587 18.1748C140.439 17.9628 140.181 17.8314 139.81 17.7806C139.442 17.7031 139.004 17.6659 138.498 17.6692C138.044 17.672 137.576 17.7016 137.093 17.7579C136.611 17.7876 136.129 17.8306 135.646 17.8869C135.189 17.943 134.746 17.9991 134.316 18.055C133.915 18.0842 133.581 18.0996 133.314 18.1013C132.754 18.1049 132.306 18.2541 131.968 18.549C131.658 18.8437 131.398 19.1912 131.187 19.5917C131.004 19.9921 130.819 20.419 130.632 20.8726C130.472 21.326 130.263 21.7132 130.004 22.0342C129.689 22.4087 129.339 22.6904 128.955 22.8791C128.571 23.0678 128.205 23.1633 127.859 23.1655C127.432 23.1682 127.108 23.0106 126.887 22.6927C126.694 22.348 126.766 21.802 127.103 21.0547C127.592 19.9872 128.082 18.9063 128.573 17.8122C129.09 16.7178 129.595 15.6236 130.085 14.5294C130.609 13.3286 131.157 12.1675 131.73 11.0462C132.329 9.92477 132.917 8.76346 133.494 7.5623C133.735 7.08177 133.968 6.52146 134.192 5.88137C134.418 5.21467 134.681 4.58764 134.982 4.00028C135.284 3.41293 135.632 2.91841 136.029 2.51672C136.454 2.08824 136.973 1.87205 137.587 1.86815C138.067 1.86509 138.566 1.99497 139.083 2.25779ZM139.303 10.7585C139.198 10.2802 139.034 9.6692 138.811 8.92552C138.589 8.18184 138.425 7.55752 138.322 7.05258C138.26 6.73364 138.152 6.53474 137.997 6.4559C137.87 6.35027 137.725 6.32458 137.562 6.37884C137.427 6.40631 137.289 6.48702 137.148 6.62097C137.006 6.75492 136.878 6.9021 136.762 7.0625C136.675 7.1695 136.572 7.34313 136.451 7.58339C136.332 7.79704 136.198 8.03739 136.049 8.30444C135.928 8.54471 135.793 8.79837 135.644 9.06543C135.497 9.30586 135.379 9.5062 135.289 9.66643C134.965 10.2007 134.682 10.6948 134.442 11.1487C134.229 11.6025 134.04 12.096 133.876 12.6292C133.717 13.056 133.644 13.3891 133.657 13.6285C133.67 13.8679 133.713 14.0406 133.786 14.1466C133.887 14.2524 134.003 14.3182 134.135 14.344C134.295 14.343 134.441 14.342 134.575 14.3412C134.95 14.3122 135.43 14.2958 136.017 14.2921C136.604 14.2883 137.125 14.2584 137.582 14.2023C137.743 14.1746 137.957 14.16 138.224 14.1583C138.492 14.13 138.735 14.0752 138.953 13.994C139.198 13.9126 139.391 13.8049 139.532 13.671C139.675 13.5104 139.727 13.2972 139.69 13.0313C139.668 12.9516 139.637 12.7921 139.598 12.5529C139.56 12.287 139.509 12.0212 139.445 11.7555C139.407 11.4897 139.367 11.2637 139.325 11.0777C139.311 10.8649 139.303 10.7585 139.303 10.7585ZM148.206 14.5737L148.356 12.0182C148.402 11.2461 148.432 10.5009 148.448 9.78226C148.491 9.03688 148.486 8.45148 148.431 8.02606C148.351 7.1218 148.241 6.25764 148.103 5.43359C147.965 4.60953 147.915 3.87806 147.952 3.23916C147.984 2.70674 148.103 2.26691 148.31 1.91965C148.543 1.57222 148.931 1.33026 149.472 1.19376C150.093 1.05676 150.792 0.95917 151.568 0.901006C152.373 0.816053 153.162 0.771116 153.935 0.766194C154.309 0.763818 154.655 0.774922 154.973 0.799505C155.293 0.797469 155.612 0.808742 155.931 0.833326C156.991 0.933021 157.922 1.1932 158.724 1.61387C159.525 2.03454 160.187 2.56255 160.71 3.19788C161.232 3.83321 161.617 4.54926 161.863 5.34601C162.109 6.14277 162.208 6.96708 162.158 7.81894C162.097 8.85715 161.809 9.8968 161.295 10.9379C160.808 11.9522 160.075 12.8616 159.095 13.6662C158.562 14.122 158.089 14.4576 157.676 14.6731C157.292 14.8619 157.091 15.1026 157.074 15.3955C157.062 15.6084 157.166 15.8739 157.387 16.1918C157.608 16.5097 157.97 16.9332 158.472 17.4622C158.824 17.8325 159.115 18.0968 159.345 18.255C159.604 18.3864 159.938 18.5971 160.348 18.8872C160.909 19.3094 161.435 19.6653 161.924 19.9549C162.44 20.2444 162.687 20.5754 162.666 20.9481C162.653 21.1611 162.504 21.4282 162.219 21.7493C161.96 22.0703 161.478 22.3261 160.774 22.5169C160.503 22.5985 160.174 22.5207 159.788 22.2837C159.402 22.0466 158.993 21.7565 158.56 21.4133C158.153 21.07 157.748 20.7133 157.343 20.3433C156.965 19.9732 156.649 19.6825 156.395 19.4712C156.189 19.3395 155.894 19.1418 155.51 18.8781C155.154 18.5877 154.744 18.2976 154.282 18.0078C153.199 17.376 152.418 17.0617 151.938 17.0647C151.378 17.0683 151.075 17.4561 151.03 18.2281C151.01 18.5741 151.047 19.0795 151.141 19.7442C151.235 20.4088 151.268 20.9808 151.24 21.4599C151.204 22.0722 151.016 22.5524 150.675 22.9005C150.337 23.222 149.747 23.279 148.906 23.0714C148.461 22.9412 148.196 22.4506 148.113 21.5996C148.058 20.7218 148.062 19.7505 148.124 18.6856L148.206 17.288C148.238 16.7556 148.254 16.2499 148.256 15.7709C148.284 15.2917 148.267 14.8927 148.206 14.5737ZM151.191 10.0442C151.207 10.6828 151.284 11.1879 151.422 11.5596C151.562 11.9046 151.746 12.1695 151.975 12.3544C152.204 12.5392 152.464 12.6573 152.754 12.7087C153.072 12.7332 153.419 12.731 153.794 12.702C154.437 12.6447 154.961 12.5749 155.365 12.4924C155.798 12.3833 156.153 12.2479 156.429 12.0865C156.732 11.9249 156.983 11.7371 157.182 11.5229C157.409 11.282 157.665 11.0142 157.949 10.7197C158.433 10.1844 158.783 9.67656 158.998 9.1962C159.213 8.71584 159.333 8.24938 159.36 7.79683C159.394 7.21118 159.279 6.67969 159.014 6.20239C158.777 5.69829 158.442 5.27465 158.009 4.93147C157.604 4.56149 157.127 4.28511 156.578 4.10233C156.031 3.89293 155.477 3.79001 154.917 3.79357C154.437 3.79663 153.966 3.87946 153.503 4.04207C153.069 4.17789 152.654 4.42002 152.261 4.76847C151.924 5.06333 151.672 5.49071 151.506 6.05059C151.366 6.61031 151.275 7.26286 151.231 8.00824C151.212 8.32769 151.192 8.66044 151.172 9.00651C151.18 9.32579 151.186 9.67169 151.191 10.0442ZM170.347 9.36347C170.373 8.91092 170.386 8.47176 170.384 8.046C170.411 7.59344 170.411 7.14106 170.384 6.68885C170.359 6.21002 170.301 5.83783 170.21 5.57231C170.147 5.27999 170.013 5.05464 169.809 4.89628C169.632 4.73774 169.359 4.61973 168.991 4.54224C168.649 4.46459 168.186 4.401 167.602 4.3515C166.859 4.30301 166.238 4.20051 165.741 4.04401C165.245 3.86089 165.035 3.58282 165.11 3.20979C165.148 2.57089 165.386 2.15691 165.823 1.96785C166.262 1.75217 166.789 1.64238 167.402 1.63847C167.909 1.63525 168.426 1.67187 168.955 1.74834C169.485 1.79818 169.951 1.80852 170.352 1.77936C171.049 1.7217 171.919 1.64964 172.964 1.56316C174.01 1.45005 175 1.39053 175.933 1.38459C176.653 1.38001 177.277 1.42926 177.804 1.53235C178.333 1.60882 178.669 1.77965 178.814 2.04484C178.837 2.09791 178.886 2.17743 178.959 2.28341C179.035 2.36276 179.095 2.46882 179.141 2.60158C179.214 2.70755 179.262 2.8137 179.282 2.92001C179.302 3.02632 179.272 3.09305 179.19 3.12018C179.168 3.49287 178.928 3.72059 178.47 3.80333C178.039 3.88591 177.529 3.94238 176.941 3.97273C176.381 3.9763 175.819 4.00648 175.256 4.06329C174.693 4.12009 174.27 4.29576 173.986 4.59028C173.76 4.80461 173.583 5.32464 173.454 6.1504C173.352 6.97598 173.272 7.89456 173.212 8.90615C173.176 9.51843 173.14 10.1307 173.104 10.743C173.095 11.3551 173.088 11.9273 173.084 12.4595C173.079 12.9918 173.064 13.4708 173.039 13.8968C173.016 14.2961 172.998 14.5889 172.987 14.7753C172.925 15.3877 172.911 16.0797 172.945 16.8512C172.982 17.596 172.978 18.3412 172.934 19.0866C172.904 19.5923 172.837 20.0585 172.732 20.4849C172.654 20.9112 172.499 21.2714 172.269 21.5656C171.839 22.0739 171.437 22.3293 171.064 22.3317C170.824 22.3332 170.602 22.2548 170.398 22.0964C170.196 21.9114 170.022 21.6996 169.876 21.4611C169.73 21.2225 169.611 20.9705 169.52 20.7049C169.457 20.4126 169.433 20.1467 169.447 19.9071C169.507 18.8955 169.649 17.8301 169.875 16.7111C170.102 15.5653 170.248 14.4468 170.312 13.3553C170.334 12.9826 170.328 12.6234 170.295 12.2777C170.289 11.9318 170.269 11.5993 170.234 11.2802L170.347 9.36347ZM191.32 10.4275C191.464 10.6927 191.658 11.0108 191.903 11.3817C192.15 11.7261 192.381 12.0972 192.598 12.495C193.084 13.2902 193.472 13.9397 193.763 14.4435C194.053 14.9472 194.291 15.1985 194.478 15.1973C194.665 15.1961 194.784 14.7563 194.835 13.8778C194.848 13.6648 194.861 13.4386 194.875 13.199C194.889 12.9594 194.892 12.6933 194.882 12.4006C194.862 11.8419 194.885 11.2164 194.952 10.5241C195.048 9.805 195.116 9.09938 195.157 8.40724C195.198 7.7151 195.197 7.04984 195.154 6.41145C195.138 5.77289 195.037 5.22801 194.85 4.77682C194.686 4.40532 194.574 4.03347 194.516 3.66129C194.46 3.26249 194.442 2.87674 194.464 2.50405C194.5 1.89177 194.637 1.37199 194.876 0.944703C195.142 0.490622 195.502 0.262139 195.956 0.259254C196.462 0.25603 197.042 0.598281 197.694 1.28601C197.82 1.41826 197.9 1.87014 197.935 2.64163C197.998 3.38633 198.022 4.33086 198.008 5.47521C198.021 6.61939 198.012 7.91008 197.98 9.34726C197.949 10.7844 197.917 12.2482 197.882 13.7387C197.848 15.2291 197.803 16.6797 197.747 18.0904C197.717 19.5009 197.71 20.7517 197.726 21.8426C197.735 22.1353 197.59 22.3491 197.288 22.4841C197.014 22.6189 196.69 22.6875 196.317 22.6899C195.837 22.6929 195.335 22.6163 194.811 22.4599C194.314 22.3034 193.991 22.1192 193.844 21.9073C193.422 21.3777 193.022 20.6884 192.646 19.8392C192.271 18.9635 191.878 18.1677 191.467 17.4518C190.767 16.2055 190.065 14.9859 189.363 13.7929C188.688 12.5731 188.003 11.3001 187.308 9.97401C186.804 9.01923 186.341 8.27707 185.919 7.74754C185.524 7.21784 185.18 6.95393 184.886 6.95579C184.433 6.95868 184.168 7.61233 184.091 8.91675C184.077 9.15633 184.062 9.40923 184.047 9.67544C184.031 9.94164 184.04 10.2343 184.075 10.5534C184.11 10.8725 184.116 11.2184 184.094 11.5911C184.072 11.9638 184.049 12.3498 184.026 12.7491L183.88 15.2248C183.835 15.9968 183.805 16.7421 183.789 17.4607C183.8 18.1792 183.855 18.8308 183.954 19.4156C184.053 20.0004 184.092 20.4791 184.07 20.8518C184.024 21.6238 183.83 22.2105 183.486 22.6118C183.143 23.0132 182.771 23.2151 182.371 23.2177C181.945 23.2204 181.559 22.9834 181.213 22.5066C180.895 22.0296 180.765 21.2853 180.825 20.2737L181.097 15.6417C181.185 14.151 181.245 12.6737 181.278 11.2099C181.337 9.74591 181.337 8.37545 181.279 7.0985C181.267 6.85908 181.217 6.56668 181.131 6.22129C181.071 5.87573 180.999 5.51694 180.914 5.14493C180.856 4.77275 180.798 4.40057 180.74 4.02838C180.683 3.62958 180.665 3.25715 180.686 2.91108C180.715 2.40528 180.847 1.97867 181.081 1.63124C181.314 1.28382 181.728 1.05499 182.321 0.944779C182.779 0.862031 183.185 0.753002 183.539 0.617693C183.894 0.482383 184.277 0.546473 184.688 0.809965C185.408 1.25777 186.09 1.89208 186.735 2.71291C187.38 3.53374 187.981 4.40807 188.54 5.33589C189.125 6.26354 189.644 7.19162 190.096 8.12012C190.576 9.02183 190.984 9.79095 191.32 10.4275ZM214.115 1.82016C214.383 1.79184 214.611 1.77709 214.797 1.7759C215.012 1.74792 215.198 1.76004 215.355 1.81226C215.539 1.86432 215.706 1.95639 215.859 2.08847C216.012 2.19394 216.188 2.3791 216.386 2.64394C216.608 2.93525 216.725 3.22722 216.734 3.51988C216.745 3.78592 216.651 4.02602 216.452 4.24017C216.281 4.42753 215.98 4.56251 215.548 4.64508C215.117 4.72766 214.559 4.7046 213.873 4.57591C213.583 4.52454 213.145 4.48741 212.56 4.46452C212.003 4.41484 211.405 4.39204 210.765 4.39612C210.152 4.40002 209.537 4.43054 208.92 4.48769C208.305 4.51821 207.741 4.60164 207.226 4.73797C206.713 4.84767 206.277 5.01011 205.918 5.22529C205.587 5.41367 205.399 5.66767 205.354 5.98729C205.233 6.67994 205.159 7.25254 205.133 7.70509C205.097 8.31737 205.231 8.75559 205.535 9.01976C205.841 9.25731 206.514 9.37278 207.554 9.36616C208.061 9.36293 208.742 9.33198 209.599 9.27331C210.482 9.21447 211.377 9.18216 212.283 9.17639C213.243 9.17028 214.133 9.23115 214.952 9.35899C215.772 9.46021 216.318 9.69624 216.589 10.0671C216.911 10.4908 217.064 10.8358 217.048 11.102C217.022 11.5545 216.592 11.8367 215.759 11.9484C214.926 12.0601 213.923 12.1198 212.75 12.1272C211.896 12.1327 211.029 12.1515 210.147 12.1837C209.267 12.1893 208.45 12.261 207.696 12.3989C206.943 12.5101 206.304 12.7138 205.781 13.0098C205.283 13.3057 204.992 13.7333 204.905 14.2927C204.86 14.6123 204.813 14.9586 204.764 15.3314C204.716 15.7043 204.681 16.0771 204.659 16.4497C204.632 16.9023 204.633 17.3414 204.661 17.767C204.716 18.1924 204.814 18.5643 204.956 18.8827C205.125 19.1744 205.353 19.3858 205.638 19.5171C205.95 19.6481 206.35 19.6456 206.838 19.5094C207.759 19.2641 208.741 19.0981 209.786 19.0117C210.859 18.8984 211.929 18.8384 212.995 18.8316L214.195 18.8239C214.967 18.8456 215.596 19.0279 216.083 19.3708C216.569 19.7136 216.801 20.0714 216.779 20.4441C216.764 20.7103 216.576 20.951 216.217 21.1661C215.886 21.3545 215.321 21.4512 214.521 21.4563C213.347 21.4638 212.117 21.5382 210.829 21.6794C209.543 21.794 208.333 21.9614 207.201 22.1815C206.5 22.319 205.781 22.5232 205.046 22.794C204.337 23.0646 203.702 23.2017 203.142 23.2052C202.636 23.2085 202.219 23.0381 201.893 22.6943C201.566 22.3504 201.393 21.6729 201.372 20.6619C201.366 20.316 201.359 19.9834 201.351 19.6641C201.37 19.3446 201.389 19.0119 201.41 18.6658C201.483 17.4146 201.598 16.1499 201.753 14.8716C201.934 13.5931 202.063 12.315 202.138 11.0372C202.171 10.4782 202.189 9.93252 202.194 9.40027C202.2 8.8414 202.179 8.29602 202.13 7.76411C202.09 7.55149 202.039 7.27239 201.98 6.92683C201.922 6.55465 201.865 6.15585 201.81 5.73043C201.755 5.305 201.713 4.8795 201.685 4.4539C201.657 4.02831 201.654 3.62917 201.675 3.25648C201.71 2.67082 201.828 2.2443 202.031 1.9769C202.263 1.65609 202.622 1.44092 203.108 1.33138C203.596 1.19523 204.16 1.12511 204.8 1.12104C205.52 1.11645 206.303 1.16469 207.15 1.26574C207.997 1.36679 208.844 1.46785 209.692 1.5689C210.512 1.67012 211.293 1.75828 212.035 1.83339C212.805 1.88171 213.499 1.8773 214.115 1.82016ZM221.017 14.1103L221.167 11.5547C221.213 10.7827 221.243 10.0374 221.259 9.31885C221.302 8.57347 221.297 7.98807 221.242 7.56264C221.162 6.65839 221.053 5.79423 220.914 4.97018C220.776 4.14612 220.726 3.41464 220.763 2.77575C220.795 2.24333 220.914 1.8035 221.121 1.45624C221.355 1.10881 221.742 0.866848 222.283 0.73035C222.904 0.593343 223.603 0.495757 224.379 0.437593C225.184 0.35264 225.973 0.307703 226.746 0.302781C227.12 0.300405 227.466 0.311509 227.784 0.336093C228.104 0.334056 228.423 0.34533 228.742 0.369914C229.802 0.469608 230.733 0.72979 231.535 1.15046C232.336 1.57113 232.998 2.09913 233.521 2.73447C234.043 3.3698 234.428 4.08585 234.674 4.8826C234.92 5.67936 235.019 6.50367 234.969 7.35553C234.908 8.39374 234.62 9.43339 234.106 10.4745C233.619 11.4888 232.886 12.3982 231.906 13.2028C231.373 13.6586 230.9 13.9942 230.487 14.2097C230.103 14.3984 229.902 14.6392 229.885 14.932C229.873 15.145 229.977 15.4105 230.198 15.7284C230.419 16.0463 230.781 16.4698 231.283 16.9988C231.635 17.3691 231.926 17.6334 232.156 17.7916C232.415 17.923 232.749 18.1337 233.159 18.4238C233.72 18.846 234.246 19.2019 234.735 19.4915C235.251 19.781 235.498 20.112 235.477 20.4847C235.464 20.6977 235.315 20.9647 235.03 21.2859C234.771 21.6069 234.289 21.8627 233.585 22.0535C233.314 22.1351 232.985 22.0573 232.599 21.8203C232.213 21.5832 231.804 21.2931 231.371 20.9499C230.965 20.6066 230.559 20.2499 230.154 19.8799C229.776 19.5098 229.46 19.2191 229.206 19.0078C229 18.8761 228.705 18.6784 228.321 18.4147C227.965 18.1243 227.556 17.8341 227.093 17.5444C226.01 16.9126 225.229 16.5982 224.749 16.6013C224.189 16.6049 223.886 16.9926 223.841 17.7646C223.821 18.1107 223.858 18.6161 223.952 19.2808C224.046 19.9454 224.079 20.5173 224.051 20.9965C224.015 21.6088 223.827 22.089 223.487 22.4371C223.148 22.7586 222.558 22.8156 221.717 22.608C221.272 22.4778 221.007 21.9872 220.924 21.1362C220.869 20.2584 220.873 19.287 220.935 18.2222L221.017 16.8246C221.049 16.2922 221.065 15.7865 221.067 15.3075C221.095 14.8283 221.078 14.4293 221.017 14.1103ZM224.002 9.5808C224.018 10.2194 224.095 10.7245 224.233 11.0961C224.373 11.4412 224.557 11.7061 224.786 11.891C225.015 12.0758 225.275 12.1939 225.565 12.2452C225.883 12.2698 226.23 12.2676 226.605 12.2386C227.248 12.1813 227.772 12.1114 228.177 12.029C228.609 11.9198 228.964 11.7845 229.24 11.6231C229.543 11.4615 229.794 11.2736 229.993 11.0595C230.22 10.8185 230.476 10.5508 230.76 10.2563C231.244 9.72098 231.594 9.21315 231.809 8.73279C232.024 8.25243 232.144 7.78597 232.171 7.33342C232.205 6.74776 232.09 6.21628 231.825 5.73898C231.588 5.23488 231.253 4.81124 230.82 4.46805C230.415 4.09808 229.938 3.8217 229.389 3.63892C228.842 3.42952 228.288 3.3266 227.728 3.33016C227.248 3.33322 226.777 3.41605 226.314 3.57866C225.88 3.71448 225.465 3.95661 225.072 4.30506C224.735 4.59992 224.483 5.0273 224.317 5.58718C224.177 6.1469 224.086 6.79944 224.042 7.54482C224.023 7.86427 224.003 8.19703 223.983 8.5431C223.991 8.86238 223.997 9.20828 224.002 9.5808Z" fill="black"/>
</svg>
