<svg width="139" height="18" viewBox="0 0 139 18" fill="none" xmlns="http://www.w3.org/2000/svg">
<path d="M13.6328 5.54688C13.6328 7.76042 12.2786 9.55078 9.57031 10.918C7.66927 11.8945 5.33854 12.5716 2.57812 12.9492C2.60417 13.1576 2.69531 13.7174 2.85156 14.6289C2.99479 15.306 3.06641 15.8659 3.06641 16.3086C3.06641 16.5951 2.86458 16.849 2.46094 17.0703C2.1224 17.2526 1.79036 17.3438 1.46484 17.3438C1.13932 17.3438 0.891927 17.2396 0.722656 17.0312C0.566406 16.8099 0.436198 13.4961 0.332031 7.08984C0.110677 6.79036 0 6.41276 0 5.95703C0 5.26693 0.625 4.33594 1.875 3.16406C3.85417 1.34115 5.89844 0.429688 8.00781 0.429688C9.47917 0.429688 10.7682 0.904948 11.875 1.85547C13.0469 2.85807 13.6328 4.08854 13.6328 5.54688ZM11.1133 6.15234C11.1133 5.21484 10.6185 4.4401 9.62891 3.82812C8.74349 3.28125 7.80599 3.00781 6.81641 3.00781C5.37109 3.00781 3.89323 3.76302 2.38281 5.27344C2.34375 6.08073 2.32422 6.90755 2.32422 7.75391C2.32422 8.71745 2.35026 9.69401 2.40234 10.6836C6.30859 10.5664 8.82812 9.88932 9.96094 8.65234C10.7292 7.79297 11.1133 6.95964 11.1133 6.15234ZM33.8906 7.96875C33.8906 10.5469 32.8685 12.793 30.8242 14.707C28.806 16.556 26.5013 17.4805 23.9102 17.4805C21.6445 17.4805 19.724 16.7188 18.1484 15.1953C16.5729 13.6719 15.7852 11.7839 15.7852 9.53125C15.7852 6.9401 16.8073 4.70052 18.8516 2.8125C20.8438 0.9375 23.1419 0 25.7461 0C28.0117 0 29.9323 0.768229 31.5078 2.30469C33.0964 3.82812 33.8906 5.71615 33.8906 7.96875ZM30.9414 8.88672C30.9414 7.08984 30.3555 5.52083 29.1836 4.17969C27.9596 2.79948 26.4622 2.10938 24.6914 2.10938C22.9596 2.10938 21.4818 2.8125 20.2578 4.21875C19.112 5.57292 18.5391 7.12891 18.5391 8.88672C18.5391 10.6706 19.138 12.2331 20.3359 13.5742C21.5469 14.9414 23.0378 15.625 24.8086 15.625C26.5404 15.625 28.0052 14.9219 29.2031 13.5156C30.362 12.1875 30.9414 10.6445 30.9414 8.88672ZM54.8125 2.14844C54.8125 2.2526 54.5326 2.95573 53.9727 4.25781C53.2956 5.85938 52.638 7.76042 52 9.96094C52 9.96094 51.4857 11.901 50.457 15.7812C50.2617 16.4714 49.9036 16.8164 49.3828 16.8164C49.1615 16.8164 48.9727 16.6341 48.8164 16.2695C48.7383 16.0872 48.4714 15.1888 48.0156 13.5742C47.7422 12.6367 47.3385 11.4909 46.8047 10.1367C46.362 9.01693 45.9128 7.89714 45.457 6.77734C44.2201 10.2669 43.1393 13.6719 42.2148 16.9922C42.0326 17.6693 41.6745 18.0078 41.1406 18.0078C40.8932 18.0078 40.7044 17.832 40.5742 17.4805C40.444 17.1419 40.3203 16.7057 40.2031 16.1719C40.099 15.7292 40.0013 15.2865 39.9102 14.8438C38.7904 10.3906 37.7878 7.04427 36.9023 4.80469C36.3424 3.3724 36.0625 2.63021 36.0625 2.57812C36.0625 2.26562 36.2383 1.91406 36.5898 1.52344C36.9544 1.11979 37.293 0.917969 37.6055 0.917969C37.7617 0.917969 37.8919 0.989583 37.9961 1.13281C38.2305 1.44531 38.7513 3.11198 39.5586 6.13281C39.9362 7.60417 40.5352 9.62891 41.3555 12.207C41.9154 10.293 42.8529 7.61068 44.168 4.16016C44.6758 2.84505 45.2096 2.1875 45.7695 2.1875C46.0169 2.1875 46.2253 2.38932 46.3945 2.79297C46.4336 2.88411 46.5247 3.19661 46.668 3.73047C46.7461 4.01693 47.1497 5.13672 47.8789 7.08984C48.4128 8.53516 48.9206 10.0195 49.4023 11.543C49.8711 10.0195 50.9062 6.77734 52.5078 1.81641C52.5859 1.51693 52.7422 1.08724 52.9766 0.527344C53.1198 0.266927 53.276 0.136719 53.4453 0.136719C53.7578 0.136719 54.0638 0.403646 54.3633 0.9375C54.6628 1.41927 54.8125 1.82292 54.8125 2.14844ZM70.7734 7.42188C70.7734 7.77344 70.3307 8.0013 69.4453 8.10547C65.1224 8.60026 61.8281 9.22526 59.5625 9.98047C59.6146 11.6341 59.7643 13.2357 60.0117 14.7852C61.2357 14.7852 62.6419 14.6289 64.2305 14.3164C65.6237 14.0169 67.0169 13.7109 68.4102 13.3984C68.6445 13.3464 68.8398 13.3203 68.9961 13.3203C69.5299 13.3203 69.7969 13.5482 69.7969 14.0039C69.7969 14.3034 69.6927 14.6159 69.4844 14.9414C69.2891 15.2539 69.0612 15.4818 68.8008 15.625C67.707 16.25 66.2161 16.7383 64.3281 17.0898C62.7135 17.3633 61.125 17.5 59.5625 17.5C58.7682 17.5 58.2409 17.2852 57.9805 16.8555C57.8242 16.582 57.694 14.4466 57.5898 10.4492C57.043 10.2539 56.7695 9.83724 56.7695 9.19922C56.7695 8.61328 57.0169 8.22266 57.5117 8.02734H57.5312C57.4401 6.69922 57.3945 5.29948 57.3945 3.82812C57.3945 3.1901 57.4076 2.85156 57.4336 2.8125C57.4857 2.4349 57.6419 2.14844 57.9023 1.95312C58.0326 1.83594 58.3646 1.69922 58.8984 1.54297C59.7448 1.28255 60.5846 1.01562 61.418 0.742188C62.3945 0.481771 63.2669 0.351562 64.0352 0.351562H64.8555C65.5716 0.338542 66.0664 0.364583 66.3398 0.429688C66.8216 0.533854 67.2318 0.78125 67.5703 1.17188C67.9219 1.5625 68.0977 1.92057 68.0977 2.24609C68.0977 2.6888 67.7005 2.94271 66.9062 3.00781C64.9401 3.17708 63.6966 3.30729 63.1758 3.39844C62.1471 3.59375 60.9557 3.97786 59.6016 4.55078C59.5365 5.44922 59.5039 6.39974 59.5039 7.40234C62.6029 6.49089 65.3958 6.03516 67.8828 6.03516C68.3646 6.03516 68.7422 6.0612 69.0156 6.11328C69.3542 6.15234 69.7188 6.29557 70.1094 6.54297C70.5521 6.84245 70.7734 7.13542 70.7734 7.42188ZM87.0273 5.625C87.0273 7.44792 86.0508 9.00391 84.0977 10.293C82.6523 11.2305 80.8424 11.9401 78.668 12.4219C80.5951 13.5286 82.2422 14.2513 83.6094 14.5898C83.7656 14.6159 84 14.668 84.3125 14.7461C84.599 14.8633 84.7422 15.0326 84.7422 15.2539C84.7422 15.4753 84.625 15.6836 84.3906 15.8789C84.1562 16.0612 83.9219 16.1523 83.6875 16.1523C82.8021 16.1523 81.5651 15.9049 79.9766 15.4102C78.5182 14.9674 77.3268 14.5052 76.4023 14.0234C76.4154 14.2318 76.4805 14.6094 76.5977 15.1562C76.7018 15.638 76.7539 16.0286 76.7539 16.3281C76.7539 16.6276 76.5716 16.875 76.207 17.0703C75.9076 17.2266 75.5885 17.3047 75.25 17.3047C74.8333 17.3047 74.5599 17.1745 74.4297 16.9141C74.2474 16.5625 74.1107 13.3398 74.0195 7.24609C73.7461 7.18099 73.5052 7.00521 73.2969 6.71875C73.0885 6.41927 72.9844 6.1263 72.9844 5.83984C72.9844 5.52734 73.1602 5.14974 73.5117 4.70703C75.7513 1.89453 78.2513 0.488281 81.0117 0.488281C82.5742 0.488281 83.9479 0.9375 85.1328 1.83594C86.3958 2.82552 87.0273 4.08854 87.0273 5.625ZM84.6836 6.03516C84.6836 5.1237 84.2018 4.35547 83.2383 3.73047C82.3919 3.19661 81.474 2.92969 80.4844 2.92969C79.0391 2.92969 77.5677 3.67839 76.0703 5.17578C76.0312 5.99609 76.0117 6.82292 76.0117 7.65625C76.0117 8.63281 76.0378 9.61589 76.0898 10.6055C79.918 10.5013 82.3984 9.83073 83.5312 8.59375C84.2995 7.73438 84.6836 6.88151 84.6836 6.03516ZM102.988 7.42188C102.988 7.77344 102.546 8.0013 101.66 8.10547C97.3372 8.60026 94.043 9.22526 91.7773 9.98047C91.8294 11.6341 91.9792 13.2357 92.2266 14.7852C93.4505 14.7852 94.8568 14.6289 96.4453 14.3164C97.8385 14.0169 99.2318 13.7109 100.625 13.3984C100.859 13.3464 101.055 13.3203 101.211 13.3203C101.745 13.3203 102.012 13.5482 102.012 14.0039C102.012 14.3034 101.908 14.6159 101.699 14.9414C101.504 15.2539 101.276 15.4818 101.016 15.625C99.9219 16.25 98.431 16.7383 96.543 17.0898C94.9284 17.3633 93.3398 17.5 91.7773 17.5C90.9831 17.5 90.4557 17.2852 90.1953 16.8555C90.0391 16.582 89.9089 14.4466 89.8047 10.4492C89.2578 10.2539 88.9844 9.83724 88.9844 9.19922C88.9844 8.61328 89.2318 8.22266 89.7266 8.02734H89.7461C89.6549 6.69922 89.6094 5.29948 89.6094 3.82812C89.6094 3.1901 89.6224 2.85156 89.6484 2.8125C89.7005 2.4349 89.8568 2.14844 90.1172 1.95312C90.2474 1.83594 90.5794 1.69922 91.1133 1.54297C91.9596 1.28255 92.7995 1.01562 93.6328 0.742188C94.6094 0.481771 95.4818 0.351562 96.25 0.351562H97.0703C97.7865 0.338542 98.2812 0.364583 98.5547 0.429688C99.0365 0.533854 99.4466 0.78125 99.7852 1.17188C100.137 1.5625 100.312 1.92057 100.312 2.24609C100.312 2.6888 99.9154 2.94271 99.1211 3.00781C97.1549 3.17708 95.9115 3.30729 95.3906 3.39844C94.362 3.59375 93.1706 3.97786 91.8164 4.55078C91.7513 5.44922 91.7188 6.39974 91.7188 7.40234C94.8177 6.49089 97.6107 6.03516 100.098 6.03516C100.579 6.03516 100.957 6.0612 101.23 6.11328C101.569 6.15234 101.934 6.29557 102.324 6.54297C102.767 6.84245 102.988 7.13542 102.988 7.42188ZM120.648 7.36328C120.648 9.8112 119.444 11.9076 117.035 13.6523C115.121 15.0456 112.784 16.0156 110.023 16.5625C109.542 16.6406 108.826 16.7773 107.875 16.9727C107.12 17.1549 106.742 17.2461 106.742 17.2461C106.521 17.2461 106.345 17.1224 106.215 16.875C106.098 16.6276 105.974 13.3268 105.844 6.97266C105.596 6.67318 105.473 6.3151 105.473 5.89844C105.473 5.52083 105.609 5.14323 105.883 4.76562C106.013 4.59635 106.299 4.29688 106.742 3.86719C109.021 1.66667 111.423 0.566406 113.949 0.566406C115.811 0.566406 117.393 1.23698 118.695 2.57812C119.997 3.90625 120.648 5.5013 120.648 7.36328ZM118.031 8.02734C118.031 6.63411 117.523 5.46224 116.508 4.51172C115.492 3.54818 114.288 3.06641 112.895 3.06641C111.163 3.06641 109.49 3.82812 107.875 5.35156C107.823 6.26302 107.797 7.17448 107.797 8.08594C107.797 10.3385 107.966 12.513 108.305 14.6094C110.74 14.375 112.816 13.8216 114.535 12.9492C116.866 11.7513 118.031 10.1107 118.031 8.02734ZM123.582 13.7305C123.582 13.9128 123.497 14.388 123.328 15.1562C123.159 15.9245 123.035 16.3932 122.957 16.5625C122.814 16.901 122.462 17.0703 121.902 17.0703C121.29 17.0703 120.984 16.862 120.984 16.4453C120.984 15.3385 121.043 14.4727 121.16 13.8477C121.225 13.4831 121.661 13.3008 122.469 13.3008C123.211 13.3008 123.582 13.444 123.582 13.7305ZM130.812 13.7305C130.812 13.9128 130.728 14.388 130.559 15.1562C130.389 15.9245 130.266 16.3932 130.188 16.5625C130.044 16.901 129.693 17.0703 129.133 17.0703C128.521 17.0703 128.215 16.862 128.215 16.4453C128.215 15.3385 128.273 14.4727 128.391 13.8477C128.456 13.4831 128.892 13.3008 129.699 13.3008C130.441 13.3008 130.812 13.444 130.812 13.7305ZM138.043 13.7305C138.043 13.9128 137.958 14.388 137.789 15.1562C137.62 15.9245 137.496 16.3932 137.418 16.5625C137.275 16.901 136.923 17.0703 136.363 17.0703C135.751 17.0703 135.445 16.862 135.445 16.4453C135.445 15.3385 135.504 14.4727 135.621 13.8477C135.686 13.4831 136.122 13.3008 136.93 13.3008C137.672 13.3008 138.043 13.444 138.043 13.7305Z" fill="black"/>
</svg>
