<svg width="97" height="18" viewBox="0 0 97 18" fill="none" xmlns="http://www.w3.org/2000/svg">
<path d="M14.0407 5.29998C14.0407 7.11998 13.0607 8.67998 11.1207 9.95998C9.6607 10.9 7.8607 11.62 5.6807 12.1C7.6207 13.2 9.2607 13.92 10.6207 14.26C10.7807 14.28 11.0207 14.34 11.3207 14.42C11.6207 14.54 11.7607 14.7 11.7607 14.92C11.7607 15.38 11.1807 15.82 10.7007 15.82C9.8207 15.82 8.5807 15.58 7.0007 15.08C5.5407 14.64 4.3407 14.18 3.4207 13.7C3.4407 13.92 3.5007 14.3 3.6207 14.84C3.7207 15.32 3.7807 15.7 3.7807 16C3.7807 16.3 3.6007 16.56 3.2207 16.74C2.9207 16.9 2.6007 16.98 2.2607 16.98C1.8407 16.98 1.5807 16.84 1.4407 16.58C1.2607 16.24 1.1407 13.02 1.0407 6.91998C0.480703 6.77998 0.00070313 6.07998 0.000703131 5.51998C0.000703131 5.19998 0.180703 4.81998 0.520703 4.37998C2.7607 1.55998 5.2607 0.15998 8.0207 0.15998C9.6007 0.15998 10.9607 0.61998 12.1407 1.51998C13.4007 2.49998 14.0407 3.75998 14.0407 5.29998ZM11.7007 5.71998C11.7007 4.79998 11.2207 4.01998 10.2607 3.39998C9.4007 2.85998 8.4807 2.59998 7.5007 2.59998C6.0607 2.59998 4.5807 3.35998 3.0807 4.85998C3.0407 5.67998 3.0207 6.49998 3.0207 7.33998C3.0207 8.31998 3.0407 9.29998 3.1007 10.28C6.9207 10.18 9.4007 9.49998 10.5407 8.25998C11.3207 7.39998 11.7007 6.55998 11.7007 5.71998ZM29.9965 7.09998C29.9965 7.43998 29.5565 7.67998 28.6765 7.77998C24.3565 8.27998 21.0565 8.89998 18.7965 9.65998C18.8565 11.32 18.9965 12.92 19.2365 14.46C20.4565 14.46 21.8765 14.3 23.4565 14L27.6365 13.08C27.8765 13.02 28.0765 13 28.2365 13C28.7765 13 29.0365 13.22 29.0365 13.68C29.0365 14.26 28.5365 15 28.0365 15.3C26.9365 15.92 25.4565 16.42 23.5565 16.76C21.9365 17.04 20.3565 17.18 18.7965 17.18C17.9965 17.18 17.4765 16.96 17.2165 16.54C17.0565 16.26 16.9165 14.12 16.8165 10.12C16.2765 9.93998 15.9965 9.51998 15.9965 8.87998C15.9965 8.29998 16.2365 7.89998 16.7365 7.69998L16.7565 7.69998C16.6765 6.37998 16.6365 4.97998 16.6365 3.49998C16.6365 2.85998 16.6365 2.51998 16.6565 2.47998C16.7165 2.09998 16.8765 1.81998 17.1365 1.61998C17.2765 1.51998 17.5965 1.37998 18.1365 1.21998L20.6565 0.419979C21.6365 0.15998 22.4965 0.0199795 23.2765 0.0199795L24.0965 0.0199795C24.7965 -2.02589e-05 25.2965 0.0399792 25.5765 0.0999796C26.0565 0.19998 26.4765 0.45998 26.8165 0.859979C27.1565 1.23998 27.3365 1.59998 27.3365 1.91998C27.3365 2.35998 26.9365 2.61998 26.1365 2.67998C24.1765 2.85998 22.9365 2.97998 22.4165 3.07998C21.3765 3.25998 20.1765 3.63998 18.8365 4.21998C18.7765 5.11998 18.7365 6.07998 18.7365 7.07998C21.8365 6.17998 24.6165 5.71998 27.1165 5.71998C27.5965 5.71998 27.9765 5.73998 28.2565 5.77998C28.5965 5.81998 28.9565 5.95998 29.3365 6.21998C29.7765 6.51998 29.9965 6.79998 29.9965 7.09998ZM47.0155 15C47.0155 15.34 46.8355 15.66 46.4755 15.96C46.1155 16.26 45.7555 16.4 45.4155 16.4C45.0755 16.4 44.7155 16.04 44.3555 15.32L43.7155 13.76C41.2555 14.36 38.1555 15 34.4555 15.68C33.9955 16.78 33.5955 17.32 33.2355 17.32C32.8555 17.32 32.5155 17.1 32.1755 16.66C31.8355 16.22 31.6755 15.8 31.6755 15.42C31.6755 15.2 31.8555 14.82 32.1955 14.28C32.4355 13.9 32.6755 13.52 32.9355 13.14C33.8755 11.54 34.7955 9.55998 35.7155 7.19998L37.9955 1.05998C38.2555 0.35998 38.7755 0.0199795 39.5355 0.0199795C39.8955 0.0199795 40.1755 0.19998 40.3755 0.55998C40.5555 0.859979 40.7155 1.29998 40.8955 1.83998L41.3355 3.17998C42.7155 6.87998 44.1955 10.06 45.7755 12.72L46.4955 13.86C46.8355 14.44 47.0155 14.82 47.0155 15ZM42.6355 11.24C41.9355 9.53998 40.8355 6.97998 39.3755 3.57998C38.8155 4.85998 37.5555 7.99998 35.6155 13.02C38.1955 12.6 40.5355 12.02 42.6355 11.24ZM64.1638 7.03998C64.1638 9.49998 62.9638 11.58 60.5438 13.32C58.6238 14.72 56.2838 15.7 53.5238 16.24L51.3838 16.64C50.6238 16.82 50.2438 16.92 50.2438 16.92C50.0238 16.92 49.8638 16.8 49.7238 16.56C49.6038 16.3 49.4838 13 49.3438 6.63998C49.1038 6.33998 48.9838 5.99998 48.9838 5.57998C48.9838 5.19998 49.1238 4.81998 49.3838 4.43998C49.5238 4.25998 49.8038 3.95998 50.2438 3.53998C52.5238 1.33998 54.9238 0.23998 57.4638 0.23998C59.3238 0.23998 60.9038 0.89998 62.2038 2.23998C63.5038 3.57998 64.1638 5.17998 64.1638 7.03998ZM61.5438 7.69998C61.5438 6.31998 61.0238 5.13998 60.0038 4.17998C58.9838 3.21998 57.7838 2.73998 56.4038 2.73998C54.6638 2.73998 53.0038 3.49998 51.3838 5.01998C51.3238 5.93998 51.3038 6.85998 51.3038 7.75998C51.3038 10.02 51.4638 12.18 51.8038 14.28C54.2438 14.06 56.3238 13.5 58.0438 12.62C60.3838 11.42 61.5438 9.77998 61.5438 7.69998ZM80.6226 1.19998C80.6226 1.37998 80.3226 1.85998 79.7226 2.65998L78.5626 4.17998C76.0226 7.67998 73.9826 11 72.4826 14.18C72.2426 14.76 72.0026 15.34 71.7426 15.92C71.3626 16.58 70.9026 16.92 70.3426 16.92C70.0426 16.92 69.7626 16.84 69.4826 16.66C69.1426 16.44 68.9826 16.2 68.9826 15.94C68.9826 15.86 69.9626 14.04 71.9426 10.46L69.2026 6.83998C68.5426 6.01998 67.5826 4.73998 66.3626 3.01998C66.1426 2.67998 66.0426 2.35998 66.0426 2.05998C66.0426 1.77998 66.1626 1.43998 66.4226 1.01998C66.6826 0.599979 66.9426 0.37998 67.2026 0.37998C67.3426 0.37998 67.4826 0.47998 67.6426 0.679979C67.7026 0.73998 68.0026 1.21998 68.5426 2.11998C69.8626 4.29998 71.3626 6.43998 73.0426 8.53998L76.3626 2.91998C76.6626 2.37998 77.1226 1.61998 77.7826 0.61998C78.0826 0.23998 78.4826 0.0399792 78.9626 0.0399792C79.3226 0.0399792 79.6826 0.139979 80.0226 0.33998C80.4226 0.579979 80.6226 0.859979 80.6226 1.19998ZM81.5941 13.4C81.5941 13.58 81.5141 14.06 81.3341 14.84C81.1741 15.6 81.0541 16.06 80.9741 16.24C80.8341 16.58 80.4741 16.74 79.9141 16.74C79.3141 16.74 79.0141 16.54 79.0141 16.12C79.0141 15.02 79.0741 14.14 79.1741 13.52C79.2341 13.16 79.6741 12.98 80.4941 12.98C81.2341 12.98 81.5941 13.12 81.5941 13.4ZM88.8246 13.4C88.8246 13.58 88.7446 14.06 88.5646 14.84C88.4046 15.6 88.2846 16.06 88.2046 16.24C88.0646 16.58 87.7046 16.74 87.1446 16.74C86.5446 16.74 86.2446 16.54 86.2446 16.12C86.2446 15.02 86.3046 14.14 86.4046 13.52C86.4646 13.16 86.9046 12.98 87.7246 12.98C88.4646 12.98 88.8246 13.12 88.8246 13.4ZM96.0551 13.4C96.0551 13.58 95.9751 14.06 95.7951 14.84C95.6351 15.6 95.5151 16.06 95.4351 16.24C95.2951 16.58 94.9351 16.74 94.3751 16.74C93.7751 16.74 93.4751 16.54 93.4751 16.12C93.4751 15.02 93.5351 14.14 93.6351 13.52C93.6951 13.16 94.1351 12.98 94.9551 12.98C95.6951 12.98 96.0551 13.12 96.0551 13.4Z" fill="black"/>
</svg>
