<svg width="162" height="119" viewBox="0 0 162 119" fill="none" xmlns="http://www.w3.org/2000/svg">
<path fill-rule="evenodd" clip-rule="evenodd" d="M105.47 21.2246C106.025 26.0768 104.457 30.8811 100.287 35.1674C111.674 34.2279 121.797 34.4735 130.689 36.1828C150.626 40.0155 163.608 50.4631 164.952 62.2025C166.044 71.7435 161.275 81.1286 148.72 88.4073C147.822 88.9283 146.883 89.4385 145.905 89.937L182.403 116.602L175.256 117.306L136.31 93.9927C124.155 98.2539 108.046 101.099 88.1854 101.696C72.73 103.22 60.659 102.476 51.2691 99.5322C37.1764 95.1137 29.4781 86.1435 28.2804 75.6812C26.4672 66.0351 32.7655 57.5444 43.866 50.8194C33.4854 51.6203 25.2302 51.0179 18.6902 49.0516C7.95816 45.8249 2.11412 39.2234 1.23053 31.5049C-1.71062 16.0635 24.4634 4.54603 53.9426 1.63876C63.5709 0.689203 72.0532 0.756417 79.4205 2.10484C94.6099 4.88492 104.478 12.564 105.47 21.2246Z" fill="white"/>
<path d="M100.287 35.1674L99.5631 34.4668C99.2738 34.7642 99.2035 35.2125 99.3868 35.5906C99.5701 35.9687 99.9684 36.1968 100.385 36.1624L100.287 35.1674ZM130.689 36.1828L130.864 35.2026V35.2026L130.689 36.1828ZM148.72 88.4073L149.234 89.2722V89.2722L148.72 88.4073ZM145.905 89.937L145.438 89.0467C145.131 89.2032 144.93 89.5083 144.906 89.8531C144.882 90.1978 145.039 90.533 145.321 90.7391L145.905 89.937ZM182.403 116.602L182.517 117.595C182.928 117.555 183.268 117.265 183.372 116.868C183.477 116.47 183.323 116.045 182.987 115.8L182.403 116.602ZM175.256 117.306L174.75 118.16C174.937 118.272 175.155 118.321 175.37 118.3L175.256 117.306ZM136.31 93.9927L136.816 93.139C136.558 92.9844 136.246 92.9519 135.965 93.0504L136.31 93.9927ZM88.1854 101.696L88.1399 100.698C88.1171 100.698 88.0943 100.7 88.0716 100.702L88.1854 101.696ZM51.2691 99.5322L51.5563 98.5802V98.5802L51.2691 99.5322ZM28.2804 75.6812L29.2756 75.5831C29.2728 75.5593 29.2692 75.5355 29.2648 75.512L28.2804 75.6812ZM43.866 50.8194L44.3958 51.6747C44.7898 51.4359 44.9634 50.956 44.8152 50.5153C44.667 50.0745 44.2358 49.7884 43.7735 49.824L43.866 50.8194ZM18.6902 49.0516L18.4144 50.007V50.007L18.6902 49.0516ZM1.23053 31.5049L2.2257 31.4067C2.22288 31.3821 2.21915 31.3576 2.2145 31.3332L1.23053 31.5049ZM79.4205 2.10484L79.2542 3.08668V3.08668L79.4205 2.10484ZM100.287 35.1674L101.012 35.8681C105.368 31.3902 107.057 26.3 106.465 21.1265L105.47 21.2246L104.475 21.3228C104.993 25.8536 103.547 30.3719 99.5631 34.4668L100.287 35.1674ZM130.689 36.1828L130.864 35.2026C121.854 33.4706 111.634 33.2282 100.19 34.1725L100.287 35.1674L100.385 36.1624C111.715 35.2276 121.74 35.4763 130.514 37.163L130.689 36.1828ZM164.952 62.2025L165.947 62.1043C165.236 55.8913 161.456 50.1175 155.399 45.4418C149.34 40.7651 140.952 37.142 130.864 35.2026L130.689 36.1828L130.514 37.163C140.363 39.0563 148.435 42.5734 154.187 47.0134C159.941 51.4545 163.324 56.7743 163.957 62.3006L164.952 62.2025ZM148.72 88.4073L149.234 89.2722C162.028 81.8545 167.096 72.1376 165.947 62.1043L164.952 62.2025L163.957 62.3006C164.993 71.3493 160.522 80.4027 148.207 87.5424L148.72 88.4073ZM145.905 89.937L146.372 90.8273C147.365 90.3211 148.319 89.8025 149.234 89.2722L148.72 88.4073L148.207 87.5424C147.324 88.0541 146.401 88.5558 145.438 89.0467L145.905 89.937ZM182.403 116.602L182.987 115.8L146.489 89.135L145.905 89.937L145.321 90.7391L181.819 117.404L182.403 116.602ZM175.256 117.306L175.37 118.3L182.517 117.595L182.403 116.602L182.289 115.608L175.142 116.313L175.256 117.306ZM136.31 93.9927L135.804 94.8465L174.75 118.16L175.256 117.306L175.762 116.453L136.816 93.139L136.31 93.9927ZM88.1854 101.696L88.2309 102.693C108.164 102.095 124.38 99.2385 136.656 94.9351L136.31 93.9927L135.965 93.0504C123.931 97.2693 107.927 100.103 88.1399 100.698L88.1854 101.696ZM51.2691 99.5322L50.9819 100.484C60.5533 103.485 72.7756 104.22 88.2991 102.689L88.1854 101.696L88.0716 100.702C72.6845 102.22 60.7647 101.467 51.5563 98.5802L51.2691 99.5322ZM28.2804 75.6812L27.2852 75.7794C28.5389 86.7306 36.602 95.9756 50.9819 100.484L51.2691 99.5322L51.5563 98.5802C37.7509 94.2518 30.4173 85.5565 29.2756 75.5831L28.2804 75.6812ZM43.866 50.8194L43.3362 49.9641C32.1308 56.7527 25.3644 65.5746 27.296 75.8505L28.2804 75.6812L29.2648 75.512C27.57 66.4956 33.4001 58.3362 44.3958 51.6747L43.866 50.8194ZM18.6902 49.0516L18.4144 50.007C25.1181 52.0225 33.5098 52.6209 43.9585 51.8148L43.866 50.8194L43.7735 49.824C33.461 50.6196 25.3424 50.0132 18.9659 48.0961L18.6902 49.0516ZM1.23053 31.5049L0.235353 31.603C1.17711 39.8297 7.4074 46.6976 18.4144 50.007L18.6902 49.0516L18.9659 48.0961C8.50893 44.9521 3.05112 38.6172 2.2257 31.4067L1.23053 31.5049ZM53.9426 1.63876L53.8288 0.645247C39.0086 2.10683 24.9603 5.73609 14.9518 10.9865C5.03392 16.1895 -1.35832 23.2508 0.246548 31.6765L1.23053 31.5049L2.2145 31.3332C0.878232 24.3176 6.10244 17.8995 15.906 12.7565C25.6191 7.66109 39.3973 4.07796 54.0563 2.63227L53.9426 1.63876ZM79.4205 2.10484L79.5868 1.123C72.0955 -0.248116 63.5122 -0.309741 53.8288 0.645247L53.9426 1.63876L54.0563 2.63227C63.6295 1.68815 72.0109 1.76095 79.2542 3.08668L79.4205 2.10484ZM105.47 21.2246L106.465 21.1265C105.929 16.4404 103.003 12.1267 98.3618 8.66358C93.7179 5.19871 87.2971 2.53419 79.5868 1.123L79.4205 2.10484L79.2542 3.08668C86.7333 4.45557 92.8415 7.02061 97.1771 10.2554C101.515 13.492 104.02 17.3482 104.475 21.3228L105.47 21.2246Z" fill="black"/>
</svg>
