<svg width="208" height="179" viewBox="0 0 208 179" fill="none" xmlns="http://www.w3.org/2000/svg">
<path fill-rule="evenodd" clip-rule="evenodd" d="M50.2951 15.7655C46.7181 14.7234 43.3383 13.7388 42.5452 14.1332C41.6952 14.5559 41.68 17.0971 41.6647 19.6504C41.6495 22.2031 41.6342 24.768 40.7843 25.2396C40.1908 25.569 36.9721 25.4612 32.9374 25.3259C25.4167 25.0739 15.0605 24.7268 13.5853 26.9396C12.1694 29.0634 15.618 35.8304 18.4062 41.3017C20.0815 44.5891 21.5184 47.4087 21.5184 48.4722C21.5184 49.8888 18.331 53.0762 15.1436 56.2636C11.9562 59.4509 8.76885 62.6383 8.76885 64.055C8.76885 65.9126 12.3011 69.1101 15.3724 71.8905C16.9854 73.3506 18.4713 74.6957 19.2517 75.6712C20.5425 77.2847 16.9637 83.7676 13.6429 89.7833C11.1322 94.3315 8.76885 98.6126 8.76885 100.32C8.76885 103.184 13.7884 106.342 17.753 108.837C19.2806 109.798 20.6516 110.661 21.5184 111.37C23.1464 112.702 22.8416 116.586 22.5425 120.395C22.269 123.878 22.0004 127.3 23.2183 128.653C25.7682 131.486 41.0677 125.253 44.1842 123.27C44.8745 122.83 47.8066 124.144 51.0195 125.584C51.8631 125.962 52.726 126.348 53.5728 126.714C52.657 135.566 51.1559 148.41 50.0818 149.227C49.2923 149.827 45.8258 149.846 42.31 149.865C38.4855 149.885 34.6026 149.906 34.0443 150.676C33.6313 151.247 33.0348 152.582 32.3579 154.097C31.2783 156.513 29.9943 159.387 28.925 160.343C27.1852 161.899 18.8366 167.574 16.3744 166.798C14.7748 166.294 13.404 162.274 12.3235 159.106C11.7408 157.397 11.2426 155.936 10.8385 155.408C9.68502 153.9 1.1506 146.783 -4.06525 146.283C-9.28111 145.784 -41 164.645 -41 164.645V175.045C-41 175.045 -22.9572 165.731 -21.3993 164.645C-21.3314 164.598 -21.2457 164.538 -21.1438 164.466C-18.9048 162.893 -8.78817 155.788 -5.82302 157.305C-4.10873 158.182 0.10701 162.812 3.91913 166.999C7.00109 170.383 9.81923 173.478 10.8385 174.066C13.1184 175.382 18.8696 177.3 22.282 176.945C24.1491 176.75 28.6606 172.129 32.8843 167.802C36.3796 164.222 39.6778 160.844 41.1171 160.343C42.8033 159.757 46.2887 160.04 49.5349 160.304C52.4075 160.538 55.0927 160.756 56.1778 160.343C58.0878 159.616 59.8395 155.438 60.9477 152.795C61.1806 152.24 61.3851 151.752 61.5567 151.378C62.1978 149.982 63.6679 136.506 64.6211 127.215C67.0213 126.295 69.8584 125.072 72.4018 123.977C75.8724 122.481 78.7961 121.221 79.3164 121.286C80.2809 121.407 81.4508 122.759 82.7603 124.272C84.528 126.315 86.5503 128.653 88.666 128.653C92.3492 128.653 103.116 119.02 103.116 119.02C103.116 119.02 115.015 128.653 117.565 128.653C118.824 128.653 121.75 127.791 124.658 126.935C127.64 126.058 130.603 125.186 131.731 125.253C132.692 125.31 134.72 126.59 136.921 127.978C139.825 129.81 143.03 131.832 144.481 131.486C145.756 131.182 145.756 126.382 145.756 121.543C145.756 116.705 145.756 111.828 147.031 111.37C148.223 110.942 152.575 112.195 157.16 113.515C162.384 115.02 167.911 116.612 169.413 115.903C171.348 114.991 171.038 105.945 170.829 99.8413C170.733 97.0483 170.659 94.8711 170.83 94.3706C171.094 93.599 175.748 94.2791 180.587 94.9864C185.748 95.7405 191.119 96.5255 191.604 95.6142C192.088 94.707 189.78 88.3689 187.513 82.1392C185.366 76.2417 183.255 70.4414 183.579 69.4381C183.85 68.6025 187.467 66.9557 191.699 65.0287C197.916 62.1979 205.461 58.7624 205.679 56.4052C205.897 54.0363 199.066 47.1958 193.477 41.6002C189.72 37.8375 186.524 34.6378 186.413 33.7393C186.274 32.621 188.538 30.2 190.767 27.8165C192.992 25.4372 195.182 23.0952 194.912 22.1231C194.561 20.8542 188.017 19.6829 182.972 18.7801C180.281 18.2983 178.016 17.8929 177.346 17.5899C176.391 17.1576 176.384 14.7897 176.377 12.3021C176.37 9.77793 176.362 7.13051 175.363 6.25694C174.068 5.1241 164.783 6.92128 157.638 8.30441C153.843 9.03901 150.651 9.65682 149.581 9.65682C148.1 9.65682 144.251 7.76764 140.243 5.80104C135.894 3.66635 131.358 1.44043 129.465 1.44043C127.496 1.44043 123.447 3.84629 119.73 6.05429C116.578 7.9267 113.666 9.65682 112.465 9.65682C111.296 9.65682 107.616 8.01611 103.545 6.20105C98.5051 3.95432 92.8661 1.44043 90.6493 1.44043C88.4721 1.44043 85.3159 3.86519 82.4327 6.08025C80.0085 7.94266 77.7772 9.65682 76.4831 9.65682C75.2701 9.65682 73.0788 8.84815 70.7877 8.00267C67.7277 6.87341 64.4897 5.67848 63.1669 6.25694C61.9523 6.78807 61.61 9.55821 61.2783 12.2417C60.9784 14.669 60.6871 17.0254 59.7671 17.5899C58.7337 18.224 54.3854 16.9572 50.2951 15.7655Z" fill="white"/>
<path d="M42.5452 14.1332L43.1866 15.4229V15.4229L42.5452 14.1332ZM50.2951 15.7655L49.8922 17.1485V17.1485L50.2951 15.7655ZM41.6647 19.6504L40.2244 19.6418V19.6418L41.6647 19.6504ZM40.7843 25.2396L41.4833 26.4991H41.4833L40.7843 25.2396ZM32.9374 25.3259L32.8892 26.7655H32.8892L32.9374 25.3259ZM13.5853 26.9396L12.3868 26.1406V26.1406L13.5853 26.9396ZM18.4062 41.3017L19.6896 40.6477V40.6477L18.4062 41.3017ZM15.1436 56.2636L16.1622 57.2821V57.2821L15.1436 56.2636ZM15.3724 71.8905L16.3391 70.8226V70.8226L15.3724 71.8905ZM19.2517 75.6712L20.3765 74.7714L20.3765 74.7714L19.2517 75.6712ZM13.6429 89.7833L12.3818 89.0872V89.0872L13.6429 89.7833ZM17.753 108.837L16.9859 110.056V110.056L17.753 108.837ZM21.5184 111.37L22.4306 110.255H22.4305L21.5184 111.37ZM22.5425 120.395L21.1065 120.283V120.283L22.5425 120.395ZM23.2183 128.653L24.2889 127.689L24.2889 127.689L23.2183 128.653ZM44.1842 123.27L43.4109 122.054V122.054L44.1842 123.27ZM51.0195 125.584L51.6085 124.269V124.269L51.0195 125.584ZM53.5728 126.714L55.0056 126.863C55.0703 126.237 54.7216 125.642 54.1441 125.392L53.5728 126.714ZM50.0818 149.227L49.2098 148.08V148.08L50.0818 149.227ZM42.31 149.865L42.3024 148.424V148.424L42.31 149.865ZM34.0443 150.676L32.8778 149.831H32.8778L34.0443 150.676ZM32.3579 154.097L31.0428 153.509V153.509L32.3579 154.097ZM28.925 160.343L29.8852 161.417V161.417L28.925 160.343ZM16.3744 166.798L16.8074 165.424H16.8074L16.3744 166.798ZM12.3235 159.106L13.6868 158.641V158.641L12.3235 159.106ZM10.8385 155.408L9.69434 156.283L9.69435 156.283L10.8385 155.408ZM-4.06525 146.283L-4.20256 147.717V147.717L-4.06525 146.283ZM-41 164.645L-41.7362 163.407C-42.1728 163.667 -42.4404 164.137 -42.4404 164.645H-41ZM-41 175.045H-42.4404C-42.4404 175.548 -42.1785 176.014 -41.7494 176.275C-41.3202 176.537 -40.7858 176.556 -40.3393 176.325L-41 175.045ZM-21.3993 164.645L-22.2232 163.464L-22.2232 163.464L-21.3993 164.645ZM-21.1438 164.466L-21.9716 163.287L-21.9717 163.287L-21.1438 164.466ZM-5.82302 157.305L-6.47911 158.587H-6.47911L-5.82302 157.305ZM3.91913 166.999L2.85408 167.969H2.85408L3.91913 166.999ZM10.8385 174.066L11.5582 172.819H11.5582L10.8385 174.066ZM22.282 176.945L22.4313 178.377H22.4313L22.282 176.945ZM32.8843 167.802L33.9149 168.809H33.915L32.8843 167.802ZM41.1171 160.343L41.5902 161.704H41.5902L41.1171 160.343ZM49.5349 160.304L49.4181 161.74H49.4181L49.5349 160.304ZM56.1778 160.343L55.6653 158.997V158.997L56.1778 160.343ZM60.9477 152.795L59.6193 152.238V152.238L60.9477 152.795ZM61.5567 151.378L60.2477 150.777V150.777L61.5567 151.378ZM64.6211 127.215L64.1054 125.87C63.5983 126.065 63.2436 126.528 63.1882 127.068L64.6211 127.215ZM72.4018 123.977L71.8318 122.654V122.654L72.4018 123.977ZM79.3164 121.286L79.1377 122.716V122.716L79.3164 121.286ZM82.7603 124.272L81.671 125.215V125.215L82.7603 124.272ZM103.116 119.02L104.022 117.9C103.473 117.456 102.682 117.475 102.155 117.946L103.116 119.02ZM124.658 126.935L125.065 128.317V128.317L124.658 126.935ZM131.731 125.253L131.817 123.815V123.815L131.731 125.253ZM136.921 127.978L136.153 129.196V129.196L136.921 127.978ZM144.481 131.486L144.815 132.887H144.815L144.481 131.486ZM147.031 111.37L146.544 110.014V110.014L147.031 111.37ZM157.16 113.515L157.559 112.131V112.131L157.16 113.515ZM169.413 115.903L168.799 114.6H168.799L169.413 115.903ZM170.829 99.8413L172.269 99.792V99.792L170.829 99.8413ZM170.83 94.3706L169.467 93.9044V93.9044L170.83 94.3706ZM180.587 94.9864L180.379 96.4116V96.4116L180.587 94.9864ZM191.604 95.6142L192.876 96.2912L192.876 96.2912L191.604 95.6142ZM187.513 82.1392L186.159 82.6319V82.6319L187.513 82.1392ZM183.579 69.4381L182.209 68.9944V68.9944L183.579 69.4381ZM191.699 65.0287L192.296 66.3396V66.3396L191.699 65.0287ZM205.679 56.4052L204.244 56.2728V56.2728L205.679 56.4052ZM193.477 41.6002L194.497 40.5824V40.5824L193.477 41.6002ZM186.413 33.7393L184.983 33.9167V33.9167L186.413 33.7393ZM190.767 27.8165L191.819 28.8003L191.819 28.8003L190.767 27.8165ZM194.912 22.1231L193.524 22.5074V22.5075L194.912 22.1231ZM182.972 18.7801L183.226 17.3622L182.972 18.7801ZM177.346 17.5899L176.752 18.9021V18.9021L177.346 17.5899ZM176.377 12.3021L177.818 12.2979V12.2978L176.377 12.3021ZM175.363 6.25694L176.311 5.17268V5.17268L175.363 6.25694ZM157.638 8.30441L157.364 6.89025V6.89025L157.638 8.30441ZM140.243 5.80104L140.878 4.50794V4.50794L140.243 5.80104ZM119.73 6.05429L120.465 7.29267V7.29267L119.73 6.05429ZM103.545 6.20105L104.131 4.88545V4.88545L103.545 6.20105ZM82.4327 6.08025L81.5551 4.938V4.938L82.4327 6.08025ZM70.7877 8.00267L71.2864 6.65133V6.65133L70.7877 8.00267ZM63.1669 6.25694L63.744 7.57668V7.57668L63.1669 6.25694ZM61.2783 12.2417L62.7079 12.4184V12.4184L61.2783 12.2417ZM59.7671 17.5899L60.5204 18.8176L60.5204 18.8176L59.7671 17.5899ZM42.5452 14.1332L43.1866 15.4229C43.0265 15.5025 42.936 15.4907 43.0313 15.4859C43.1028 15.4824 43.2313 15.4853 43.4306 15.5071C43.8287 15.5508 44.3713 15.6541 45.0465 15.8128C46.3928 16.1294 48.0912 16.6237 49.8922 17.1485L50.2951 15.7655L50.698 14.3826C48.922 13.8652 47.142 13.3462 45.7059 13.0085C44.9899 12.8401 44.3152 12.7061 43.7448 12.6435C43.4598 12.6122 43.1663 12.5947 42.8871 12.6087C42.6318 12.6215 42.2622 12.6652 41.9039 12.8434L42.5452 14.1332ZM41.6647 19.6504L43.1051 19.659C43.1129 18.3571 43.1217 17.168 43.2235 16.2519C43.2746 15.7919 43.3414 15.4836 43.4068 15.3012C43.4884 15.0741 43.4804 15.2768 43.1866 15.4229L42.5452 14.1332L41.9039 12.8434C41.185 13.2009 40.8563 13.8797 40.6955 14.3278C40.5185 14.8206 40.4212 15.3864 40.3603 15.9337C40.2382 17.0323 40.2318 18.3904 40.2244 19.6418L41.6647 19.6504ZM40.7843 25.2396L41.4833 26.4991C42.1645 26.121 42.4794 25.4554 42.638 25.0016C42.8117 24.5048 42.9085 23.9361 42.9693 23.3827C43.0912 22.2734 43.0977 20.9109 43.1051 19.6589L41.6647 19.6504L40.2244 19.6418C40.2166 20.9426 40.2078 22.1389 40.1057 23.0681C40.0546 23.534 39.9873 23.8545 39.9186 24.051C39.8348 24.2905 39.8291 24.1224 40.0854 23.9802L40.7843 25.2396ZM32.9374 25.3259L32.8892 26.7655C34.8977 26.8329 36.7374 26.8947 38.1485 26.8974C38.8524 26.8988 39.4803 26.8857 39.9845 26.8474C40.2358 26.8282 40.4821 26.801 40.7048 26.7597C40.8963 26.7242 41.1992 26.6567 41.4833 26.4991L40.7843 25.2396L40.0854 23.9802C40.2211 23.9049 40.2936 23.906 40.1796 23.9272C40.097 23.9425 39.9629 23.9598 39.766 23.9748C39.3736 24.0047 38.8334 24.0179 38.1541 24.0166C36.7989 24.014 35.0118 23.9542 32.9857 23.8863L32.9374 25.3259ZM13.5853 26.9396L14.7838 27.7386C14.7577 27.7777 14.8084 27.6828 15.1334 27.5334C15.44 27.3925 15.882 27.2527 16.4725 27.1276C17.6523 26.8775 19.2272 26.7255 21.0556 26.6475C24.7036 26.492 29.1143 26.639 32.8892 26.7655L32.9374 25.3259L32.9857 23.8863C29.2397 23.7608 24.712 23.6082 20.9329 23.7693C19.0478 23.8497 17.2871 24.0101 15.8751 24.3094C15.1698 24.4589 14.5019 24.6531 13.9304 24.9158C13.3774 25.1699 12.7817 25.5482 12.3868 26.1406L13.5853 26.9396ZM18.4062 41.3017L19.6896 40.6477C18.2864 37.8943 16.7632 34.9022 15.7606 32.3404C15.2582 31.0567 14.9142 29.949 14.7704 29.0761C14.6144 28.1288 14.7509 27.788 14.7838 27.7386L13.5853 26.9396L12.3868 26.1406C11.7118 27.153 11.7484 28.4545 11.9279 29.5443C12.1196 30.7086 12.5466 32.0328 13.0779 33.3903C14.1426 36.1107 15.7378 39.2379 17.1228 41.9557L18.4062 41.3017ZM21.5184 48.4722H22.9588C22.9588 47.951 22.7979 47.383 22.629 46.8947C22.4468 46.3678 22.1939 45.7663 21.9015 45.124C21.3168 43.8401 20.5223 42.2816 19.6896 40.6477L18.4062 41.3017L17.1228 41.9557C17.9655 43.6092 18.727 45.1043 19.2797 46.3179C19.5558 46.9243 19.7668 47.4326 19.9064 47.8362C19.9759 48.0372 20.0219 48.1958 20.0495 48.316C20.0788 48.4436 20.078 48.4879 20.078 48.4722H21.5184ZM15.1436 56.2636L16.1622 57.2821C17.7445 55.6997 19.3777 54.0676 20.6125 52.6499C21.2292 51.9418 21.7808 51.2487 22.1858 50.6123C22.5502 50.0396 22.9588 49.2707 22.9588 48.4722H21.5184H20.078C20.078 48.382 20.0882 48.5427 19.7554 49.0657C19.4631 49.5249 19.0187 50.0935 18.4401 50.7578C17.2844 52.0847 15.7301 53.64 14.1251 55.245L15.1436 56.2636ZM8.76885 64.055H10.2093C10.2093 64.1451 10.1991 63.9844 10.5319 63.4615C10.8242 63.0022 11.2686 62.4336 11.8472 61.7693C13.0029 60.4424 14.5571 58.8871 16.1622 57.2821L15.1436 56.2636L14.1251 55.245C12.5427 56.8274 10.9096 58.4595 9.67478 59.8773C9.05809 60.5853 8.50642 61.2784 8.10146 61.9148C7.73703 62.4875 7.32843 63.2564 7.32843 64.055H8.76885ZM15.3724 71.8905L16.3391 70.8226C14.7898 69.4201 13.1927 67.9727 11.9796 66.6522C11.3734 65.9923 10.9016 65.405 10.589 64.9066C10.2541 64.3727 10.2093 64.108 10.2093 64.055H8.76885H7.32843C7.32843 64.9307 7.72515 65.7624 8.14851 66.4374C8.59417 67.1479 9.19738 67.882 9.85813 68.6012C11.179 70.039 12.8837 71.5805 14.4058 72.9583L15.3724 71.8905ZM19.2517 75.6712L20.3765 74.7714C19.5051 73.6821 17.9079 72.2427 16.3391 70.8226L15.3724 71.8905L14.4058 72.9583C16.0629 74.4585 17.4375 75.7092 18.127 76.5711L19.2517 75.6712ZM13.6429 89.7833L14.9039 90.4795C16.5546 87.4892 18.3134 84.3054 19.4921 81.6633C20.0791 80.3474 20.5558 79.0935 20.7932 78.0227C20.9119 77.4872 20.9849 76.9367 20.9557 76.4137C20.9267 75.895 20.7899 75.2881 20.3765 74.7714L19.2517 75.6712L18.127 76.5711C18.0363 76.4577 18.07 76.4063 18.0794 76.5744C18.0885 76.7383 18.0678 77.0061 17.9806 77.3992C17.8063 78.1857 17.4227 79.231 16.8612 80.4896C15.743 82.9961 14.052 86.0617 12.3818 89.0872L13.6429 89.7833ZM8.76885 100.32H10.2093C10.2093 100.16 10.2799 99.7714 10.53 99.0882C10.7664 98.4423 11.1161 97.6552 11.5586 96.7492C12.4441 94.9362 13.643 92.7637 14.9039 90.4795L13.6429 89.7833L12.3818 89.0872C11.1321 91.3512 9.89392 93.5933 8.97005 95.4849C8.5079 96.4311 8.10989 97.3187 7.82468 98.098C7.55317 98.8399 7.32843 99.6269 7.32843 100.32H8.76885ZM17.753 108.837L18.5202 107.618C16.5174 106.357 14.359 104.996 12.6966 103.61C11.8674 102.919 11.2167 102.266 10.783 101.665C10.3428 101.055 10.2093 100.615 10.2093 100.32H8.76885H7.32843C7.32843 101.457 7.82234 102.486 8.44718 103.351C9.07855 104.226 9.93058 105.055 10.8518 105.823C12.6904 107.356 15.0241 108.822 16.9859 110.056L17.753 108.837ZM21.5184 111.37L22.4305 110.255C21.4775 109.475 20.0134 108.557 18.5201 107.618L17.753 108.837L16.9859 110.056C18.5479 111.039 19.8257 111.846 20.6063 112.485L21.5184 111.37ZM22.5425 120.395L23.9785 120.508C24.1258 118.632 24.2877 116.603 24.1913 114.873C24.1428 114.003 24.0265 113.139 23.7791 112.367C23.5319 111.596 23.1241 110.823 22.4306 110.255L21.5184 111.37L20.6063 112.485C20.7267 112.583 20.8913 112.795 21.0355 113.246C21.1795 113.695 21.2735 114.291 21.3149 115.034C21.3983 116.531 21.2583 118.349 21.1065 120.283L22.5425 120.395ZM23.2183 128.653L24.2889 127.689C24.1987 127.589 24.0673 127.369 23.9576 126.931C23.8497 126.501 23.7842 125.948 23.7607 125.273C23.7132 123.911 23.8399 122.273 23.9785 120.508L22.5425 120.395L21.1065 120.283C20.9716 122 20.8273 123.815 20.8816 125.373C20.9089 126.157 20.9875 126.931 21.1633 127.632C21.3372 128.325 21.629 129.04 22.1476 129.616L23.2183 128.653ZM44.1842 123.27L43.4109 122.054C42.0047 122.949 37.5353 124.959 33.0494 126.396C30.819 127.11 28.671 127.654 26.9632 127.855C26.1061 127.956 25.4254 127.962 24.93 127.891C24.4096 127.815 24.2829 127.682 24.2889 127.689L23.2183 128.653L22.1476 129.616C22.7911 130.331 23.7004 130.623 24.5169 130.742C25.3584 130.864 26.3156 130.832 27.3002 130.716C29.2756 130.484 31.6254 129.877 33.9282 129.139C38.5085 127.672 43.2472 125.573 44.9576 124.485L44.1842 123.27ZM51.0195 125.584L51.6085 124.269C50.0177 123.556 48.4326 122.845 47.1574 122.372C46.5236 122.136 45.9074 121.937 45.3724 121.831C45.1054 121.778 44.8091 121.737 44.5131 121.744C44.2374 121.75 43.8136 121.798 43.4109 122.054L44.1842 123.27L44.9576 124.485C44.8357 124.562 44.7294 124.595 44.6693 124.61C44.638 124.617 44.6141 124.62 44.5993 124.622C44.5845 124.624 44.5762 124.624 44.5755 124.624C44.5748 124.624 44.5797 124.624 44.5908 124.624C44.6018 124.625 44.6176 124.626 44.6384 124.628C44.6809 124.633 44.7378 124.642 44.8109 124.656C45.1202 124.718 45.5673 124.854 46.1543 125.072C47.321 125.506 48.8084 126.171 50.4305 126.898L51.0195 125.584ZM53.5728 126.714L54.1441 125.392C53.3077 125.031 52.4537 124.648 51.6085 124.269L51.0195 125.584L50.4305 126.898C51.2725 127.276 52.1443 127.666 53.0015 128.037L53.5728 126.714ZM53.5728 126.714L52.14 126.566C51.6826 130.987 51.0806 136.39 50.4604 140.782C50.1498 142.982 49.8381 144.903 49.542 146.313C49.393 147.022 49.2552 147.567 49.1332 147.942C49.0716 148.13 49.025 148.241 48.9984 148.295C48.9504 148.391 49.0021 148.238 49.2098 148.08L50.0818 149.227L50.9539 150.373C51.2958 150.113 51.4851 149.764 51.5775 149.578C51.6913 149.35 51.788 149.092 51.8721 148.834C52.0414 148.315 52.2041 147.654 52.3613 146.905C52.6773 145.401 52.9995 143.405 53.3129 141.185C53.9408 136.738 54.5472 131.293 55.0056 126.863L53.5728 126.714ZM50.0818 149.227L49.2098 148.08C49.3159 148 49.267 148.073 48.7789 148.159C48.3681 148.231 47.8145 148.286 47.1343 148.326C45.7758 148.405 44.0727 148.415 42.3024 148.424L42.31 149.865L42.3177 151.305C44.0632 151.296 45.8512 151.287 47.3022 151.202C48.0267 151.16 48.7075 151.096 49.2787 150.996C49.7724 150.909 50.4529 150.754 50.9539 150.373L50.0818 149.227ZM42.31 149.865L42.3024 148.424C40.4054 148.434 38.4276 148.444 36.8538 148.552C36.0706 148.606 35.3301 148.687 34.7236 148.821C34.4212 148.887 34.1059 148.977 33.8171 149.105C33.5517 149.223 33.1633 149.437 32.8778 149.831L34.0443 150.676L35.2108 151.522C35.0648 151.723 34.92 151.768 34.9886 151.737C35.034 151.717 35.1435 151.678 35.3434 151.634C35.7415 151.546 36.3154 151.477 37.0508 151.426C38.5142 151.326 40.3901 151.315 42.3177 151.305L42.31 149.865ZM34.0443 150.676L32.8778 149.831C32.5862 150.234 32.2845 150.819 32.0015 151.409C31.7058 152.025 31.3787 152.757 31.0428 153.509L32.3579 154.097L33.673 154.684C34.0139 153.921 34.3235 153.229 34.5986 152.656C34.8863 152.056 35.0894 151.689 35.2108 151.522L34.0443 150.676ZM32.3579 154.097L31.0428 153.509C30.499 154.726 29.9253 156.009 29.3582 157.106C28.7592 158.264 28.2763 158.991 27.9648 159.269L28.925 160.343L29.8852 161.417C30.6431 160.739 31.3368 159.551 31.917 158.429C32.5291 157.246 33.1371 155.884 33.673 154.684L32.3579 154.097ZM28.925 160.343L27.9648 159.269C27.1958 159.957 24.7654 161.709 22.1976 163.199C20.9218 163.94 19.6662 164.583 18.6099 164.992C18.0809 165.197 17.6396 165.327 17.2946 165.389C16.925 165.456 16.7931 165.419 16.8074 165.424L16.3744 166.798L15.9413 168.172C16.5712 168.37 17.2388 168.326 17.8038 168.225C18.3935 168.119 19.0219 167.921 19.6491 167.679C20.905 167.193 22.307 166.467 23.6436 165.691C26.3007 164.149 28.9144 162.285 29.8852 161.417L28.925 160.343ZM16.3744 166.798L16.8074 165.424C16.8427 165.435 16.6841 165.385 16.3738 164.968C16.0881 164.585 15.7813 164.037 15.4614 163.346C14.8217 161.964 14.2334 160.243 13.6868 158.641L12.3235 159.106L10.9602 159.571C11.4941 161.136 12.1315 163.01 12.8471 164.556C13.2049 165.329 13.6083 166.078 14.0633 166.689C14.4937 167.267 15.1063 167.908 15.9413 168.172L16.3744 166.798ZM12.3235 159.106L13.6868 158.641C13.3984 157.795 13.1185 156.973 12.8585 156.297C12.6196 155.676 12.3293 154.986 11.9826 154.533L10.8385 155.408L9.69435 156.283C9.69387 156.282 9.71043 156.304 9.74268 156.361C9.77376 156.416 9.81197 156.489 9.85714 156.585C9.94825 156.777 10.0521 157.026 10.1695 157.331C10.4054 157.945 10.666 158.708 10.9602 159.571L12.3235 159.106ZM10.8385 155.408L11.9826 154.533C11.5896 154.019 10.7293 153.202 9.68943 152.319C8.61166 151.403 7.23632 150.327 5.73043 149.283C4.22716 148.242 2.57163 147.217 0.935993 146.414C-0.679508 145.622 -2.37234 144.998 -3.92794 144.849L-4.06525 146.283L-4.20256 147.717C-3.15024 147.818 -1.82032 148.271 -0.332615 149.001C1.13496 149.721 2.66309 150.663 4.08959 151.651C5.51347 152.638 6.81399 153.655 7.82383 154.514C8.87159 155.404 9.51064 156.043 9.69434 156.283L10.8385 155.408ZM-4.06525 146.283L-3.92794 144.849C-4.46918 144.797 -5.06599 144.876 -5.64018 144.998C-6.2343 145.125 -6.90107 145.321 -7.61647 145.566C-9.04765 146.056 -10.7634 146.774 -12.6366 147.632C-16.3874 149.35 -20.8743 151.679 -25.1751 154.011C-29.4805 156.345 -33.6199 158.694 -36.6816 160.458C-38.2128 161.34 -39.4755 162.077 -40.3557 162.593C-40.7959 162.851 -41.1405 163.054 -41.3753 163.193C-41.4927 163.263 -41.5826 163.316 -41.6434 163.352C-41.6738 163.37 -41.6968 163.384 -41.7124 163.393C-41.7201 163.397 -41.726 163.401 -41.73 163.403C-41.732 163.404 -41.7335 163.405 -41.7346 163.406C-41.7351 163.406 -41.7355 163.407 -41.7357 163.407C-41.736 163.407 -41.7362 163.407 -41 164.645C-40.2638 165.883 -40.2637 165.883 -40.2635 165.883C-40.2633 165.883 -40.263 165.883 -40.2626 165.882C-40.2617 165.882 -40.2603 165.881 -40.2584 165.88C-40.2547 165.878 -40.2491 165.874 -40.2416 165.87C-40.2266 165.861 -40.2041 165.848 -40.1743 165.83C-40.1147 165.795 -40.0259 165.742 -39.9098 165.673C-39.6774 165.536 -39.3354 165.335 -38.8981 165.078C-38.0233 164.565 -36.7672 163.832 -35.2433 162.954C-32.1946 161.197 -28.0783 158.862 -23.802 156.543C-19.5211 154.222 -15.1003 151.929 -11.4369 150.251C-9.60294 149.411 -7.98495 148.737 -6.68316 148.291C-6.03207 148.068 -5.48255 147.91 -5.03901 147.816C-4.57553 147.717 -4.3133 147.706 -4.20256 147.717L-4.06525 146.283ZM-41 164.645H-42.4404V175.045H-41H-39.5596V164.645H-41ZM-41 175.045C-40.3393 176.325 -40.3392 176.325 -40.3391 176.325C-40.3389 176.325 -40.3387 176.325 -40.3384 176.325C-40.3379 176.325 -40.337 176.324 -40.3359 176.324C-40.3337 176.322 -40.3304 176.321 -40.3261 176.318C-40.3174 176.314 -40.3044 176.307 -40.2872 176.298C-40.2529 176.281 -40.2021 176.254 -40.1357 176.22C-40.003 176.152 -39.8083 176.051 -39.5598 175.922C-39.063 175.665 -38.3516 175.297 -37.4932 174.852C-35.7763 173.961 -33.4705 172.762 -31.1156 171.529C-28.7614 170.296 -26.3549 169.027 -24.4377 167.997C-22.574 166.997 -21.0528 166.159 -20.5754 165.827L-21.3993 164.645L-22.2232 163.464C-22.5247 163.674 -23.8431 164.408 -25.8006 165.459C-27.7046 166.482 -30.1008 167.745 -32.4521 168.977C-34.8026 170.208 -37.1049 171.405 -38.8198 172.294C-39.6771 172.739 -40.3875 173.107 -40.8835 173.364C-41.1315 173.492 -41.3259 173.592 -41.4582 173.661C-41.5244 173.695 -41.5751 173.721 -41.6092 173.739C-41.6262 173.748 -41.6391 173.754 -41.6478 173.759C-41.6521 173.761 -41.6553 173.763 -41.6575 173.764C-41.6586 173.764 -41.6594 173.765 -41.6599 173.765C-41.6602 173.765 -41.6604 173.765 -41.6605 173.765C-41.6607 173.765 -41.6607 173.765 -41 175.045ZM-21.3993 164.645L-20.5754 165.827C-20.5051 165.778 -20.4171 165.716 -20.3158 165.645L-21.1438 164.466L-21.9717 163.287C-22.0743 163.359 -22.1577 163.418 -22.2232 163.464L-21.3993 164.645ZM-21.1438 164.466L-20.3159 165.645C-19.1957 164.858 -16.1603 162.727 -13.0511 160.983C-11.491 160.108 -9.96678 159.362 -8.68821 158.926C-8.04848 158.708 -7.51929 158.585 -7.10833 158.547C-6.68138 158.508 -6.50951 158.572 -6.47911 158.587L-5.82302 157.305L-5.16692 156.023C-5.87782 155.659 -6.67072 155.613 -7.37331 155.678C-8.0919 155.745 -8.85704 155.94 -9.6177 156.199C-11.1399 156.718 -12.8407 157.562 -14.4603 158.471C-17.7105 160.293 -20.8528 162.501 -21.9716 163.287L-21.1438 164.466ZM-5.82302 157.305L-6.47911 158.587C-6.23017 158.715 -5.76424 159.057 -5.0743 159.674C-4.41346 160.266 -3.63245 161.031 -2.77024 161.916C-1.04597 163.686 0.943363 165.87 2.85408 167.969L3.91913 166.999L4.98418 166.029C3.08278 163.941 1.05819 161.717 -0.70702 159.906C-1.58955 159 -2.42216 158.182 -3.15304 157.528C-3.85482 156.9 -4.55872 156.334 -5.16693 156.023L-5.82302 157.305ZM3.91913 166.999L2.85408 167.969C4.39091 169.656 5.87966 171.291 7.11226 172.578C7.72841 173.221 8.29348 173.791 8.77739 174.243C9.23225 174.668 9.70586 175.076 10.1187 175.314L10.8385 174.066L11.5582 172.819C11.4615 172.763 11.2006 172.564 10.7441 172.138C10.3166 171.738 9.79342 171.212 9.19238 170.585C7.99061 169.331 6.5293 167.726 4.98418 166.029L3.91913 166.999ZM10.8385 174.066L10.1187 175.314C11.3981 176.052 13.5292 176.9 15.7485 177.52C17.9475 178.133 20.4501 178.584 22.4313 178.377L22.282 176.945L22.1327 175.512C20.7014 175.661 18.6223 175.33 16.5226 174.745C14.4432 174.165 12.5588 173.396 11.5582 172.819L10.8385 174.066ZM22.282 176.945L22.4313 178.377C23.3026 178.287 24.2036 177.753 24.9606 177.221C25.7843 176.642 26.7066 175.865 27.6693 174.988C29.5963 173.233 31.8122 170.963 33.9149 168.809L32.8843 167.802L31.8536 166.796C29.7327 168.969 27.581 171.172 25.7296 172.858C24.803 173.702 23.9834 174.387 23.3041 174.864C22.9649 175.102 22.6844 175.272 22.4619 175.382C22.2261 175.499 22.1262 175.513 22.1327 175.512L22.282 176.945ZM32.8843 167.802L33.915 168.809C35.6696 167.011 37.3442 165.296 38.7582 163.967C39.4651 163.303 40.0857 162.755 40.6027 162.351C41.1547 161.919 41.4715 161.745 41.5902 161.704L41.1171 160.343L40.644 158.983C40.043 159.192 39.4078 159.628 38.8274 160.082C38.212 160.563 37.5197 161.178 36.7852 161.868C35.3165 163.249 33.5942 165.013 31.8536 166.796L32.8843 167.802ZM41.1171 160.343L41.5902 161.704C42.1646 161.504 43.2231 161.414 44.7114 161.445C46.1472 161.474 47.7841 161.607 49.4181 161.74L49.5349 160.304L49.6516 158.869C48.0395 158.737 46.3106 158.596 44.7706 158.565C43.2831 158.534 41.7557 158.596 40.644 158.983L41.1171 160.343ZM49.5349 160.304L49.4181 161.74C50.8427 161.856 52.2743 161.973 53.4869 162.006C54.095 162.023 54.6766 162.02 55.1947 161.981C55.6928 161.943 56.2263 161.866 56.6903 161.689L56.1778 160.343L55.6653 158.997C55.5869 159.027 55.3777 159.078 54.9774 159.108C54.597 159.137 54.1243 159.142 53.5664 159.126C52.447 159.095 51.0997 158.986 49.6516 158.869L49.5349 160.304ZM56.1778 160.343L56.6903 161.689C57.5011 161.381 58.1595 160.769 58.6754 160.156C59.2077 159.523 59.6913 158.763 60.1222 157.988C60.9828 156.441 61.7276 154.66 62.2761 153.352L60.9477 152.795L59.6193 152.238C59.0596 153.573 58.3744 155.203 57.6046 156.588C57.2204 157.278 56.8387 157.864 56.4707 158.302C56.0864 158.759 55.8096 158.942 55.6653 158.997L56.1778 160.343ZM60.9477 152.795L62.2761 153.352C62.5125 152.788 62.7065 152.326 62.8657 151.979L61.5567 151.378L60.2477 150.777C60.0638 151.178 59.8487 151.691 59.6193 152.238L60.9477 152.795ZM61.5567 151.378L62.8657 151.979C63.0284 151.625 63.1485 151.092 63.2461 150.601C63.3557 150.05 63.4733 149.348 63.5961 148.536C63.8422 146.909 64.1179 144.787 64.4019 142.429C64.9703 137.712 65.5771 132.01 66.054 127.362L64.6211 127.215L63.1882 127.068C62.7118 131.711 62.107 137.393 61.5418 142.085C61.259 144.432 60.9873 146.521 60.7477 148.105C60.6277 148.898 60.5178 149.551 60.4206 150.04C60.3114 150.589 60.2452 150.783 60.2477 150.777L61.5567 151.378ZM72.4018 123.977L71.8318 122.654C69.281 123.753 66.4727 124.963 64.1054 125.87L64.6211 127.215L65.1368 128.56C67.5699 127.627 70.4358 126.392 72.9718 125.299L72.4018 123.977ZM79.3164 121.286L79.495 119.857C79.1575 119.815 78.8382 119.884 78.6918 119.918C78.493 119.963 78.2748 120.028 78.0536 120.101C77.6083 120.248 77.0521 120.459 76.4288 120.71C75.1784 121.212 73.5608 121.909 71.8318 122.654L72.4018 123.977L72.9718 125.299C74.7134 124.549 76.2929 123.868 77.5021 123.383C78.1086 123.139 78.5978 122.955 78.9554 122.837C79.1357 122.778 79.2584 122.743 79.3326 122.726C79.4593 122.697 79.3451 122.742 79.1377 122.716L79.3164 121.286ZM82.7603 124.272L83.8496 123.33C83.21 122.591 82.5378 121.811 81.8957 121.208C81.3102 120.657 80.4789 119.98 79.495 119.857L79.3164 121.286L79.1377 122.716C79.1184 122.713 79.3542 122.772 79.9223 123.306C80.4336 123.787 81.0011 124.441 81.671 125.215L82.7603 124.272ZM88.666 128.653V127.212C88.1289 127.212 87.4263 126.903 86.5138 126.13C85.6239 125.376 84.7505 124.371 83.8496 123.33L82.7603 124.272L81.671 125.215C82.5378 126.217 83.5594 127.402 84.6515 128.328C85.721 129.234 87.0874 130.093 88.666 130.093V128.653ZM103.116 119.02C102.155 117.946 102.155 117.946 102.155 117.946C102.155 117.946 102.155 117.946 102.155 117.946C102.155 117.947 102.154 117.947 102.154 117.947C102.153 117.948 102.151 117.95 102.149 117.952C102.144 117.956 102.137 117.963 102.127 117.971C102.108 117.989 102.078 118.015 102.039 118.049C101.962 118.118 101.847 118.219 101.698 118.349C101.401 118.608 100.972 118.979 100.445 119.425C99.3898 120.319 97.9485 121.507 96.3975 122.692C94.8409 123.881 93.2011 125.046 91.7445 125.908C91.0157 126.339 90.3595 126.677 89.8012 126.905C89.2189 127.142 88.8513 127.212 88.666 127.212V128.653V130.093C89.4016 130.093 90.1761 129.863 90.8876 129.573C91.6231 129.273 92.4123 128.86 93.2108 128.387C94.8087 127.443 96.5511 126.2 98.1465 124.981C99.7475 123.758 101.228 122.537 102.306 121.624C102.846 121.167 103.287 120.786 103.593 120.519C103.746 120.385 103.866 120.279 103.948 120.207C103.989 120.171 104.021 120.143 104.042 120.123C104.053 120.114 104.061 120.107 104.067 120.101C104.07 120.099 104.072 120.097 104.073 120.096C104.074 120.095 104.075 120.094 104.075 120.094C104.075 120.094 104.076 120.094 104.076 120.093C104.076 120.093 104.076 120.093 103.116 119.02ZM117.565 128.653V127.212C117.589 127.212 117.376 127.19 116.817 126.932C116.319 126.701 115.698 126.357 114.984 125.919C113.559 125.047 111.869 123.869 110.234 122.673C108.604 121.481 107.05 120.287 105.902 119.39C105.328 118.942 104.857 118.568 104.53 118.307C104.366 118.177 104.239 118.075 104.152 118.005C104.109 117.971 104.076 117.944 104.054 117.926C104.043 117.917 104.035 117.911 104.03 117.906C104.027 117.904 104.025 117.903 104.024 117.902C104.023 117.901 104.022 117.901 104.022 117.9C104.022 117.9 104.022 117.9 104.022 117.9C104.022 117.9 104.022 117.9 103.116 119.02C102.209 120.139 102.209 120.139 102.209 120.14C102.21 120.14 102.21 120.14 102.21 120.14C102.21 120.14 102.211 120.141 102.212 120.141C102.213 120.143 102.216 120.145 102.219 120.147C102.225 120.152 102.234 120.159 102.245 120.168C102.269 120.187 102.303 120.215 102.347 120.251C102.437 120.322 102.567 120.427 102.734 120.56C103.067 120.826 103.546 121.205 104.128 121.66C105.29 122.569 106.871 123.783 108.534 124.999C110.192 126.212 111.955 127.442 113.479 128.376C114.239 128.841 114.966 129.25 115.607 129.546C116.187 129.814 116.903 130.093 117.565 130.093V128.653ZM124.658 126.935L124.252 125.554C122.791 125.984 121.358 126.405 120.134 126.72C118.857 127.049 117.984 127.212 117.565 127.212V128.653V130.093C118.406 130.093 119.625 129.826 120.852 129.51C122.134 129.18 123.618 128.743 125.065 128.317L124.658 126.935ZM131.731 125.253L131.817 123.815C131.358 123.788 130.824 123.856 130.317 123.946C129.785 124.041 129.178 124.18 128.534 124.344C127.249 124.671 125.735 125.117 124.252 125.554L124.658 126.935L125.065 128.317C126.564 127.876 128.022 127.447 129.245 127.136C129.856 126.98 130.388 126.859 130.822 126.782C131.281 126.7 131.54 126.684 131.646 126.691L131.731 125.253ZM136.921 127.978L137.69 126.76C136.6 126.072 135.505 125.381 134.56 124.857C134.086 124.594 133.621 124.357 133.192 124.178C132.787 124.009 132.301 123.844 131.817 123.815L131.731 125.253L131.646 126.691C131.642 126.69 131.77 126.706 132.085 126.837C132.374 126.958 132.734 127.138 133.162 127.376C134.022 127.853 135.041 128.495 136.153 129.196L136.921 127.978ZM144.481 131.486L144.147 130.085C144.164 130.081 143.994 130.111 143.52 129.965C143.085 129.831 142.542 129.595 141.904 129.268C140.627 128.611 139.157 127.686 137.69 126.76L136.921 127.978L136.153 129.196C137.589 130.103 139.174 131.104 140.588 131.83C141.295 132.193 142.007 132.513 142.672 132.718C143.298 132.911 144.072 133.064 144.815 132.887L144.481 131.486ZM145.756 121.543H144.315C144.315 123.985 144.314 126.324 144.161 128.091C144.084 128.983 143.975 129.636 143.844 130.051C143.779 130.259 143.73 130.332 143.732 130.329C143.738 130.321 143.864 130.152 144.147 130.085L144.481 131.486L144.815 132.887C145.417 132.744 145.821 132.359 146.071 132.01C146.317 131.669 146.478 131.278 146.592 130.918C146.819 130.196 146.949 129.29 147.031 128.339C147.197 126.421 147.196 123.94 147.196 121.543H145.756ZM147.031 111.37L146.544 110.014C145.99 110.213 145.63 110.607 145.404 110.952C145.179 111.297 145.025 111.688 144.914 112.058C144.691 112.8 144.562 113.721 144.48 114.692C144.314 116.648 144.315 119.145 144.315 121.543H145.756H147.196C147.196 119.103 147.197 116.743 147.35 114.936C147.427 114.026 147.537 113.34 147.673 112.887C147.741 112.66 147.797 112.556 147.815 112.528C147.834 112.5 147.752 112.641 147.518 112.726L147.031 111.37ZM157.16 113.515L157.559 112.131C155.277 111.474 153.005 110.82 151.152 110.385C150.227 110.168 149.368 109.996 148.644 109.909C147.998 109.831 147.194 109.781 146.544 110.014L147.031 111.37L147.518 112.726C147.463 112.745 147.65 112.691 148.299 112.769C148.869 112.838 149.609 112.982 150.494 113.189C152.261 113.604 154.457 114.236 156.761 114.9L157.16 113.515ZM169.413 115.903L168.799 114.6C168.808 114.596 168.534 114.678 167.729 114.606C167.009 114.541 166.084 114.377 164.997 114.133C162.826 113.648 160.184 112.887 157.559 112.131L157.16 113.515L156.761 114.9C159.361 115.648 162.094 116.436 164.368 116.945C165.503 117.199 166.568 117.394 167.47 117.475C168.287 117.549 169.268 117.564 170.028 117.206L169.413 115.903ZM170.829 99.8413L169.389 99.8906C169.494 102.957 169.621 106.685 169.486 109.756C169.418 111.298 169.286 112.605 169.074 113.552C168.968 114.028 168.855 114.351 168.754 114.548C168.644 114.766 168.626 114.682 168.799 114.6L169.413 115.903L170.028 117.206C170.685 116.896 171.08 116.33 171.322 115.854C171.574 115.358 171.753 114.777 171.886 114.181C172.153 112.986 172.294 111.479 172.364 109.882C172.505 106.677 172.373 102.83 172.269 99.792L170.829 99.8413ZM170.83 94.3706L169.467 93.9044C169.349 94.2485 169.32 94.6738 169.305 94.9733C169.288 95.3331 169.284 95.772 169.289 96.2601C169.298 97.2379 169.342 98.5009 169.389 99.8906L170.829 99.8413L172.269 99.792C172.22 98.3887 172.179 97.1666 172.17 96.2324C172.165 95.7646 172.169 95.3908 172.183 95.1143C172.199 94.7775 172.225 94.7429 172.193 94.8368L170.83 94.3706ZM180.587 94.9864L180.796 93.5611C178.391 93.2096 175.972 92.8557 174.122 92.6893C173.205 92.6069 172.359 92.5635 171.697 92.6041C171.375 92.6239 171.008 92.6678 170.672 92.7797C170.404 92.8688 169.728 93.1411 169.467 93.9044L170.83 94.3706L172.193 94.8368C172.094 95.1259 171.915 95.3045 171.793 95.3959C171.679 95.4812 171.59 95.5102 171.581 95.5133C171.569 95.5174 171.647 95.4935 171.873 95.4795C172.31 95.4528 172.979 95.479 173.864 95.5585C175.616 95.7161 177.944 96.0558 180.379 96.4116L180.587 94.9864ZM191.604 95.6142L190.333 94.9371C190.544 94.5402 190.868 94.4753 190.769 94.5063C190.725 94.5205 190.586 94.5512 190.31 94.5693C189.769 94.6047 188.978 94.5764 187.973 94.4897C185.976 94.3176 183.39 93.9403 180.796 93.5611L180.587 94.9864L180.379 96.4116C182.944 96.7866 185.625 97.1789 187.725 97.3599C188.768 97.4499 189.734 97.494 190.498 97.4439C190.875 97.4192 191.275 97.3677 191.637 97.2533C191.946 97.1557 192.543 96.916 192.876 96.2912L191.604 95.6142ZM187.513 82.1392L186.159 82.6319C187.296 85.7553 188.429 88.8693 189.219 91.3153C189.616 92.5418 189.913 93.5638 190.082 94.3174C190.168 94.6976 190.211 94.9684 190.224 95.1425C190.231 95.2292 190.228 95.2593 190.229 95.2485C190.229 95.2413 190.233 95.2104 190.245 95.1628C190.256 95.1166 190.281 95.0352 190.333 94.9372L191.604 95.6142L192.876 96.2912C193.033 95.9966 193.08 95.7052 193.097 95.5151C193.116 95.3087 193.111 95.1035 193.096 94.918C193.067 94.5475 192.992 94.1256 192.893 93.6867C192.695 92.8021 192.365 91.6801 191.961 90.4299C191.151 87.9226 189.997 84.7527 188.866 81.6465L187.513 82.1392ZM183.579 69.4381L182.209 68.9944C182.065 69.4384 182.103 69.9096 182.136 70.1958C182.176 70.5424 182.255 70.9364 182.354 71.3516C182.554 72.1858 182.869 73.2328 183.25 74.4006C184.015 76.7411 185.089 79.6909 186.159 82.6319L187.513 82.1392L188.866 81.6465C187.79 78.6899 186.735 75.7908 185.988 73.506C185.614 72.3611 185.328 71.4014 185.156 70.6816C185.069 70.3197 185.02 70.0499 184.998 69.8642C184.969 69.6181 185.012 69.6886 184.95 69.8818L183.579 69.4381ZM191.699 65.0287L191.102 63.7178C188.998 64.6758 186.999 65.5857 185.493 66.3627C184.743 66.7497 184.072 67.1257 183.556 67.4772C183.299 67.6523 183.046 67.8448 182.831 68.0527C182.642 68.2355 182.352 68.5523 182.209 68.9944L183.579 69.4381L184.95 69.8818C184.874 70.115 184.757 70.1976 184.834 70.1229C184.885 70.0733 184.992 69.9849 185.178 69.858C185.549 69.6056 186.097 69.2928 186.814 68.9227C188.243 68.1856 190.168 67.3087 192.296 66.3396L191.699 65.0287ZM205.679 56.4052L204.244 56.2728C204.25 56.2109 204.263 56.2749 204.111 56.4825C203.964 56.6821 203.72 56.9375 203.353 57.2437C202.62 57.8567 201.552 58.5447 200.235 59.2827C197.607 60.7547 194.227 62.2951 191.102 63.7178L191.699 65.0287L192.296 66.3396C195.388 64.9315 198.889 63.3388 201.643 61.796C203.016 61.0266 204.264 60.2368 205.2 59.4543C205.669 59.0627 206.099 58.6409 206.431 58.1903C206.756 57.7479 207.053 57.1888 207.113 56.5376L205.679 56.4052ZM193.477 41.6002L192.458 42.6181C195.262 45.4252 198.331 48.4995 200.674 51.1639C201.847 52.4985 202.804 53.6916 203.446 54.6699C203.768 55.1596 203.987 55.5603 204.117 55.872C204.257 56.2082 204.24 56.3179 204.244 56.2728L205.679 56.4052L207.113 56.5376C207.172 55.9003 206.99 55.278 206.776 54.7649C206.552 54.2271 206.23 53.6611 205.854 53.089C205.103 51.9435 204.043 50.6326 202.837 49.2616C200.422 46.5145 197.281 43.3708 194.497 40.5824L193.477 41.6002ZM186.413 33.7393L184.983 33.9167C185.035 34.3301 185.222 34.687 185.35 34.906C185.499 35.1614 185.688 35.4293 185.894 35.697C186.309 36.2343 186.871 36.8738 187.522 37.5753C188.826 38.9818 190.586 40.7438 192.458 42.6181L193.477 41.6002L194.497 40.5824C192.611 38.6939 190.894 36.9748 189.634 35.6161C189.002 34.935 188.51 34.371 188.176 33.9381C188.008 33.7206 187.901 33.5617 187.839 33.4555C187.756 33.3128 187.819 33.3732 187.842 33.5619L186.413 33.7393ZM190.767 27.8165L189.715 26.8327C188.613 28.0108 187.445 29.2586 186.573 30.3573C186.138 30.9058 185.739 31.4636 185.453 31.993C185.199 32.4645 184.89 33.1667 184.983 33.9167L186.413 33.7393L187.842 33.5619C187.866 33.7528 187.788 33.733 187.988 33.3616C188.158 33.048 188.438 32.6419 188.83 32.1474C189.613 31.1602 190.691 30.0058 191.819 28.8003L190.767 27.8165ZM194.912 22.1231L193.524 22.5075C193.435 22.1855 193.591 22.0778 193.41 22.4297C193.27 22.7012 193.019 23.0747 192.644 23.5502C191.897 24.4966 190.841 25.628 189.715 26.8327L190.767 27.8165L191.819 28.8003C192.917 27.6257 194.068 26.3964 194.906 25.3339C195.323 24.805 195.707 24.2621 195.972 23.7467C196.196 23.3117 196.524 22.5467 196.301 21.7387L194.912 22.1231ZM182.972 18.7801L182.719 20.198C185.254 20.6517 188.103 21.1622 190.361 21.7136C191.495 21.9907 192.422 22.2645 193.064 22.5262C193.389 22.6586 193.583 22.765 193.681 22.8333C193.822 22.9316 193.617 22.843 193.524 22.5074L194.912 22.1231L196.301 21.7387C196.12 21.0859 195.634 20.6832 195.33 20.4709C194.983 20.2289 194.569 20.0285 194.152 19.8585C193.31 19.5156 192.22 19.2022 191.044 18.915C188.681 18.3379 185.736 17.8113 183.226 17.3622L182.972 18.7801ZM177.346 17.5899L176.752 18.9021C177.267 19.1351 178.18 19.3406 179.116 19.5298C180.121 19.7331 181.378 19.9581 182.719 20.198L182.972 18.7801L183.226 17.3622C181.875 17.1203 180.654 16.9016 179.686 16.7061C179.203 16.6084 178.799 16.5195 178.482 16.4395C178.325 16.3996 178.198 16.3642 178.1 16.3334C178.051 16.3182 178.013 16.3053 177.985 16.2949C177.97 16.2898 177.96 16.2856 177.952 16.2825C177.948 16.281 177.945 16.2798 177.943 16.2789C177.941 16.2781 177.94 16.2777 177.94 16.2777L177.346 17.5899ZM176.377 12.3021L174.937 12.3063C174.94 13.5197 174.942 14.834 175.078 15.8989C175.145 16.4318 175.257 16.9932 175.465 17.4887C175.669 17.9743 176.045 18.582 176.752 18.9021L177.346 17.5899L177.94 16.2777C178.17 16.3816 178.187 16.5312 178.121 16.3735C178.059 16.2257 177.989 15.9587 177.935 15.5345C177.827 14.6855 177.821 13.5721 177.818 12.2979L176.377 12.3021ZM175.363 6.25694L174.415 7.34119C174.402 7.32977 174.481 7.39762 174.58 7.68394C174.675 7.95913 174.754 8.33854 174.811 8.82872C174.928 9.81704 174.933 11.0208 174.937 12.3063L176.377 12.3021L177.818 12.2978C177.814 11.0592 177.812 9.67719 177.672 8.49237C177.602 7.89599 177.492 7.29198 177.304 6.7462C177.12 6.21156 176.824 5.62089 176.311 5.17268L175.363 6.25694ZM157.638 8.30441L157.912 9.71858C161.494 9.02507 165.564 8.23773 168.897 7.76323C170.568 7.52538 172.009 7.37294 173.09 7.34435C173.633 7.32997 174.039 7.34851 174.317 7.38856C174.66 7.43806 174.585 7.4903 174.415 7.34119L175.363 6.25694L176.311 5.17268C175.817 4.74036 175.169 4.60096 174.728 4.53731C174.222 4.46422 173.634 4.44811 173.014 4.46452C171.766 4.49752 170.197 4.66841 168.491 4.91115C165.072 5.39781 160.927 6.20062 157.364 6.89025L157.638 8.30441ZM149.581 9.65682V11.0972C150.267 11.0972 151.467 10.9148 152.836 10.6749C154.258 10.4259 156.019 10.085 157.912 9.71858L157.638 8.30441L157.364 6.89025C155.462 7.25839 153.73 7.5937 152.339 7.83727C150.897 8.08995 149.965 8.2164 149.581 8.2164V9.65682ZM140.243 5.80104L139.609 7.09413C141.603 8.0729 143.6 9.05301 145.284 9.78694C146.127 10.1541 146.918 10.4714 147.611 10.6992C148.267 10.9152 148.968 11.0972 149.581 11.0972V9.65682V8.2164C149.453 8.2164 149.118 8.1623 148.511 7.96265C147.94 7.77475 147.241 7.49685 146.435 7.14587C144.823 6.44355 142.891 5.49577 140.878 4.50794L140.243 5.80104ZM129.465 1.44043V2.88084C129.708 2.88084 130.173 2.96266 130.898 3.19398C131.595 3.41592 132.427 3.74068 133.364 4.14345C135.238 4.94962 137.425 6.02222 139.609 7.09413L140.243 5.80104L140.878 4.50794C138.712 3.44517 136.456 2.33746 134.502 1.497C133.524 1.07645 132.596 0.71132 131.773 0.449184C130.98 0.196435 130.168 1.52588e-05 129.465 1.52588e-05V1.44043ZM119.73 6.05429L120.465 7.29267C122.335 6.18219 124.234 5.0549 125.907 4.20293C126.742 3.77763 127.491 3.43649 128.128 3.2044C128.791 2.9634 129.225 2.88084 129.465 2.88084V1.44043V1.52588e-05C128.72 1.52588e-05 127.91 0.218192 127.143 0.497288C126.352 0.785302 125.487 1.18363 124.599 1.63579C122.826 2.53875 120.842 3.71839 118.994 4.81591L119.73 6.05429ZM112.465 9.65682V11.0972C113.047 11.0972 113.662 10.9037 114.187 10.6993C114.749 10.4801 115.377 10.178 116.034 9.83357C117.348 9.14532 118.9 8.22248 120.465 7.29267L119.73 6.05429L118.994 4.81591C117.407 5.75851 115.928 6.63693 114.697 7.28184C114.082 7.60403 113.56 7.85143 113.14 8.0152C112.931 8.09667 112.765 8.15049 112.638 8.18273C112.505 8.21661 112.454 8.2164 112.465 8.2164V9.65682ZM103.545 6.20105L102.958 7.51665C104.986 8.42069 106.95 9.29633 108.553 9.94491C109.355 10.2691 110.09 10.5464 110.714 10.7448C111.29 10.9279 111.928 11.0972 112.465 11.0972V9.65682V8.2164C112.468 8.2164 112.397 8.21423 112.222 8.17588C112.059 8.13996 111.848 8.08228 111.587 7.99939C111.065 7.83339 110.407 7.58713 109.633 7.27425C108.087 6.64871 106.175 5.79647 104.131 4.88545L103.545 6.20105ZM90.6493 1.44043V2.88084C90.9872 2.88084 91.5907 2.98696 92.4837 3.25003C93.3459 3.50403 94.3725 3.87173 95.5122 4.31905C97.7925 5.21405 100.43 6.38968 102.958 7.51665L103.545 6.20105L104.131 4.88545C101.619 3.76569 98.918 2.561 96.5647 1.63738C95.3876 1.17539 94.2739 0.774195 93.2978 0.486629C92.3525 0.20814 91.4199 1.52588e-05 90.6493 1.52588e-05V1.44043ZM82.4327 6.08025L83.3102 7.2225C84.7661 6.10399 86.2167 4.9913 87.5658 4.15326C88.9737 3.2787 90.0022 2.88084 90.6493 2.88084V1.44043V1.52588e-05C89.1192 1.52588e-05 87.481 0.814539 86.0457 1.70613C84.5516 2.63424 82.9825 3.84145 81.5551 4.938L82.4327 6.08025ZM76.4831 9.65682V11.0972C77.097 11.0972 77.693 10.9017 78.2005 10.6771C78.7262 10.4446 79.2729 10.1279 79.8163 9.77645C80.8983 9.07672 82.1126 8.14255 83.3102 7.2225L82.4327 6.08025L81.5551 4.938C80.3285 5.88036 79.2151 6.73447 78.2519 7.35742C77.7727 7.66732 77.3674 7.89555 77.035 8.04261C76.6845 8.19767 76.5163 8.2164 76.4831 8.2164V9.65682ZM70.7877 8.00267L70.289 9.354C71.425 9.7732 72.5825 10.2008 73.6103 10.5217C74.598 10.8302 75.6356 11.0972 76.4831 11.0972V9.65682V8.2164C76.1176 8.2164 75.453 8.07913 74.469 7.77186C73.5252 7.47713 72.4415 7.07762 71.2864 6.65133L70.7877 8.00267ZM63.1669 6.25694L63.744 7.57668C63.7315 7.58218 63.7676 7.56437 63.8815 7.55382C63.9932 7.54348 64.1492 7.54286 64.3564 7.56149C64.7757 7.59919 65.3095 7.70647 65.9493 7.87974C67.2321 8.22712 68.7416 8.78292 70.289 9.354L70.7877 8.00267L71.2864 6.65133C69.7739 6.09316 68.1344 5.48686 66.7024 5.09907C65.9848 4.90476 65.2699 4.75119 64.6144 4.69224C63.99 4.63609 63.2507 4.64816 62.5898 4.93719L63.1669 6.25694ZM61.2783 12.2417L62.7079 12.4184C62.8771 11.0488 63.0357 9.7853 63.2873 8.79787C63.4125 8.30674 63.5429 7.95955 63.6666 7.73576C63.7949 7.50379 63.844 7.53296 63.744 7.57668L63.1669 6.25694L62.5898 4.93719C61.8825 5.24648 61.4334 5.82109 61.1455 6.34177C60.8531 6.87061 60.6494 7.48327 60.4957 8.0865C60.1896 9.2878 60.0112 10.7512 59.8488 12.065L61.2783 12.2417ZM59.7671 17.5899L60.5204 18.8176C61.09 18.4681 61.4333 17.9303 61.6492 17.4777C61.8736 17.0073 62.0339 16.4719 62.1578 15.9424C62.4043 14.8885 62.5609 13.6079 62.7079 12.4184L61.2783 12.2417L59.8488 12.065C59.6958 13.3028 59.5567 14.414 59.3527 15.2862C59.2513 15.7198 59.1475 16.0311 59.0492 16.2372C58.9424 16.461 58.9043 16.4294 59.0138 16.3622L59.7671 17.5899ZM50.2951 15.7655L49.8922 17.1485C51.9235 17.7402 54.0815 18.3696 55.863 18.768C56.7514 18.9667 57.5967 19.1199 58.3141 19.1759C58.6729 19.204 59.038 19.211 59.3817 19.1749C59.7059 19.1409 60.1299 19.0572 60.5204 18.8176L59.7671 17.5899L59.0138 16.3621C59.146 16.2811 59.208 16.2965 59.0807 16.3099C58.9728 16.3212 58.7967 16.324 58.5386 16.3039C58.0222 16.2635 57.331 16.1444 56.4919 15.9567C54.8184 15.5824 52.7571 14.9825 50.698 14.3826L50.2951 15.7655Z" fill="black"/>
</svg>
